<svg transform="scale(1)" xmlns="http://www.w3.org/2000/svg" viewBox="0 0 100 100" id="jnqA71BxZZ" class="pbimage_pbimage__wrapper__image__0LEis false"><title>Drone Delivery</title><defs><style> .cls-1{fill:#3fe2fd;} .cls-2{fill:#251ac7;}
 .cls-2{fill:#3563E9;}
 .cls-1{fill:#00C3D0;}</style></defs><g id="_0608_Drone_Delivery" data-name="0608_Drone_Delivery"><g id="Layer_10" data-name="Layer 10"><rect class="cls-1" x="12.66" y="24.42" width="8.33" height="5.86" rx="2.3"></rect><rect class="cls-1" x="73.63" y="24.42" width="8.33" height="5.86" rx="2.3"></rect><polygon class="cls-1" points="44.78 51.53 39.45 51.53 39.45 29.86 44.78 24.42 44.78 51.53"></polygon><rect class="cls-1" x="35.93" y="61.73" width="4.96" height="25.96"></rect></g><g id="Layer_3" data-name="Layer 3"><path class="cls-2" d="M64.12,88.88H35.87a1.34,1.34,0,0,1-1.34-1.34V61.6a1.34,1.34,0,0,1,1.34-1.34H64.12a1.34,1.34,0,0,1,1.34,1.34V87.54A1.34,1.34,0,0,1,64.12,88.88ZM37.21,86.2H62.78V62.94H37.21Z"></path><path class="cls-2" d="M60.29,46.17H39.7a1.34,1.34,0,0,1-1.34-1.34V34A11.1,11.1,0,0,1,49.45,22.89h1.09A11.09,11.09,0,0,1,61.63,34V44.83A1.34,1.34,0,0,1,60.29,46.17ZM41,43.48H59V34a8.42,8.42,0,0,0-8.41-8.41H49.45A8.42,8.42,0,0,0,41,34Z"></path><path class="cls-2" d="M39.55,38.89H24.69a4.9,4.9,0,0,1-4.59-3.22l-1.63-4.48a1.34,1.34,0,1,1,2.49-1,.14.14,0,0,1,0,.06l1.64,4.49a2.23,2.23,0,0,0,2.07,1.45H39.56a1.34,1.34,0,0,1,0,2.68Z"></path><path class="cls-2" d="M24.08,32.07H16a4.42,4.42,0,0,1-4.42-4.42v-.34A4.42,4.42,0,0,1,16,22.89h8.08a4.42,4.42,0,0,1,4.42,4.42v.34A4.42,4.42,0,0,1,24.08,32.07ZM16,25.56a1.74,1.74,0,0,0-1.74,1.74v.35A1.74,1.74,0,0,0,16,29.39h8.08a1.74,1.74,0,0,0,1.74-1.74V27.3a1.74,1.74,0,0,0-1.74-1.74Z"></path><path class="cls-2" d="M20,25.57a1.34,1.34,0,0,1-1.34-1.34V12.46a1.34,1.34,0,1,1,2.68,0V24.23A1.34,1.34,0,0,1,20,25.57Z"></path><path class="cls-2" d="M30.72,18.91H9.35a1.34,1.34,0,0,1,0-2.68H30.72a1.34,1.34,0,1,1,0,2.68Z"></path><path class="cls-2" d="M75.31,38.89H60.45a1.34,1.34,0,1,1,0-2.68H75.31a2.24,2.24,0,0,0,2.07-1.45L79,30.27a1.33,1.33,0,0,1,1.69-.84,1.35,1.35,0,0,1,.85,1.7l0,.06L79.9,35.67A4.91,4.91,0,0,1,75.31,38.89Z"></path><path class="cls-2" d="M84,32.07H75.92a4.42,4.42,0,0,1-4.42-4.42v-.34a4.42,4.42,0,0,1,4.42-4.42H84a4.42,4.42,0,0,1,4.42,4.42v.34A4.42,4.42,0,0,1,84,32.07Zm-8.08-6.51a1.74,1.74,0,0,0-1.74,1.74v.35a1.74,1.74,0,0,0,1.74,1.74H84a1.74,1.74,0,0,0,1.74-1.74V27.3A1.74,1.74,0,0,0,84,25.56Z"></path><path class="cls-2" d="M80,25.57a1.34,1.34,0,0,1-1.34-1.34V12.46a1.34,1.34,0,1,1,2.68,0V24.23A1.34,1.34,0,0,1,80,25.57Z"></path><path class="cls-2" d="M90.65,18.91H69.28a1.34,1.34,0,0,1,0-2.68H90.65a1.34,1.34,0,1,1,0,2.68Z"></path><path class="cls-2" d="M60.29,52.82H39.7a1.34,1.34,0,0,1-1.34-1.34V44.83a1.34,1.34,0,0,1,1.34-1.35H60.29a1.34,1.34,0,0,1,1.34,1.35v6.65a1.34,1.34,0,0,1-1.34,1.34ZM41,50.14H59v-4H41Z"></path><path class="cls-2" d="M50,40.93a5.22,5.22,0,1,1,5.21-5.21A5.21,5.21,0,0,1,50,40.93Zm0-7.75a2.54,2.54,0,1,0,2.53,2.54A2.54,2.54,0,0,0,50,33.18Z"></path><path class="cls-2" d="M35.87,72.64a1.3,1.3,0,0,1-.94-.38L21.5,59a1.33,1.33,0,0,1,0-1.89.71.71,0,0,1,.13-.12L38.88,43.75a1.34,1.34,0,0,1,1.63,2.13l-16,12.31L36.81,70.35a1.34,1.34,0,0,1-.94,2.3Z"></path><path class="cls-2" d="M64.47,72.64a1.33,1.33,0,0,1-1.34-1.33,1.29,1.29,0,0,1,.4-1L75.87,58.19l-16-12.3a1.34,1.34,0,0,1,1.63-2.13L78.72,57A1.34,1.34,0,0,1,79,58.88a.53.53,0,0,1-.12.14L65.41,72.26A1.32,1.32,0,0,1,64.47,72.64Z"></path><path class="cls-2" d="M53.06,69.89H46.12a1.34,1.34,0,0,1-1.34-1.34V61.6a1.34,1.34,0,0,1,1.34-1.34h6.94A1.34,1.34,0,0,1,54.4,61.6v6.95A1.34,1.34,0,0,1,53.06,69.89Zm-5.6-2.68h4.26V62.94H47.47Z"></path><path class="cls-2" d="M58.21,81.78H53.87a1.34,1.34,0,1,1,0-2.68h4.34a1.34,1.34,0,0,1,0,2.68Z"></path></g></g></svg>