<svg transform="scale(1)" version="1.1" id="AbRbc2750n" xmlns="http://www.w3.org/2000/svg" xmlns:xlink="http://www.w3.org/1999/xlink" x="0px" y="0px" viewBox="0 0 500 500" xml:space="preserve" class="pbimage_pbimage__wrapper__image__0LEis false"><title>Order Delivered 4</title><style type="text/css"> .st0{fill:#FFFFFF;} .st1{fill:#000005;} .st2{fill:#59BE4C;}
 .st2{fill:#3563E9;}
 .st1{fill:#0D121F;}
 .st0{fill:#FFFFFF;}</style><g id="character"><path class="st0" d="M323.2,229.8c0,0-8.3-43.4,7.8-62.7c18.8-22.5,71.8-58.4,67.4-34C396.6,142.9,375,158,375,158s19-5.2,21.9,5
		s-4.4,13.6-4.4,13.6s8.9,3,4.2,15.9s-20.5,8.5-20.5,8.5s-1.9,22.3-30.3,22.6L323.2,229.8z" fill="#FFFFFF"></path><path class="st1" d="M325.5,229.1c-1.8-9.7-2.5-19.6-2-29.5c0.3-7.7,1.3-15.6,4.1-22.9c1.3-3.4,3.1-6.6,5.3-9.4
		c2.1-2.5,4.3-4.8,6.6-7.1c5.5-5.3,11.2-10.3,17.3-14.9c3.2-2.4,6.4-4.7,9.7-6.9c3-2,6.1-4,9-5.6c2.8-1.6,5.7-3,8.6-4.3
		c0.4-0.2-0.6,0.2,0.1,0l0.4-0.1l1-0.4c0.6-0.2,1.2-0.4,1.9-0.6c0.3-0.1,0.6-0.2,0.9-0.3l0.4-0.1c0.6-0.2-0.4,0.1,0,0
		c0.6-0.1,1.1-0.2,1.7-0.3l0.7-0.1c0.5-0.1-0.3,0,0.3,0c0.5,0,0.9,0,1.4,0s-0.2-0.1,0.3,0l0.6,0.1l0.5,0.2c0.5,0.2-0.1-0.1,0.3,0.1
		c1.1,0.7,1.9,1.9,2,3.2c0.6,5.9-3.9,10.7-7.8,14.6c-4.3,4.3-8.9,8.1-13.8,11.6l-0.9,0.6c-0.5,0.4-1.5,1.2-1.1,1.9s1.6,0.5,2.2,0.3
		l0.3-0.1c-1,0.3,0.1,0,0.4-0.1c1-0.2,2-0.4,3-0.6c2.7-0.5,5.5-0.6,8.2-0.3c2.5,0.3,5.3,1.2,6.8,3.4c1.9,3.1,2.3,7,0.9,10.4
		c-0.3,0.6-0.6,1.2-1.1,1.8l-0.2,0.3c0.3-0.4-0.1,0.1-0.1,0.1c-0.2,0.2-0.4,0.4-0.6,0.6c-0.4,0.4,0.4-0.3,0.1-0.1l-0.3,0.2
		c-0.1,0.1-0.3,0.2-0.5,0.3s0.7-0.4,0.2-0.1l-0.1,0.1c-0.8,0.4-2.8,2.1-1.1,2.7l0.3,0.1c0,0-0.3-0.2,0,0l0.4,0.2
		c0.8,0.5,1.5,1.1,2.1,1.8c2.1,2.4,2.3,5.8,1.8,8.8c-0.4,2.3-1.1,4.4-2.3,6.4c-0.4,0.7-0.9,1.3-1.5,1.8c-0.1,0.1-0.8,0.7-0.6,0.6
		c-0.2,0.2-0.4,0.3-0.6,0.4s-0.7,0.4-0.3,0.2c-0.4,0.2-0.7,0.4-1.1,0.6c-0.1,0-0.5,0.2,0,0c-0.2,0.1-0.4,0.1-0.6,0.2
		c-0.6,0.3-1.3,0.4-2,0.5c-2.9,0.5-5.9,0.3-8.7-0.4c-1.3-0.4-3.8,0.8-4,2.3c-0.1,0.5-0.1,1-0.2,1.5c0,0.1-0.1,0.6,0,0.1l-0.1,0.4
		c-0.1,0.3-0.2,0.6-0.3,1c-0.2,0.7-0.5,1.4-0.7,2.1c-0.6,1.7-1.5,3.3-2.5,4.8c-0.3,0.4-0.6,0.9-1,1.3c-0.2,0.2-0.3,0.4-0.5,0.6
		l-0.3,0.3c-0.2,0.3,0,0-0.1,0.1c-0.4,0.4-0.8,0.9-1.3,1.3l-0.6,0.6c-0.1,0.1-0.8,0.7-0.6,0.5c-0.5,0.4-1,0.8-1.5,1.1l-0.8,0.5
		c-0.2,0.2-0.5,0.3-0.7,0.4c-1.2,0.7-2.5,1.2-3.8,1.7c-3.5,1.2-7.1,1.8-10.8,1.9c-1.6,0.1-3.2,0.4-4.7,0.9l-7.2,2l-12.9,3.6
		c-0.9,0.2-2.4,1.1-2.4,2.2s1.6,0.9,2.3,0.7l11.5-3.2l7.8-2.2l2.6-0.7l0.7-0.2c0.8-0.2-1.3,0-0.1,0.1c2.2,0.1,4.4-0.1,6.6-0.6
		c1.9-0.3,3.8-0.7,5.6-1.3c3.2-1,6.3-2.5,9.1-4.4c4.2-2.9,7.5-6.8,9.5-11.4c1.1-2.3,1.8-4.7,2-7.2l-4,2.3c5.4,1.4,11,1,16.1-1.3
		c4.2-2.1,7.4-5.8,8.7-10.3c1.2-3.9,1.8-8.6-0.6-12.1c-1.1-1.7-2.7-3-4.6-3.7l-1.1,2.7c6.2-2.9,8.2-10.4,5.9-16.6
		c-2.5-6.6-11.7-6.6-17.5-5.9c-2.1,0.2-4.3,0.6-6.4,1.2l1.1,2.2c4.1-2.9,8.1-6.1,11.8-9.5c3-2.6,5.8-5.5,8.3-8.6
		c2-2.5,3.9-5.4,4.5-8.6c0.7-3.8-0.2-7.9-4.5-8.6c-5.2-0.9-10.9,1.6-15.5,3.7c-6.8,3.3-13.4,7.2-19.5,11.6
		c-6.9,4.8-13.4,10-19.6,15.5c-2.8,2.5-5.5,5.1-8.1,7.9c-2.6,2.5-4.8,5.3-6.8,8.3c-4.3,6.8-6.2,14.8-7.2,22.7
		c-1.3,12.3-0.9,24.7,1.3,36.8l0.1,0.6C321.2,232.6,325.8,230.7,325.5,229.1z" fill="#0D121F"></path><path class="st0" d="M332.5,182.9c0,0,10.3-8.3,20.2-9.3s16.5,5.2,14.1,10.5s-11,1.2-15.9,7c0,0,8.5-2.5,10.1,6" fill="#FFFFFF"></path><path class="st1" d="M333.9,183.9c0.1-0.1,0.3-0.2,0.5-0.4c-0.5,0.4-0.2,0.2,0.1-0.1l0.9-0.6c1.5-1.1,3.1-2.1,4.7-3
		c4-2.2,8.5-4.2,13.1-4.4c3.9-0.2,8.8,0.9,11.1,4.4c0.8,1.1,1,2.5,0.7,3.8c-0.1,0.2-0.2,0.4-0.3,0.7c0,0-0.5,0.6-0.2,0.3
		c-0.1,0.1-0.4,0.2,0,0c-0.5,0.3-1,0.5-1.6,0.6c-2.1,0.4-4.3,0.4-6.4,1c-2.8,0.7-5.4,2.2-7.3,4.4c-0.6,0.5-0.6,1.4-0.1,2
		c0.4,0.4,1,0.6,1.6,0.4c0.4-0.1,0.8-0.2,1.2-0.2c0.2,0,0.6,0,0.1,0h0.7c0.2,0,0.5,0,0.7,0h0.4c0.3,0-0.5-0.1,0.1,0
		c2.8,0.5,4.3,2.5,4.9,5.3c0.5,2.4,5,0.2,4.5-1.8c-0.7-3.5-2.8-6.4-6.5-7.1c-1.9-0.4-3.8-0.3-5.6,0.1l1.5,2.4c2.6-3,7.9-2,11.5-3.3
		c4.2-1.5,6.7-6.2,4.7-10.3s-7.3-6.1-11.6-6.4c-5.8-0.4-11.5,1.5-16.5,4.1c-3.4,1.7-6.6,3.8-9.6,6.1c-0.7,0.6-1.3,1.9-0.4,2.6
		S333.2,184.5,333.9,183.9L333.9,183.9z" fill="#0D121F"></path><path class="st1" d="M369.4,168.7c-2.3,4.1-4.7,11-0.4,14.6c2.8,2.4,7,2.6,10.4,1.7c3.8-1.1,7.4-3,10.5-5.4c3.8-2.7,7-6,9.4-9.9
		c0.9-1.5-3.8-2.9-4.6-1.7c-3.8,6.1-9.4,10.9-16,13.8c-1.3,0.6-2.8,1-4.2,1.2c-0.5,0.1-0.8-0.1-1.2,0h0.1c-0.4-0.1,0.4,0.1,0,0
		c-0.1,0-0.5-0.2-0.2-0.1s0,0-0.1-0.1c-2.2-1.6-1.8-5-1.2-7.3c0.5-2,1.3-3.9,2.3-5.7C374.8,168.7,370.2,167.1,369.4,168.7
		L369.4,168.7z" fill="#0D121F"></path><path class="st1" d="M366.1,184.6c-1.8,1.5-3.1,3.5-3.9,5.7c-1.2,3.7,1.1,6.9,4.2,8.7c6.3,3.7,15,3.9,21.9,2c3.8-1,7.5-2.8,9.8-6.1
		c1.1-1.6-3.6-2.8-4.7-1.3c-3.3,4.6-9.9,5.8-15.2,5.6c-2.6,0-5.1-0.6-7.4-1.6c-1.2-0.5-2.2-1.3-3-2.3c-0.8-1.1-1.1-2.5-0.7-3.8
		c0.4-1.4,1.1-2.6,2-3.7c0.4-0.5,0.8-1,1.3-1.4C372.1,184.9,367.5,183.5,366.1,184.6L366.1,184.6z" fill="#0D121F"></path><path class="st1" d="M366.6,165.9c0.6-0.3,1.2-0.7,1.8-1.1l3.7-2.3c2.7-1.7,5.5-3.4,8.2-5.2c0.7-0.5,1.4-0.9,2.2-1.4
		c0.8-0.5,1.1-1.6,0.6-2.4c-0.1-0.1-0.2-0.3-0.3-0.4c-0.8-1-2.2-1.4-3.4-0.9c-0.6,0.3-1.2,0.7-1.8,1.1l-3.7,2.3
		c-2.7,1.7-5.5,3.5-8.2,5.2c-0.7,0.5-1.5,0.9-2.2,1.3c-0.8,0.5-1.1,1.6-0.6,2.4c0.1,0.1,0.2,0.3,0.3,0.4
		C364.1,166,365.4,166.4,366.6,165.9L366.6,165.9z" fill="#0D121F"></path><path class="st1" d="M295.9,339l-187.4,92.1C-37.4,447.6,142.4,220,195,207.7c0,0,25.6-13,63.1,8.8c55.4,32.3,77.5,47,94.8,29.8
		l17.2,42.3C370.1,288.6,350.7,329.4,295.9,339z" fill="#0D121F"></path><path class="st1" d="M295.7,337.6l-10.2,5l-26.3,12.9l-36,17.7l-39.6,19.5l-36.4,17.9l-27.2,13.4l-8.2,4c-1.2,0.5-2.3,1-3.4,1.7
		h-0.1c1-0.9,1.1-0.2,0.7-0.3c-0.2,0-0.4,0-0.7,0.1l-1.6,0.2c-1.7,0.2-3.5,0.3-5.2,0.4c-3.2,0.2-6.4,0.2-9.5,0.1
		c-5.2-0.1-10.4-0.9-15.4-2.4c-7.4-2.2-14.1-6.6-18-13.5c-3.7-6.8-4.3-15.4-3.5-22.9c1.1-10.2,4.4-20.4,8.2-29.7
		c4.9-11.6,10.7-22.9,17.3-33.6c7.1-11.8,14.8-23.2,23.1-34.1c8.3-11.1,17.1-21.8,26.4-32.1c4.5-5,8.7-9.5,13.2-14.1
		c4.3-4.3,8.6-8.6,13.1-12.6c4-3.7,8.2-7.3,12.5-10.6l1.4-1.1l0.7-0.6c-0.6,0.5,0.3-0.2,0.4-0.3c1-0.7,2-1.5,2.9-2.2
		c1.8-1.3,3.7-2.6,5.6-3.8c0.9-0.6,1.8-1.1,2.6-1.6l1.2-0.7l0.6-0.3c0.7-0.4-0.3,0.2,0.3-0.1c1.6-0.9,3.2-1.7,4.9-2.4
		c0.4-0.2,0.8-0.3,1.1-0.5l0.5-0.2l0.2-0.1c0.6-0.2-0.4,0.1,0,0c0.7-0.2,1.4-0.5,2.1-0.7c0.9-0.3,1.9-0.6,2.8-1l0.8-0.3
		c0.6-0.3-0.4,0.1,0.1,0l0.6-0.2c1-0.3,2-0.6,3.1-0.9c2.8-0.7,5.7-1.2,8.6-1.4c9.2-0.6,18.5,0.5,27.3,3.4
		c12.9,4.1,24.2,11.6,35.8,18.3c9.7,5.7,19.4,11.3,29.3,16.5c7,3.7,14.2,7.2,21.8,9.4c5.5,1.6,11.2,2.5,16.9,1.3
		c5.2-1.2,10-3.9,13.8-7.8l-3.4,0.6l5.8,14.2l9.3,22.8l2,5.2l0.1-1.2c-0.7,1.4-1.5,2.8-2.3,4.1l-0.6,1l-0.3,0.4
		c-0.2,0.3-0.4,0.6-0.2,0.3c-0.5,0.8-1.1,1.6-1.7,2.4c-1.4,1.9-2.8,3.8-4.3,5.5c-1.9,2.3-3.7,4.2-5.6,6.1c-2.3,2.3-4.8,4.5-7.3,6.6
		c-5.9,4.8-12.2,8.9-19,12.3c-9.7,4.7-20,8-30.6,9.9c-1.2,0.3-2.2,1.1-2.6,2.3c-0.2,1.2,0.9,1.2,1.8,1.1
		c15.6-2.7,30.6-8.6,43.8-17.2c9.4-6.2,17.7-13.8,24.7-22.6c3-3.8,6.1-7.9,8.1-12.3c0.3-0.7,0.2-1.4-0.2-2l-1.5-3.6l-5.5-13.4
		l-6.1-15c-1.2-3-2.3-6.1-3.7-9.1c-0.1-0.1-0.1-0.3-0.2-0.4c-0.5-1.2-2.9,0.2-3.4,0.6s-1,0.9-1.5,1.4c-0.3,0.2-0.5,0.5-0.8,0.7
		l-0.3,0.2c-0.6,0.5,0.1-0.1-0.2,0.2s-1,0.7-1.5,1l-0.8,0.5c0,0-0.5,0.3-0.2,0.1s-0.2,0.1-0.3,0.2c-0.5,0.3-1,0.5-1.6,0.7
		c-0.1,0.1-1,0.4-0.4,0.1c-0.3,0.1-0.6,0.2-1,0.3c-0.5,0.2-1.1,0.3-1.7,0.4l-0.5,0.1c-0.5,0.1,0.3,0,0,0l-1,0.1
		c-2.5,0.3-5.1,0.2-7.6-0.2c-3.1-0.5-6.1-1.3-9.1-2.4c-8-2.8-15.6-6.8-23.1-10.9c-10.5-5.7-20.8-11.8-31.1-17.8
		c-6.1-3.5-12.2-7.3-18.6-10.3c-5.4-2.5-11.1-4.5-16.9-5.9c-8.4-2.1-17.1-2.6-25.7-1.4c-4.3,0.5-8.6,1.7-12.6,3.4
		c-0.1,0-0.2,0.1-0.4,0.2c-0.4,0.2,0.8-0.2,0.1-0.1c-0.7,0.2-1.4,0.4-2.1,0.6c-1.7,0.6-3.4,1.2-5,2c-8.3,3.8-15.8,9.4-22.9,15.1
		c-9.1,7.4-17.7,15.4-25.9,23.8c-9.5,9.8-18.6,20-27.2,30.6c-8.9,10.9-17.3,22.2-25.2,34C79.2,323.3,72.3,335,66.2,347
		c-5.4,10.3-9.7,21.2-12.9,32.4c-2.3,8.8-3.8,18.2-2.3,27.2c1.1,7.7,5.2,14.6,11.3,19.3c7.9,5.8,18.1,7.5,27.7,7.9
		c3.2,0.1,6.4,0.1,9.6-0.1c1.8-0.1,3.6-0.2,5.3-0.4c1.3,0,2.5-0.2,3.8-0.6c1.1-0.5,2.2-1.1,3.2-1.6l20-9.8l32.9-16.2l38.9-19.1
		l38.7-19l32.1-15.8l19-9.3l2.5-1.2c0.8-0.4,2.2-1.4,2-2.5S296.4,337.2,295.7,337.6z" fill="#0D121F"></path><path class="st2" d="M424.5,216.8c0,0-163.5,10.2-174.5,12.8s-87.5,42.6-85.9,52.2s31.9,145.8,44.1,155.7S357,449.1,357,449.1
		s72.2-64.4,69.7-68.6S429.1,216.5,424.5,216.8z" fill="#3563E9"></path><path class="st2" d="M426.1,215.5l-6.3,0.4l-16.7,1.1c-8,0.5-16,1-24,1.6c-9.5,0.6-19,1.2-28.4,1.9c-9.9,0.7-19.8,1.3-29.7,2
		c-9.2,0.7-18.5,1.3-27.7,2c-7.7,0.6-15.3,1.2-23,1.8c-5,0.4-10,0.9-15,1.5c-3.4,0.5-6.7,1.4-9.8,2.8c-7.4,3.1-14.5,6.7-21.6,10.4
		c-9.2,4.7-18.3,9.7-27.3,14.9c-8.1,4.6-15.9,9.6-23.4,15c-2.8,2-5.5,4.2-7.9,6.6c-1.3,1.3-3.1,3-3.4,4.9c0,1.2,0.2,2.4,0.5,3.5
		c0.4,2.1,0.9,4.1,1.3,6.2c1.4,6.7,2.9,13.4,4.5,20.1c2.1,9,4.2,17.9,6.3,26.9c2.4,10,4.9,20,7.5,29.9c2.5,9.6,5.1,19.3,7.9,28.9
		c2.3,8,4.8,15.9,7.6,23.7c1.8,5,3.6,10.3,6.5,14.9c0.7,1.2,1.7,2.3,2.9,3c1.6,0.9,3.4,1.5,5.2,1.9c6.2,1.5,12.5,2.6,18.8,3.2
		c8.8,1,17.6,1.7,26.4,2.4c9.9,0.7,19.9,1.2,29.8,1.7c9.6,0.5,19.2,0.8,28.8,1.1c7.8,0.3,15.6,0.5,23.3,0.6l13.7,0.3
		c0.7,0,1.4,0,2.2,0c1.9-0.3,3.5-2,5-3.3c4.2-3.8,8.4-7.6,12.6-11.4c6.7-6.1,13.3-12.2,19.9-18.3c6.8-6.4,13.5-12.7,20.1-19.3
		c4.8-4.6,9.4-9.4,13.7-14.5c0.8-1,2.2-2.5,2.3-3.8c-0.1-0.7-0.2-1.3-0.3-2c-0.4-3.9-0.4-7.9-0.4-11.9c-0.1-7,0-14,0-21
		c0-8.8,0.1-17.7,0.2-26.5c0.1-9.7,0.2-19.3,0.2-29c0.1-9.3,0.1-18.7,0.1-28.1c0-7.9,0-15.8-0.2-23.7c-0.1-5.5-0.2-11-0.7-16.4
		c-0.1-1.4-0.3-2.9-0.6-4.3C427.1,216.2,427,215.4,426.1,215.5c-1.1,0.2-2.2,0.8-3,1.6c-0.4,0.3-1.4,1.2-0.4,1.2
		c-0.4,0-0.2-0.1-0.1,0.1s0.2,0.4,0.2,0.6c0.2,0.7,0.3,1.4,0.4,2.1c0.4,2.6,0.5,5.2,0.6,7.8c0.4,8.9,0.5,17.9,0.5,26.8
		c0.1,11.9,0,23.8-0.1,35.6c-0.1,12.5-0.2,24.9-0.3,37.4c-0.1,10.6-0.2,21.2-0.2,31.8c0,6.3-0.1,12.7,0.4,19c0,0.6,0.1,1.3,0.2,1.9
		c0.1,0.5,0.2,0.6,0.2,0.9c-0.2,0.7-0.6,1.4-1.1,2c-0.9,1.2-1.8,2.3-2.8,3.4c-6.4,7.3-14.1,14.6-21.4,21.5
		c-8.8,8.4-17.7,16.6-26.6,24.8c-5.5,5-11.1,10-16.6,15l-0.8,0.8l3.7-1.9c-4.2-0.1-8.4-0.1-12.7-0.2c-10.4-0.2-20.8-0.5-31.1-0.9
		c-13.1-0.4-26.1-1-39.2-1.7c-12.5-0.7-24.9-1.5-37.3-2.9c-4.9-0.5-9.7-1.1-14.5-1.9c-3.5-0.5-6.9-1.2-10.2-2.2
		c-1.9-0.4-3.5-1.5-4.8-2.9c-1.6-2.3-3-4.8-4-7.5c-4-9.2-6.9-18.9-9.8-28.5c-3.8-12.7-7.2-25.4-10.5-38.2s-6.5-25.9-9.5-38.9
		c-2.4-10-4.6-20-6.8-30c-0.6-2.9-1.3-5.8-1.8-8.7c-0.1-0.8-0.3-1.5-0.4-2.3c-0.1-0.3-0.1-0.6,0-0.9c0.1-0.2,0.1-0.4,0.2-0.6
		c0.1-0.2,0.2-0.4,0.3-0.6c0.8-1.2,1.7-2.3,2.8-3.2c0.9-0.8,1-0.9,1.9-1.7s1.7-1.4,2.6-2.1c0.7-0.5,0.6-0.5,1.1-0.9l1.6-1.2
		c1.1-0.8,2.3-1.6,3.5-2.4c2.7-1.8,4.6-3,7.3-4.7c11.6-7.2,23-13.5,35.1-19.7c2.7-1.4,5.5-2.8,8.2-4.1l3.8-1.9l1.6-0.8l0.9-0.4
		c0.1,0,0.4-0.2,0,0l0.6-0.3c1.9-0.9,3.9-1.8,5.9-2.6c0.8-0.3,1.6-0.6,2.4-1l0.4-0.2c0.3-0.1-0.4,0.1,0.1,0l0.9-0.3l0.7-0.2
		c0.6-0.2-0.2,0,0.2,0l0.9-0.2c0.9-0.1,1.9-0.3,2.8-0.4c3-0.4,6.1-0.7,9.2-0.9c9.7-0.9,19.5-1.6,29.2-2.4c12.5-1,25.1-1.9,37.6-2.7
		c13-0.9,26-1.8,39-2.6c11-0.7,22-1.4,33-2.1l19.7-1.2l2.7-0.2c1.1-0.2,2.2-0.8,3-1.6C426.1,216.4,427.2,215.4,426.1,215.5z" fill="#3563E9"></path><path class="st0" d="M398.9,397.5c0,0-0.8-16.1-2.7-17.2s-29,18.4-29,18.4l2.1,24.4L398.9,397.5z" fill="#FFFFFF"></path><path class="st2" d="M400.9,398.8c-0.1-2.4-0.3-4.8-0.5-7.2c-0.2-1.9-0.4-3.7-0.7-5.6c-0.2-1.4-0.5-2.8-1.1-4.1
		c-0.7-1.5-2.4-3.2-4.1-3.4c-0.8,0-1.5,0.2-2.1,0.6c-2.5,1.2-4.9,2.6-7.1,4.2c-5.8,3.7-11.5,7.7-17.1,11.7l-2.2,1.6
		c-0.3,0.2-0.6,0.4-0.7,0.7c0,0.6,0,1.2,0.2,1.8l0.4,4l1.6,18.6c0.1,0.9,3,3.7,4,2.9l25.9-22.4l3.7-3.2c0.6-0.5-2.9-4-3.9-3.1
		l-25.9,22.4l-3.7,3.2l4,2.9l-1.4-15l-0.7-8.2c0-0.3,0-0.6-0.1-1c-0.1-0.3,0.1-0.3-0.1-0.1c0.3-0.3,0.6-0.5,1-0.7
		c4.7-3.4,9.5-6.7,14.4-10c4.2-2.8,8.4-5.9,13.2-7.7c0.2-0.1-0.2,0-0.1,0c0.7-0.5-2.7-1.8-2.7-2s0.2,0.4,0.2,0.5
		c0.2,0.7,0.4,1.3,0.5,2c0.4,1.9,0.6,3.9,0.8,5.8c0.3,2.6,0.5,5.3,0.6,8c0,0.9,1.4,1.9,2.1,2.3C399.2,398.6,401,399.6,400.9,398.8z" fill="#3563E9"></path><path class="st1" d="M422.1,216.1l-15.7,11.6l-31.4,23.2L351,268.7c-0.8,0.5-1.5,1-2.2,1.6c-0.5,0.5-0.1-0.1,0.4,0.1
		c-0.1,0-0.1,0-0.2,0c-1.4,0-2.9,0.2-4.3,0.2l-22.2,1.2l-34.5,2l-40.2,2.3l-38.7,2.2l-30.5,1.7l-15.4,0.9h-0.7c-0.9,0-1,0.4-0.2,0.9
		c1.1,0.6,2.2,0.9,3.4,0.8l10.7-0.6l27.5-1.6l37.5-2.1L282,276l36.5-2l25.7-1.5l6.6-0.4c0.9,0.1,1.7-0.1,2.5-0.4
		c2.2-1.4,4.2-3.1,6.3-4.7l12.5-9.2l31.8-23.5l21.6-16l1.1-0.8c0.6-0.4-1.3-1.1-1.5-1.1C424.5,216.2,422.8,215.6,422.1,216.1
		L422.1,216.1z" fill="#0D121F"></path><path class="st1" d="M359.1,450.3l-0.2-4.8l-0.4-12.9l-0.7-19.2l-0.8-23.4l-0.9-25.6l-0.9-25.7l-0.8-24.1l-0.7-20.4l-0.5-14.6
		c-0.1-2.3,0-4.7-0.2-7c0-0.1,0-0.2,0-0.3c0-0.8-1.7-1.7-2.3-2.1c-0.3-0.1-1.9-1.1-1.9-0.3l0.2,4.8l0.5,12.9l0.7,19.2l0.8,23.4
		l0.9,25.6l0.9,25.8l0.8,24.1l0.7,20.4l0.5,14.6c0.1,2.3,0,4.7,0.2,7c0,0.1,0,0.2,0,0.3c0,0.8,1.7,1.7,2.3,2.1
		C357.5,450.2,359.1,451.1,359.1,450.3L359.1,450.3z" fill="#0D121F"></path><path class="st0" d="M226.8,242c0,0,176-12.7,179.5-8.8s0.3,52.2,0.3,52.2l-6.3-0.8l-8.1,4.6l-7.5-2.9l-7.8,6.6l0.4-37.8L195,262.5
		C195,262.5,219.3,245.8,226.8,242z" fill="#FFFFFF"></path><path class="st0" d="M185.4,349.2c0,0,30.5-23.3,42.7-28.9s16.2,6.3,4.8,20.6c0,0,11.1-9.1,13.1,4.4s-14.1,30.6-14.1,30.6
		s25.5-11.7,27.2-1.7s-139.5,59.2-150.6,57s-12.8-73.2-8.4-77.7s68.3-7,68.3-7l4.8-14.2" fill="#FFFFFF"></path><path class="st1" d="M187.1,351.1c6.6-5.1,13.3-10,20.1-14.8c5-3.5,10-6.9,15.2-10.1c2.1-1.2,4.1-2.4,6.3-3.5
		c1.3-0.7,2.7-1.1,4.2-1.4c0.5-0.1,1-0.1,1.5,0l0.5,0.1c0.4,0-0.3-0.1,0,0c0.3,0.1,0.6,0.2,0.9,0.3c-0.5-0.2,0.2,0.2,0.4,0.3
		c0.3,0.2-0.3-0.3-0.1-0.1c0.1,0.1,0.2,0.2,0.3,0.4c0.3,0.3,0,0,0-0.1c0.1,0.1,0.2,0.3,0.3,0.4c0.1,0.1,0.1,0.2,0.2,0.4
		s-0.1-0.4,0,0.1c0.1,0.3,0.2,0.7,0.3,1c0.1,0.4,0-0.3,0,0.1c0,0.2,0.1,0.4,0.1,0.6c0,0.7,0,1.4-0.1,2.1c-0.7,4.5-3.2,8.7-6.1,12.3
		c-1.8,2.2,1.1,5.5,3.4,3.6c0.1-0.1,0.2-0.2,0.3-0.3l0.4-0.3c-0.7,0.5,0.1,0,0.2-0.1c0.5-0.3,1-0.6,1.4-0.8c0.3-0.1,0.6-0.3,0.9-0.4
		l0.3-0.1c0.6-0.2-0.1,0,0.3-0.1s0.6-0.1,0.9-0.2s1.2-0.1,0.6-0.1c0.3,0,0.6,0,0.9,0c0.6,0.1-0.5-0.2,0.1,0c0.2,0.1,0.4,0.1,0.7,0.2
		c-0.6-0.3,0.2,0.2,0.4,0.3c-0.7-0.5,0.6,0.8,0.2,0.3c0.5,0.8,0.9,1.6,1.1,2.6c1.1,4.3,0,8.9-1.7,12.9c-1.8,4.2-4.2,8.1-6.9,11.8
		c-1.4,2-2.9,3.8-4.5,5.6c-1.8,1.9,0.6,5.1,2.9,4c4.5-2.1,9.3-3.7,14.2-4.8c0.9-0.2,1.7-0.3,2.5-0.5l1.1-0.1l0.7-0.1
		c0.1,0,0.9,0,0.5,0c0.7,0,1.4,0,2.1,0.1c0.2,0,1.2,0.2,0.6,0.1c0.3,0.1,0.6,0.2,1,0.3c0.2,0,0.6,0.3,0,0l0.4,0.2
		c0.1,0.1,0.2,0.1,0.2,0.2c0.5,0.2-0.5-0.3-0.1,0c0.1,0.1,0.2,0.2,0.3,0.3c-0.5-0.5-0.1-0.3-0.1,0c0,0.1,0.1,0.2,0.1,0.3
		c-0.4-0.7,0,0.1,0,0.2s0,0.7,0-0.1c0,0,0,0,0,0.1c0,0.2-0.1,0.5,0.1-0.4c0,0.1,0,0.1,0,0.2c-0.1,0.5,0.3-0.5,0.1-0.2
		c-0.1,0.1-0.2,0.3-0.2,0.4c-0.3,0.6,0.4-0.4-0.1,0.1c-0.4,0.4-0.8,0.8-1.2,1.1c-0.5,0.4-1.1,0.8-1.6,1.2c0.3-0.2,0.3-0.2-0.1,0
		l-0.4,0.3l-1.2,0.7c-4,2.4-8.1,4.5-12.3,6.4c-12.3,5.8-24.9,10.8-37.5,15.6c-14.4,5.5-29,10.7-43.7,15.6c-11.9,4-23.6,7.8-36,11
		c-3.7,1-7.4,1.9-11.2,2.5c-0.6,0.1-1.2,0.1-1.7,0.2c-0.1,0-0.3,0-0.4,0s0.7,0,0.2,0h-0.6c-0.5,0-0.4-0.3,0,0
		c-0.1-0.1-0.2-0.1-0.4-0.1c-0.4-0.2,0.7,0.3,0,0c-0.1-0.1-0.2-0.2-0.4-0.3c0.7,0.4,0.3,0.3,0,0l-0.3-0.4c-0.1-0.1-0.1-0.2-0.2-0.2
		c-0.3-0.3,0.3,0.5,0.1,0.2c-0.5-0.9-1-1.7-1.4-2.6c-0.1-0.1-0.1-0.3-0.2-0.4c0.3,0.6,0.1,0.2,0,0.1l-0.3-0.8
		c-0.2-0.6-0.4-1.3-0.7-1.9c-0.9-2.9-1.6-5.8-2.1-8.8c-1.2-7.3-2-14.6-2.4-21.9c-0.4-7.3-0.6-14.7-0.4-22c0.1-2.8,0.2-5.7,0.5-8.5
		c-0.1,0.7,0-0.3,0.1-0.5l0.1-0.7c0.1-0.5,0.2-1.1,0.2-1.6c0.1-0.8,0.3-1.6,0.5-2.4c0.1-0.1,0.1-0.3,0.1-0.4c0-0.1-0.3,0.5,0,0.1
		c0.2-0.2,0.6-0.9,0-0.1c0.1-0.1,0.1-0.2,0.2-0.2c0.1-0.1-0.7,0.3-0.2,0.1c0.3-0.1,0.6-0.3,0.9-0.4l0.4-0.2c0.5-0.2-0.5,0.1,0.2,0
		l1.4-0.4c1.1-0.3,2.2-0.5,3.3-0.7c6.6-1.2,13.4-1.8,20.1-2.3c12.9-1.1,25.8-1.8,38.6-2.4l2.3-0.1c0.8-0.1,1.4-0.7,1.6-1.5l4.8-14.4
		c0.9-2.7-3.6-4.6-4.6-1.6l-4.8,14.2l1.6-1.5c-10.4,0.4-20.7,1-31.1,1.8c-7.6,0.5-15.3,1.2-22.9,2.1c-2.9,0.4-5.8,0.8-8.7,1.3
		c-1.9,0.3-3.8,0.8-5.6,1.6c-1.4,0.8-2.3,2.2-2.6,3.7c-0.5,2.2-0.9,4.4-1,6.6c-0.5,6.7-0.7,13.3-0.4,20c0.2,7.9,0.7,15.8,1.7,23.7
		c0.8,6.6,1.8,13.4,4,19.7c1.3,3.6,3.4,8.6,7.9,8.9c2.9,0.2,6-0.6,8.8-1.2c11.5-2.6,22.8-6.2,34-9.9c14.9-4.8,29.7-10,44.4-15.4
		c13.7-5.1,27.4-10.4,40.7-16.3c4.9-2.2,9.7-4.4,14.4-7c2.9-1.6,6.1-3.3,8.4-5.7c1-0.9,1.6-2.1,1.7-3.4c0-3-2.6-5.6-5.3-6.4
		c-3.4-1-7-0.5-10.4,0.3c-3.6,0.8-7.1,1.9-10.6,3.3c-1.5,0.6-3,1.2-4.5,1.9l2.9,4c5.2-5.4,9.4-11.8,12.4-18.7
		c2.1-5.1,3.3-10.7,1.8-16.1c-1.2-4.4-4.5-7.8-9.3-7.2c-2.7,0.5-5.2,1.7-7.3,3.5l3.4,3.6c3-3.7,5.6-7.8,6.9-12.5
		c0.8-3.1,1-6.7-0.7-9.6c-1.6-2.6-4.4-4.2-7.5-4.1c-3.2,0.1-6.2,1.4-9,2.9c-5.4,3-10.7,6.3-15.8,9.9c-5.5,3.8-10.9,7.6-16.3,11.6
		c-2.9,2.1-5.7,4.2-8.5,6.4C181.4,349.2,184.8,352.8,187.1,351.1L187.1,351.1z" fill="#0D121F"></path><path class="st1" d="M216.5,367.9l17.4-23.8l2.5-3.4c1.2-1.7-3.4-3.4-4.5-2l-17.4,23.8L212,366
		C210.8,367.7,215.4,369.4,216.5,367.9L216.5,367.9z" fill="#0D121F"></path><path class="st0" d="M270.3,200.7c-24.3,15.7-38,7.9-38.3,26.2c0,0-29.9,33.8-36.1-0.1c-1-5.2-19.3-70,19.3-94.4
		c0,0,22.1-12.4,16.4-33.6c0,0,17.1,16.6,34,14.8s49.2-10.7,54.2,5.8s-17.1,24.4-31.8,22.8l-0.3,25c-15.6,5.1-23.4-11.5-23.4-11.5
		s-9.5,16.3-5.7,22.9c3.7,6.6,20.1,7.7,20.1,7.7C278.4,192.2,275.3,197.6,270.3,200.7z" fill="#FFFFFF"></path><path class="st1" d="M268.5,200.2c-7.2,4.5-15,8-23.2,10.4c-4.8,1.5-10.6,3.1-13.5,7.5c-1.8,2.8-2.2,6-2.2,9.2l0.2-0.6
		c-2.3,2.5-4.7,4.9-7.4,7c-1.1,1-2.3,1.9-3.6,2.7c-1.2,0.8-2.4,1.5-3.6,2.2c-0.6,0.3-1.2,0.6-1.8,0.9l-0.8,0.3l-0.3,0.1
		c-0.2,0.1-0.5,0.2-0.7,0.2s-0.6,0.2-0.9,0.3c0.7-0.2-0.3,0-0.4,0.1s-0.4,0.1-0.5,0.1c-0.6,0.1,0.4,0,0,0c-0.4,0-0.8,0.1-1.2,0.1
		c0.6,0-0.3,0-0.4,0h-0.4c-0.3-0.1,0.5,0.1-0.1,0c-0.6-0.1-1.1-0.3-1.6-0.5c-1.2-0.6-2.2-1.4-3.1-2.4c-2.7-3.2-3.7-7.3-4.5-11.3
		c-0.6-3.1-1.4-6.1-2-9.2c-2.7-13.4-4-27.3-2.6-40.9c1.6-15.9,7.6-31.9,20.9-41.6c0.4-0.3,0.9-0.6,1.3-0.9c0.1-0.1,1.2-0.8,0.7-0.5
		c0.2-0.1,0.5-0.3,0.7-0.4c0.6-0.3,1.1-0.7,1.7-1.1c2.3-1.6,4.4-3.3,6.3-5.3c5.6-5.6,9.6-12.9,9.6-20.9c0-2.4-0.3-4.8-0.9-7.1
		l-4.8,1.2c5.6,5.4,12.2,9.7,19.4,12.6c5.6,2.3,11.8,3.2,17.8,2.5c4.6-0.6,9.3-1.4,13.9-2.1c5-0.8,10.1-1.4,15.1-1.7
		c4.4-0.4,8.9-0.1,13.3,1c3.4,1,6.6,3.1,8.1,6.5c1.9,4,1.6,8.8-0.6,12.6c-2.3,3.7-6.3,6.1-10.3,7.7c-4.4,1.7-9,2.5-13.7,2.5
		c-0.9,0-2.1-0.1-3.1-0.2s-3.5,0.2-3.5,1.6l-0.3,21.9l0,3.1l1.6-1.4c-4.2,1.3-8.7,0.6-12.2-1.9c-2.8-1.9-5.1-4.4-6.9-7.3
		c-0.3-0.4-0.6-0.9-0.8-1.4c-0.1-0.1-0.1-0.3-0.2-0.4s0.1,0.3,0,0.1c-0.8-1.6-4.2-0.7-4.9,0.6c-3,5.2-5.8,11.2-6.5,17.2
		c-0.4,3.7,0.4,6.7,3.5,9s7.1,3.5,10.9,4.3c2.6,0.6,5.2,1,7.9,1.2l-1.4-0.8C276.3,192,272.8,197.3,268.5,200.2
		c-0.9,0.6-0.6,1.3,0.3,1.6c1.2,0.3,2.5,0.1,3.5-0.6c5-3.3,9-9,8.9-15.2c0-0.6-1-0.7-1.4-0.8c-1.9-0.1-3.8-0.4-5.6-0.8
		c-3.6-0.5-7.1-1.7-10.3-3.5c-1.3-0.7-2.3-1.8-3.1-3.1c-0.6-1.5-0.8-3-0.6-4.6c0.5-3.8,1.6-7.5,3.2-11c1-2.3,2.1-4.4,3.3-6.6
		l-4.9,0.6c2.9,6.2,8.8,11.7,15.6,12.9c3.7,0.6,7.5,0.3,11-0.9c0.7-0.2,1.6-0.6,1.6-1.4l0.3-21.9v-3.1l-3.4,1.6
		c5.4,0.5,10.9,0,16.1-1.4c5.1-1.1,9.8-3.4,13.9-6.7c3.5-3,6-7,6-11.7c0.1-4.4-1.8-8.5-5.3-11.2c-3.5-2.6-8.1-3.6-12.4-4
		c-5.3-0.4-10.6-0.2-15.8,0.4c-5.4,0.6-10.8,1.5-16.1,2.3c-2.3,0.3-4.5,0.7-6.8,1c-1.1,0.2-2.3,0.2-3.4,0.2c-1.5,0-2.9-0.2-4.3-0.5
		c-9.1-1.8-17.7-7.3-24.5-13.5l-0.4-0.4c-0.8-0.6-1.9-0.7-2.9-0.3c-0.6,0.1-2.2,0.6-1.9,1.5c1.5,5.3,1.1,11-0.9,16.1
		c-1.8,4.2-4.4,7.9-7.7,11c-2,1.9-4.1,3.7-6.5,5.1c-0.2,0.1-0.4,0.2-0.6,0.4c0.3-0.2,0.6-0.4-0.1,0s-1.2,0.8-1.8,1.2
		c-2.2,1.5-4.2,3.2-6.1,5.1c-7.1,6.9-11.7,15.9-14.2,25.4c-2.3,9.4-3.3,19.1-2.8,28.7c0.3,8.1,1.2,16.1,2.8,24
		c0.9,4.6,1.8,9.2,3,13.8c1.1,4.3,2.9,8.9,6.8,11.3c3.2,2.1,7.4,2,11,1.1c7.2-1.8,13.4-6.7,18.7-11.7c1.3-1.1,2.6-2.4,3.6-3.7
		c0.3-0.8,0.4-1.6,0.3-2.4c0.1-1.1,0.2-2.1,0.5-3.2c0.4-1.6,1.1-3.2,2.2-4.4c0.5-0.5,1-1,1.6-1.4c0.6-0.4,1.2-0.7,1.9-1
		c0.4-0.2,0.8-0.4,1.2-0.5c0.1-0.1,0.2-0.1,0.3-0.1l0.7-0.3c1-0.4,2.1-0.7,3.1-1c5.5-1.6,10.9-3.6,16.1-6c3.4-1.6,6.8-3.5,10-5.6
		c0.9-0.6,0.6-1.4-0.3-1.6C270.8,199.3,269.5,199.5,268.5,200.2z" fill="#0D121F"></path><path class="st1" d="M177.5,192.6c0,0-20.4,12.8-27.8,1.9s8.9-24.4,8.9-24.4s-3.3-22.6-3.9-19.2c0,0-8.2-13.1,1.3-35.2
		s6.1,2.4,6.1,2.4s-6.4-11.4,17.7-15.3s25.7-17.1,25.7-17.1s23.8-17.1,33.8,0.4c4.8,8.4-6.7,16.2-6.7,16.2s4.1,27.7-17.3,30.2
		l-9.1,39.2c0,0,10.6,9.9,7,24.7S181.8,210,177.5,192.6z" fill="#0D121F"></path><path class="st1" d="M176,191.9c-1.3,0.8-2.6,1.5-4,2.2c-0.4,0.2,0.5-0.2-0.1,0.1l-0.4,0.2l-1,0.5c-0.8,0.4-1.6,0.7-2.5,1
		c-0.4,0.1-0.7,0.3-1.1,0.4l-0.6,0.2c0.4-0.1-0.1,0-0.1,0c-0.9,0.3-1.8,0.5-2.8,0.7c-0.7,0.2-1.4,0.3-2.1,0.3
		c-0.8,0.1-1.5,0.1-2.3,0.1c-1.4-0.1-2.8-0.5-4.1-1.1c-3.1-1.9-4.9-5.3-4.7-8.9c0.1-6.3,5-12.2,9.3-16.2c0.5-0.3,0.9-0.7,1.3-1.2
		c0.2-0.6,0.2-1.2,0-1.7c-0.4-2.4-0.7-4.9-1.1-7.3c-0.5-3.1-1-6.2-1.7-9.3c-0.1-0.8-0.4-1.5-0.8-2.1c-1.2-1.3-4.6-0.2-4.9,1.5
		l4.7-1.2c-0.2-0.3,0.2,0.3-0.1-0.1s-0.4-0.8-0.6-1.2c-0.6-1.4-1.1-2.8-1.4-4.3c-1.3-5.4-1.4-11-0.3-16.4c0.7-4.1,1.9-8,3.5-11.9
		c1-2.8,2.4-5.5,3.9-8c0.2-0.3,0.4-0.6,0.7-0.9c0,0-0.2,0.2,0,0c-0.2,0.1-0.4,0.2-0.6,0.3c-0.8,0.2-1.6,0.3-2.4,0.1
		c0.1,0-0.2,0-0.1-0.1c0.1,0.1,0.1,0.1,0.1,0.2c-0.1-0.3-0.1-0.1,0,0.1c0.3,1.1,0.4,2.3,0.4,3.5c0,2.4-0.2,4.8-0.6,7.1l4.9-0.9
		c-0.2-0.4-0.4-0.8-0.5-1.2c-0.1-0.4-0.2-0.9-0.3-1.3c-0.1-0.5-0.1-1,0-1.5c0.5-3.7,3.6-5.7,6.7-7c3.6-1.5,7.5-2.1,11.4-2.8
		c3.9-0.7,7.7-1.8,11.4-3.4c4.6-2,9.1-4.9,12.1-9.1c1.3-1.7,2.2-3.7,2.6-5.8l-0.5,0.7c0.4-0.2-0.6,0.4-0.1,0l1-0.7
		c1.1-0.7,2.2-1.3,3.4-2l1.1-0.6l0.6-0.3l0.2-0.1c0.9-0.4,1.9-0.8,2.8-1.2c0.5-0.2,0.9-0.3,1.4-0.5c0,0,0.8-0.3,0.3-0.1l0.5-0.2
		c0.5-0.1,1-0.3,1.5-0.4l0.7-0.2c0.1,0,1-0.2,0.6-0.1c3.7-0.7,7.6-0.4,11,2c3.9,2.8,6.6,7.6,4.8,12.3c-0.9,2-2.2,3.9-3.8,5.4
		c-0.6,0.6-1.3,1.2-1.9,1.7c-0.2,0.2-1.4,1-0.4,0.4c-0.5,0.3-1,0.7-0.9,1.3c0.4,3,0.4,6,0.1,8.9c-0.5,5.3-2,11.2-5.8,15.1
		c-1.1,1.2-2.4,2.2-3.9,2.9c-1.6,0.7-3.2,1.2-4.9,1.4c-0.9,0.1-2.5,0.6-2.8,1.6l-3.6,15.7l-5,21.6c-0.2,0.6-0.3,1.2-0.4,1.8
		c-0.1,0.7,0.5,1,0.9,1.5c2.6,2.9,4.6,6.4,5.7,10.2c0.9,2.8,1.2,5.8,1,8.8c-0.1,2.5-0.7,5.1-1.9,7.3c-0.4,0.7-0.9,1.4-1.5,2
		c-0.3,0.3-0.7,0.6-1,0.9c-0.3,0.2-0.6,0.4-0.9,0.6c-0.4,0.3-0.8,0.5-1.2,0.7c0.3-0.2-0.1,0.1-0.3,0.1l-0.8,0.3l-0.6,0.2
		c0.4-0.1-0.1,0-0.2,0.1c-0.5,0.1-1,0.3-1.6,0.4c0.4-0.1-0.1,0-0.3,0l-0.7,0.1l-0.8,0.1c-0.2,0-0.3,0-0.5,0c-1,0-2.1,0-3.1-0.1
		c-2-0.2-3.9-0.7-5.7-1.5c-4-1.6-7.2-4.6-9.1-8.4c-0.5-1-0.9-2.1-1.1-3.2c-0.4-1.6-5.3-0.4-4.9,1.2c2.8,10.9,14.8,16.1,25.2,14.5
		c5-0.8,10.3-2.9,13.2-7.2c3.6-5.2,3.3-13,1.4-18.8c-1.3-4.1-3.6-7.8-6.6-10.9l0.2,0.6l8-34.4l1.1-4.8l-2.8,1.6
		c4.2-0.4,8.3-2,11.7-4.5c2.6-2,4.6-4.7,5.9-7.7c2.3-5,2.9-10.8,2.8-16.2c0-1.2-0.1-2.5-0.3-3.7L234,103c3.4-2.2,6.2-5.3,7.9-9
		c2.5-5.7-1.1-11.6-6-14.7c-4.7-3-10.7-2.8-15.9-1.6c-4.6,1.1-9,2.9-13,5.4c-1.3,0.8-3.6,1.7-4,3.3c-0.5,2.1-1.5,4-2.9,5.6
		c-2.8,3.5-6.9,5.8-11.3,7.4c-6.9,2.5-14.5,2.5-21.2,5.6c-3.5,1.6-7.3,4.1-8.4,8.1c-0.5,1.8-0.4,3.7,0.4,5.3c0,0.1,0.1,0.2,0.1,0.3
		c0.5,0.8,1.6,0.8,2.4,0.6s2.3-0.6,2.4-1.5c0.3-2.4,0.5-4.8,0.6-7.2c0.1-1.4,0-2.7-0.3-4.1c-0.7-2.1-3.4-1.7-5-0.8
		c-1.8,1-2.8,3-3.7,4.7c-2,3.8-3.6,7.9-4.9,12c-2.1,6.6-2.7,13.7-1.7,20.5c0.4,3.1,1.4,6.1,2.9,8.8c0.8,1.2,4.4,0.1,4.7-1.2
		c0-0.1,0-0.1,0-0.2c-0.1,0.7-3.8,0.7-4.5,1.1c0,0,0.1,0.1,0.1,0.1s-0.1-0.3,0,0c0.1,0.5,0.3,0.9,0.4,1.4c0.4,1.5,0.7,3,0.9,4.6
		c0.6,3.6,1.2,7.1,1.8,10.7c0.1,0.9,0.2,1.7,0.4,2.6l0.5-1c-2.3,1.9-4.3,4.1-6.1,6.4c-3,3.9-5.7,8.8-5.2,13.8
		c0.5,5.1,4.3,9.1,9.4,10c5.1,0.9,10.4-0.4,15.2-2.2c3.1-1.2,6.1-2.6,9-4.4c0.7-0.4,1.4-1.3,0.5-1.8S176.9,191.3,176,191.9z" fill="#0D121F"></path><path class="st0" d="M220.2,136.5c0,0-8.8-17.1-20.6-9.4s-4,49.9,18.7,41.4" fill="#FFFFFF"></path><path class="st1" d="M222.1,136.1c-2.4-4.6-6.3-9.2-11-11.6c-3.6-2-8-2-11.7-0.2c-2.4,1.2-4.3,3.2-5.4,5.6
		c-2.6,5.3-2.4,11.9-1.6,17.6c1,6.3,3.4,12.8,7.6,17.6c2.3,2.7,5.3,4.7,8.7,5.8c3.7,1,7.6,0.8,11.1-0.6c1.1-0.4,0.6-2.1,0-2.8
		c-0.7-1-2-1.4-3.1-1.1c-1.3,0.5-2.7,0.8-4.2,0.9c-0.6,0.1-1.1,0.1-1.7,0c-0.3,0-0.5-0.1-0.8-0.1l-0.5-0.1c-0.5-0.1,0.1,0-0.3-0.1
		c-0.6-0.1-1.1-0.3-1.7-0.5c-0.6-0.2,0.1,0.1-0.4-0.2c-0.3-0.2-0.6-0.3-0.9-0.5s-0.5-0.3-0.7-0.5s0.5,0.4,0,0l-0.3-0.2
		c-0.5-0.4-1-0.8-1.5-1.3c-0.4-0.3,0,0,0,0l-0.4-0.4l-0.5-0.6c-0.4-0.5-0.9-1.1-1.3-1.7s0.2,0.2-0.1-0.1l-0.3-0.4
		c-0.2-0.3-0.3-0.6-0.5-0.8c-0.4-0.6-0.7-1.3-1-1.9c-0.6-1.2-1.1-2.5-1.5-3.8c-0.4-1.4-0.8-2.8-1.1-4.2c-1-5-1.2-10.7,0.4-15.6
		c0.5-1.9,1.6-3.7,3.1-5c0.4-0.3-0.1,0,0.3-0.3c0.3-0.2,0.5-0.4,0.8-0.5c0.8-0.5,1.7-0.9,2.6-1.1c1.4-0.4,2.9-0.4,4.3,0
		c0.7,0.2,1.4,0.4,2,0.8c0.4,0.2,0.8,0.4,1.1,0.7s-0.5-0.4,0.1,0.1c0.2,0.1,0.4,0.3,0.6,0.4s0.6,0.5,0.9,0.8l0.5,0.5
		c0.4,0.4-0.2-0.2,0.2,0.2s1,1.1,1.5,1.8s0.9,1.1,1.2,1.7l0.2,0.4c0.4,0.5-0.2-0.3,0.1,0.1l0.4,0.6c0.3,0.4,0.5,0.9,0.8,1.4
		c0.6,1.1,1.7,1.8,3,1.7C222.4,138.3,222.6,137.1,222.1,136.1L222.1,136.1z" fill="#0D121F"></path><path class="st1" d="M247.7,124.4c0,0,3.6,0.2,3.1,3.6s-4.6,2.9-5.2-0.2c-0.4-1.4,0.3-2.9,1.7-3.3
		C247.5,124.4,247.6,124.4,247.7,124.4z" fill="#0D121F"></path><path class="st0" d="M158.6,170.1c0,0,59.4-93.4,58.7-102.4s-28.6,24.4-28.6,24.4s-24.3-13.5-46.2,12.4S158.6,170.1,158.6,170.1z" fill="#FFFFFF"></path><path class="st1" d="M161,169.6c3.7-5.8,7.4-11.7,11-17.5c7.8-12.6,15.5-25.2,23.1-37.8c7-11.7,14-23.5,20.1-35.7
		c1.6-3.2,3.5-6.6,4.3-10.1c0.2-1,0.4-2.3-0.5-3s-2.7-0.3-3.7,0c-1.3,0.4-2.5,0.9-3.6,1.6c-2.3,1.5-4.5,3.2-6.4,5.2
		c-2.6,2.4-5,4.8-7.4,7.4c-3.7,3.9-7.3,7.9-10.7,12l-0.6,0.7l4.4-1.1c-4.6-2.5-10.3-3.6-15.5-3.7c-12.7-0.2-24.6,5.7-33.1,14.9
		c-3.8,4.1-6.9,8.8-8.2,14.3c-1,4.7-1.1,9.6-0.2,14.4c1.8,9.4,6.3,18.2,11.6,26.2c2.1,3.1,4.3,6.1,6.7,9c1.1,1.6,2.4,3,3.8,4.4
		c0.1,0.1,0.1,0.1,0.2,0.2c0.8,0.9,5.2-0.9,4.5-1.7c-3-3.2-5.7-6.6-8.2-10.1c-5.2-7.2-9.8-15.2-12.4-23.7
		c-2.8-9.1-3.1-19.1,1.9-27.4c3.5-5.5,8.2-10.2,13.8-13.7c4.1-2.7,8.8-4.2,13.6-4.6c5.7-0.4,11.4,0.7,16.6,3.2l0.3,0.1
		c1,0.6,3.7-0.2,4.4-1.1c2.5-3,5.1-5.9,7.7-8.8c4.3-4.9,8.9-9.6,13.9-13.8c0.9-0.7,1.8-1.4,2.7-2c0.1-0.1,0.9-0.5,0.3-0.2l0.5-0.3
		l-0.5,0.2c0.2-0.1,0.5-0.1-0.4,0.1c-0.2,0-0.4,0-0.6,0.1c-0.2,0-0.1-0.2,0,0c-0.2-0.2,0,0,0.1,0.1c0.1,0.2,0.2,0.4,0.3,0.6
		c0.1,0.3,0.1,0.5,0.1,0.8c0,0.1,0,0.3,0,0.4c-0.6,3.2-2.4,6.4-3.8,9.3c-5.8,11.7-12.5,22.9-19.1,34.1c-7.4,12.6-15,25-22.8,37.4
		c-2.8,4.6-5.7,9.2-8.6,13.7c-1.4,2.2-3,4.4-4.2,6.7l-0.2,0.3c-0.5,0.7,1.8,0.4,1.9,0.4C159.1,170.8,160.4,170.5,161,169.6z" fill="#0D121F"></path><path class="st0" d="M184.6,95.6c-2.6,5-17.2,26.7-19.8,31.7" fill="#FFFFFF"></path><path class="st1" d="M182.5,94.8c-2.1,4-4.6,7.7-7.1,11.4c-3.2,4.9-6.4,9.8-9.5,14.8c-1.1,1.8-2.3,3.6-3.3,5.5
		c-1.5,2.8,3,4.3,4.4,1.8c2-4,4.6-7.7,7.1-11.4c3.2-4.9,6.4-9.8,9.5-14.8c1.1-1.8,2.3-3.6,3.2-5.5C188.3,93.7,183.8,92.2,182.5,94.8
		L182.5,94.8z" fill="#0D121F"></path></g><g id="check-mark"><circle class="st2" cx="412.7" cy="85.6" r="34.7"></circle><path class="st2" d="M445.1,85.3c-0.2,13.6-8.7,25.8-21.4,30.6c-12.8,4.7-27.2,0.9-36-9.6c-8.7-10.4-9.6-25.8-2.5-37.4
		c7.2-11.6,20.8-17.7,34.2-15.1c13.1,2.6,23.2,13.1,25.4,26.3C445,81.8,445.1,83.6,445.1,85.3c0,2.8,4.6,3.7,4.6,0.5
		c-0.2-15.6-9.9-29.5-24.5-35c-14.4-5.3-31.3-1-41,10.9c-9.9,12.2-11.1,29.2-3.1,42.7c8.2,13.4,23.8,20.3,39.2,17.4
		c15-3.1,26.6-15.1,29-30.3c0.3-1.9,0.4-3.8,0.4-5.8C449.7,83.1,445.1,82.1,445.1,85.3z"></path><path class="st0" d="M399.3,81.6c1.6,4,3.8,7.7,6.4,11.1c1.2,1.6,2.6,3.1,4.1,4.4c0.6,0.6,1.4,1,2.3,1c0.8-0.2,1.6-0.7,2.1-1.3
		c6.2-6.1,11.8-12.8,16.8-20c0.8-1.2-2.5-4.6-2.9-4.1c-4.2,6-8.8,11.7-13.9,17.1c-1.1,1.4-2.4,2.6-3.8,3.8c-1.5,1.1-2.6-0.6-3.6-1.7
		c-2-2.3-3.6-5-4.8-7.9c-0.4-1.1-1.1-2.1-2-2.9C399.5,80.6,398.9,80.8,399.3,81.6L399.3,81.6z"></path><path class="st2" d="M380.5,115.3h-4.6c-0.5,0.1-1,0.4-1.3,0.9c-0.2,0.5-0.2,1.1,0,1.6c0.2,0.6,0.6,1.2,1.2,1.5l0.6,0.3
		c0.4,0.1,0.7,0.2,1.1,0.2h4.5c0.5-0.1,1-0.4,1.3-0.8c0.2-0.5,0.2-1.1,0-1.6c-0.2-0.6-0.6-1.2-1.2-1.5l-0.5-0.3
		C381.2,115.3,380.8,115.3,380.5,115.3L380.5,115.3z"></path><path class="st2" d="M405.8,130.5v5.3c0,0.2,0.8,0.2,0.8,0.2c0.6,0,1.2-0.1,1.8-0.2c0.6-0.1,1.2-0.2,1.7-0.4
		c0.2-0.1,0.7-0.2,0.7-0.4v-5.3c0-0.2-0.8-0.2-0.8-0.2c-0.6,0-1.2,0.1-1.8,0.2c-0.6,0.1-1.2,0.2-1.7,0.4
		C406.3,130.2,405.8,130.3,405.8,130.5z"></path></g></svg>