<svg transform="scale(1)" version="1.1" id="wgZATxq4Cd" xmlns="http://www.w3.org/2000/svg" xmlns:xlink="http://www.w3.org/1999/xlink" x="0px" y="0px" viewBox="0 0 500 500" xml:space="preserve" class="pbimage_pbimage__wrapper__image__0LEis false"><title>Ordering Groceries Online 1</title><style type="text/css"> .st0{fill:#FFFFFF;} .st1{fill:#59BE4C;} .st2{fill:#000005;}
 .st2{fill:#000005;}
 .st1{fill:#3563E9;}
 .st0{fill:#FFFFFF;}</style><g id="cart"><g id="cart-2"><path class="st0" d="M69.1,271.6c0,0,53.7,13.1,60.6,13.1c6.9,0,57.1-13.5,61.6-18.4s11.8-51.2,11.8-51.2l-143.7,1.7
			C59.4,216.9,65.3,265.3,69.1,271.6z"></path><path class="st1" d="M68.2,272.5c10.7,2.6,21.3,5.1,32,7.5c7.2,1.6,14.4,3.3,21.6,4.6c4,0.8,7.9,1.5,12,0.8
			c6.6-1.1,13.1-2.8,19.5-4.4c8-2.1,16-4.4,23.9-7c3.2-1.1,6.5-2.2,9.6-3.5c2.1-0.7,4-1.7,5.9-2.8c1.3-1.1,2.2-2.5,2.7-4.2
			c1-2.8,1.9-5.7,2.5-8.6c3.2-12.8,5.4-25.8,7.5-38.7c0-0.3,0.1-0.5,0.1-0.8c0.2-1.1-2.4-1.5-3-1.5l-14.4,0.2l-34.2,0.4l-41.5,0.5
			l-35.9,0.4c-5.8,0.1-11.6,0.1-17.4,0.2h-0.2c-0.3,0-2.1,0-2,0.8c0.7,5.6,1.4,11.2,2.2,16.8c1.4,9.7,2.8,19.4,4.8,28.9
			c0.4,1.9,0.8,3.9,1.4,5.8c0.3,1.2,0.7,2.4,1.3,3.5c0.6,0.9,1.9,1.2,2.9,1.2c0.4,0,2.5-0.1,1.9-1c-1.4-2.3-1.8-5.2-2.4-7.8
			c-1-4.4-1.8-8.9-2.5-13.4c-1.5-9.1-2.8-18.2-4-27.3c-0.3-2-0.5-4-0.8-6l-2,0.8l14.4-0.2l34.2-0.4l41.5-0.5l35.9-0.4l11.8-0.1
			c1.9,0,3.8,0,5.6-0.1h0.2l-3-1.5c-1.8,11.3-3.8,22.6-6.3,33.8c-0.7,3.4-1.5,6.7-2.5,10c-0.5,2.2-1.3,4.3-2.3,6.3
			c-0.1,0.3-0.3,0.5-0.5,0.8c-0.1,0.1-0.2,0.2-0.3,0.3c-0.3,0.3,0.1,0-0.2,0.2c-0.7,0.5-1.5,0.9-2.3,1.3c-2.5,1.1-5,2.1-7.6,3
			c-7.5,2.6-15.1,4.9-22.7,7c-7,1.9-14,3.8-21.1,5.2c-0.6,0.1-1.3,0.3-1.9,0.4l-0.9,0.2l-0.4,0.1h-0.2c-0.8,0.1-1.6,0.2-2.4,0.3
			c-0.6,0,0,0,0.1,0c-0.1,0-0.2,0-0.4,0h-0.4c-0.5,0,0.7,0.1-0.1,0s-1.9-0.3-2.8-0.4c-2.8-0.5-5.7-1-8.5-1.6
			c-3.7-0.8-6.6-1.4-10.4-2.2c-12.1-2.7-24.1-5.5-36.1-8.5l-0.7-0.2c-0.8-0.2-2.6-0.6-3.2,0.3S67.7,272.4,68.2,272.5z"></path><path class="st1" d="M59.4,216.9c0,0,76.5-10.4,81.7-10.4s62.3,5.2,62,8.7s-63.4,13.2-71.9,13.2S55.2,220.7,59.4,216.9z"></path><path class="st1" d="M60,219c6.6-0.9,13.2-1.8,19.9-2.7c12.7-1.7,25.3-3.4,38-5c5.2-0.7,10.5-1.3,15.7-1.9c2.7-0.4,5.3-0.7,8-0.8
			c1.1,0,2.3,0.1,3.4,0.2h0.6c0.5,0-0.4,0,0.2,0l1.6,0.1l3.5,0.3c6.1,0.5,12.1,1.1,18.2,1.8c6.5,0.7,12.9,1.5,19.3,2.4
			c2.6,0.4,5.1,0.8,7.7,1.3c1,0.2,2,0.4,2.9,0.6l1.2,0.3c0.2,0.1,0.8,0.3,0,0l0.5,0.2c0.3,0.1,0.5,0.2,0.8,0.3c0.7,0.3-0.5-0.4,0,0
			c-0.4-0.3-0.7-0.7-0.8-1.1c-0.1-0.3-0.1-0.6,0-0.9c0-0.1,0.3-0.6,0.1-0.3c0.2-0.3,0.4-0.3,0-0.1c-0.1,0-0.2,0.1-0.3,0.2
			c-0.3,0.2,0.5-0.2,0.1,0c-0.6,0.2-1.2,0.5-1.9,0.7c-4.5,1.4-9,2.5-13.6,3.3c-12.8,2.6-25.6,4.6-38.6,6.4
			c-4.6,0.6-9.2,1.3-13.8,1.6c-1.1,0.1-2.2,0.1-3.4,0.1c-0.7,0-1.4,0-2.1-0.1h-0.7c0.7,0,0,0-0.2,0l-1.5-0.1
			c-11.9-1-23.7-2.4-35.5-4c-6-0.8-12-1.7-18-2.8c-2.3-0.4-4.5-0.9-6.8-1.4c-0.4-0.1-0.8-0.2-1.3-0.3L63,217c-0.3-0.1-0.7-0.2-0.1,0
			c-0.6-0.2-1.2-0.4-1.8-0.7c-0.4-0.2-0.8-0.4-0.1,0c-0.5-0.3-0.1-0.1,0.1,0.1c0.6,0.6,0.6,1.6,0,2.2c0.8-0.7,0.9-2,0.2-2.8
			c-0.1-0.1-0.1-0.1-0.2-0.2c-0.7-0.7-2.4-1.5-3.3-0.7c-3.3,3.2,3.1,5.5,5.3,6.2c4.7,1.2,9.5,2.2,14.4,2.9c12.9,2.1,25.9,3.7,38.9,5
			c4.6,0.5,9.1,0.9,13.7,1.2c3,0.1,5.9-0.1,8.9-0.5c12.9-1.5,25.7-3.6,38.5-5.8c6-1.1,12-2.2,17.9-3.6c2-0.5,3.9-1,5.9-1.6
			c1.2-0.3,2.4-0.8,3.4-1.6c1.6-1.4,0.6-3.4-0.9-4.4c-1.5-0.9-3.2-1.4-4.9-1.7c-5.2-1.2-10.5-2-15.9-2.6
			c-12.3-1.6-24.6-2.9-36.9-3.8c-2.5-0.3-4.9-0.3-7.4-0.2c-3.9,0.4-7.8,0.9-11.7,1.3c-12.7,1.6-25.4,3.2-38.1,4.9
			c-9.5,1.3-19.1,2.5-28.6,3.8l-1.5,0.2C55.6,215.1,57.5,219.3,60,219z"></path><path class="st0" d="M164,227.4c0,0,29.7-30.8,28.8-34.8s-38.6-14.3-43.3-12.1S119.2,209,119.2,209l-7.7,1c0,0,32.2-33.7,38-34.6
			s48,7.1,49.5,14.5s-22.4,37.8-28.6,44.1S161.1,231.5,164,227.4z"></path><path class="st1" d="M166.2,227.9c5.8-6,11.5-12.2,17.1-18.5c3.5-3.8,6.8-7.9,9.8-12.1c0.9-1.2,1.7-2.5,2.2-3.9
			c0.3-1.3-0.4-2.1-1.5-2.9c-3.9-2.7-8.9-4.1-13.3-5.5c-5.8-1.9-11.8-3.5-17.8-4.7c-2.6-0.5-5.2-1-7.8-1.3c-1.9-0.3-3.8-0.2-5.6,0.1
			c-1.6,0.5-3,1.3-4.2,2.5c-1.9,1.5-3.7,3.2-5.5,4.8c-7.6,7-14.8,14.3-22,21.7l-0.5,0.5l2.1-0.8l-7.7,1l2.3,1.9
			c6.6-6.9,13.4-13.7,20.3-20.4c4.2-4.2,8.6-8.1,13.2-11.7c0.7-0.6,1.5-1.1,2.3-1.5l0.4-0.2c0.2-0.1-0.5,0.2,0,0
			c0.1,0,0.3-0.1,0.4-0.2c-0.2,0.1-0.5,0.2-0.8,0.2c0,0,0.8-0.1,0.9-0.1c0.3,0-0.7,0-0.1,0h0.7c1.1,0,2.1,0.1,3.2,0.3l1.7,0.2l1,0.1
			l0.4,0.1l0.4,0.1h-0.1c1.5,0.2,3,0.5,4.6,0.8c3.5,0.6,7,1.3,10.4,2.1c6.4,1.5,12.6,3.1,18.5,5.8c0.6,0.3,1.1,0.5,1.6,0.8
			c0.4,0.2,0.8,0.5,1.2,0.7c0.4,0.2,0.7,0.5,1.1,0.8c0.2,0.1,0.3,0.3,0.5,0.4s0-0.1,0.2,0.3c0.2,0.3,0.4,0.5,0.5,0.8
			c0,0.1,0-0.2,0,0.2c0,0.2,0,0.4,0,0.5c0,0.8-0.1,1.7-0.4,2.5c-0.9,2.6-2.1,5.2-3.6,7.6c-1.8,3.1-3.7,6-5.7,8.9
			c-4.1,6.1-8.6,11.9-13.2,17.6c-1.6,1.9-3.2,3.9-4.9,5.7c-0.4,0.5-0.9,0.9-1.4,1.3c-0.3,0.2-0.6,0.4-0.9,0.6s-0.2,0,0,0
			c0.1,0,0.2,0,0.4,0c0.3,0.1,0.3,0,0,0c0.1-0.1,0.1,0.1-0.2-0.2c-0.2-0.2-0.3-0.3-0.4-0.5c-0.4-0.6-0.6-1.3-0.7-2
			c-0.3-1.4,0-2.9,0.8-4.2c1.4-2-3.5-2.4-4.4-1c-1.8,2.7-2.1,7.1,0.6,9.4c3.5,3,8.2,0.3,10.9-2.4c4.4-4.8,8.5-9.8,12.2-15
			c4.8-6.2,9.2-12.8,13-19.6c1.3-2.3,2.3-4.7,2.9-7.3c0.5-1.8-0.1-3.6-1.5-4.8c-1.9-1.6-4.1-2.9-6.5-3.7c-3.2-1.3-6.4-2.4-9.8-3.4
			c-7.1-2.1-14.4-3.7-21.7-4.8c-2.9-0.5-5.7-0.9-8.6-1.1c-2-0.3-4-0.1-5.9,0.5c-1.9,0.9-3.6,2-5.2,3.4c-2.5,1.9-4.8,4-7.1,6.1
			c-8.8,8-17.1,16.4-25.3,24.9l-0.5,0.6c-1.3,1.3,1.5,1.9,2.3,1.8l6.8-0.9c1.1,0,2.1-0.4,3-1c0.2-0.2,0.5-0.5,0.7-0.8
			c3.3-3.3,6.6-6.7,9.9-10c4.4-4.4,8.8-8.7,13.4-12.9c1.5-1.4,3-2.7,4.7-3.9c0.2-0.2,0.5-0.3,0.8-0.5s-0.4,0.2-0.1,0.1
			c0.5-0.2-0.5,0.1-0.2,0c0.6-0.2-0.4,0-0.1,0s0.3,0,0.4,0h0.5c-0.5,0-0.2,0,0.2,0c1,0,2,0.1,3,0.3l0.7,0.1l0.7,0.1l2.1,0.4
			c3,0.6,6,1.2,8.9,2c5.9,1.4,11.7,3.2,17.4,5.4c1.1,0.4,2.1,0.9,3.2,1.4l1.2,0.6l0.3,0.2h-0.1l0.5,0.3c0.2,0.2,0.5,0.4,0.7,0.6
			c-0.2-0.2,0.1,0,0.2,0.3c-0.1-0.5,0,0-0.1,0.2c0.2-0.5-0.1,0.3-0.2,0.5c-0.7,1.5-1.6,2.9-2.6,4.2c-1.6,2.1-3.2,4.2-4.9,6.2
			c-6.5,7.7-13.4,15.1-20.4,22.4l-0.4,0.4c-0.8,0.8,0.3,1.6,1,1.8C163.9,229.1,165.3,228.8,166.2,227.9z"></path><path class="st1" d="M166.3,226.4c-0.3,0.2-0.6,0.4-0.8,0.6c-0.4,0.3-0.7,0.7-1,1.2c-0.4,0.7-0.6,1.5-0.6,2.3c0,0.1,0,0.2,0,0.4
			c0,0.3,0.1,0.6,0.2,0.9c0.1,0.4,0.3,0.7,0.6,1c0.7,0.9,1.8,1.4,3,1.4c0.6,0,1.2-0.2,1.7-0.5c0.1-0.1,0.2-0.1,0.3-0.2
			c0.3-0.2,0.5-0.4,0.7-0.6c0.2-0.2,0.4-0.5,0.6-0.8c0.1-0.1,0.1-0.2,0.2-0.3c0.1-0.3,0.2-0.5,0.3-0.8c0-0.1,0.1-0.2,0.1-0.3
			c0.2-0.8,0.1-1.6-0.2-2.4c-0.1-0.2-0.2-0.4-0.3-0.5c-0.3-0.7-0.9-1.2-1.6-1.6c-0.5-0.3-1.1-0.4-1.7-0.3c-0.5,0-1,0.2-1.4,0.4
			l-0.1,0.1c-0.2,0.1-0.4,0.3-0.6,0.5c-0.4,0.4-0.6,1-0.6,1.6c0,0.3,0.1,0.6,0.3,0.9c0.1,0.3,0.3,0.5,0.6,0.7
			c0.5,0.4,1.2,0.6,1.8,0.6l0.7-0.1c0.4-0.1,0.8-0.3,1.1-0.6l0.1-0.1l-0.5,0.4l0.2-0.1l-0.6,0.3h0.1l-0.6,0.1h0.1h-0.7
			c0,0,0.1,0,0.1,0l-0.6-0.2l0.2,0.1l-0.5-0.3c0.1,0,0.1,0.1,0.2,0.2l-0.4-0.4c0.1,0.1,0.2,0.2,0.3,0.4l-0.3-0.5
			c0.1,0.2,0.2,0.4,0.2,0.6l-0.1-0.6c0,0.2,0,0.4,0,0.7v-0.6c0,0.2-0.1,0.4-0.1,0.6l0.2-0.6c-0.1,0.2-0.2,0.4-0.3,0.5l0.4-0.5
			c-0.1,0.2-0.3,0.3-0.5,0.5l0.5-0.4c-0.1,0.1-0.2,0.1-0.3,0.2l0.6-0.3c-0.1,0-0.2,0.1-0.3,0.1l0.6-0.1c-0.1,0-0.2,0-0.2,0h0.7h-0.2
			l0.6,0.2c-0.1,0-0.1-0.1-0.2-0.1l0.5,0.3c-0.1,0-0.1-0.1-0.2-0.2l0.4,0.4c-0.1-0.1-0.2-0.2-0.2-0.3l0.3,0.5
			c-0.1-0.2-0.2-0.3-0.2-0.5l0.1,0.6c0-0.2,0-0.5,0-0.7l-0.1,0.6c0.1-0.2,0.2-0.4,0.3-0.5l-0.2,0.5c0.1-0.2,0.2-0.4,0.3-0.5
			l-0.4,0.5c0.1-0.2,0.3-0.3,0.5-0.5l-0.5,0.4c0.1-0.1,0.2-0.2,0.3-0.2c0.3-0.1,0.5-0.4,0.7-0.6c0.2-0.2,0.3-0.5,0.4-0.8
			c0.1-0.3,0.1-0.6,0-0.9c0-0.3-0.1-0.6-0.3-0.8c-0.4-0.5-0.9-0.8-1.6-0.9h-0.7C167.1,226.1,166.7,226.2,166.3,226.4z"></path><path class="st0" d="M138.4,207.5v19.4c0,1.9,5,1.7,5-0.4v-19.4C143.4,205.2,138.4,205.5,138.4,207.5z"></path><path class="st1" d="M129.2,226.9c0,6.4-0.3,12.8-0.5,19.2c-0.3,10-0.6,20-0.8,29.9c-0.1,2.4-0.2,4.9-0.2,7.3
			c0,0.7,1.3,1.4,1.8,1.8c0.1,0.1,2.3,1.3,2.3,1.1c0-6.4,0.4-12.8,0.5-19.2l0.8-29.9c0.1-2.4,0.2-4.9,0.2-7.3c0-0.7-1.3-1.4-1.8-1.8
			C131.3,227.8,129.2,226.6,129.2,226.9L129.2,226.9z"></path></g><path class="st1" d="M100.8,146.1v21.1c0,0.9,5,0.7,5-0.4v-21.1C105.8,144.9,100.8,145.1,100.8,146.1z" fill="#3563E9"></path><path class="st1" d="M89,156.1v36.6c0,1.2,0.5,2.4,1.5,3.2c0.8,0.6,1.8,0.3,1.8-0.8v-36.6c0-1.2-0.5-2.4-1.5-3.2
		C89.9,154.7,89,155,89,156.1z" fill="#3563E9"></path><path class="st1" d="M120.9,158.3v17.6c0,1,1.4,1.9,2.2,2.3c0.4,0.2,2.2,0.9,2.2-0.2v-17.6c0-1-1.4-1.9-2.2-2.3
		C122.6,157.9,120.9,157.3,120.9,158.3z" fill="#3563E9"></path></g><g id="character"><path class="st0" d="M409.6,450.9h-165V234.7c0-26.8,21.7-48.6,48.6-48.6H361c26.8,0,48.6,21.7,48.6,48.6L409.6,450.9z"></path><path class="st2" d="M409,448.9H250.9c-2.1,0-4.4-0.2-6.5,0h-0.3l2.8,2.8V235.9c0-5.7,0.9-11.3,2.9-16.7c6.6-17.8,23.2-30,42.1-31
		c2.8-0.1,5.6-0.1,8.5-0.1h54.9c2.9,0,5.9-0.1,8.8,0.1c9.2,0.4,18.1,3.6,25.4,9.2c11.4,8.9,18.1,22.6,18,37.1v215.7
		c0.1,1.3,1,2.3,2.2,2.7c1,0.3,2.2,0,2.2-1.2v-216c0-27.4-21.4-50.1-48.7-51.6c-3-0.2-6-0.1-9-0.1h-55.2c-3.1,0-6.2-0.1-9.4,0.1
		c-9.6,0.5-18.8,3.8-26.5,9.5c-12.9,9.5-20.6,24.6-20.6,40.7v215.9c0.2,1.5,1.3,2.6,2.8,2.8h144.6c6.7,0,13.4,0,20,0h0.3
		C413.2,453,411.3,448.9,409,448.9z"></path><rect class="st0" x="211.7" y="342.8" width="55" height="108.1"></rect><path class="st2" d="M266.8,448.7h-55l2.3,2.4V347.4c0-1.4,0.1-2.9,0-4.2c0-0.1,0-0.1,0-0.2l-2.7,2h55l-2.3-2.4v94.8
		c0,4.4-0.1,8.8,0,13.2v0.2c0,2.9,5,3.2,5,0.4v-94.8c0-4.4,0.1-8.8,0-13.1V343c0-1.3-1-2.3-2.3-2.4h-55c-1.1,0-2.7,0.6-2.7,2v94.8
		c0,4.4-0.1,8.8,0,13.2v0.2c0,1.3,1,2.3,2.3,2.4h55c1.3,0.1,2.4-0.7,2.6-2C269.2,449.8,268.1,448.8,266.8,448.7z"></path><ellipse class="st0" transform="matrix(0.1602 -0.9871 0.9871 0.1602 -123.6143 510.8688)" cx="238.4" cy="328.1" rx="31.6" ry="31.6"></ellipse><path class="st2" d="M267.8,328.6c-0.1,12.2-7.4,23.4-18.9,27.5s-25.1,0.1-32.9-9.4s-9.4-23.8-2.8-34.5
		c6.4-10.4,18.6-15.7,30.6-13.1c12.2,2.7,21.5,12.5,23.6,24.9C267.7,325.5,267.8,327.1,267.8,328.6c0,2.7,4.5,1,4.5-1.1
		c0-14-8.8-26.4-21.9-31.1c-13.4-4.8-28.9-0.2-37.9,10.7c-12,13.7-10.5,34.6,3.2,46.6c7.9,6.9,18.7,9.6,29,7.3
		c14-3,24.7-14.2,27.2-28.2c0.3-1.7,0.4-3.4,0.4-5.2C272.3,324.8,267.8,326.5,267.8,328.6z"></path><rect class="st0" x="395.6" y="342.3" width="55" height="108.1"></rect><path class="st2" d="M451.5,448.5h-55l1.4,1.4V346.2c0-1.4,0.1-2.8,0-4.2c0-0.1,0-0.1,0-0.2l-3.1,2.4h55l-1.4-1.4v94.8
		c0,4.4,0,8.8,0,13.2v0.2c0,2.7,4.5,1,4.5-1v-94.8c0-4.4,0-8.8,0-13.1v-0.2c0.1-0.7-0.4-1.3-1.1-1.4c-0.1,0-0.2,0-0.3,0h-55
		c-1.1,0-3.1,1.1-3.1,2.4v94.8c0,4.4,0,8.8,0,13.2v0.2c-0.1,0.7,0.4,1.3,1.1,1.4c0.1,0,0.2,0,0.3,0h55c1.3,0,2.5-0.8,3-2
		c0.3-0.6,0.1-1.4-0.5-1.8C452,448.5,451.7,448.5,451.5,448.5z"></path><path class="st2" d="M234.7,318.2c-3.3,0.6-5.6,3.8-5,7.1c0.5,2.2,1.7,4.1,3.3,5.6c1.5,1.5,3.6,2.3,5.7,2.3c1.7,0,4.2,0.1,5.3-1.4
		c0.6-0.7-0.4-2-0.9-2.5c-0.4-0.5-0.8-0.9-1.4-1.2c-0.2-0.1-0.8-0.4-1-0.1c-0.5,0.6-1.2,1-2,1c-0.9,0.1-1.8,0.2-2.7,0.2
		c-0.5,0-1,0-1.5-0.1c-0.2-0.1-0.4-0.1-0.6-0.2c0.3,0.1-0.2-0.1-0.3-0.2s-0.2-0.1,0,0l-0.2-0.2c-0.2-0.2-0.2-0.1,0.1,0.1l-0.2-0.2
		c0.3,0.3,0.3,0.3,0.1,0.1l0.1,0.1l-0.2-0.3l0.1,0.2c-0.1-0.1-0.3-0.6-0.1-0.2c-0.1-0.2-0.2-0.4-0.2-0.6c0.1,0.3,0-0.3-0.1-0.3
		c0-0.2,0-0.4,0-0.6c0.1-2.4,1.9-4.4,4.2-4.9c1-0.2,0.1-1.7-0.2-2.1c-0.4-0.5-0.8-1-1.3-1.4C235.5,318.4,235,318.1,234.7,318.2
		L234.7,318.2z"></path><path class="st0" d="M299.5,282.6c8.7,4.5,83.6,39.1,90.5,38.5s60.3,2.8,52.1-34.2s-74.8-81.5-74.8-81.5s-37.5-6.2-57.5-24.2
		s-28-45.4-30.7-47.4s-29.4,10.4-33.4,39.8S283.2,274.1,299.5,282.6z"></path><path class="st2" d="M300.7,284.5c5.6,2.9,11.5,5.5,17.2,8.2c9.9,4.6,19.7,9,29.7,13.4c9.6,4.2,19.2,8.4,28.9,12.2
		c3.3,1.3,6.6,2.6,10,3.6c1.7,0.7,3.5,1,5.3,1.1c6.2-0.4,12.4-0.2,18.6-1c8.5-1,17.5-2.9,24.6-7.9c3.4-2.3,6.1-5.6,7.8-9.3
		c1.8-4.6,2.2-9.6,1.3-14.4c-1.8-11.4-8.4-21.8-15.3-30.7c-8.1-10.3-17.1-19.7-27-28.3c-8-7.2-16.5-14-25.1-20.4
		c-2.6-1.9-5.2-3.8-7.8-5.6c-0.9-0.8-2-1.5-3.2-2c-2.4-0.6-4.9-0.9-7.3-1.5c-5.3-1.2-10.6-2.7-15.8-4.5
		c-13.1-4.3-26.3-10.3-36.1-20.3c-9.6-9.8-16.1-22-21.8-34.3c-1.5-3.3-2.8-7.2-5.5-9.8c-0.8-0.9-1.9-1.4-3.1-1.3
		c-1.3,0.2-2.6,0.6-3.8,1.1c-9.2,3.9-17,11.7-22,20.2c-3.5,5.9-5.7,12.6-6.6,19.4c-0.4,4.4-0.1,8.9,0.7,13.2
		c2,11.5,6.3,22.6,11,33.2c5.2,11.7,11.3,23.1,18.1,34c5.6,8.9,11.7,17.8,19.1,25.4C295.1,280.7,297.7,282.8,300.7,284.5
		c1,0.5,0.3-1,0.1-1.3c-0.6-1-1.4-1.8-2.4-2.4c-0.4-0.2,0.1,0-0.1-0.1l-0.4-0.2c-0.3-0.2-0.6-0.4-0.9-0.6l-0.4-0.3
		c-0.2-0.1,0.2,0.2-0.1-0.1l-0.9-0.8l-0.5-0.4l-0.3-0.2c0.2,0.2-0.2-0.2-0.3-0.2l-0.6-0.5c-0.3-0.3-0.6-0.6-1-0.9l-0.5-0.5l-0.3-0.3
		c-0.2-0.2,0.3,0.4,0,0c-0.7-0.8-1.4-1.5-2.1-2.3l-1-1.2l-0.5-0.6l-0.3-0.4c-0.3-0.3,0.4,0.5-0.1-0.1c-1.6-2-3.1-3.9-4.5-6
		c-6.8-9.6-12.9-19.6-18.3-30.1c-5.8-10.8-10.6-22.2-14.4-33.8c-2.9-9.3-5.2-19.2-3.3-29c2.4-12.2,9.2-23,19.1-30.6
		c3-2.4,6.4-4.3,10-5.7c0.9-0.4,1.9-0.6,2.9-0.6c0.3,0,0.2,0.1,0.2,0c-0.3-0.3-1.3-1.1-1.5-1.4c0.3,0.4-0.3-0.5,0.1,0.1
		c0.1,0.1,0.3,0.6,0,0l0.2,0.4c2,3.9,3.7,8,5.7,12c3,6.2,6.4,12.1,10.2,17.8c4.5,6.8,9.9,13.1,16.1,18.5c5.3,4.5,11.3,8.4,17.6,11.4
		c10.8,5.2,22.1,9,33.7,11.6c1.6,0.4,3.1,0.7,4.7,1c0.4,0.1,1.5,0.5,1.9,0.4c-0.4,0.2-0.9-0.5-0.5-0.2c0.2,0.1,0.4,0.2,0.6,0.4
		l2.1,1.5c6.7,4.7,12.7,9.2,19,14.4c9.4,7.5,18.3,15.6,26.6,24.3c7.8,8.2,15.4,17.3,20.3,27.8c4,8.5,6.6,19.4,1.5,28
		c-4.3,7.3-12.7,11-20.6,13c-7.6,1.7-15.4,2.6-23.2,2.7c-2,0-4.1,0.1-6.1,0.2c-1.9-0.1-3.8-0.6-5.5-1.3c-8.2-2.7-16.2-6.2-24.2-9.6
		c-10.2-4.3-20.3-8.8-30.4-13.4c-8.1-3.7-16.2-7.4-24.2-11.2c-2-0.9-3.9-1.9-5.8-2.9c-1-0.5-0.3,1-0.1,1.3
		C298.8,283.1,299.7,283.9,300.7,284.5z"></path><path class="st0" d="M322.1,396.3c0,0,5.7,14.5,5.7,17.5s-26.3,32-31.1,28.5s7.4-28,7.4-28l-2.2-21L322.1,396.3z"></path><path class="st2" d="M320.5,394.9c1.8,4.5,3.5,9,4.9,13.7c0.4,1.4,1.1,3.1,0.5,4.3c-0.8,1.5-1.8,2.8-2.9,4.1
		c-3.5,4.4-7.3,8.5-11.3,12.5c-3.7,3.6-7.6,7.5-12.2,10c-0.7,0.4-1.5,0.8-2.3,1c-0.5,0.1-1.1,0.1-1.6,0c0.3,0,2.2,2.3,1.9,1.9
		c0.3,0.3,0.2,0.5,0.1,0.2s-0.2-0.8-0.2-1.1c-0.1-1,0-2.1,0.2-3.1c0.9-5.6,3.3-11.1,5.5-16.3c0.8-1.8,1.6-3.5,2.4-5.2
		c0.3-0.6,0.4-1.3,0.3-2l-1.6-15.4c-0.2-1.5-0.4-3-0.5-4.5c0,0.3-0.3,0,0,0.2c0.3,0.1,0.5,0.1,0.8,0.1l2.8,0.4l15.3,2.4l1.1,0.2
		c0.6,0.1-0.7-1.6-0.7-1.7c-0.5-0.6-1.5-1.9-2.3-2l-20.1-3.1c-0.1,0-0.2,0-0.2,0.2l1.1,10.1l0.8,7.2c0.2,1.2,0.4,2.4,0.4,3.7
		c0-0.2-0.1,0.1-0.2,0.3c-0.3,0.5-0.5,1.1-0.8,1.6c-0.9,1.8-1.7,3.6-2.4,5.4c-2.1,4.6-3.7,9.3-4.8,14.2c-0.5,1.7-0.5,3.6-0.1,5.3
		c0.4,1.1,1.1,2.2,2,3c0.7,0.9,1.6,1.6,2.6,2c1.2,0.1,2.4-0.2,3.4-0.8c1.7-0.9,3.2-1.9,4.7-3.1c4-3.2,7.7-6.7,11.2-10.4
		c3.2-3.3,6.3-6.8,9.1-10.5c0.8-1,1.6-2.1,2.1-3.3c0.5-1.1,0-2.5-0.3-3.6c-1.4-4.7-3-9.3-4.8-13.9l-0.4-1.1c-0.5-1-1.3-1.9-2.2-2.6
		C321.3,394.9,320.1,394,320.5,394.9z"></path><path class="st0" d="M269.2,361.6c0,0-17,23.5-19.5,23.5s-39-27.8-34-30.4s25.7,3.3,25.7,3.3l8.3-10.1L269.2,361.6z"></path><path class="st2" d="M267.1,360.2c-4,5.5-8.1,11-12.4,16.3c-1.2,1.5-2.5,3.1-3.9,4.5c-0.8,1-1.7,1.8-2.7,2.5
		c-0.2,0.1-0.2,0.1-0.3,0.1s0-0.1,0,0c0-0.2,0,0.2,0,0c0,0.1,0.4,0.1,0,0c0.6,0.2,0.1,0-0.2-0.1s0.3,0.2,0.2,0.1l-0.3-0.2l-0.7-0.5
		c-0.1-0.1-0.3-0.2-0.4-0.3s0.5,0.3,0,0l-0.9-0.6c-0.7-0.5-1.4-1-2.1-1.4l-1.1-0.8l-0.5-0.4l-0.3-0.2c-0.3-0.2,0.3,0.2,0,0
		c-1.7-1.2-3.4-2.5-5-3.8c-3.7-2.9-6.8-5.4-10.2-8.4c-2.6-2.2-5.1-4.6-7.3-7.2c-0.8-1-2.7-3.1-0.8-3.8c1.8-0.5,3.6-0.6,5.4-0.4
		c2.4,0.2,4.9,0.5,7.3,1c3.9,0.7,7.7,1.6,11.5,2.6l0.7,0.2c0.1,0.1,0.3,0.1,0.4,0l8.3-10.1l-2.4-1l17.1,12l2.4,1.7
		c0.3,0.2,2,1.5,2.4,1s-1.6-1.7-1.8-1.9l-17.1-12l-2.4-1.7c-0.3-0.2-2-1.4-2.4-1l-8.3,10.1h0.4c-3-0.9-6.1-1.6-9.2-2.2
		c-4.7-1-9.8-2.2-14.6-1.6c-0.8,0.1-2.5,0.2-2.8,1.2s0.4,1.8,0.8,2.5c1.9,2.9,4.6,5.4,7.2,7.8c6.9,6.3,14.1,12.1,21.7,17.5
		c2.3,1.9,4.9,3.4,7.6,4.7c0.7,0.4,1.7,0.3,2.2-0.3c1.2-1,2.2-2.1,3.2-3.2c5.4-6.1,10.2-12.7,15-19.3c0.1-0.2,0.2-0.3,0.3-0.5
		C271.7,362.4,267.6,359.5,267.1,360.2z"></path><path class="st0" d="M315.5,423.4c0,0-9-8-15.5-7.6s-25,17.4-5.4,35.1c0,0,44.8-30.4,42.7-40.9s-10.1-2.5-10.1-2.5
		S324.5,419.8,315.5,423.4z"></path><path class="st2" d="M317.4,423.5c-2.7-2.4-5.6-4.4-8.8-6.1c-3.8-2-8.5-4-12.7-2.3c-3.3,1.4-6.1,3.7-8.2,6.6
		c-2.7,3.4-4.2,7.6-4.2,11.9c0,6.9,4.3,12.8,9.1,17.3c0.8,0.7,2.9,2,4,1.3c10.3-6.9,20.1-14.4,29.4-22.6c2.9-2.6,5.6-5.3,8.2-8.2
		c2-2.1,3.7-4.5,4.9-7.2c1.1-3.1,0.2-6.5-2.2-8.7c-3.2-2.9-7.4-2.7-10.7-0.2c-0.6,0.3-1.1,0.8-1.4,1.4c-0.5,1.3-0.8,2.7-1.3,4
		c-1.9,4.9-5.1,9.5-10.1,11.5c-0.9,0.4,0.8,1.7,1.1,1.8c0.9,0.6,2,0.8,3.1,0.6c4.4-1.8,7.5-5.6,9.5-9.8c0.7-1.5,1.3-3,1.8-4.5
		c0.2-0.4,0.3-0.9,0.4-1.4c0-0.3,0.2-0.6,0-0.3c0.6-0.7,1.3-1.2,2.1-1.6c0.5-0.4,1.1-0.7,1.8-0.9c0.3-0.1,0.6-0.2,0.9-0.2
		c0.3,0,0.6,0.1,0.2,0c-0.2-0.1-0.5-0.2-0.7-0.4c-0.2,0,0.1,0.1,0.2,0.2c0.2,0.3,0.4,0.6,0.5,0.9c0.5,1,0.8,2,0.9,3.1
		c0,0.9-0.2,1.7-0.5,2.5c-1.1,2.5-2.7,4.8-4.5,6.7c-2.5,2.8-5.1,5.4-7.8,7.8c-5.9,5.3-12.1,10.2-18.5,14.9c-3.7,2.7-7.4,5.4-11.1,8
		l4,1.2c-4-3.7-7.5-8.3-8.2-13.8c-0.4-4,0.5-8.1,2.7-11.5c1.8-2.9,4.2-5.4,7.2-7.1c0.9-0.6,2-1,3.1-1.3c0.1,0,0.5-0.1,0.1,0
		c0.2,0,0.4,0,0.5,0c0.4,0,0.9,0,1.3,0.1c0.9,0.2,1.7,0.5,2.5,0.9c1.9,0.9,3.8,2,5.5,3.3c0.7,0.5,1.3,1,2,1.5c0.2,0.2,1.2,1,0.5,0.4
		c0.9,0.8,2,1.3,3.2,1.4C317.7,424.8,318.2,424.2,317.4,423.5z"></path><path class="st0" d="M257.3,377.1c0,0,6.5,5.1,4.3,11.2s-9.8,7.2-24.2-2.2s-38.3-27.5-36.5-32.2s17-12.6,28.6-8.7s4.3,26,4.3,26
		s10.1,11.6,14.5,11.6S257.3,377.1,257.3,377.1z"></path><path class="st2" d="M255.7,377.7l0.4,0.4c0.2,0.1,0.3,0.3,0.5,0.5c-0.3-0.3,0.3,0.3,0.4,0.4c1,1.1,1.8,2.4,2.4,3.8
		c0.9,2.6,0.2,5.5-1.8,7.4c-1.7,1.5-3.7,1.6-5.7,1.3c-3.3-0.5-7-2.3-10.1-4.1c-6.8-4.1-13.4-8.7-19.7-13.6
		c-5.5-4.2-11.3-8.6-15.9-13.8c-0.8-0.8-1.5-1.7-2.1-2.6c-0.1-0.1-0.4-0.7-0.6-1c-0.1-0.2-0.1-0.3-0.2-0.5s-0.1-0.3,0,0
		c0-0.1-0.1-0.2-0.1-0.3c0-0.1,0-0.3,0-0.4c0-0.2-0.1,0.2,0-0.1c0.2-0.4,0.4-0.9,0.7-1.2c0.8-1,1.8-1.9,2.9-2.6
		c5.9-4.2,14.7-6.8,21.8-4.8c0.4,0.1,0.6,0.2,0.8,0.3c0.1,0.1,0.3,0.1,0.4,0.2c-0.4-0.2-0.1,0,0,0l0.5,0.3c0.3,0.2-0.3-0.2,0,0
		c0.1,0.1,0.7,0.6,0.5,0.4c0.8,0.9,1.5,1.9,1.9,3.1c0.8,2.5,1.1,5.2,0.9,7.9c-0.3,3.9-1,7.8-2.1,11.6c-0.3,1.2,1.3,2.5,2.1,3.3
		c2.1,2.3,4.3,4.4,6.6,6.4c2.3,2,5.1,4.1,8.1,4.5c3.5,0.5,6.8-1.8,9.2-4.1c0.6-0.6,1.2-1.2,1.7-1.9c1.3-1.6-3.1-3.8-4.2-2.5
		c-1.1,1.3-2.3,2.4-3.6,3.5c-1,0.8-2.1,1.4-3.3,1.9c-0.2,0.1-0.5,0.1-0.7,0.2c-0.1,0-0.2,0-0.3,0c-0.4,0.1,0.4,0.1,0,0
		s0.4,0.2-0.1,0c-0.1,0-0.6-0.3-0.3-0.1s-0.3-0.2-0.4-0.2s-0.4-0.2-0.6-0.4s-0.6-0.4-0.4-0.3c-0.9-0.7-1.8-1.4-2.7-2.1
		c-1.6-1.4-3-2.8-4.5-4.3c-0.8-0.9-1.7-1.8-2.5-2.7l0.3,1.1c0.9-2.7,1.5-5.5,1.8-8.3c0.7-4.6,0.9-9.8-1.2-14.1
		c-3-5.9-10.1-7.5-16.2-7.3c-6.8,0.2-13.3,2.6-18.7,6.6c-1.3,1-3.3,2.7-3.3,4.5c0,1.5,1.1,3.1,2,4.2c3.2,4.4,7.7,8,11.9,11.5
		c5.5,4.5,11.2,8.7,16.9,12.7c6.1,4.2,12.3,8.6,19.4,11c4.2,1.4,10.3,2.5,13.6-1.2c3.9-4.4,1.8-10.4-1.9-14.2
		c-0.4-0.5-0.9-0.9-1.4-1.3c-0.8-0.6-2.3-1.4-3.3-0.9S255,377.1,255.7,377.7z"></path><path class="st2" d="M333.4,331c0,0,27,39,5,64.1s-67.2,0.6-48.4-55.3S333.4,331,333.4,331z"></path><path class="st2" d="M332.1,332l0.6,0.9c0.2,0.3,0.3,0.5,0,0l0.4,0.7l0.9,1.5c1.8,3.1,3.4,6.2,4.9,9.5c3.8,8.5,6.7,18.4,6.1,28.1
		s-5.1,19.3-13.1,25.1c-5.5,4-12.4,5.7-19.1,4.6c-3.2-0.5-6.2-1.7-9-3.3c-0.8-0.5-1.5-1-2.3-1.5c-0.2-0.1-0.4-0.2-0.5-0.4l-0.3-0.2
		c-0.4-0.3-0.7-0.6-1.1-0.9c-0.7-0.6-1.4-1.3-2-1.9l-0.5-0.5c-0.3-0.4,0.2,0.2-0.1-0.2s-0.7-0.8-1-1.2c-0.6-0.8-1.2-1.6-1.8-2.4
		l-0.4-0.6c-0.1-0.1-0.4-0.6-0.1-0.2c-0.3-0.4-0.5-0.9-0.8-1.3c-1-1.8-1.8-3.6-2.5-5.5c-1.6-4.4-2.5-9-2.7-13.7
		c-0.7-12.6,2.8-25.5,7.9-36.9c2.1-4.6,4.6-9.4,8.3-13c2.1-2.3,4.9-3.8,8-4.2c0.2,0,0.4,0,0.6,0c0.4,0,0.7,0,1.1,0s0.6,0.1,0.9,0.1
		l0.5,0.1c-0.4-0.1,0.1,0,0.2,0.1c0.6,0.2,1.2,0.4,1.8,0.6l0.5,0.2c0.4,0.2-0.3-0.2,0,0l0.9,0.5c0.6,0.4,1.2,0.7,1.8,1.1l0.4,0.3
		c0.5,0.3-0.2-0.2,0.1,0.1s0.6,0.4,0.8,0.7c1.1,0.9,2.1,1.9,3.1,2.9c0.4,0.4-0.1-0.1,0,0l0.3,0.4l0.7,0.8c0.4,0.5,0.9,1,1.3,1.6
		c0.8,1,1.5,2,2.2,3c0.3,0.4,0.6,0.9,0.9,1.3l0.2,0.3c0.2,0.4-0.3-0.5-0.1-0.2l0.4,0.6c0.3,0.6,0.7,1.1,1,1.7l0.4,0.6
		c0.5,0.9,1.6,2.1,2.8,1.7s1-1.8,0.6-2.6c-1.7-3.2-3.7-6.1-5.9-8.9c-3.8-4.7-8.6-9.6-14.7-11c-8-1.9-14.2,3.7-18.3,10
		c-3.8,5.9-6.4,12.5-8.5,19.1c-2.1,6.2-3.4,12.7-4,19.2c-0.8,10.3,0.7,21,5.9,30c4,7.4,10.5,13.1,18.3,16.3
		c6.9,2.7,14.7,2.5,21.5-0.4c8.9-4,15.4-12.3,18.1-21.6c3-10.5,1.2-22-2.4-32.2c-2.5-7.1-5.8-13.8-9.8-20.1c-0.2-0.3-0.4-0.6-0.6-1
		c-0.5-0.8-1.9-1.7-2.8-1S331.6,331.3,332.1,332z"></path><path class="st2" d="M395.6,342.3c0,0,0,27-31.4,18.9s-35.8-33.3-54.7-28.3s-17,37.1-40.8,33.3s-33.3-22-20.7-53.4
		c12.6-31.4,37.1-57.2,81-50.9C372.9,268.2,395.6,342.3,395.6,342.3z"></path><path class="st2" d="M393.3,341.7c0,0.2,0,0.8,0,0.4c0,0.5-0.1,1.1-0.2,1.6c-0.2,1.8-0.6,3.5-1.2,5.2c-1.5,4.8-5.1,8.8-9.7,10.9
		c-7.8,3.4-17.3,1-24.9-1.9c-8-3.1-14.8-8.2-21.2-14c-5-4.5-10-9.5-16.5-11.8c-6.6-2.4-13.9-1.1-19.3,3.4
		c-5.3,4.4-8.3,10.9-11.8,16.6c-3.3,5.4-7.3,11.1-13.8,12.6c-3.7,0.9-7.6,0.2-11.2-0.8c-3.3-0.8-6.4-2.2-9.2-4.2
		c-5.8-4.2-8.8-11-9.5-18.1c-0.9-10,2.2-20.2,6-29.4c3.3-8.3,7.7-16.1,13.1-23.3c5.3-7,11.8-13,19.2-17.6c8-4.8,16.9-7.8,26.2-8.7
		c5.3-0.5,10.7-0.5,16,0c2.3,0.2,4.6,0.5,6.8,1c0.8,0.2,1.6,0.4,2.5,0.6c0.5,0.1,0.9,0.3,1.3,0.4c0.7,0.2,0.4,0.1,1.2,0.4
		c3.2,1.2,6.2,2.7,9.1,4.5c3.1,2,6.1,4.3,8.8,6.8c11.2,10.2,19.5,23.4,26.3,36.9c4.4,8.7,8.2,17.8,11.3,27.1
		C393,340.8,393.1,341.3,393.3,341.7c0.3,1,1.7,1.6,2.6,1.8c0.4,0.1,2.4,0.5,2.1-0.5c-2.3-7.1-5-14-8.1-20.8
		c-6.3-14-14-27.5-24.2-39c-5.2-6.1-11.4-11.3-18.2-15.5c-7.5-4.4-15.9-7.1-24.5-7.7c-10.4-0.9-21.1-0.2-31.1,3.1
		c-8.7,2.9-16.7,7.7-23.5,14c-6.6,6.2-12.1,13.4-16.4,21.3c-5,9-9.1,18.8-11,28.9c-1.5,8.2-1.5,17.1,2.6,24.6
		c4,7.1,11.2,11.5,18.8,13.9s16.2,3.4,22.7-1.8c5.4-4.3,8.4-10.9,11.9-16.7s7.9-11.7,15-13.4c1.5-0.4,3-0.5,4.5-0.4
		c-0.4,0,0.2,0,0.3,0c0.2,0,0.3,0,0.5,0.1c0.2,0,1.2,0.2,0.7,0.1c0.3,0.1,0.6,0.2,0.9,0.2c0.1,0,0.7,0.2,0.1,0l0.6,0.2
		c1.1,0.5,2.2,1,3.2,1.7c1.2,0.8,2.4,1.7,3.5,2.7c6.2,5.2,11.9,11,18.9,15.4c9,5.6,19.7,9.7,30.4,10c6.7,0.2,13.4-1.9,17.6-7.3
		c2.5-3.3,4.1-7.3,4.5-11.5c0.1-0.7,0.2-1.5,0.2-2.3C398,341.6,393.3,340.1,393.3,341.7z"></path><path class="st0" d="M288.7,358.8c1.4-9,6.2-17.2,13.5-22.7c3.8-2.8,8.5-5.2,13.3-5.4c4.5-0.2,8.8,1.7,12.4,4.4
		c4.4,3.2,7.9,7.4,11.3,11.6c1.5,1.8,5.7-0.8,4-2.8c-6.4-7.9-14.3-16.6-25.2-17.1c-5.9-0.3-11.8,2.1-16.6,5.3
		c-4.3,2.8-8.1,6.5-11,10.7c-3.3,4.8-5.5,10.2-6.4,16C283.5,361.6,288.3,361.1,288.7,358.8L288.7,358.8z"></path><path class="st0" d="M259.3,160.2c0,0,20.2-16.6,16.5-32c-4.2-18-24.1-53.3-28.5-38.3c-1.8,6,6.2,20.6,6.2,20.6s-9.3-8.3-13.8-3.3
		s-1.3,8.9-1.3,8.9s-5.9-0.8-6.9,7.8s9.2,10.6,9.2,10.6s-5.2,13.1,10.7,21.3L259.3,160.2z"></path><path class="st2" d="M261,162c5.3-4.4,9.8-9.7,13.3-15.7c2.4-4.3,4.1-9.3,3.7-14.2c-0.4-4.4-2.2-8.8-3.8-12.9
		c-3.6-9-8.1-18.1-14-25.8c-2-2.7-10.4-13.2-13.8-6.9c-1.9,3.5-0.6,7.8,0.5,11.3c1.3,3.7,2.8,7.4,4.6,10.8c0.1,0.2,0.2,0.4,0.3,0.6
		l1.6,0.5c-1.3-1.2-2.7-2.2-4.2-3.2c-2.2-1.4-4.9-2.8-7.5-2.7c-3.2,0.1-5.5,3-6.1,5.9c-0.4,2.1,0.2,4.2,1.5,5.8l-0.4-1.2
		c-3.8-0.5-6.1,3.1-6.8,6.3c-0.7,2.9-0.2,6,1.6,8.4c1.8,2.5,4.1,4.5,6.8,5.9c1.3,0.7,2.6,1.1,4,1.4l-3.4-3.6
		c-1.1,3.2-1.2,6.7-0.1,10c1.2,3.5,3.3,6.7,6,9.2c2.7,2.4,5.7,4.5,9,6.2l6.8,3.8c1,0.5,0-1-0.1-1.2c-0.7-0.9-1.6-1.7-2.6-2.3
		l-5.2-2.9c-2.2-1.1-4.3-2.4-6.4-3.8c-3.6-2.8-5.1-7.8-4.6-12.5c0.1-1,0.3-2,0.7-3c0.2-0.6-0.8-1.6-1.1-1.9
		c-0.6-0.8-1.3-1.3-2.2-1.7c-1.5-0.4-3-1-4.3-1.8c-0.2-0.1-0.1-0.1-0.4-0.3c0,0-0.1-0.1-0.1-0.1s-0.1-0.2,0.1,0.1
		c0,0.1-0.1-0.2-0.2-0.3c-1.3-2.2-1.1-5.1-0.4-7.4c0.5-1.9,1.7-3.6,3.5-4.5c0.8-0.4,1.7-0.6,2.7-0.5c0.6,0.1-0.3-1.2-0.4-1.2
		s0.2,0.5,0,0c0.1,0.3,0-0.1-0.1-0.2c-0.1-0.2-0.2-0.4-0.2-0.6c-0.3-1.2-0.3-2.4,0.1-3.5c0.8-2.5,2.9-5,5.7-4.9
		c2.2,0.2,4.2,0.9,6,2.2c0.7,0.4,1.3,0.9,1.9,1.3l0.4,0.3c0.4,0.3-0.4-0.3-0.1-0.1l0.2,0.2c0.1,0.1,2.2,1.6,1.6,0.5
		c-1.3-2.4-2.5-5-3.5-7.6c-1.5-3.6-3.4-8.1-2.7-12.1c0.3-2,1.6-4.5,3.9-4.1c0.4,0.1,0.8,0.2,1.1,0.4c0.1,0,0.2,0.1,0.5,0.3s0,0,0,0
		l0.5,0.4c-0.7-0.5,0.8,0.8,0.1,0.1c0.1,0.1,1,1,0.5,0.5c0.7,0.7,1,1.2,1.5,1.7c5.5,7,9.6,15.3,13,23.6c1.7,3.9,3,7.9,3.9,11.9
		c0.9,4.7-0.4,9.5-2.4,13.8c-3.5,6.8-8.3,12.7-14.2,17.5C257,158.8,260.3,162.6,261,162z"></path><path class="st0" d="M270.5,136.6c0,0-3.5-7.6-8.8-11s-10.8-1.8-10.9,2s5.9,3.8,7,8.4c0,0-4.1-3.8-7.4,0.6"></path><path class="st2" d="M272.9,135.8c-2-4.5-5.4-9.2-9.8-11.6c-3.7-2-8.2-1.9-11.9,0.2c-2.3,1.4-3.9,4.3-1.7,6.5s5.1,2.8,5.9,6
		l4.5-1.9c-3.4-3.1-9.1-1.4-11.8,1.9c-0.7,0.8,0.7,0.8,1.2,0.7c1.2-0.1,2.3-0.6,3.1-1.4c0.1-0.1,0.8-0.9,0.8-0.9s-1.6,0.1-0.9,0.3
		c0.5,0.1,1,0.2,1.5,0.3c0.6,0.3,1.2,0.6,1.6,1.1c0.7,0.7,4.8-0.7,4.5-1.9c-0.6-2.4-2.6-3.7-4.6-5c-1.6-1.1-3.3-2.8-2-4.8
		c0.1-0.2,0.2-0.3,0.3-0.4s0.1-0.1-0.1,0s-0.3,0-0.1,0s-0.1,0,0.2,0c0.3,0,0.6,0,0.9,0c1.8,0.2,3.5,0.8,5,1.9
		c2.4,1.7,4.4,3.8,5.9,6.2c1,1.4,1.8,2.9,2.5,4.4C268.7,138.6,273.4,136.7,272.9,135.8L272.9,135.8z"></path><path class="st2" d="M249.8,117.5v0.2c0,0.3,0-0.3,0-0.1v0.4c0,0.7-0.1,1.3-0.2,2c-0.1,0.8-0.3,1.6-0.6,2.3
		c-0.2,0.7-0.6,1.3-1.2,1.8c0.2-0.2-0.1,0.1-0.2,0.1s-0.4,0.2-0.1,0.1s0,0-0.1,0c-0.4,0,0.1,0,0.1,0c-0.1,0-0.2,0-0.3,0
		c0,0,0.6,0,0.2,0s0.6,0.1,0.1,0s0.6,0.3,0,0c-0.4-0.2,0.1,0.1,0.2,0.1c-0.1,0-0.2-0.1-0.3-0.1c-0.1-0.1-0.2-0.1-0.3-0.2
		c-0.4-0.2,0.2,0.2,0,0l-0.6-0.5c-0.2-0.2-0.4-0.4-0.6-0.6c0,0-0.2-0.2-0.1,0l-0.2-0.3c-0.4-0.4-0.7-0.9-1.1-1.4
		c-0.7-1-1.3-2.1-1.9-3.2c-1.2-2.4-1.9-4.9-2.2-7.6c0-0.4-0.6-0.8-0.9-1c-0.6-0.3-1.2-0.5-1.8-0.6c-0.8-0.1-2.2,0-2.1,1.1
		c0.3,2.8,1.1,5.4,2.3,7.9c1.1,2.5,2.7,4.8,4.8,6.7c2.1,1.8,5.1,3.1,7.8,2.2c2.1-0.7,3.2-2.6,3.7-4.7c0.3-1.4,0.4-2.9,0.3-4.3
		c0-0.4-0.6-0.9-0.9-1c-0.6-0.3-1.2-0.5-1.8-0.6C251,116.4,249.7,116.5,249.8,117.5L249.8,117.5z"></path><path class="st2" d="M247.4,129.3c0,0.1,0.1,0.1,0.1,0.2c-0.2-0.6,0-0.1,0,0.2c0.2,0.6,0.3,1.2,0.3,1.8c0,0.2,0,0.6,0,0.2
		c0,0.2,0,0.4,0,0.5c0,0.1-0.1,0.3-0.1,0.4s0.1-0.3,0-0.1c0,0.1-0.1,0.2-0.1,0.3c-0.2,0.5,0.2-0.2-0.1,0.1s0.3-0.3-0.1,0.1
		c-0.2,0.2,0.2-0.1,0.2-0.1c-0.1,0.1-0.2,0.1-0.3,0.2c0.6-0.4-0.4,0.1,0,0c-0.4,0.1-0.7,0.1-1.1,0.1c-0.3,0,0.4,0,0,0H246
		c-0.3,0-0.5,0-0.8-0.1l-0.7-0.1l-0.3-0.1h-0.1c-0.5-0.1-1-0.3-1.5-0.4c-2-0.7-3.8-1.7-5.4-3.1c-1.7-1.2-2.8-3-3.3-5.1
		c-0.4-2.5-5-0.7-4.6,1.6c0.8,5.1,6,8.7,10.6,10.3c2.4,0.9,4.9,1.1,7.4,0.6c2.7-0.5,4.8-2.7,5.3-5.5c0.1-1.6-0.1-3.1-0.7-4.6
		c-0.5-1.1-2.3-0.7-3.1-0.3C247.6,127,247.1,128.2,247.4,129.3L247.4,129.3z"></path><path class="st2" d="M259.7,116.4c-0.3-0.4-0.5-0.7-0.7-1.1c-0.5-0.8-1-1.6-1.5-2.4c-1.1-1.8-2.1-3.5-3.2-5.2
		c-0.3-0.5-0.6-1-0.9-1.4c-0.8-0.9-2-1.4-3.3-1.2c-0.5,0-1,0.3-1.3,0.7c-0.3,0.4-0.3,0.8,0,1.2c0.3,0.4,0.5,0.7,0.7,1.1l1.4,2.4
		l3.2,5.2c0.3,0.5,0.6,1,0.9,1.4c0.8,0.9,2,1.4,3.3,1.2c0.5,0,1-0.3,1.3-0.7C259.9,117.3,259.9,116.8,259.7,116.4L259.7,116.4z"></path><path class="st2" d="M389.5,196.6c19.9-31.6,2.9-50.8-11.5-59s-27.1-7.2-32.9-2.2c-4.3,3.7-6.1,36.4-6.1,36.4l14.9,35.4
		C353.9,207.1,374.3,220.7,389.5,196.6z"></path><path class="st2" d="M391.3,198.1c6.3-10,10.8-21.9,8.6-33.8c-1.6-8.8-6.7-16.6-13.4-22.5c-7.9-6.9-18.6-12.1-29.2-12.4
		c-4.5-0.1-9.2,0.7-13,3.3c-2.2,1.6-2.9,4.1-3.5,6.7c-1.9,7.5-2.6,15.4-3.2,23.1c-0.2,2.5-0.4,5-0.5,7.4c0,1.1,0.3,2.2,0.8,3.2
		c4.7,11.2,9.3,22.4,14.1,33.5c0.7,1.4,1.8,2.4,3.2,3c2.4,1.2,4.9,2.1,7.5,2.7c8.3,1.8,17-0.8,22.9-7
		C387.8,203.2,389.7,200.8,391.3,198.1c1-1.5-2.5-5-3.7-3.2c-4.2,6.5-10.1,12.3-18,13.6c-4.6,0.7-9.2,0-13.4-2
		c-0.2-0.1-0.7-0.3-0.2-0.1l-0.5-0.2c-0.3-0.1-0.5-0.3-0.8-0.4s-0.5-0.3-0.7-0.4l1.7,1.9l-13.1-31l-1.9-4.3l0.2,1
		c0.3-5.7,0.8-11.3,1.5-17c0.4-4.1,1-8.2,1.9-12.2c0.3-1.5,0.7-3,1.3-4.5c0.2-0.5,0.4-1,0.7-1.5c0.1-0.1,0.1-0.2,0.2-0.3
		c-0.2,0.3,0,0,0,0c0.2-0.2,0.5-0.5,0.8-0.7c3.8-2.9,9-3.4,13.6-3.1c6.5,0.7,12.7,2.8,18.2,6.2c6.9,4.1,12.6,9.8,15.6,17.5
		c5,12.8-0.1,26.5-7,37.5C386.6,196.5,390.2,200,391.3,198.1z"></path><path class="st0" d="M317.9,179.1c-4-15,25.3-37.8,25.3-37.8c5.8,1.9,17.3,1.7,17.3,1.7c-11.5,14.6,5,29.4,5,29.4
		c8.6-6.6,17,2.1,11.8,10.3s-13.9,4.7-13.9,4.7s-7.2,23.3-9.9,26.2c0,0-19,2.1-21.1-14.9C332.4,198.7,320.6,189.3,317.9,179.1z"></path><path class="st2" d="M320.4,178.6c-1.8-6.8,2.8-13.8,6.7-18.9c4.4-5.6,9.3-10.7,14.7-15.2l1.2-1.1l1.1-0.9c0.3-0.3,0.6-0.5,1-0.8
		l-3.5,0.7c3.7,1,7.5,1.5,11.4,1.6c2.4,0.1,4.7,0.2,7.1,0.1l-1.8-1.3c-3.8,4.7-5.2,10.9-3.6,16.7c1.3,4.3,3.5,8.2,6.5,11.5
		c0.6,0.7,1.3,1.5,2,2.1c1,0.9,3.2,0.4,4.2-0.3c1.2-0.9,2.5-1.8,4-1.6c1.4,0.2,2.6,0.9,3.5,2c2.3,2.7,1.9,6.5,0.1,9.3
		c-0.9,1.4-2,2.6-3.5,3.5c-0.9,0.5-1.9,0.8-2.9,0.8c-0.8,0-1.6-0.1-2.3-0.3c-0.3-0.1-0.6-0.2-0.9-0.2s0.4,0.2,0,0
		c-1.1-0.4-4-0.3-4.4,1.1c-2.2,7.2-4.6,14.6-7.5,21.6c-0.4,1-0.8,1.9-1.3,2.8c-0.2,0.4-0.4,0.7-0.5,1s0-0.1-0.1,0.2
		c-0.1,0.1-0.2,0.2-0.2,0.3l2.7-1c-0.4,0-0.8,0.1-1.2,0.1c-0.2,0-1,0-0.2,0h-0.6c-0.6,0-1.3,0-2-0.1l-0.9-0.1c-0.1,0-0.6-0.1-0.2,0
		l-0.5-0.1c-0.8-0.1-1.5-0.3-2.3-0.5c-1.6-0.4-3-1.1-4.4-1.9c-3.3-2.1-5.6-5.4-6.4-9.3c-0.2-0.8-0.1-1.9-0.6-2.5
		c-0.3-0.3-0.6-0.5-0.9-0.7c-1.3-1.2-2.6-2.4-3.9-3.7c-4.1-4.2-8-9.1-9.6-14.9c-0.4-1.6-5.3-0.5-4.9,0.9c2.1,7.6,8,14.1,13.8,19.2
		c0.3,0.2,0.5,0.4,0.7,0.6c0.2,0.5,0.2,1,0.2,1.4c0.4,1.9,1,3.6,1.9,5.3c1.6,2.7,3.9,4.9,6.7,6.2c4.3,2,9,2.9,13.7,2.5
		c1.1,0,2.1-0.3,3-0.9c0.7-0.7,1.2-1.5,1.5-2.4c1.3-2.7,2.4-5.5,3.4-8.4c1.9-5.3,3.7-10.6,5.3-15.9l-4.4,1.1
		c4.7,1.8,10,1.2,14.3-1.5c3.2-2.1,5.3-5.5,5.7-9.3c0.1-3.2-1.6-6.2-4.5-7.6c-4.3-2.1-9.6-0.6-13.3,2.1l4.2-0.3
		c-5.2-4.7-9.4-12-8.9-19.2c0.3-3.4,1.6-6.7,3.8-9.4c0.9-1.2-1.1-1.3-1.8-1.3h-0.9c-1.2,0-2.4,0-3.6-0.1c-3-0.1-6-0.4-9-0.9
		c-1.9-0.4-3.7-1.2-5.6-0.3c-0.3,0.1-0.6,0.3-0.8,0.5c-0.9,0.6-1.7,1.4-2.5,2.1c-7.4,6.3-14.6,13.3-19.6,21.7
		c-2.6,4.3-4.8,9.6-3.5,14.7C315.9,181.1,320.7,180.1,320.4,178.6z"></path><path class="st2" d="M351.9,178.8c-0.4,1.7-1.1,3.2-2.1,4.6l0.1-0.2c-0.6,0.8-1.4,1.3-2.4,1.5h0.2c-0.2,0-0.5,0-0.7,0
		c-0.1,0-0.7-0.1-0.8-0.2c0,0,0.2,0.1,0,0l-0.2-0.1c-0.1-0.1-0.3-0.2-0.4-0.3l-0.2-0.2c-0.3-0.2,0.3,0.2,0,0s-0.4-0.3-0.5-0.5
		s-0.6-0.5-0.8-0.4s-0.2,0.7-0.1,0.9c0.3,1.2,0.8,2.3,1.7,3.1c0.9,1,2.1,1.8,3.5,2.1c0.9,0.1,1.8-0.1,2.5-0.7
		c1.3-1.2,2.2-2.7,2.7-4.4c0.1-0.4,0.3-0.8,0.4-1.2c0.1-0.4,0-0.8-0.1-1.2c-0.2-0.6-0.5-1.2-0.8-1.7c-0.3-0.4-0.6-0.8-1-1.1
		C352.3,178.6,351.9,178.5,351.9,178.8L351.9,178.8z"></path><path class="st0" d="M339.7,160.7c-4.3,0.7-8.6,0.7-12.9,0.2c-14.5-1.7-17.5,2.6-14,6.6s22.9,7.3,22.9,7.3"></path><path class="st2" d="M339.7,158.9c-1.3,0.3-2.7,0.4-4,0.4c-3.7,0-7.5-0.2-11.2-0.6c-4.5-0.3-11.1-0.4-14.3,3.5
		c-2.3,2.8-0.5,6.1,2.1,7.9c3.6,2.3,8.2,3.4,12.4,4.4c3.3,0.8,6.6,1.5,9.9,2.1c1.3,0.2,2.5-0.3,3.3-1.3c0.5-0.6,0.4-1.5-0.3-2
		c-0.2-0.1-0.4-0.2-0.7-0.3c-2.5-0.4-4.9-0.9-7.3-1.5c-4-0.8-8-2-11.8-3.5c-0.7-0.3-1.4-0.7-2.1-1.1c-0.4-0.2-0.1,0-0.4-0.3
		c-0.3-0.2-0.5-0.5-0.7-0.8c0,0-0.3-0.5-0.1-0.1c-0.1-0.1-0.1-0.2-0.2-0.4c-0.1-0.3-0.2-0.5-0.3-0.8c-0.1-0.4,0,0.4,0-0.1
		c0-0.1,0-0.2,0-0.2s0-0.2,0-0.4c-0.1,0.5,0,0,0.1-0.1c0.2-0.3-0.3,0.2,0,0c0,0,0.5-0.6,0,0c0.1-0.1,0.2-0.2,0.3-0.3
		c0.5-0.3-0.5,0.3,0,0l0.4-0.3c-0.6,0.4,0,0,0.1,0s0.3-0.1,0.4-0.1c0.3-0.1,0.3-0.1,0,0l0.4-0.1c2.5-0.5,5-0.6,7.5-0.4
		c5.6,0.3,11.1,1.2,16.7,0c1-0.2,2.4-1.1,2.4-2.3S340.6,158.6,339.7,158.9L339.7,158.9z"></path><path class="st2" d="M400.4,141.4c-0.4,3.1-0.4,6.3-0.1,9.4c0.5,4.7,1.9,10.2,6.8,12c2.8,0.8,5.8,0.6,8.4-0.8
		c3.1-1.4,6.4-3.8,7.3-7.2c1.6-5.5-3.7-11-9.2-10.3c-7.7,0.9-8.3,11.7-7.6,17.5c0.5,4,1.6,7.8,3.4,11.4c1.4,3.1,3.7,5.8,6.5,7.7
		c2.5,1.7,5.7,1.9,8.3,0.3c2-1.4,3.4-3.6,3.8-6.1c0.6-4.2-1.8-8.1-5-10.7s-7.5-4.2-11.4-2.6c-4.8,2.1-4.9,8.4-4.2,12.8
		c0.3,2,0.8,4,1.3,6c0.6,2.3,5.5,2.1,4.7-0.7c-0.9-2.9-1.4-6-1.4-9.1c0-0.9,0.1-1.9,0.4-2.8c0.1-0.4,0.2-0.8,0.4-1.1
		c0.1-0.3-0.2,0.3,0,0.1c0-0.1,0.1-0.2,0.1-0.2c0.1-0.2,0.2-0.4,0.3-0.5s0.2-0.3,0.3-0.4s-0.3,0.2,0,0s1.1-0.6,0.5-0.4l0.8-0.3
		c-0.1,0-0.5,0.1,0,0c0.2,0,0.4,0,0.5-0.1c0.4-0.1-0.6-0.1-0.1,0c0.2,0,0.3,0,0.5,0l0.5,0.1c-0.1,0-0.5-0.1,0,0l1,0.3
		c0.6,0.2-0.4-0.2,0,0c0.2,0.1,0.4,0.2,0.6,0.3s0.6,0.4,0.9,0.5c0.5,0.3-0.3-0.2,0,0s0.4,0.3,0.6,0.4c0.3,0.2,0.6,0.5,0.9,0.7
		c0.1,0.1,0.2,0.2,0.4,0.4c0.3,0.3-0.1-0.1-0.1-0.1s0.2,0.2,0.2,0.3c0.2,0.3,0.5,0.6,0.7,0.9s0.2,0.3,0.3,0.5s0.4,0.6,0.2,0.4
		s0.1,0.3,0.2,0.3l0.2,0.5c0.2,0.4,0.3,0.8,0.4,1.1s0-0.3,0,0.2c0,0.2,0.1,0.3,0.1,0.5c0,0.4,0.1,0.8,0,1.2c0,0.1,0,0.2,0,0.3
		c0,0.3,0-0.4,0-0.1s0,0.3-0.1,0.5c-0.1,0.4-0.2,0.8-0.4,1.2c-0.1,0.2-0.2,0.5-0.1,0.2c-0.1,0.2-0.3,0.5-0.4,0.7
		c-0.3,0.5-0.6,0.9-1,1.3c-0.2,0.2-0.4,0.3-0.5,0.4c-0.3,0.2-0.1,0.1,0,0c-0.1,0.1-0.2,0.1-0.3,0.1c-0.1,0.1-0.2,0.1-0.3,0.1
		c0.1,0,0.4-0.2,0.1,0c-0.1,0-0.2,0-0.3,0c0.3,0,0.4,0,0,0s-0.6-0.1-0.1,0c-0.2-0.1-0.5-0.1-0.7-0.2c0.5,0.2,0,0-0.2-0.1
		s-0.7-0.5-0.3-0.2c-0.9-0.6-1.7-1.5-2.4-2.4c-1.8-2.5-3.2-5.2-4-8.1c-1-3.3-1.5-6.7-1.3-10.1c0.1-2.8,0.7-6.2,2.7-8.2
		c-0.2,0.2,0.3-0.3,0.4-0.3s0.5-0.4,0.4-0.3c0.2-0.2,0.5-0.2,0.8-0.2h0.3c-0.1,0-0.5,0-0.1,0c0.1,0,0.7,0.1,0.3,0s0.3,0.1,0.4,0.1
		c0.3,0.1-0.2-0.1-0.2-0.1s0.3,0.1,0.5,0.2s0.7,0.5,0.2,0.1l0.5,0.4l0.2,0.2c0.2,0.2-0.3-0.3,0-0.1s0.3,0.4,0.5,0.6s0.1,0.2,0.2,0.3
		s-0.2-0.3-0.1-0.1s0.2,0.4,0.3,0.6c0.2,0.4,0.3,0.7,0.2,1.1c0.1,0.8-0.1,1.7-0.5,2.4c-0.6,1.1-1.4,2-2.5,2.7
		c-1.2,0.9-2.5,1.5-3.9,2l-0.4,0.1c-0.4,0.1,0.3-0.1-0.1,0s-0.5,0.1-0.7,0.1s-0.9,0.1-0.3,0.1c-0.3,0-0.5,0-0.8,0
		c-0.6,0,0.4,0.2-0.1,0l-0.5-0.2c0.7,0.2,0.1,0-0.1-0.1c-0.6-0.3,0.2,0.2-0.2-0.1c-0.1-0.1-0.3-0.3-0.5-0.4l-0.1-0.1l-0.4-0.5
		c-0.1-0.1-0.4-0.6-0.3-0.5c-0.8-1.6-1.3-3.3-1.5-5c-0.4-3.2-0.4-6.4-0.1-9.6c0.1-0.7-0.1,0.4,0-0.1c0.1-1.2-0.7-2.3-1.9-2.5
		c-0.9-0.2-2.8-0.1-2.9,1.2L400.4,141.4z"></path><path class="st2" d="M350.8,162.8c-0.9-0.2-1.8,0.4-2,1.4c0,0.1,0,0.2,0,0.3c-0.1,1.9,2.2,2,2.9,0.4c0.4-0.7,0.1-1.6-0.6-2
		C350.9,162.8,350.9,162.8,350.8,162.8z"></path><path class="st2" d="M338.9,154.4c-0.9-0.2-1.8,0.4-2,1.4c0,0.1,0,0.2,0,0.3c-0.1,1.9,2.2,2,2.9,0.4c0.4-0.7,0.1-1.6-0.6-2
		C339.1,154.4,339,154.4,338.9,154.4z"></path><circle class="st0" cx="422.4" cy="327.6" r="31.6"></circle><path class="st2" d="M451.5,327.5c-0.1,12.7-7.7,24.2-19.5,29.1c-5.4,2.4-11.5,2.7-17.1,1c-5.8-1.9-11-5.4-14.8-10.2
		c-8-10.2-9.1-24.2-2.7-35.5c5.8-10.1,18.3-17.6,30.1-14.9c12.2,2.8,21.7,13.4,23.6,25.7C451.4,324.3,451.5,325.9,451.5,327.5
		c0,0.7,5,0.8,5,0.2c-0.1-13.7-8.9-25.8-21.9-30.2c-13.4-4.5-29.3-1.6-38.7,9.3c-9,10.6-10.1,25.8-2.8,37.6
		c7.7,12.2,22.6,17.2,36.5,14.8c13.5-2.3,24.1-12.8,26.5-26.3c0.3-1.7,0.4-3.4,0.4-5.2C456.5,327,451.5,326.9,451.5,327.5z"></path><path class="st2" d="M414.9,319.4c-1.2,2.1-1.6,4.6-1.3,7c0.4,1.7,1.6,3.1,3.2,3.7c1,0.4,2.1,0.8,3.1,1.1c2.3,0.8,4.8,0.7,7.1-0.2
		c2.1-0.9,3.5-3,3.4-5.4c-0.1-2.8-2-5.1-4.2-6.6c-0.9-0.6-2.6-0.7-3.1,0.4s0.2,2.3,1.2,2.9c-0.6-0.4,0,0,0.2,0.2
		c0.2,0.1,0.4,0.3,0.5,0.5c-0.4-0.5,0.1,0.1,0.1,0.2s0.4,0.8,0.2,0.2c0.1,0.2,0.2,0.4,0.3,0.6c0,0.1,0.1,0.2,0.1,0.3
		c-0.1-0.3-0.1-0.3,0,0s0.1,0.4,0.1,0.7c0-0.5,0,0.2-0.1,0.3l-0.1,0.3c0.1-0.2,0.1-0.2,0,0s-0.2,0.4-0.3,0.6s-0.1,0.2,0,0l-0.2,0.2
		c-0.2,0.1-0.3,0.3-0.5,0.4s-0.2,0.1,0,0c-0.1,0.1-0.2,0.1-0.3,0.2c-0.2,0.1-0.4,0.2-0.6,0.3l-0.3,0.1c0.3-0.1,0.3-0.1,0,0l-0.6,0.1
		c-0.1,0-0.7,0-0.3,0c-0.3,0-0.6,0-0.9-0.1c-0.3,0-0.6-0.1-0.9-0.1c0.5,0.1-0.4-0.1-0.4-0.1c-0.6-0.2-1.1-0.4-1.7-0.5
		c-0.3-0.1-0.5-0.2-0.8-0.3s-0.2-0.1,0.1,0c-0.2-0.1-0.2-0.1,0.1,0.1c0.1,0.1,0.2,0.3,0.2,0.4c-0.1-0.2-0.1-0.2,0,0
		c-0.1-0.2-0.1-0.5-0.1-0.8c0-0.3,0-0.6,0-0.8c0,0.2,0,0.1,0-0.1s0-0.3,0-0.4c0.1-0.6,0.2-1.1,0.4-1.6c0-0.1,0.1-0.3,0.1-0.4
		c-0.1,0.2,0,0.1,0-0.1s0.2-0.5,0.4-0.8c0.4-1.1-0.1-2.4-1.2-2.9C417.1,318.4,415.5,318.2,414.9,319.4L414.9,319.4z"></path><path class="st1" d="M308.7,291l15.8,7.2c4.9,2.2,10.2,0.1,12-4.6l14.5-39.3c1.8-4.8-0.8-10.4-5.6-12.6l-15.8-7.2
		c-4.9-2.2-10.2-0.2-12,4.6l-14.5,39.3C301.4,283.2,303.9,288.8,308.7,291z"></path><path class="st1" d="M306.5,292.1l15,6.8c1,0.5,2,0.9,3,1.1c2.5,0.5,5.1,0.1,7.4-1.1c3.3-1.5,5.9-3.5,7.1-6.9l12.6-34.1
		c0.5-1.5,1.1-3,1.7-4.5c1.3-3.7,0.4-7.9-2.4-10.7c-1.9-1.9-4.6-2.9-7-3.9l-9.5-4.3c-2.6-1.2-5.1-2.4-8.1-1.9
		c-4.3,0.6-9.2,3.4-10.8,7.6s-3.2,8.6-4.8,12.9l-7.3,19.8l-2.1,5.7c-1.1,2.7-1.1,5.7,0.1,8.3C302.4,289.3,304.2,291.1,306.5,292.1
		c0.7,0.3,1.9-0.4,2.5-0.7c0.7-0.4,1.4-0.9,2.1-1.5c-4.4-2.1-7.4-7.3-5.8-12.2c0.3-1,0.8-2.1,1.1-3.1l6.2-16.9l6.2-16.8
		c0.4-1.1,0.8-2.2,1.2-3.2c0.4-1,1-2,1.9-2.7c0.2-0.1,0.3-0.2,0.5-0.4c0.2-0.3-1.2,0.4-0.7,0.4s1.2-0.2,1.9-0.2c1.5,0,2.9,0.4,4.3,1
		c5,2.3,10,4.5,15,6.9c3.5,1.5,6,4.8,6.5,8.6c0.1,2-0.2,3.9-1,5.7L336,290.3c-0.5,1.4-1,2.8-1.5,4.1c-0.4,1.2-1.1,2.3-2,3.2
		c0,0-0.5,0.3-0.5,0.4c0.4-1.3,1.2-0.4,0.7-0.4s-1.1,0.2-1.7,0.2c-1.3,0-2.5-0.2-3.7-0.7c-5-1.9-9.7-4.4-14.6-6.6l-1.6-0.8
		c-0.6-0.3-1.9,0.5-2.4,0.7C307.8,291.1,307.1,291.6,306.5,292.1z"></path><path class="st0" d="M313.5,293.3l15.8,7.2c4.9,2.2,10.2,0.2,12-4.6l14.5-39.3c1.8-4.8-0.8-10.4-5.6-12.6l-15.8-7.2
		c-4.9-2.2-10.2-0.2-12,4.6l-14.5,39.3C306.1,285.4,308.7,291.1,313.5,293.3z"></path><path class="st1" d="M311.4,293l15,6.8c3.6,1.6,8,2.9,11.9,1.8c2.8-0.9,4.9-3.1,5.8-5.9l12.6-34.1c0.5-1.5,1.1-2.9,1.6-4.4
		c1.3-3.9,0.2-8.2-2.8-10.9c-1.9-1.8-4.6-2.8-7-3.9l-9.5-4.3c-3.1-1.6-6.5-2.6-9.9-2.9c-4-0.3-7.7,2-9.1,5.7
		c-1.6,4.3-3.2,8.7-4.8,13.1l-7.3,19.8l-2.1,5.6c-1.2,2.8-1,6,0.4,8.7C307.4,290.3,309.2,292,311.4,293c1.1,0.4,2.2,0.7,3.4,0.8
		c0.3,0,1.9,0.1,1-0.3c-4.6-2.2-6.9-7.5-5.3-12.4c0.3-1,0.7-2,1.1-2.9l6.3-17l6.1-16.6c0.4-1.1,0.8-2.3,1.3-3.4
		c1-2.1,2.8-3.7,5.1-4.4c0.5-0.2,1.1-0.3,1.6-0.3c0.3,0,0.5,0,0.8,0c0.6-0.2-1.3-0.5-0.6-0.1c0.2,0.1,0.5,0.2,0.7,0.3
		c5,2.3,10,4.5,15,6.8c3.6,1.6,6.1,5.1,6.3,9c0,1.8-0.4,3.6-1.2,5.3l-12.4,33.5c-0.5,1.3-1,2.7-1.5,4c-0.5,1.3-1.2,2.5-2.2,3.4
		c-0.9,0.8-1.9,1.4-3,1.7c-0.5,0.2-1,0.3-1.6,0.3c-0.3,0-0.6,0-0.9,0c-0.9,0.1,1.3,0.5,0.4,0c-1.9-1-3.8-1.7-5.7-2.6l-8.6-3.9
		l-1.6-0.8c-1.1-0.4-2.2-0.7-3.3-0.8C312.1,292.7,310.5,292.6,311.4,293z"></path><ellipse class="st2" transform="matrix(0.7594 -0.6506 0.6506 0.7594 -78.4021 274.1343)" cx="331.4" cy="243.1" rx="1.8" ry="2"></ellipse><path class="st2" d="M327.3,241.4c-0.1,0.5-0.1,1,0,1.4c0.2,0.6,0.6,1.2,1.1,1.6c0.4,0.4,0.9,0.7,1.4,0.9c0.6,0.3,1.2,0.5,1.8,0.6
		c0.5,0.1,1.1,0.2,1.6,0.2c0.4,0,0.8-0.1,1.2-0.3c0.4-0.2,0.8-0.6,1-1c0.2-0.5,0.2-1,0.1-1.4c-0.1-0.6-0.5-1.1-0.9-1.5
		c-0.9-0.9-2.1-1.5-3.3-1.7C330.1,239.8,328,239.8,327.3,241.4c-0.1,0.3,0.3,0.7,0.5,0.9c0.5,0.4,1,0.7,1.6,0.8
		c0.6,0.2,1.2,0.3,1.8,0.3c0.3,0,0.8,0,0.9-0.4c0.1-0.2,0.2-0.3,0.3-0.5l-0.2,0.2c0.2-0.2,0.4-0.4,0.6-0.5l-0.3,0.1
		c0.2-0.1,0.3-0.1,0.5-0.1h-0.4h0.3h-0.5h0.2l-0.6-0.1h0.1l-0.5-0.1c0.2,0.1-0.7-0.3-0.5-0.2l0.1,0.1l-0.5-0.3l0.2,0.1l-0.4-0.3
		c0.1,0.1,0.2,0.2,0.3,0.2l-0.3-0.3c0.1,0.1,0.2,0.3,0.3,0.4l-0.2-0.3c0.2,0.3,0.3,0.7,0.3,1v-0.3c0,0.4-0.1,0.8-0.4,1.1l0.2-0.2
		c-0.2,0.2-0.4,0.4-0.6,0.5l0.3-0.1c-0.2,0.1-0.3,0.1-0.5,0.1l0.4-0.1c-0.1,0-0.2,0-0.3,0h0.5c-0.1,0-0.2,0-0.2,0l0.6,0.1h-0.1
		c0.2,0.1,0.3,0.1,0.5,0.1c-0.2-0.1,0.7,0.3,0.5,0.2l-0.1-0.1l0.5,0.3l-0.2-0.1l0.4,0.3c-0.1-0.1-0.2-0.2-0.3-0.2l0.3,0.3
		c-0.1-0.1-0.2-0.3-0.3-0.5l0.2,0.3c-0.2-0.3-0.3-0.6-0.3-1v0.3c0-0.2,0-0.4,0.1-0.6c0.1-0.3-0.3-0.7-0.5-0.9
		c-0.5-0.4-1-0.7-1.6-0.8c-0.6-0.2-1.2-0.3-1.8-0.3C327.9,241.1,327.5,241.1,327.3,241.4z"></path><ellipse class="st2" transform="matrix(0.7594 -0.6506 0.6506 0.7594 -84.3996 274.3)" cx="328.7" cy="251.3" rx="1.8" ry="2"></ellipse><path class="st2" d="M324.7,249.6c-0.1,0.3-0.2,0.5-0.3,0.8c0,0.3-0.1,0.6-0.1,0.9c0,0.4,0.1,0.8,0.2,1.2c0.1,0.3,0.2,0.6,0.4,0.8
		c0.1,0.3,0.3,0.5,0.5,0.7c0.2,0.2,0.4,0.4,0.6,0.6c0.2,0.1,0.4,0.2,0.5,0.3c0.4,0.2,0.9,0.4,1.4,0.5c0.1,0,0.2,0,0.3,0
		c0.3,0,0.6,0,0.9,0c0.3,0,0.6-0.1,0.9-0.2l0.3-0.1c0.5-0.2,1-0.6,1.5-1c0.1-0.1,0.1-0.1,0.2-0.2c0.2-0.2,0.3-0.5,0.5-0.8
		c0.1-0.3,0.2-0.5,0.3-0.8c0-0.1,0.1-0.2,0.1-0.3c0.1-0.4,0.1-0.8,0-1.2c-0.1-0.4-0.2-0.8-0.3-1.1c-0.2-0.4-0.4-0.7-0.6-1
		c-0.3-0.3-0.6-0.6-0.9-0.8c-0.3-0.2-0.7-0.4-1.1-0.5c-0.9-0.3-1.9-0.3-2.8,0.1c-0.1,0-0.2,0.1-0.3,0.1c-0.6,0.3-1.1,0.6-1.5,1.1
		c-0.2,0.2-0.4,0.5-0.5,0.8C324.8,249.5,324.7,249.6,324.7,249.6c-0.2,0.3-0.2,0.6-0.2,0.9c0,0.3,0,0.6,0.1,0.9
		c0.2,0.6,0.7,1,1.3,1.2c0.6,0.2,1.3,0.2,1.9,0c0.6-0.2,1.1-0.7,1.4-1.3c0-0.1,0.1-0.2,0.2-0.3l-0.3,0.5c0.1-0.1,0.2-0.2,0.3-0.3
		l-0.5,0.4c0.1-0.1,0.2-0.2,0.3-0.2l-0.6,0.3c0.1-0.1,0.2-0.1,0.4-0.1l-0.6,0.2c0.1,0,0.3,0,0.4-0.1H328c0.2,0,0.3,0,0.5,0l-0.6-0.1
		c0.2,0,0.3,0.1,0.5,0.2l-0.5-0.3c0.2,0.1,0.3,0.2,0.5,0.3l-0.4-0.4c0.2,0.1,0.3,0.3,0.4,0.5l-0.3-0.5c0.1,0.2,0.2,0.4,0.2,0.6
		l-0.1-0.6c0,0.2,0.1,0.4,0,0.6v-0.6c0,0.2,0,0.3-0.1,0.4l0.2-0.6c0,0.1-0.1,0.3-0.2,0.4l0.3-0.5c-0.1,0.1-0.2,0.2-0.3,0.3l0.5-0.4
		c-0.1,0.1-0.2,0.2-0.3,0.2l0.6-0.3c-0.1,0.1-0.2,0.1-0.4,0.1l0.6-0.2c-0.1,0-0.3,0.1-0.4,0.1h0.6c-0.2,0-0.3,0-0.5-0.1l0.6,0.1
		c-0.2,0-0.3-0.1-0.5-0.2l0.5,0.3c-0.2-0.1-0.3-0.2-0.5-0.3l0.4,0.4c-0.1-0.1-0.3-0.3-0.4-0.5l0.3,0.5c-0.1-0.2-0.2-0.4-0.2-0.6
		l0.1,0.6c0-0.2-0.1-0.4,0-0.6v0.6c0-0.2,0-0.3,0.1-0.5l-0.2,0.6v-0.1c0.1-0.3,0.2-0.6,0.2-0.9c0-0.3,0-0.6-0.1-0.9
		c-0.2-0.6-0.7-1-1.3-1.2c-0.6-0.2-1.3-0.2-1.9,0.1l-0.6,0.3C325.1,249,324.9,249.3,324.7,249.6z"></path><ellipse class="st2" transform="matrix(0.7594 -0.6506 0.6506 0.7594 -81.3546 279.068)" cx="336.6" cy="249.5" rx="1.8" ry="2"></ellipse><path class="st2" d="M332.6,249.1c-0.1,0.3-0.2,0.7-0.2,1c0,0.3,0.1,0.6,0.1,0.9c0.2,0.5,0.5,1,0.9,1.3c0.2,0.1,0.4,0.3,0.6,0.4
		c0.3,0.2,0.7,0.3,1,0.3c0.5,0.1,1,0.1,1.5,0c0.6-0.1,1.2-0.3,1.7-0.6c0.5-0.3,1-0.6,1.4-1.1c0.4-0.4,0.7-0.8,0.9-1.3
		c0.1-0.3,0.2-0.7,0.2-1c0-0.2,0-0.4,0-0.6c-0.1-0.3-0.2-0.6-0.3-0.9c-0.2-0.3-0.4-0.5-0.6-0.7c-0.2-0.2-0.3-0.3-0.5-0.4
		c-0.3-0.2-0.6-0.3-0.9-0.4c-1.2-0.2-2.4,0-3.4,0.6C334,247.2,333.2,248.1,332.6,249.1c-0.1,0.4,0,0.8,0.3,1
		c0.4,0.2,0.9,0.3,1.4,0.2c0.6-0.1,1.2-0.4,1.8-0.8c0.4-0.3,0.8-0.7,1-1.2l0.1-0.2l-0.2,0.4c0.1-0.1,0.1-0.2,0.2-0.3l-0.4,0.4
		c0.1-0.1,0.1-0.1,0.2-0.2l-0.5,0.4l0.2-0.2l-0.6,0.4l0.2-0.1l-0.6,0.3l0.2-0.1l-0.6,0.2l0.3-0.1l-0.5,0.1h0.4l-0.5-0.1
		c0.2,0,0.4,0.1,0.6,0.1l-0.4-0.2c0.3,0.1,0.5,0.3,0.8,0.5l-0.2-0.3c0.2,0.3,0.4,0.6,0.5,0.9l-0.1-0.4c0.1,0.3,0.1,0.6,0,0.8
		l0.1-0.4c0,0.2-0.1,0.3-0.2,0.5l0.2-0.4c0,0.1-0.1,0.2-0.2,0.3l0.4-0.4c-0.1,0.1-0.1,0.1-0.2,0.2l0.5-0.4c-0.1,0.1-0.1,0.1-0.2,0.2
		l0.6-0.4l-0.2,0.1l0.6-0.3c-0.1,0-0.2,0.1-0.3,0.1l0.6-0.2l-0.3,0.1l0.5-0.1h-0.4l0.5,0.1c-0.2,0-0.4-0.1-0.6-0.1l0.4,0.2
		c-0.3-0.1-0.5-0.3-0.8-0.5l0.2,0.3c-0.2-0.3-0.4-0.6-0.5-0.9l0.1,0.4c-0.1-0.3-0.1-0.5,0-0.8l-0.1,0.4c0-0.1,0-0.2,0.1-0.3
		c0.2-0.4,0.1-0.8-0.2-1c-0.4-0.2-0.9-0.3-1.4-0.2c-0.6,0.1-1.2,0.4-1.8,0.8C333.3,248.2,332.9,248.6,332.6,249.1z"></path><ellipse class="st1" transform="matrix(0.7594 -0.6506 0.6506 0.7594 -77.6053 279.3199)" cx="338.8" cy="244.6" rx="0.7" ry="0.8"></ellipse><path class="st0" d="M350,276.8c0,0-17.6-13.3-24-16.2s-8.4,3.3-2.5,10.7c0,0-5.7-4.7-6.8,2.3s7.3,15.9,7.3,15.9s-13.2-6-14.1-0.9
		s72.3,30.7,78.1,29.5s6.7-37.9,4.4-40.2s-35.4-3.7-35.4-3.7l-2.5-7.4"></path><path class="st2" d="M352.2,276.7c-4.1-3.1-8.4-6.2-12.7-9.2c-3-2.1-6-4.1-9.1-5.9s-7.3-3.9-10.8-2.3c-4.8,2.1-0.5,9.2,1.5,11.7
		l4.6,0.2c-1.2-0.9-2.5-1.6-3.9-2c-2-0.6-5.1-1-6.5,1c-1.6,2.2-1.2,5.4-0.5,7.8c0.9,2.6,2.2,5.1,3.8,7.4c1,1.4,2,2.7,3.2,4l3.6-0.5
		c-2.8-1.3-5.7-2.3-8.8-2.9c-2.1-0.5-4.2-0.7-6.3-0.3c-1.2,0.2-2.9,1-2.9,2.5c0,1.3,1.7,2.3,2.6,2.9c1.9,1.2,3.9,2.3,6,3.3
		c14.1,6.9,29.1,12.1,44,17.1c6.5,2.2,13,4.3,19.7,6c2.3,0.6,4.6,1.1,7,1.5c1.7,0.2,3.6,0.4,4.8-1c1.7-2,2.2-5.1,2.7-7.7
		c0.7-3.9,1.2-7.9,1.4-11.9c0.2-4,0.4-7.9,0.2-11.9c-0.1-2.5,0-5.3-0.8-7.6c-0.7-2.1-3.9-2.5-5.7-2.8c-3.6-0.6-7.2-1.1-10.8-1.4
		c-7-0.6-14-1-21-1.3l-1.8-0.1l3.5,1.2l-2.4-7.4c-0.4-1.2-5.2-1.6-4.8-0.4l2.5,7.4c0.3,1,2.8,1.2,3.5,1.2h-0.2l1.1,0l3.4,0.2
		c3.5,0.2,7,0.4,10.5,0.6c3.8,0.3,7.6,0.6,11.4,1l2.4,0.3c0.1,0,0.8,0.1,0.1,0l0.6,0.1l1.1,0.2l1,0.2c0.2,0,1.2,0.3,0.3,0.1l0.6,0.2
		c0.7,0.2-0.4-0.2,0.2,0.1c-0.1,0-0.3-0.2-0.3-0.2c0,0.3,0.2,0.6,0.3,0.8c0.2,1,0.4,1.9,0.4,2.9c0.3,3.3,0.3,6.5,0.2,9.8
		c-0.1,7.2-0.5,14.9-2.6,21.9c-0.3,1.1-0.7,2.1-1.3,3c-0.2,0.3-0.5,0.6-0.8,0.8c-0.3,0.3,0,0-0.2,0.1s0.4,0,0,0c0.8-0.1,0.4,0,0.2,0
		c-0.4,0,0.7,0.1,0.2,0h-0.4c-0.6-0.1,0.2,0,0.1,0c-0.8-0.2-1.7-0.3-2.5-0.5l-0.8-0.2c0.9,0.2,0,0-0.2-0.1l-1.8-0.5
		c-1.3-0.4-2.7-0.7-4-1.1c-3.1-0.9-6.3-1.9-9.4-2.9c-14.2-4.6-28.5-9.6-42.4-15.7c-2.8-1.2-5-2.2-7.4-3.4c-1-0.5-2-1-2.9-1.6l-1-0.7
		c-0.4-0.2,0.2,0.2-0.1-0.1l-0.5-0.4c-0.2-0.2-0.4-0.4-0.6-0.5c-0.2-0.2,0,0,0,0c-0.1-0.1-0.1-0.2-0.2-0.3c-0.2-0.3-0.1,0-0.1-0.2
		c0.1-0.6,0.4-1.1,0.9-1.4c0.3-0.2,0.7-0.3,1.1-0.3c0.7,0-0.5,0,0.2,0l0.7,0.1c-0.5,0-0.1,0,0,0c0.3,0,0.6,0.1,0.9,0.2
		c0.8,0.1-0.5-0.1,0.3,0.1l0.7,0.2l1.1,0.3l0.7,0.2c0.1,0,0.2,0.1,0.3,0.1l1.1,0.4c0.8,0.3,1.5,0.6,2.2,0.9c0.9,0.4,2,0.6,3,0.4
		c0.6-0.1,1.1-0.4,0.6-1c-3.1-3.2-5.5-7.1-6.8-11.5c-0.4-1.4-0.5-2.9-0.2-4.3c0.1-0.7,0.3-1.4,0.7-2.1c0.2-0.4,0.7-0.5,1-0.9
		s0.2,0.1-0.1,0c-0.1,0-1.1,0-0.7-0.1c-0.4,0-0.1-0.1,0.1,0.1c0.1,0-0.2-0.1,0.2,0.1c0.1,0.1,1,0.6,0.5,0.3l0.3,0.2
		c0.9,0.6,1.9,0.9,3,0.9c0.2,0,2.1-0.1,1.6-0.7c-1.5-1.8-2.7-3.9-3.3-6.2c-0.3-1.2-0.4-3,0.6-3.9c0.3-0.3,0.6-0.4,1-0.5
		c-0.1,0-0.3,0-0.3,0c0.2,0.1,0.4,0.2,0.6,0.3c0.5,0.2-0.4-0.2,0.1,0.1c1.1,0.6,2.2,1.2,3.2,1.8c5.5,3.3,10.6,7.1,15.8,10.9
		c1.3,1,2.7,2,4,3c1,0.7,2.1,1,3.3,0.9c0.4,0,2-0.3,1.1-1L352.2,276.7z"></path><path class="st2" d="M335.2,283.2l-9-12.4l-1.3-1.8c-0.8-1-2.5-0.9-3.4-0.1c-1,0.6-1.3,2-0.6,3c0,0,0,0.1,0.1,0.1l9,12.3l1.3,1.8
		c0.8,1,2.5,0.9,3.4,0.1C335.7,285.7,335.9,284.3,335.2,283.2C335.3,283.3,335.3,283.3,335.2,283.2L335.2,283.2z"></path></g><g id="item"><path class="st2" d="M52.5,71.2c-3.1,0.4-6,1.6-8.4,3.5c-0.3,0.3-0.9,0.8-0.4,1.3l5.2,5.2c0.8,0.8,2.2,0.6,3.2,0.3
		c0.5-0.2,2.2-1,1.5-1.8l-5.2-5.3l-0.4,1.3c0.5-0.4,1-0.7,1.5-1c0.4-0.3-0.4,0.2,0,0l0.4-0.2c0.3-0.1,0.5-0.3,0.8-0.4l0.4-0.2
		l-0.2,0.1l0.3-0.1c0.3-0.1,0.5-0.2,0.8-0.2l0.4-0.1c-0.8,0.2-0.3,0.1-0.1,0s0.6-0.1,1-0.2c0.6-0.1,1.2-0.3,1.7-0.6
		c0.2-0.2,0.7-0.6,0.6-1C54.9,71,53.3,71.1,52.5,71.2L52.5,71.2z"></path><path class="st2" d="M264.3,75.6c0.4,0.2,0.9,0.5,1.3,0.8c0.2,0.1,0.4,0.3,0.6,0.4l0.2,0.2l0.2,0.2c0.8,0.6,1.5,1.3,2.2,2
		c0.2,0.2,0.3,0.6,0.1,0.8c0,0,0,0,0,0c-0.3,0.4-0.6,0.8-1,1.2l-2.3,2.7c-0.6,0.7,1,1.2,1.5,1.4c0.6,0.2,1.2,0.3,1.9,0.4
		c0.3,0,1,0.1,1.2-0.2l2.4-2.9c0.4-0.4,0.8-0.9,1.1-1.4c0.2-0.5,0.1-1.1-0.4-1.5c-0.7-0.8-1.5-1.5-2.4-2.2c-1-0.8-2-1.4-3-2.1
		c-1-0.6-2.2-0.9-3.4-0.8c-0.3,0-0.8,0.1-0.9,0.4S264.1,75.4,264.3,75.6L264.3,75.6z"></path><rect class="st1" x="217.8" y="62.6" width="30.3" height="31.8"></rect><path class="st1" d="M217.1,96.2h30.3c1.3,0,3.1-0.8,3.1-2.3V62.2c-0.1-0.9-0.9-1.6-1.8-1.6h-30.3c-1.3,0-3.1,0.8-3.1,2.3v31.8
		c0,2.6,4.9,1.7,4.9-0.7V62.2l-3.1,2.3h30.3l-1.8-1.6v31.7l3.1-2.3h-30.3c-1.3-0.1-2.5,0.6-3,1.8c-0.2,0.9,0.3,1.8,1.2,2
		C216.8,96.2,217,96.2,217.1,96.2z"></path><rect class="st1" x="172.7" y="62.2" width="30.3" height="31.8"></rect><path class="st1" d="M173.5,96.2h30.3c0.6,0,0.9-0.7,0.9-1.2V63.3c0-1.2-1-3.4-2.4-3.4H172c-0.6,0-0.9,0.7-0.9,1.2v31.8
		c0,1.2,0.6,2.4,1.6,3.1c0.9,0.5,1.7,0.2,1.7-0.9V63.3l-0.9,1.2h30.3l-2.5-3.5v31.8l0.9-1.2H172C170,91.6,171.7,96.2,173.5,96.2z"></path><path class="st2" d="M184.5,80c-1.1,1.3-2.1,2.6-3.2,3.8c-0.3,0.3-0.6,0.7-1,1l-0.4,0.3c0,0-0.1,0.1-0.1,0.1
		c-0.2,0.2,0.5-0.3,0.2-0.2c0.5-0.3,1.1-0.4,1.6-0.5c-0.1,0-0.3,0,0.2,0s0.2,0,0.1,0s-0.4,0-0.6-0.1c-0.5-0.1-1-0.1-1.5-0.1
		c-1-0.1-1.9,0-2.9,0.3c-0.7,0.3-1.7,0.9-1.2,1.8c0.5,0.6,1.2,1.1,2,1.4c0.9,0.4,1.8,0.6,2.8,0.7c0.6,0,1.2,0,1.8-0.1
		c0.6-0.1,1.6-0.4,1.9-1.1c0.4-1-0.9-1.6-1.6-1.8c-1.6-0.4-5,0.2-4.4,2.6c0.2,1,0.8,1.9,1.6,2.6c0.7,0.5,1.6,0.7,2.5,0.7
		c0.9,0,1.7-0.3,2.4-0.9c1-1.1,0.6-3,0.1-4.2c-0.2-0.4-0.8-0.6-1.2-0.7c-0.6-0.1-1.3-0.1-1.9,0c-0.8,0.2-2.1,0.7-1.6,1.7
		c0.1,0.1,0.1,0.3,0.2,0.4l-0.1-0.3c0.2,0.7,0.3,1.5,0.2,2.3l0.1-0.3c0,0.1-0.1,0.2-0.1,0.2s-0.2,0.3,0.1-0.1
		c-0.1,0.1,0,0.1,0.4-0.2c0.9-0.6,2.1-0.7,3.1-0.2c0.3,0.2,0.4,0.2,0.2,0.1l-0.1-0.1c0.2,0.2,0.2,0.2,0.1,0.1l0-0.2
		c-0.1-0.1-0.2-0.2-0.2-0.4c-0.2-0.3-0.4-0.7-0.5-1l0.1,0.3c-0.1-0.3-0.1-0.6-0.1-0.8l-0.1,0.3c0-0.1,0.2-0.4,0-0.2
		s-0.1,0.2-0.1,0.1l-0.3,0.2c0.1-0.1,0,0-0.2,0.1c-0.2,0.1-0.5,0.2-0.7,0.2c-0.5,0.1-0.9,0.1-1.4,0c-0.1,0-0.9-0.3-0.6-0.2
		c-0.5-0.2-0.4-0.2-0.2-0.1c0,0-0.3-0.3-0.2-0.2l-0.1-0.3c0,0,0,0,0,0.1l0.1-0.3c-0.1,0.2,0,0.1,0.3-0.2c0.2-0.3,0.5-0.4,0.8-0.4
		c0.5-0.2,0.6-0.2,0.4-0.2l0.6-0.1c-0.3,0,0.7,0.1,0.4,0h-0.2c-0.2,0-0.5-0.1,0.2,0h-0.2l-0.3-0.1c-0.1,0-0.4-0.1-0.1,0
		s-0.2-0.1-0.3-0.1l-0.3-0.1c-0.3-0.1,0.2,0.2,0.1,0s-0.2-0.2-0.4-0.3s0.2,0.3,0.1,0.1l0.1,0.3c0,0,0,0,0-0.1l-0.1,0.3
		c-0.1,0.4-0.8,0.7-1.2,0.8s-0.3,0.1-0.2,0.1s-0.8,0.1-0.5,0.1h0.3c0.1,0-0.8,0-0.5,0h0.2c0.4,0,0.9,0.1,1.3,0.1
		c1.4,0.3,2.9,0.1,4.1-0.8c0.5-0.5,1.1-1,1.5-1.6c0.7-0.8,1.3-1.6,2-2.3c0.4-0.5,0.8-1,1.2-1.4c0.3-0.3,0.4-0.7,0.2-1
		c-0.3-0.4-0.7-0.6-1.2-0.7c-0.6-0.1-1.3-0.1-1.9,0C185.4,79.3,184.9,79.5,184.5,80L184.5,80z"></path><path class="st0" d="M185.5,81c0,0-2.6-9.3,5.5-12.4s9,3.1,6,9.7S186.3,83.5,185.5,81z"></path><path class="st2" d="M187.1,82.4L187.1,82.4c0.1,0.4,0,0,0-0.2c-0.1-0.4-0.1-0.7-0.2-1.1c-0.1-1.1-0.1-2.3,0-3.4
		c0.4-3.2,2.5-6,5.6-7.2c1-0.4,2-0.7,3-0.8c0.4,0,0.8,0,1.2,0c0.2,0,0.3,0,0.5,0.1l0.3,0.1l0.2,0.1c-0.1,0-0.1,0,0,0
		s0.3,0.1,0.4,0.2c0,0-0.3-0.2-0.1,0c-0.5-0.3-0.3-0.2-0.2-0.1c-0.3-0.2-0.5-0.5-0.8-0.8c0,0-0.6-0.8-0.4-0.4c0,0-0.3-0.4-0.1-0.2
		s-0.1-0.3,0,0c0.2,0.6,0.3,1.2,0.3,1.8c0,1.8-0.4,3.6-1.1,5.2c-0.6,1.8-1.8,3.3-3.4,4.4c-1.4,0.9-3.1,1.3-4.7,1.2
		c-0.4,0-0.7-0.1-1.1-0.2c-0.3-0.1-0.5-0.1-0.7-0.3c-0.2-0.1-0.4-0.3-0.1,0c0,0-0.1-0.1-0.1-0.1c-0.3-0.2,0.1,0,0.1,0.1
		c-0.3-0.2,0.4,0.4,0.5,0.4c0.3,0.3,0.5,0.6,0.8,0.9C186.9,82.1,187.3,82.8,187.1,82.4c-0.5-1-1.2-2-2.1-2.7
		c-0.3-0.2-1.5-1.1-1.2-0.1c0.6,1.4,1.5,2.6,2.7,3.5c0.6,0.6,1.4,1,2.2,1.3c1.5,0.6,3.2,0.6,4.7,0.2c4.2-1.1,6.2-5.5,6.8-9.4
		c0.3-1.9-0.1-3.8-1.1-5.4c-1.4-1.9-3.4-3.9-5.9-3.9c-2.3,0.1-4.5,0.8-6.4,2.2c-1.4,1.1-2.4,2.5-2.9,4.2c-0.7,2.4-0.7,4.9-0.1,7.2
		c0.2,0.5,0.5,0.9,0.8,1.3c0.4,0.5,0.9,1,1.4,1.4C186.3,82.5,187.4,83.4,187.1,82.4z"></path><rect class="st0" x="72.8" y="62.4" transform="matrix(0.3938 -0.9192 0.9192 0.3938 -23.9166 163.4996)" width="78.4" height="74.9"></rect><path class="st1" d="M60.7,121.8l23.4,10l37,15.9l8.5,3.6c0.9,0.4,3.3,1,3.9-0.2l10.5-24.4l16.6-38.8l3.8-8.9
		c0.2-0.5-0.8-1-1.1-1.1l-23.4-10l-37-15.8l-8.5-3.7c-0.9-0.4-3.3-1-3.9,0.2L80.1,73.1l-16.6,38.8l-3.8,8.8
		c-0.5,1.1,4.3,2.4,4.9,0.9L75,97.2l16.7-38.8l3.8-8.8l-3.9,0.2l23.4,10l37,15.8l8.5,3.7l-1.1-1.1L149,102.6l-16.6,38.8l-3.8,8.8
		l3.9-0.2L109,140l-37-15.8l-8.5-3.7c-0.9-0.4-2.5-0.8-3.4-0.2S60.1,121.6,60.7,121.8z"></path><path class="st2" d="M92,99.5l33.1,14.5l4.6,2l-2.6-4.1c-3.5,7-10.5,13.4-18.4,14.7c-3.4,0.5-6.9,0.2-10.1-0.9
		c-1.7-0.5-3.2-1.3-4.7-2.2c-0.6-0.4-1.1-0.8-1.6-1.2c-0.2-0.2-0.5-0.4-0.7-0.6s-0.6-0.7-0.4-0.5c-0.1-0.1-0.6-0.8-0.3-0.4
		c-0.1-0.1-0.2-0.3-0.2-0.4c0,0.1,0.2,0.4,0,0c-0.2-0.4-0.4-0.8-0.6-1.2c-0.4-1.1-0.7-2.3-0.8-3.5c-0.2-2.4-0.2-4.8,0.3-7.2
		c0.5-3.2,1.4-6.2,2.7-9.1c0.5-1.1-2.5-4.6-2.9-3.9c-3.6,7.5-4.7,17.2-0.5,24.7c3.7,6.6,10.5,10.7,18,11c6.2,0.3,12-2.4,16.5-6.6
		c2.7-2.5,4.9-5.4,6.6-8.7c0.3-0.6-0.6-1.9-0.9-2.3c-0.4-0.7-1-1.4-1.7-1.8L94.3,97.3l-4.6-2c-0.7-0.3,0.2,1.8,0.2,1.9
		C90.4,98.2,91.1,99,92,99.5z"></path><path class="st2" d="M116.2,70c-0.8-1.1-2-1.7-3.4-1.7c-1.3,0.1-2.4,0.8-3.2,1.9c-0.7,1.1-1.3,2.3-1.7,3.5c-0.6,1.8,0.1,3.4,0.8,5
		s1.4,2.9,1.9,4.4c0.5,1.2-0.1,2.7-1.3,3.2c-1.4,0.6-2.8,1-4.3,1.2c-1.6,0.3-3.3,0.2-4.8-0.4c-0.7-0.3,0.2,1.8,0.3,1.9
		c0.4,1,1.1,1.8,2,2.4c2.7,1.1,5.9,0.4,8.6-0.5c1.2-0.3,2.2-1.2,2.6-2.4c0.3-1.4-0.3-3-0.9-4.3c-0.6-1.5-1.3-2.9-1.9-4.4
		s0.1-2.7,0.7-4c0.5-1.2,1.3-2.3,2.4-3c0.5-0.3,1-0.4,1.5-0.4c0.3,0,0.6,0,0.8,0.1c0.2,0.1,0.7,0.4,0.4,0.1c0.3,0.3,1.3,1.3,1.2,0.3
		C117.6,71.8,117,70.8,116.2,70L116.2,70z"></path><path class="st2" d="M128.1,77.6c-2.6-0.7-5.4-0.1-7.6,1.6c-2.4,1.5-3.6,4.2-3.2,7c0.4,2.9,2.1,5.4,2.7,8.2c0.1,0.7,0.2,1.3,0.1,2
		c0,0.4-0.1,0.7-0.2,1.1c-0.1,0.2-0.2,0.5-0.3,0.7c0.7-0.5,0.9-0.6,0.5-0.4l-0.3,0.1c-0.4,0.1-0.7,0.2-1.1,0.3
		c-0.7,0.2-1.4,0.3-2.1,0.4c-1.2,0.2-2.3,0.8-3.1,1.8c-0.6,0.8-0.3,1.4,0.7,1.3c2.9-0.4,6.5-1.2,8.6-3.3s2-4.9,1.2-7.6
		s-2.5-5.1-2.4-8c0-0.6,0.1-1.3,0.4-1.9c0-0.1,0.5-0.7,0.3-0.5s0.4-0.1,0.1,0s0.2-0.1,0.3-0.1c0.5,0,0.9,0,1.4,0.1
		c1.1,0.2,2.2-0.2,3-0.9C127.5,79.4,129.1,77.9,128.1,77.6L128.1,77.6z"></path><path class="st2" d="M89.6,106.3c7.9,3.4,15.8,6.6,23.8,9.8c1.3,0.6,2.7,1.1,4,1.7c1.1,0.3,2.2-0.2,2.5-1.3c0-0.1,0.1-0.2,0.1-0.3
		c0.1-1.3-0.6-2.5-1.8-3c-7.9-3.4-15.8-6.6-23.8-9.8c-1.3-0.6-2.7-1.1-4-1.7c-1.1-0.3-2.2,0.3-2.5,1.3c0,0.1,0,0.2-0.1,0.3
		C87.6,104.6,88.4,105.8,89.6,106.3z"></path><polygon class="st0" points="238,89.9 228.6,89.9 226.6,72.1 240,72.1 	"></polygon><path class="st2" d="M238,89.4h-9.4l2.5,0.5l-1.8-15.6l-0.2-2.2l-2.5,0.5H240l-2.5-0.5l-1.8,15.6l-0.2,2.2c-0.1,0.5,4.9,0.9,5,0
		l1.8-15.6l0.2-2.2c0-0.5-2.4-0.5-2.5-0.5h-13.4c-0.2,0-2.6,0-2.5,0.5l1.8,15.6l0.2,2.2c0.1,0.5,2.3,0.5,2.5,0.5h9.4
		c0.3,0,2.5,0,2.5-0.5S238.1,89.4,238,89.4z"></path><path class="st2" d="M235.6,80.1c0.3-2.3,0.6-4.6,0.9-6.8c0.2-1.3,0.4-2.5,0.6-3.8c0.1-0.4,0.1-0.8,0.2-1.2c0,0,0.1-0.2,0-0.2
		s0,0,0,0c-0.4,0.1-0.5,0.2-0.2,0.1h1.6c0.5,0.3,1.1,0.1,1.4-0.4c0.2-0.4,0.2-0.9-0.2-1.2c-0.5-1.1-1.6-1.9-2.8-2.1
		c-1-0.1-2.1-0.1-3.1,0.1c-0.6,0.3-1,0.8-1,1.5c-0.2,0.8-0.3,1.6-0.4,2.4c-0.4,2.3-0.7,4.6-1,6.9c-0.1,0.8-0.2,1.6-0.3,2.4
		c-0.2,1.1,1,2.2,1.9,2.6C233.8,80.7,235.5,81.2,235.6,80.1L235.6,80.1z"></path></g></svg>