<svg transform="scale(1)" xmlns="http://www.w3.org/2000/svg" viewBox="0 0 100 100" id="XdNyeNLiEP" class="pbimage_pbimage__wrapper__image__0LEis false"><title>Safety</title><defs><style> .cls-1{fill:#69d7f9;} .cls-2{fill:#3a00ba;}
 .cls-2{fill:#3563E9;}
 .cls-1{fill:#00C3D0;}</style></defs><g id="_1031_Safety" data-name="1031_Safety"><g id="Layer_2" data-name="Layer 2"><path class="cls-1" d="M49.82,69.42a9.71,9.71,0,0,1-6.88-2.56,9.86,9.86,0,0,0-1.83-1.52,1.44,1.44,0,0,0-2,.44,1.47,1.47,0,0,0-.23.74l-.1,2.85Z"></path><path class="cls-1" d="M15.39,66.86s.23,7.8,2.68,7.8,7.07,1.64,7.07-8.84l.12,9.28,1.6.92s.24,2.13-3.52,2.13H18.07s-2.68.68-2.68-3.16Z"></path><path class="cls-1" d="M82.89,67.93c-4.2,4.35-16.37,11.51-21.63,11.51H37.76a22.85,22.85,0,0,1-7.86-2.09L25.26,75.1l-.09,0V66.86s.87,6.82,10.69,8.29,26.34,2,31.9,0S80.33,70.49,82.89,67.93Z"></path><path class="cls-2" d="M61.26,80.44H37.76a23.94,23.94,0,0,1-8.29-2.19A49.76,49.76,0,0,1,24.72,76l-.58-.32V53.88l1.69-.55.62,1.89-.31.11V74.46c.77.4,2.32,1.18,4.15,2a21.81,21.81,0,0,0,7.55,2H61.26c4.7,0,16.64-6.78,20.88-11.21l.12-.11c.24-.27.46-.52.64-.76.47-.64,1.14-1.84.31-2.72a3.58,3.58,0,0,0-4.31-.06c-.68.45-1.33,1-2,1.49-2.89,2.25-6.16,4.8-14.42,5.22-.78.08-1.63.08-2.53.08h-12v-2h12c.85,0,1.66,0,2.39-.07,7.67-.4,10.54-2.64,13.32-4.81.72-.56,1.4-1.09,2.15-1.58,2.25-1.48,5.26-1.32,6.86.36,1.32,1.39,1.26,3.36-.15,5.28a11.89,11.89,0,0,1-.8.94l-.18.18C79.32,73.06,66.93,80.44,61.26,80.44Z"></path><path class="cls-2" d="M63.4,70.37H38.78v-2H61.47a7.27,7.27,0,0,0-1.56-4.53,3.91,3.91,0,0,0-3.08-1.1c-8.15.31-11.3-1-16.63-5-4.8-3.63-14.8-2.12-14.9-2.11l-.31-2c.44-.07,10.94-1.66,16.41,2.49,5,3.78,7.76,4.9,15.36,4.64a5.78,5.78,0,0,1,4.6,1.71c2.4,2.49,2.12,6.8,2.11,7Z"></path><path class="cls-2" d="M17.52,79.14A3.13,3.13,0,0,1,14.39,76V53.73a3.13,3.13,0,0,1,3.13-3.13H24.7a3.13,3.13,0,0,1,3.13,3.13h-2A1.13,1.13,0,0,0,24.7,52.6H17.52a1.13,1.13,0,0,0-1.13,1.13V76a1.13,1.13,0,0,0,1.13,1.12H24.7A1.14,1.14,0,0,0,25.83,76h2a3.14,3.14,0,0,1-3.13,3.12Z"></path><path class="cls-2" d="M63,54.47a4.09,4.09,0,0,1-2.39-.76l-9.25-6.86a10.66,10.66,0,0,1-3.9-8V19.56h31.1V38.8a10.67,10.67,0,0,1-3.85,8l0,0L65.43,53.7A4.3,4.3,0,0,1,63,54.47ZM49.45,21.56V38.8a8.62,8.62,0,0,0,3.13,6.47l9.19,6.82a2.2,2.2,0,0,0,2.49,0l9.18-6.82a8.62,8.62,0,0,0,3.11-6.48V21.56Z"></path><path class="cls-2" d="M67.5,31.73h-2V29.21a2.11,2.11,0,0,0-2.11-2.11h-.78a2.11,2.11,0,0,0-2.11,2.11v1.71h-2V29.21a4.11,4.11,0,0,1,4.11-4.11h.78a4.11,4.11,0,0,1,4.11,4.11Z"></path><path class="cls-2" d="M71.36,42.35H54.64V30.71H71.36Zm-14.72-2H69.36V32.71H56.64Z"></path></g></g></svg>