<svg transform="scale(1)" version="1.1" id="qNSLUuE57x" xmlns="http://www.w3.org/2000/svg" xmlns:xlink="http://www.w3.org/1999/xlink" x="0px" y="0px" viewBox="0 0 500 500" xml:space="preserve" class="pbimage_pbimage__wrapper__image__0LEis false"><title>Shipping</title><style type="text/css"> .st0{fill:#59BE4C;} .st1{fill:#FFFFFF;} .st2{fill:#000005;} .st3{fill:#05050A;}
 .st3{fill:#05050A;}
 .st2{fill:#000005;}
 .st1{fill:#FFFFFF;}
 .st0{fill:#3563E9;}</style><g id="globe"><circle class="st0" cx="280.3" cy="243.7" r="144" fill="#3563E9"></circle><path class="st1" d="M321.3,105.3c1.3,5.2,1.1,11,0.5,16.3c-1.6,12.9-7,25-15.6,34.8c-2.8,3.2-5.9,6.2-8.7,9.4
		c-2.5,2.8-4.8,5.7-6.9,8.7c-3.1,4.5-6,9.4-7.1,14.8c-0.9,4.2-0.3,8.7,1.5,12.6c2.2,4.7,6,8.5,10,11.8c2,1.7,4.3,3.2,6.2,5
		c1.5,1.4,2.9,3,4.1,4.7c2,3,3.7,6.1,5.2,9.3c1.2,2.9,2.9,5.5,4.9,7.9c2.9,3,6.6,5.2,10.6,6.3c4.9,1.4,10.2,1.1,15.2,0.5
		c6.3-0.6,12.5-2.1,18.4-4.3c10.3-4.1,19.4-10.6,27.4-18.2c7-6.8,13.4-14.3,18.9-22.4c3.1-4.4,6-9.1,8.5-13.8
		c0.1-0.2,0.2-0.5,0.4-0.7c0.4-0.7-4-3.1-4.3-2.6c-1.7,3.3-3.6,6.4-5.6,9.5c-4.7,7.4-10,14.4-15.9,20.9c-7.1,8-15.4,14.9-24.7,20.4
		c-10.5,5.9-22.3,9-34.3,8.9c-2.2,0-4.4-0.2-6.6-0.6c-0.8-0.2-1.6-0.4-2.4-0.7c-0.3-0.1,0.1,0.1-0.2-0.1c-0.1,0-0.2-0.1-0.3-0.1
		s0.4,0.2,0.1,0.1l-0.2-0.1c0.3,0.2,0.1,0,0,0c-0.4-0.2,0.3,0.2,0,0s0,0-0.1,0l-0.5-0.4c0.3,0.2-0.4-0.4-0.5-0.5
		c-0.4-0.5-0.9-1-1.3-1.5c-0.9-1.2-1.6-2.4-2.3-3.7c-1.6-2.9-2.9-6-4.6-8.9c-2.1-3.6-4.8-6.8-7.9-9.6c-2.1-1.8-4.4-3.4-6.5-5.2
		c-1.9-1.7-3.7-3.5-5.2-5.5c-2.7-3.4-4.3-7.6-4.4-12c-0.1-4.9,1.8-9.6,4.1-13.9c3.5-6,7.8-11.6,12.6-16.6c2.8-3,5.7-5.9,8.3-9.1
		c2.3-2.9,4.4-6,6.2-9.2c3-5.4,5.2-11.1,6.5-17.1c1.7-7.1,1.9-14.5,0.7-21.8c-0.1-0.3-0.1-0.7-0.2-1.1c-0.2-0.8-1.8-1.5-2.5-1.9
		C322.9,105.7,321.2,104.8,321.3,105.3L321.3,105.3z" fill="#FFFFFF"></path><path class="st1" d="M249.1,102.6c0.1,0.6,0.1,1.2,0.1,1.8c0,1.7-0.1,3.4-0.3,5.1c-0.7,5-3,9.5-6.6,13c-2.5,2.3-5.6,4.1-8.9,5.1
		c-3.6,1.2-7,2.6-10.3,4.3c-7.2,3.7-13.7,8.6-19.2,14.5c-5.2,5.5-9.6,12.2-11.5,19.6c-0.9,3.5-1.1,7.2-0.6,10.8
		c0.3,1.8,0.2,3.7-0.5,5.5c-1.5,3.2-5.1,4.7-8.4,5.3c-4.5,0.8-9.1,0.9-13.7,0.3c-7.1-0.8-14-2.1-20.9-3.9l-0.4-0.1
		c-1.1-0.3-0.5,1.1-0.3,1.5c0.6,1,1.5,1.8,2.6,2.2c6,1.7,12,2.9,18.2,3.7c4.7,0.7,9.6,0.9,14.4,0.5c3.7-0.4,7.9-1.2,10.6-4
		c3.5-3.7,1.7-8.4,1.9-12.8c0.3-7.6,3.8-14.7,8.4-20.6c5.1-6.5,11.3-12,18.4-16.2c3.4-2.1,6.9-3.9,10.6-5.3c3.4-1.3,6.9-2.2,10-4.2
		c7.7-4.9,11.1-14.2,10.2-23l-0.1-0.5c-0.4-1.1-1.1-2.1-2.1-2.7C250.2,102.1,249,101.5,249.1,102.6L249.1,102.6z" fill="#FFFFFF"></path><path class="st1" d="M136,226.6c5,2.3,10.4,3.9,15.8,4.9c12.4,2.5,25.3,2.3,37.6-0.7c9.4-2.3,18.5-5.1,28.2-4.2h0.2l0.6,0.1
		c0.4,0.1,0.8,0.1,1.2,0.2c0.8,0.2,1.5,0.4,2.3,0.6c0.6,0.2-0.4-0.2,0.1,0l0.5,0.2c0.3,0.1,0.5,0.3,0.8,0.4s0.6,0.4,0.9,0.5
		c0.1,0.1,0.6,0.4,0.1,0l0.5,0.4c0.2,0.2,0.4,0.4,0.6,0.6s0.8,0.9,0.4,0.4c0.5,0.6,0.8,1.2,1.2,1.9l0.1,0.3c0.2,0.5-0.1-0.5,0,0.1
		c0.1,0.3,0.2,0.7,0.3,1s0.2,0.7,0.2,1.1c0,0.3,0.1,0.5,0.1,0.8c0.4,4.2-0.8,8.2-2.1,12.2c-2.2,6.4-5.4,12.5-8.2,18.7
		c-4.4,9.3-9.7,19-11.2,29.3c-0.6,4-0.4,8,0.7,11.9c1.1,3.9,3.3,7.1,5.2,10.7c0.3,0.6,0.6,1.1,0.8,1.7c0.1,0.3,0.3,0.6,0.4,0.9
		c-0.2-0.6,0.2,0.5,0.2,0.7c0.4,1.2,0.8,2.4,1,3.7c0.1,0.5,0.2,1.1,0.2,1.6c-0.1-0.7,0,0.2,0,0.4s0,0.6,0,0.9c0,0.6,0,1.1-0.1,1.6
		c0,0.2-0.2,1.1,0,0.4c-0.1,0.3-0.1,0.5-0.2,0.8c-0.2,0.5-0.3,1-0.5,1.5c-0.1,0.1-0.1,0.2-0.1,0.3c-0.1,0.3,0.3-0.5,0.1-0.1
		s-0.3,0.5-0.5,0.8s-0.3,0.4-0.5,0.6c-0.4,0.6,0.1,0-0.1,0.1c-0.4,0.4-0.9,0.8-1.3,1.2c-0.1,0.1-0.2,0.2-0.4,0.2
		c0.6-0.4,0.2-0.1,0,0l-0.6,0.4c-0.6,0.3-1.2,0.6-1.9,0.9c0.7-0.3-0.2,0-0.4,0.1c-0.3,0.1-0.7,0.2-1,0.3c-0.7,0.2-1.5,0.3-2.3,0.5
		l-0.6,0.1h-0.2l-1.3,0.1c-1,0-1.9,0.1-2.8,0c-2.1-0.1-4.2-0.2-6.2-0.6c-5.7-0.9-11.4-2.2-16.9-4.1c-3.3-1.1-6.6-2.3-9.9-3.6
		c-1.2-0.6-2.6-0.2-3.4,0.8c-0.7,0.9-0.4,2.3,0.5,2.9c0.1,0.1,0.2,0.1,0.2,0.1c11.1,4.4,23.1,8.7,35.2,9c6.3,0.2,13.4-1,17.6-6.2
		c3.2-4,3.2-9.6,1.8-14.3c-0.8-2.8-2-5.5-3.6-8c-2.2-3.7-3.9-7.1-4.4-11.5c-0.1-0.8-0.1-1.5-0.1-2.3c0-1.1,0-2.1,0.2-3.2
		c0.2-2,0.6-4,1.2-6c1.6-4.9,3.5-9.8,5.7-14.5c2.9-6.3,5.9-12.5,8.7-18.7c2.4-5.3,4.7-10.6,5.7-16.3c0.8-3.7,0.5-7.5-0.9-11
		c-1.3-2.8-3.5-5-6.3-6.2c-7.7-3.6-17.2-2.1-25.2-0.5c-6.3,1.2-12.4,3.2-18.8,4.2c-6.5,1-13.1,1.2-19.6,0.6
		c-4.8-0.4-9.6-1.3-14.3-2.6c-1.8-0.5-3.5-1-5.2-1.6l-1-0.4l-0.3-0.1c-0.5-0.2,0.5,0.2,0,0l-1.4-0.6l-1.1-0.5
		c-1.2-0.6-2.6-0.2-3.4,0.8c-0.7,0.9-0.4,2.2,0.5,2.9C135.8,226.5,135.9,226.6,136,226.6L136,226.6z" fill="#FFFFFF"></path><path class="st1" d="M297.8,350.4c2.6-7.2,3.1-15,1.4-22.4c-0.7-2.9-1.8-5.7-3.4-8.2c-1.5-2.3-3.5-4.2-5.2-6.3
		c-0.3-0.4-1.1-1.4-1.5-2.1c-0.5-0.9-1.1-1.7-1.5-2.6c-0.9-1.7-1.7-3.6-2.3-5.4c-1.3-3.9-2-8-2-12.1c0-1.9,0.2-3.9,0.6-5.8
		c0.2-0.8,0.4-1.6,0.7-2.4c0.1-0.4,0.3-0.8,0.5-1.2s0.5-1.1,0.5-1c-0.1,0.2,0.1-0.3,0.2-0.3s0.2-0.4,0.4-0.6
		c0.2-0.4,0.5-0.7,0.8-1.1c0.1-0.2,0.4-0.4,0.1-0.1c0.1-0.1,0.3-0.3,0.4-0.4c0.3-0.3,0.7-0.6,1-0.9l0.2-0.2c0.3-0.2-0.4,0.2-0.1,0.1
		l0.5-0.3c0.4-0.2,0.8-0.4,1.2-0.6h0.1l0.7-0.2c0.2-0.1,0.4-0.1,0.6-0.2s0.9-0.2,0.4-0.1c5-1,9.9,1.1,15,1.7
		c6.4,0.6,12.8,0.4,19.1-0.5c5.5-0.7,11-1.7,16.5-1.9c4.1-0.1,8.5,0.4,11.7,3.2c3.8,3.2,5.4,8.3,6.3,13c2.1,10.4,0.7,21.4-2.9,31.3
		c-3.8,11.1-10.5,21-19.2,28.8c-4.8,4.1-10.2,7.5-16,10.1c-3,1.4-6,2.7-9.1,3.7c-2.3,0.8-4.6,1.3-7,1.6c-0.5,0-1,0.1-1.5,0.1h-0.7
		H304c-0.9,0-1.7-0.2-2.6-0.4c0.4,0.1,0,0-0.1,0l-0.5-0.2c-0.3-0.1-0.7-0.3-1-0.5s0.2,0.2-0.2-0.1l-0.4-0.3
		c-0.3-0.2-0.5-0.5-0.8-0.7c0-0.1-0.4-0.4-0.2-0.2s-0.2-0.2-0.2-0.3c-0.2-0.3-0.4-0.6-0.6-0.9s-0.3-0.6-0.4-0.9
		c0.1,0.4,0-0.1-0.1-0.2s-0.1-0.4-0.2-0.6c-0.4-1.7-0.5-3.4-0.3-5.1C296.8,354.6,297.3,352.5,297.8,350.4c0.9-3-3.7-3-4.4-0.6
		c-1.9,6.7-3.7,17.6,4.9,20.6c4.3,1.5,9.2,0.7,13.5-0.4c6.9-2,13.5-4.8,19.6-8.5c21.5-13.1,34.8-36.3,35.1-61.4
		c0-5.3-0.8-10.6-2.5-15.7c-1.8-5.1-4.8-9.7-9.9-11.8c-4.7-2-10.1-1.7-15-1.2c-6.1,0.6-12.1,1.8-18.2,2.2c-3.3,0.3-6.5,0.3-9.8,0.1
		c-3.3-0.3-6.6-0.9-9.8-1.7c-4.6-1-9.6-0.8-13.8,1.5c-7.7,4.3-9.5,13.8-8.9,21.9c0.4,4.5,1.5,8.9,3.2,13c0.8,2,1.8,3.8,3,5.6
		c1.3,1.8,2.7,3.5,4.2,5.1c7.2,7.8,7.4,19.4,4.8,29.1c-0.1,0.4,0.1-0.4,0,0l-0.1,0.4c0,0.2-0.1,0.4-0.2,0.6l-0.2,0.5
		C292.3,352.7,296.9,352.8,297.8,350.4z" fill="#FFFFFF"></path><path class="st1" d="M243.1,162.8c-2.9,1-5.2,3.1-6.5,5.9c-1.2,2.7-0.8,5.9,1.1,8.2c2.2,2.7,5.4,3.3,8.6,2.7s6.8-2,8-5.4
		c1.1-3.2-0.3-6.7-3.2-8.3c-0.4-0.1-0.8-0.1-1.2-0.1c-0.6,0.1-1.3,0.2-1.9,0.3c-0.2,0-2.1,0.6-1.6,0.9c2.1,1.2,3.4,3.5,3.4,6
		c0,1.3-0.4,2.5-1.1,3.5c-0.3,0.5-0.7,0.9-1.2,1.3c-0.2,0.1-1.2,1-1.4,0.9c0.2,0.1,0.9-0.4,1.2-0.2c-0.2,0-0.5-0.1-0.7-0.1
		c-0.6-0.1-1.1-0.3-1.6-0.6c-1.1-0.6-2-1.4-2.7-2.4c-1.4-2-1.9-4.6-1.1-6.9c0.9-2.7,2.9-4.8,5.5-5.8c0.1,0,0.7-0.3,0.6-0.5
		s-0.7-0.2-0.8-0.2C245.4,162.2,244.2,162.4,243.1,162.8L243.1,162.8z" fill="#FFFFFF"></path><path class="st1" d="M247,348.6c-5.5-0.6-12,2.1-13,8.1c-0.6,2.7,0.3,5.4,2.4,7.3c2,1.7,4.8,2.3,6.8,4.1s3.6,4.4,5.8,6.3
		c2.1,2.1,4.8,3.4,7.8,3.6c5.4,0.1,9.4-4.6,10-9.6c0.8-6.6-3.9-12-8.2-16.4c-0.9-0.9-2.4-1-3.4-0.2c-0.9,0.6-1.6,2.1-0.7,3
		c3,3.1,6.6,6.6,7.4,11c0.5,2.8-0.7,7-3.5,7.8c-3.8,1-7.2-4.2-9.4-6.6c-1.4-1.8-3.2-3.2-5.2-4.3c-1.6-0.8-3.9-1.5-4.7-3.3
		c-0.7-1.8-0.3-3.8,1.1-5.1c1.7-1.3,3.8-1.9,5.9-1.5C248.8,353.1,250.3,348.9,247,348.6L247,348.6z" fill="#FFFFFF"></path></g><g id="line"><path class="st2" d="M135.4,109c-2.3,1.9-4.5,4-6.7,6c-5.7,5.4-11.1,11.1-16.2,17c-7,8.1-13.5,16.7-19.2,25.7
		c-6.6,10.3-12.1,21.4-16.4,32.9c-4.5,12.2-7,25-7.4,37.9c-0.3,14.7,2.6,28.8,7.8,42.5c4.8,12.7,11.2,25.1,20.4,35.2
		c6.2,6.9,13.9,12.6,22.7,15.6c6.7,2.4,13.9,2.8,20.8,1.2c5.2-1.3,10.5-3.9,13.5-8.5c2.3-3.6,2.8-8.9-0.3-12.2
		c-4.5-4.8-12.7-1.6-17.3,1.3c-7.3,4.7-13.2,11.3-17.3,19c-4.7,8.8-7,18.9-5.2,28.8c2.3,12.8,11.1,23,21.3,30.5
		c13.6,10,29.5,17.4,46.3,19.9c13.4,2,27,0.5,40.1-2.8c12.1-3.1,23.7-7.6,35.7-11c12.3-3.6,26-6.6,38.6-2.3
		c8.7,3,15.4,9.9,18.2,18.6c1.1,3.5,1.7,7.2,1.7,10.8c0,1.8,4.9,0.9,4.9-1.1c0.1-8-2.7-15.7-7.7-21.9c-7.4-8.6-18.8-11.5-29.7-11.5
		c-13.1,0.1-25.8,4.2-38.1,8.2c-11.6,3.8-23.3,7.8-35.4,9.8c-13.2,2.2-26.7,1.2-39.5-2.9c-8.2-2.7-16-6.4-23.4-11
		c-6.6-4.1-13-8.7-18.2-14.6c-7.2-8.3-11.3-18.8-10.3-29.8c1-9.3,4.7-18.1,10.6-25.3c2.4-3,5.1-5.7,8.2-8c1.4-1,2.9-2,4.4-2.7
		c-0.5,0.2,0.5-0.2,0.6-0.3c0.3-0.1,0.7-0.3,1-0.4c0.2-0.1,1.3-0.4,0.5-0.2c0.4-0.1,0.7-0.2,1.1-0.3c0.2,0,1.1-0.2,0.3-0.1l0.9-0.1
		c0.8-0.1-0.2-0.1,0.4,0c0.2,0,1.2,0.2,0.5,0l0.8,0.2c0.1,0,0.2,0.1,0.4,0.1c-0.5-0.2-0.1,0,0,0s0.4,0.2,0.6,0.4
		c0.4,0.3,0.1,0,0.4,0.4c1.3,1.5,2,3.4,1.9,5.4c0-0.4,0,0.3,0,0.4s-0.1,0.5-0.1,0.7c-0.1,0.5-0.2,1-0.4,1.5c-0.1,0.4-0.2,0.7-0.4,1
		c-0.2,0.5-0.5,0.9-0.8,1.4c-0.5,0.8-1.1,1.4-1.8,2c-0.4,0.4-0.8,0.7-1.2,1c0.5-0.4-0.2,0.1-0.4,0.2c-0.3,0.2-0.6,0.4-0.9,0.5
		l-0.8,0.4l-0.4,0.2c-0.5,0.2,0.5-0.2,0,0s-1.2,0.5-1.9,0.8l-0.9,0.3c-0.1,0-0.7,0.2,0,0l-0.5,0.1c-0.6,0.2-1.3,0.3-2,0.5l-1,0.2
		c-0.6,0.1,0.6-0.1,0,0l-0.5,0.1c-0.8,0.1-1.6,0.2-2.4,0.2c-0.4,0-0.8,0-1.1,0c-0.1,0-0.7,0-0.1,0h-0.6c-0.8,0-1.7-0.1-2.6-0.2
		c-7.3-0.8-14.6-4.3-20.7-8.9c-8.9-6.8-15.7-16.2-20.9-26c-7-13-12.2-27.4-14.2-42.1c-1.7-12.9-1-26.1,2.1-38.8
		c5.3-23,17.1-44,31.4-62.6c8.6-11.3,18.3-21.6,29-31c0.5-0.5,1.1-0.9,1.6-1.4c0.9-0.7,0.5-1.6-0.4-2c-1.2-0.3-2.5,0-3.4,0.8
		L135.4,109z"></path></g><g id="airplane"><path class="st1" d="M143.4,78.1c0,0,6-9.7,5.7-10.4s-20.7,12.5-20.7,12.5L143.4,78.1z"></path><path class="st2" d="M145,80c1.4-2.3,2.9-4.7,4.2-7.1c0.7-1,1.3-2.2,1.6-3.4c0.2-1.3-1-2.7-2-3.4c-0.4-0.4-1-0.5-1.5-0.4
		c-0.9,0.3-1.7,0.7-2.4,1.2c-1.3,0.7-2.5,1.5-3.8,2.2c-3,1.8-6,3.7-9,5.6l-5.4,3.5c-0.7,0.4,0.4,2,0.7,2.3c0.5,0.6,1.5,1.7,2.4,1.6
		l15-2.1c1.4-0.2-1.3-4.2-2.8-4l-15,2.1l3,3.9c5.8-3.8,11.6-7.5,17.6-11c0.7-0.4,1.4-0.8,2.1-1.1l0.4-0.2h0.1c0.2-0.2,0.5,0,0-0.1
		l-0.9-0.4l-0.9-0.8l-0.9-1.5c-0.1-0.3,0-0.8-0.1-0.4c-0.1,0.1-0.1,0.3-0.2,0.4c-0.2,0.4-0.4,0.9-0.6,1.3c-0.6,1.2-1.2,2.3-1.9,3.4
		c-0.9,1.6-1.8,3.1-2.8,4.7C140.9,77.6,144.4,81,145,80z"></path><path class="st1" d="M229,63.4c0,0,8.6-13.2,8.4-14.9s-7.1,0.3-9,1.2s-20.2,17.7-20.2,17.7L229,63.4z"></path><path class="st2" d="M231.4,64c2-3,3.9-6.1,5.8-9.2c1.1-1.6,1.9-3.2,2.6-5c0.2-0.5,0-1.1-0.5-1.3l0,0c-1.6-0.9-3.4-1.3-5.3-1.3
		c-2.5,0.1-5.1,0.7-7.4,1.7c-1,0.5-1.9,1.2-2.8,2c-3.5,2.9-6.9,6-10.3,9c-2.6,2.3-5.2,4.7-7.8,7c-0.2,0.2,2,0.9,2,0.9
		c0.9,0.3,1.8,0.5,2.7,0.4l20.8-4.1c0.5-0.1-1.5-0.9-1.6-0.9c-1-0.4-2-0.5-3.1-0.5l-20.5,4l4.7,1.3c5.2-4.7,10.4-9.4,15.6-14
		c1.2-1,2.4-2.1,3.6-3c1.2-0.8,2.5-1.3,3.9-1.7c1.2-0.4,2.4-0.6,3.6-0.8c0.2,0,0.4,0,0.6,0c-0.2,0-3-1-3-0.8s0.1,0.1,0,0.1
		s0,0.4-0.1,0.5c-0.6,1.6-1.3,3.1-2.3,4.5c-1.9,3.3-4,6.6-6.1,9.8C226.6,62.8,230.9,64.9,231.4,64z"></path><path class="st1" d="M132.4,76.4c0,0-18.2-15.4-20.3-15.1S93.6,66.2,95,67.1s29.5,28.1,35.4,30.4s50.3,3,74.8-0.4
		s57.2-9.7,64.8-19.5s1.4-13.2-4.4-13.3s-13.9-5.1-19.9-5.8s-34.3,6.6-52.3,9.4S132.4,76.4,132.4,76.4z"></path><path class="st2" d="M134.4,77.3c-3.3-2.8-6.7-5.6-10.2-8.3c-2.3-1.8-4.7-3.7-7.2-5.4c-1.2-0.8-2.4-1.5-3.6-2.2
		c-0.9-0.5-2.2-1.3-3.3-1.4c-0.8,0.1-1.5,0.2-2.2,0.5c-1.3,0.3-2.7,0.7-4,1.1c-2.9,0.8-5.9,1.7-8.7,2.8c-0.6,0.2-1.9,0.5-2.3,1.1
		c-0.1,0.2-0.2,0.2-0.1,0.4s0.8,0.7,1,0.7c-0.1-0.1-0.7-0.5-0.5-0.4c1,1,2.2,1.9,3.2,2.9c9,8.3,17.8,17,27.6,24.5
		c3.5,2.7,7.2,5.1,11.6,5.7c6,0.7,11.9,1.1,17.9,1.2c16.8,0.4,33.9,0.2,50.6-1.8c9.2-1.1,18.3-2.6,27.4-4.4c9.1-1.6,18.1-4,26.8-7.1
		c6.5-2.5,13-5.6,16.3-12.1c1.4-2.9,1.6-6-1.1-8.1c-2.9-2.3-6.5-3.6-10.2-3.8c-7.8-0.3-14.4-6.4-22.3-5.7
		c-7.1,0.6-14.2,2.3-21.2,3.8c-9,1.9-18,3.8-27.1,5.3c-6.8,1.1-13.7,2-20.5,3c-13.2,1.8-26.3,3.6-39.5,5.4l-2.4,0.3
		c-0.4,0,1.2,1,1.4,1.1c0.6,0.4,2,1.4,2.8,1.3c9.5-1.3,19-2.6,28.5-3.9c14.2-1.9,28.4-3.7,42.4-6.4c8.6-1.7,17.2-3.5,25.9-5.3
		c3.5-0.7,6.9-1.4,10.4-1.9c2.2-0.4,4.4-0.6,6.6-0.4c4.4,0.7,8.6,2.9,12.8,4.3c1.9,0.7,4,1.2,6.1,1.4c0.7,0,1.4,0,2.1,0.1
		s1.4,0.3,2.1,0.4c0.1,0,0.6,0.3-0.3-0.1c0,0-1.7-1.2-1.2-0.7c0.1,0.2,0.4,0.3,0.5,0.5c0.4,0.6,0.8,1.2,0.9,1.9
		c0.2,1.6-0.1,3.3-0.9,4.8c-1.4,3-3.7,5.6-6.4,7.4c-6.1,4.1-13.5,6.3-20.5,8.2c-9.2,2.4-18.5,4.4-27.9,5.9
		c-8.1,1.3-16.3,2.5-24.5,3.1s-16.6,0.9-25,1c-7.6,0.1-15.3,0-22.9-0.3c-2.9-0.1-5.7-0.3-8.6-0.6c-1.8-0.1-3.5-0.4-5.2-0.8l-0.4-0.1
		c-0.4-0.1,0.1,0.1-0.1,0c0.5,0.2,0.6,0.3,1,0.5l0.3,0.2c-0.4-0.2,0.4,0.3,0.1,0.1l-0.4,0c-0.4-0.2,0.3,0.2,0,0l-0.6-0.4
		c-0.4-0.3-0.7-0.5-1.1-0.8c-2.2-1.6-4.2-3.4-6.3-5.2c-4.9-4.2-9.7-8.6-14.4-12.9c-3.3-3.1-6.6-6.2-9.9-9.2c-0.4-0.4-0.8-0.7-1.3-1
		C95.7,67,96.9,68,97.1,68s0.1-0.1,0.1-0.2c0.3-0.2,0.6-0.4,0.9-0.5c2.4-1,4.9-1.9,7.4-2.6c2.6-0.8,5.1-1.5,7.7-2.1l0.9-0.2
		c0.4-0.1,0.2,0,0-0.1c-0.4-0.2-0.8-0.3-1.2-0.5c0.5,0.3-0.2-0.2,0.1,0.1s0.6,0.4,1.2,0.8c4.6,3.2,9,6.8,13.3,10.4l2.8,2.3
		c0.9,0.7,1.9,1.3,3,1.7C133.6,77.3,135.1,77.9,134.4,77.3z"></path><path class="st1" d="M216.1,84.4c0,0-56,36.6-61,37.2s-12.4-3.2-11.7-5s40.2-29.5,46.3-31.1"></path><path class="st2" d="M215.2,82.9c-5.5,3.6-11,7.1-16.4,10.6c-9.9,6.3-19.8,12.6-29.9,18.7c-3.7,2.2-7.3,4.4-11.1,6.4
		c-0.6,0.3-1.2,0.6-1.8,0.9l-0.4,0.2c0,0,0.7-0.3,0.2-0.1l-0.6,0.2c-0.6,0.2,0.7,0,0.1,0c-0.9,0-1.8,0-2.7-0.1
		c-1.8-0.3-3.4-0.9-5-1.8c-0.6-0.3-1.1-0.7-1.6-1.2c-0.1-0.1-0.1-0.2-0.3-0.3s0,0,0,0c0,0.2-0.1,0.4-0.1,0.6
		c-0.2,0.5-0.4,0.5-0.1,0.2c-0.5,0.6-0.3,0.3,0.1,0c1.2-1,2.4-2,3.6-2.9c4.3-3.2,8.6-6.3,13-9.4c5.2-3.6,9.8-6.8,15.2-10.2
		c3.7-2.5,7.6-4.8,11.6-6.9l0.4-0.2c0.3-0.2-0.7,0.2-0.2,0.1c0.2-0.1,0.4-0.2,0.6-0.2c1-0.3,2.3-1.4,2.1-2.5s-1.6-1.3-2.6-1
		c-1.5,0.5-2.9,1.2-4.3,2c-2.1,1.2-4.1,2.4-6.1,3.7c-5.5,3.4-10.8,7-16.1,10.7c-4.9,3.4-9.8,6.8-14.6,10.3c-1.6,1.2-3.2,2.3-4.7,3.6
		c-1,0.8-2.3,1.7-2.6,3c-0.8,3.2,4.6,5.1,6.8,5.8c2.6,0.8,5.6,1.4,8.3,0.4c3.3-1.4,6.4-3.1,9.4-5c10.2-6,20.2-12.3,30.2-18.7
		c7-4.4,13.9-8.9,20.8-13.4l0.3-0.2c0.8-0.6,2-1.6,1.4-2.7S216,82.5,215.2,82.9L215.2,82.9z"></path><path class="st2" d="M242.7,75.3c0,0,2-0.4,2.1-1s-1.1-5.7-1.3-5.7s-4.3,0.3-4.2,1.3s1.1,5,1.9,5.4"></path><path class="st2" d="M240.6,76.5c1.3-0.3,2.6-0.8,3.8-1.5c0.7-0.4,1.3-0.7,1.9-1.2c0.2-0.1,0.4-0.3,0.6-0.6c0.1-0.2,0.1-0.4,0-0.6
		c-0.2-1.5-0.5-3-1-4.5c-0.1-0.2-0.1-0.5-0.2-0.7c-0.1-0.1-0.1-0.1-0.3-0.1c-0.6,0-1.3,0.1-1.9,0.2c-1.4,0.3-2.8,0.8-4.1,1.5
		c-0.7,0.4-1.4,0.8-2,1.2c-0.1,0.1-0.3,0.2-0.4,0.4c-0.1,0.2-0.1,0.5,0,0.8c0.2,1,0.4,1.9,0.8,2.8c0.2,0.5,0.3,0.9,0.5,1.3
		c0.1,0.3,0.3,0.6,0.6,0.7c0.2,0.1,0.6-0.1,0.7-0.2c0.5-0.2,1.1-0.5,1.6-0.8s1-0.6,1.5-0.9c0.1,0,0.6-0.5,0.6-0.5
		c-0.3-0.3-0.6-0.6-0.7-1c-0.2-0.6-0.5-1.2-0.6-1.8c-0.2-0.6-0.3-1.2-0.5-1.8c-0.1-0.3-0.3-0.8-0.1-1.1v0.1l0.1-0.1l-0.1,0.1
		c0.1-0.1,0,0-0.3,0.2c-0.4,0.3-0.9,0.6-1.3,0.8c-0.4,0.3-0.9,0.5-1.4,0.7c0.2-0.1-0.2,0.1-0.2,0.1h0.1l0.3-0.1c0.1,0,0.2,0,0,0h0.1
		l0.3-0.1l0.7-0.1c0.6-0.1,1.1-0.2,1.7-0.2h-0.1c0.2,0.1,0.3,0.7,0.3,0.9c0.2,0.6,0.3,1.2,0.5,1.8s0.3,1.3,0.4,1.9
		c0.1,0.4,0.2,0.8,0.1,1.1l0.1-0.1v0.1l0,0c0,0,0,0,0.1,0l0,0c-0.2,0.2,0,0,0.5-0.3c0.7-0.5,1.4-0.9,2.1-1.2c0.4-0.2,0.1-0.1,0,0
		s0.4-0.1,0.2-0.1l-0.3,0.1l-0.4,0.1c0.2-0.1,0.2,0,0,0c-1,0.3-1.9,0.7-2.8,1.3c-0.4,0.2-0.9,0.5-1.2,0.8
		C240.6,76.3,240.2,76.6,240.6,76.5L240.6,76.5z"></path><path class="st2" d="M234.4,72.7c0.8,0.1,1.4,0.9,1.2,1.7c-0.2,0.9-1.2,1.5-2.1,1.2c-0.3-0.1-0.5-0.2-0.7-0.4c-0.4-0.9,0-2,0.9-2.4
		C234,72.7,234.2,72.7,234.4,72.7z"></path><path class="st3" d="M233.9,72.8L233.9,72.8h0.2h0.1c-0.1,0,0,0,0,0c0.2,0.1,0.4,0.2,0.6,0.4c0.4,0.5,0.4,1.3-0.1,1.8
		c-0.1,0.1-0.2,0.2-0.3,0.3h-0.1h-0.1h-0.1c-0.1,0,0.1,0,0,0l0,0c-0.1,0,0.1,0,0,0s0.1,0,0,0s0.2,0,0,0s0.1,0,0,0H234
		c-0.1,0,0.1,0,0,0h0c-0.1,0,0,0,0,0h-0.1l-0.2-0.1l0,0l0,0h-0.1l-0.2-0.1c-0.1-0.1-0.2-0.2-0.2-0.3c-0.1-0.3-0.1-0.6-0.1-0.9
		c0.1-0.4,0.2-0.7,0.5-1c0.1-0.1,0.2-0.2,0.4-0.3l0,0l0,0l0,0c-0.1,0-0.1,0,0,0l0,0h-0.2c0.1,0-0.2,0-0.1,0h0.2c0.3,0,0.6,0,0.9-0.1
		l0.2-0.1l-0.2-0.1c-0.6-0.1-1.3,0.1-1.9,0.4c-0.3,0.2-0.6,0.5-0.7,0.9c-0.2,0.6-0.3,1.4,0.3,1.8c0.4,0.2,0.8,0.3,1.2,0.2
		c0.6,0,1.2-0.1,1.7-0.4c0.3-0.2,0.6-0.5,0.8-0.8c0.2-0.4,0.2-0.8,0-1.2c-0.2-0.5-0.7-0.8-1.2-0.9c-0.3,0-0.6,0-0.9,0.1
		C234,72.6,233.6,72.8,233.9,72.8z"></path><path class="st2" d="M229.1,73.9c0,0,1.4,0.2,1.1,1.4c-0.3,0.9-1.3,1.3-2.1,1c-0.2-0.1-0.3-0.1-0.5-0.2
		C227.1,75.4,227.8,73.8,229.1,73.9z"></path><path class="st3" d="M228.9,74.1L228.9,74.1C229,74.1,228.7,74.1,228.9,74.1L228.9,74.1L228.9,74.1C229,74.1,228.8,74.1,228.9,74.1
		l0.2,0.1h0.1c0.1,0-0.1-0.1,0,0l0.1,0.1l0.1,0.1l0,0l0,0c0.2,0.2,0.3,0.5,0.2,0.8c0,0.3-0.2,0.5-0.4,0.7c-0.1,0.1,0,0,0,0
		s0,0-0.1,0.1c-0.1,0-0.1,0.1-0.2,0.1c-0.1,0.1,0.1,0,0,0h-0.1h-0.1c-0.1,0,0.1,0,0,0h-0.1h-0.1h-0.1c0.2,0,0.1,0,0,0l0,0h0.1h-0.1
		l0,0l0,0c0,0,0,0-0.1,0h-0.1l0,0l0,0c0,0-0.1-0.1-0.1-0.2v-0.1l0,0l0,0c0-0.1,0-0.1,0-0.2s0-0.3,0.1-0.4c0.1-0.3,0.2-0.6,0.5-0.8
		l0.1-0.1h0.1L228.9,74.1l0.1,0.1l0,0c-0.1,0,0,0,0,0h0.1h0.1c0.1,0-0.1,0,0,0h0.1c0.1,0-0.1,0,0,0h0.1c0,0-0.2,0-0.1,0
		c0.1,0,0.3,0,0.4,0c0.1,0,0.2-0.1,0.2-0.2s-0.5-0.3-0.6-0.3c-0.5,0-1,0.1-1.5,0.4c-0.3,0.2-0.5,0.5-0.7,0.8s-0.2,0.6-0.1,0.9
		c0.1,0.3,0.3,0.6,0.6,0.7c0.8,0.3,1.8,0.3,2.6-0.1c0.3-0.2,0.6-0.4,0.7-0.8c0.1-0.3,0.1-0.7,0-1c-0.3-0.5-0.9-0.8-1.5-0.9
		c-0.2,0-0.3,0-0.5,0c-0.1,0-0.2,0-0.3,0.1S228.8,74.1,228.9,74.1z"></path><path class="st2" d="M224,74.5c0.5,0.5,0.5,1.2,0.1,1.8c-0.2,0.5-0.8,0.8-1.4,0.5c-0.3-0.1-0.6-0.4-0.6-0.8
		C222.1,75.2,223.2,73.9,224,74.5z"></path><path class="st3" d="M223.6,74.7L223.6,74.7L223.6,74.7C223.6,74.8,223.5,74.6,223.6,74.7L223.6,74.7c0.1,0,0.1,0.1,0.1,0.1
		s0,0,0,0.1s0-0.1,0,0s0.1,0.2,0.1,0.3V75c0,0.2,0,0.3,0,0.5v-0.1c-0.1,0.2-0.2,0.4-0.3,0.6l0.1-0.1c-0.1,0.1-0.2,0.2-0.4,0.3
		l0.1-0.1l-0.2,0.1c-0.1,0,0.1,0,0.1,0H223h-0.1l0,0h-0.1c0,0-0.1,0,0,0s0,0,0,0s-0.2-0.1,0,0l-0.1-0.1c0,0-0.1-0.1,0,0l0,0
		l-0.1-0.1c0,0,0.1,0.1,0,0l0,0l0,0v0.1c0-0.1-0.1-0.1-0.1-0.2V76c0-0.1,0-0.2,0-0.3v0.1c0.1-0.2,0.2-0.5,0.3-0.7l-0.1,0.1
		c0.1-0.2,0.3-0.4,0.6-0.5l-0.1,0.1c0.1,0,0.1-0.1,0.2-0.1c0.1,0,0.2,0,0,0L223.6,74.7c0.1,0-0.1,0-0.1,0L223.6,74.7
		c0.1,0-0.2-0.1-0.1,0L223.6,74.7c0.1,0-0.1-0.1-0.1,0c0.1,0.1,0.3,0.2,0.4,0.2c0.1,0,0.3,0,0.4-0.1c0.2-0.2,0-0.5-0.2-0.6
		c-0.3-0.3-0.8-0.4-1.2-0.3c-0.3,0.1-0.6,0.2-0.9,0.5c-0.7,0.5-0.9,1.5-0.4,2.2c0.3,0.4,0.8,0.7,1.4,0.7c0.4,0,0.8-0.1,1.1-0.4
		s0.5-0.7,0.6-1.1s0-0.8-0.2-1.1c-0.1-0.2-0.2-0.3-0.3-0.4s-0.3-0.2-0.4-0.2c-0.1,0-0.3,0-0.4,0c-0.1,0-0.2,0.1-0.2,0.3
		C223.3,74.5,223.4,74.6,223.6,74.7z"></path><path class="st2" d="M218.7,75.3c0,0,1.3,0.5,0.9,1.6s-2.1,0.8-2.1-0.2S218.1,75.2,218.7,75.3z"></path><path class="st3" d="M218.5,75.8l0.1,0.1l0.1,0.1c0.1,0-0.1-0.1-0.1,0l0,0l0.1,0.1l0.1,0.1l0,0l0,0c0.1,0-0.1-0.1-0.1-0.1l0.1,0.1
		c0,0,0,0.1,0.1,0.1c0,0-0.1-0.2-0.1-0.1v0.1l0,0c0,0.1,0-0.2,0-0.1v0.1c0,0,0-0.2,0-0.1v0.1c0,0,0,0.1,0,0s0,0,0,0v0.1
		c0,0,0,0.1,0,0s0,0,0,0v0.1l-0.1,0.1l0.1-0.1c-0.1,0.1-0.2,0.2-0.3,0.2l0.1-0.1c-0.1,0-0.2,0.1-0.3,0.1h-0.1h0.1H218h-0.1h0.1h-0.1
		l-0.1-0.1c-0.1,0,0.1,0.1,0.1,0c0,0,0,0-0.1,0l0,0l0.1,0.1l0,0l0,0l0.1,0.1c0,0,0-0.1-0.1-0.1s0,0.2,0,0.1s0,0,0-0.1s0,0.2,0,0.1
		v-0.1v-0.2c0,0.2,0,0,0,0v-0.1v-0.1v-0.1c0,0.1,0,0,0,0l0.1-0.1c0-0.1,0.1-0.1,0.1-0.2L218,76c0.1-0.1,0.2-0.1,0.2-0.2l-0.1,0.1
		h0.1C218.4,75.9,218.5,75.9,218.5,75.8C218.3,76,218.4,75.9,218.5,75.8L218.5,75.8C218.6,75.9,218.6,75.9,218.5,75.8L218.5,75.8
		c0.3,0.2,0.6,0,0.6-0.3v-0.1c0-0.3-0.2-0.6-0.5-0.7c-0.4-0.1-0.8,0-1.1,0.3s-0.5,0.6-0.6,1s-0.1,0.8,0.1,1.2
		c0.2,0.3,0.4,0.6,0.8,0.7c0.6,0.3,1.3,0.2,1.9-0.2c0.3-0.3,0.5-0.6,0.6-1s0-0.8-0.3-1.2c-0.2-0.3-0.5-0.5-0.8-0.7
		c-0.1-0.1-0.2-0.1-0.3-0.2c-0.1,0-0.3,0-0.4,0c-0.1,0-0.2,0.2-0.3,0.3C218,75.4,218.2,75.7,218.5,75.8z"></path><path class="st2" d="M212.6,76.1c0,0,1.6,0.1,1.1,1.2s-1.6,0.9-1.8,0.2S212,76.2,212.6,76.1z"></path><path class="st3" d="M212.7,76.7L212.7,76.7c0.2,0,0.4,0.1,0.6,0.1l-0.1-0.1c0.1,0,0.2,0.1,0.2,0.1l-0.1-0.1l0.1,0.1l-0.1-0.1
		l0.1,0.1l-0.1-0.2v0.1v-0.2v0.1v-0.2c0,0.1,0,0.1,0,0.2v-0.1c0,0.1-0.1,0.2-0.2,0.3l0.1-0.1c-0.1,0.1-0.2,0.3-0.3,0.4L213,77
		c-0.1,0.1-0.2,0.2-0.3,0.2l0.1-0.1c-0.1,0-0.2,0.1-0.3,0.1h0.1c-0.1,0-0.2,0-0.2,0h0.1c-0.1,0-0.1,0-0.2,0h0.1c0,0-0.1,0-0.1-0.1
		l0.1,0.1l-0.1-0.1l0.1,0.1l-0.1-0.1l0.1,0.2l-0.1-0.2v0.2c0-0.1,0-0.3,0-0.4v0.2c0-0.1,0-0.2,0-0.3V77c0-0.1,0.1-0.2,0.1-0.2
		l-0.1,0.1C212.5,76.8,212.6,76.8,212.7,76.7l-0.2,0.1C212.6,76.8,212.6,76.7,212.7,76.7h-0.1C212.7,76.7,212.8,76.6,212.7,76.7
		c0.2-0.1,0.4-0.2,0.4-0.4c0.1-0.1,0.1-0.3,0-0.4c-0.1-0.2-0.2-0.3-0.3-0.4s-0.3-0.1-0.4-0.1c-0.4,0.1-0.8,0.3-0.9,0.7
		c-0.2,0.3-0.2,0.7-0.2,1.1s0.2,0.7,0.5,1c0.3,0.2,0.6,0.3,0.9,0.3c0.3,0,0.7-0.1,0.9-0.3c0.1-0.1,0.3-0.3,0.4-0.4
		c0.1-0.1,0.2-0.3,0.3-0.5c0.1-0.4,0.1-0.8-0.1-1.1c-0.1-0.2-0.3-0.4-0.6-0.5c-0.3-0.2-0.7-0.2-1.1-0.3c-0.3,0-0.5,0.3-0.5,0.6
		c0,0,0,0,0,0.1C212.1,76.4,212.4,76.7,212.7,76.7z"></path><path class="st2" d="M206.6,76.8c0.7,0.1,1.1,0.7,1,1.4c-0.2,0.8-0.9,1.2-1.7,1c-0.2-0.1-0.4-0.2-0.6-0.3c-0.3-0.8,0-1.7,0.8-2
		C206.3,76.8,206.4,76.8,206.6,76.8z"></path><path class="st3" d="M206.2,77.1C206.2,77.1,206.1,77.1,206.2,77.1L206.2,77.1l0.2,0.1l0.2,0.1l0.1,0.1l0,0c0,0,0,0,0.1,0.1
		c0.2,0.2,0.2,0.4,0.2,0.7v0.2v0.1l0,0c0,0,0,0.1,0,0s0,0,0,0.1l-0.1,0.1l0,0l0,0c0,0-0.1,0-0.1,0.1c-0.1,0.1,0.1-0.1,0,0
		s-0.1,0.1,0,0s0,0,0,0s0.2-0.1,0.1,0h0.1h0.1l0,0l0,0c-0.1,0,0.1,0,0.1,0H207c-0.1,0,0.1,0,0,0h-0.1c0,0-0.1,0,0,0s0,0-0.1,0h-0.1
		h-0.2l0,0l0,0h-0.1c-0.1,0-0.2-0.1-0.3-0.2l0,0l0,0v-0.1l-0.1-0.1c0,0,0-0.1-0.1-0.1c0,0,0,0,0-0.1s0,0,0,0s0,0,0-0.1s0-0.3,0-0.4
		l0.1-0.2l0,0v-0.1l0.1-0.2l0,0c0,0,0.1-0.1,0,0C206.1,77.2,206.1,77.1,206.2,77.1L206.2,77.1C206.1,77.2,206.2,77.1,206.2,77.1
		L206.2,77.1h0.1C206.3,77.2,206.2,77.2,206.2,77.1C206.3,77.1,206.4,77.2,206.2,77.1L206.2,77.1C206.3,77.2,206.1,77.2,206.2,77.1
		L206.2,77.1C206.3,77.2,206.1,77.2,206.2,77.1h0.2c0.1,0,0.3,0,0.4-0.1c0.1-0.1,0.3-0.1,0.4-0.2c0.1-0.1,0.3-0.4,0.1-0.4
		c-0.6,0-1.1,0.2-1.6,0.6c-0.3,0.2-0.5,0.5-0.7,0.9c-0.3,0.5-0.2,1.2,0.2,1.6c0.3,0.1,0.5,0.2,0.8,0.2c0.4,0,0.9-0.1,1.3-0.4
		c0.4-0.2,0.8-0.6,1-1c0.1-0.3,0.1-0.7,0-1c-0.2-0.4-0.6-0.7-1.1-0.8c-0.1,0-0.3,0-0.4,0.1c-0.1,0.1-0.3,0.1-0.4,0.2
		C206.1,76.9,205.9,77.1,206.2,77.1z"></path><path class="st2" d="M201.1,78c0,0,1.4,0.2,1.1,1.4c-0.3,0.9-1.3,1.3-2.2,1c-0.2-0.1-0.3-0.1-0.4-0.2
		C199.1,79.6,199.9,77.9,201.1,78z"></path><path class="st3" d="M201,78.5c-0.3,0-0.2,0-0.1,0H201l0.2,0.1c0.1,0-0.1-0.1,0,0h0.1l0.1,0.1h0.1h-0.1l0,0l0.1,0.1l0,0
		c0,0-0.1-0.1,0,0c0,0,0,0.1,0.1,0.1V79l0,0c0,0.1,0,0,0,0v0.1v0.1v0.1c0,0,0,0.1,0,0s0,0,0,0l0,0c0,0.1,0,0.2-0.1,0.2
		c0,0,0,0.1,0,0v0.1l-0.1,0.1c0,0-0.1,0.1,0,0c-0.1,0-0.1,0.1-0.1,0.2l0,0c0,0,0.1-0.1,0.1,0l-0.1,0.1h-0.1c-0.1,0.1,0.1,0,0,0
		l-0.2,0h-0.1c-0.1,0,0.1,0,0.1,0h-0.1h-0.2h-0.1c-0.1,0,0.2,0,0.1,0h-0.3c-0.1,0,0.1,0,0.1,0l0,0h-0.1h-0.1c-0.1,0,0.1,0.1,0,0
		l-0.2-0.1h0.1l0,0c0,0,0,0-0.1,0s0.1,0.1,0,0c0,0,0-0.1-0.1-0.1c0,0,0,0,0-0.1c0,0,0,0.1,0,0s0-0.1,0-0.2l0,0c0-0.1,0,0,0,0v-0.1
		c0-0.1,0-0.1,0-0.2v-0.1l0,0c0,0,0-0.1,0,0c0-0.1,0.1-0.1,0.1-0.2l0.1-0.2l0,0l0,0l0.1-0.1l0.1-0.1c0.1-0.1,0,0-0.1,0h0.1l0.1-0.1
		c0.1-0.1-0.1,0,0,0h0.1c0.1,0-0.1,0,0,0C200.9,78.5,200.9,78.5,201,78.5L201,78.5c0.1,0.1,0.3,0,0.4-0.1c0.1-0.1,0.2-0.2,0.2-0.3
		c0.1-0.3-0.2-0.5-0.5-0.5c-0.9,0-1.8,0.5-2.2,1.3c-0.2,0.3-0.2,0.7-0.2,1.1c0.1,0.4,0.3,0.7,0.6,0.8c0.8,0.3,1.7,0.3,2.4-0.1
		c0.4-0.2,0.7-0.5,0.8-0.9s0.1-0.8-0.1-1.2c-0.3-0.5-0.9-0.9-1.5-0.9c-0.2,0-0.7,0.1-0.7,0.4S200.8,78.4,201,78.5z"></path><path class="st2" d="M194.9,78.8c0.5,0.5,0.5,1.2,0.1,1.8c-0.2,0.5-0.8,0.8-1.4,0.5c-0.3-0.1-0.6-0.4-0.6-0.8
		C193,79.5,194.1,78.2,194.9,78.8z"></path><path class="st3" d="M194.5,79.2l0.1,0.1L194.5,79.2l0.1,0.2v0.1c0,0.1-0.1-0.2,0-0.1s0,0.1,0.1,0.1s0,0.1,0,0.1c0-0.2,0-0.1,0-0.1
		c0,0.1,0,0.1,0,0.2s0-0.2,0-0.1s0,0.1,0,0.1l-0.1,0.2v-0.1c-0.1,0.2-0.1,0.3-0.2,0.5l0.1-0.1c-0.1,0.1-0.2,0.2-0.3,0.3l0.1-0.1
		c-0.1,0.1-0.2,0.1-0.3,0.2h0.1h-0.2c0.2,0,0.1,0,0,0s-0.2,0-0.1,0s0,0-0.1,0s-0.2-0.1,0,0s0,0,0,0l-0.1-0.1l0.1,0.1
		c-0.1-0.1-0.1-0.1-0.2-0.2l0.1,0.1l-0.1-0.1l0,0c0-0.1,0.1,0.2,0,0.1v-0.1c0,0,0,0,0-0.1c0,0.2,0,0.1,0,0.1v-0.1c0-0.1,0,0.1,0,0.1
		s0,0,0-0.1s0-0.2,0.1-0.2l-0.1,0.1c0.1-0.2,0.2-0.3,0.3-0.5l-0.1,0.1c0.1-0.2,0.3-0.3,0.4-0.4l-0.1,0.1c0.1-0.1,0.2-0.1,0.4-0.2
		h-0.1L194.5,79.2L194.5,79.2c0.1,0.1-0.1,0.1-0.1,0.1L194.5,79.2C194.5,79.3,194.6,79.3,194.5,79.2
		C194.4,79.3,194.5,79.3,194.5,79.2L194.5,79.2l-0.1,0.1l0.1,0.1c0.3,0.2,0.6,0.1,0.8-0.2l0,0c0.1-0.3,0-0.7-0.3-0.8
		c-0.7-0.4-1.5-0.2-2,0.4c-0.5,0.5-0.8,1.2-0.7,1.9c0.2,0.7,0.9,1.2,1.6,1.2c0.4,0,0.8-0.2,1.1-0.4c0.3-0.3,0.6-0.7,0.6-1.2
		c0.1-0.4,0-0.9-0.2-1.3c-0.1-0.2-0.2-0.3-0.3-0.5c-0.1-0.1-0.3-0.2-0.4-0.2c-0.1,0-0.3,0-0.4,0.1C194.3,78.7,194.3,79,194.5,79.2z"></path><path class="st2" d="M189.6,79.7c0,0,1.3,0.6,0.9,1.6s-2.1,0.8-2.1-0.2S189,79.6,189.6,79.7z"></path><path class="st3" d="M189.3,80.1l0.1,0.1c0.1,0,0.2,0.1,0,0l0.2,0.1l0.2,0.1l0,0l0,0l0.1,0.1l0.1,0.1c0,0.1,0-0.1,0,0s0,0,0,0
		c0,0.1,0,0.2,0.1,0.2v-0.1c0,0.1,0,0.3,0,0.4V81c0,0.1-0.1,0.2-0.1,0.3v0.1c0,0,0.1-0.1,0,0l-0.1,0.1l0,0c-0.1,0.1,0.1,0,0,0
		l-0.1,0.1c0,0-0.1,0,0,0s0,0,0,0h-0.1h-0.2c-0.1,0,0.2,0,0.1,0h-0.1h0.1h-0.1c0.3,0,0.6-0.3,0.5-0.6s-0.3-0.6-0.6-0.5
		s-0.6,0.3-0.5,0.6c0,0.3,0.3,0.5,0.5,0.5c0.1,0.1,0,0,0,0l0,0l-0.1-0.1c0-0.1,0.1,0.1,0,0c0,0,0,0,0-0.1v-0.1v0.1
		c0-0.2,0-0.4,0.1-0.6v0.1c0-0.1,0.1-0.3,0.2-0.4l0.1-0.1l0,0c-0.1,0-0.1,0.1,0,0l0.1-0.1l0,0l0,0h0.1c0,0-0.2,0,0,0s0.1,0,0,0l0,0
		c0.1,0-0.1,0,0,0c0.2,0,0.3,0,0.5,0c0.1,0,0.2-0.1,0.3-0.2c0.1-0.3-0.2-0.5-0.4-0.5c-0.5-0.1-1,0-1.4,0.3c-0.3,0.2-0.5,0.6-0.6,0.9
		s-0.1,0.7,0,1c0.2,0.3,0.4,0.5,0.7,0.7c0.7,0.3,1.5,0.2,2.1-0.2c0.3-0.2,0.4-0.5,0.5-0.9c0.1-0.3,0-0.6-0.2-0.9
		c-0.2-0.4-0.6-0.7-1-0.8c-0.2-0.1-0.3-0.1-0.5-0.1c-0.1,0-0.3,0.1-0.4,0.2c-0.1,0.1-0.1,0.2-0.1,0.3C189.2,80,189.2,80,189.3,80.1z
		"></path><path class="st2" d="M182.2,80.8c0.7,0.1,1.1,0.7,1,1.4c-0.2,0.7-0.9,1.2-1.7,1c-0.2-0.1-0.4-0.2-0.6-0.3c-0.3-0.8,0-1.6,0.7-2
		C181.9,80.9,182,80.8,182.2,80.8z"></path><path class="st3" d="M182.1,81.2L182.1,81.2h0.2c0,0,0.1,0,0,0s0,0,0,0l0.1,0.1h0.1c0.1,0-0.2-0.1,0,0l0.1,0.1
		c0.1,0-0.1-0.1-0.1-0.1l0,0c0,0,0,0,0.1,0.1l0.1,0.1c-0.1-0.1,0-0.1,0,0s0.1,0.1,0.1,0.2v-0.1c0,0,0,0,0,0.1v0.1v0.1l0,0
		c0,0.1,0-0.1,0,0s0,0.1,0,0.2s-0.1,0.1-0.1,0.2s0.1-0.1,0,0l0,0l-0.1,0.1c0,0.1-0.1,0.1-0.1,0.2l0,0l0,0l-0.1,0.1h-0.1
		c-0.1,0-0.2,0.1,0,0l-0.2,0.1H182l0,0c-0.1,0,0.1,0,0,0h-0.2h-0.1c-0.1,0-0.3-0.1,0,0h-0.2c-0.1,0,0.2,0.1,0.1,0h-0.1l0,0
		c0,0,0.1,0.1,0.1,0c0,0,0,0-0.1,0c-0.1-0.1,0.1,0.1,0,0l-0.1-0.1c-0.1,0,0.1,0.1,0,0v-0.1c-0.1-0.1,0,0.1,0,0s0,0,0-0.1
		s0-0.1,0-0.2v-0.1c0-0.1,0,0.1,0,0v-0.1c0-0.1,0-0.1,0-0.2s0-0.1,0.1-0.2v-0.1l0,0c0.1-0.1,0.2-0.3,0.3-0.4l0,0c0,0-0.1,0.1,0,0
		L182.1,81.2L182.1,81.2C182.2,81,182,81.1,182.1,81.2l0.1-0.1l0,0c0.1,0-0.1,0,0,0h0.1c0,0,0.1,0-0.1,0h0.1c0.2,0,0.6-0.1,0.6-0.4
		c-0.1-0.3-0.4-0.5-0.7-0.5c-0.4,0-0.9,0.1-1.2,0.3c-0.3,0.2-0.5,0.5-0.6,0.9c-0.1,0.3-0.2,0.6-0.1,0.9c0.1,0.4,0.3,0.7,0.7,0.9
		c0.7,0.4,1.5,0.4,2.2,0s0.9-1.3,0.6-2c-0.2-0.4-0.5-0.7-0.9-0.8c-0.2-0.1-0.4-0.2-0.5-0.2c-0.2,0-0.3,0-0.5,0
		c-0.1,0-0.2,0.1-0.2,0.2C181.6,80.9,181.9,81.2,182.1,81.2z"></path><path class="st2" d="M176.9,81.8c0.5,0.1,0.9,0.6,0.8,1.1l0,0c-0.2,0.6-0.8,1-1.4,0.8c-0.2,0-0.3-0.1-0.5-0.2
		c-0.3-0.6,0-1.3,0.6-1.6C176.6,81.8,176.8,81.8,176.9,81.8z"></path><path class="st3" d="M176.9,82.2c0.1,0-0.2,0-0.1,0H176.9L176.9,82.2C176.9,82.2,177,82.2,176.9,82.2
		C176.8,82.2,176.9,82.2,176.9,82.2l0.1,0.1C177.1,82.3,176.9,82.2,176.9,82.2l0.2,0.1l0.1,0.1l-0.1-0.1l0,0c0,0,0.1,0.1,0.1,0.2
		v-0.1c0,0.1,0.1,0.2,0.1,0.3v-0.1c0,0.1,0,0.3-0.1,0.4v-0.1c0,0.1-0.1,0.2-0.1,0.3l0.1-0.1c-0.1,0.1-0.1,0.1-0.2,0.2
		c-0.1,0.1,0.1-0.1,0,0h-0.1h-0.1c-0.1,0,0.1,0,0,0l0,0h-0.1c-0.1,0,0.1,0,0.1,0h-0.2h-0.1c-0.1,0,0.2,0.1,0.1,0h-0.1h-0.1h0.1h-0.1
		c-0.1,0,0.1,0.1,0,0l0,0l0,0c0.1,0.1,0.1,0.1,0,0l-0.1-0.1l0.1,0.1c0-0.1-0.1-0.2-0.1-0.3l0,0c0-0.2,0-0.3,0.1-0.4v0.1
		c0-0.2,0.1-0.3,0.2-0.5l-0.1,0.1c0.1-0.1,0.1-0.1,0.2-0.2c0,0,0.1-0.1,0,0l0,0h0.1c0.1,0,0,0-0.1,0L176.9,82.2c0,0,0,0-0.2,0h0.3
		C177.1,82.2,176.8,82.2,176.9,82.2c0.2,0,0.4,0,0.5-0.1s0.2-0.2,0.2-0.3c0-0.3-0.3-0.5-0.6-0.5c-0.4,0-0.9,0.1-1.2,0.3
		c-0.2,0.2-0.4,0.4-0.5,0.7c-0.1,0.3-0.2,0.6-0.1,0.9c0.1,0.3,0.3,0.6,0.6,0.7c0.3,0.2,0.7,0.3,1.1,0.2c0.3,0,0.7-0.1,0.9-0.3
		c0.3-0.2,0.5-0.4,0.6-0.7c0.1-0.4,0.1-0.7-0.1-1.1c-0.3-0.5-0.7-0.8-1.3-0.8c-0.2,0-0.3,0-0.5,0.1c-0.1,0.1-0.2,0.2-0.2,0.3
		C176.3,82,176.6,82.2,176.9,82.2z"></path><path class="st2" d="M170.5,82.8c0.5,0.5,0.5,1.2,0.1,1.8c-0.2,0.5-0.9,0.8-1.4,0.5c-0.3-0.1-0.5-0.4-0.6-0.8
		C168.6,83.5,169.7,82.2,170.5,82.8z"></path><path class="st3" d="M170,83.1c0.1,0.1,0.1,0.1,0.2,0.2L170,83.1c0.2,0.2,0.2,0.4,0.3,0.5v-0.1c0,0.1,0,0.3,0,0.4v-0.1
		c0,0.1,0,0.2-0.1,0.4c0,0.1,0.1-0.1,0,0c0,0,0,0.1-0.1,0.1l-0.1,0.2c0.1-0.2,0.1-0.1,0,0l-0.1,0.1l-0.1,0.1c-0.1,0.1,0.1-0.1,0.1,0
		l-0.1,0.1c-0.1,0.1,0.1-0.1,0.1,0h-0.1h-0.1c-0.1,0,0.2,0,0.1,0h-0.1c-0.1,0,0.2,0,0.1,0h-0.1c-0.1,0,0.1,0,0.1,0h-0.1h-0.1
		c-0.1,0,0.1,0,0,0s-0.1-0.1-0.2-0.1l0.1,0.1c-0.1-0.1-0.2-0.2-0.2-0.2l0.1,0.1c0-0.1-0.1-0.2-0.1-0.2v0.1c0-0.1,0-0.2,0-0.3v0.1
		c0-0.1,0-0.2,0.1-0.3c0-0.1,0,0,0,0V84c0,0,0-0.1,0.1-0.1l0.1-0.1c0-0.1-0.1,0.1,0,0l0.1-0.1l0.1-0.1c0,0,0.2-0.2,0,0
		c0.1-0.1,0.2-0.1,0.3-0.2s-0.2,0.1,0,0h0.1L170,83.1c0,0.1-0.2,0.1-0.1,0.1L170,83.1C170.1,83.2,170.1,83.2,170,83.1L170,83.1
		C169.9,83.2,170,83.2,170,83.1L170,83.1C170.2,83.2,169.9,83.2,170,83.1l0.2,0.1c0.1,0.1,0.3,0.1,0.4,0.1c0.2,0,0.3-0.1,0.4-0.2
		c0.2-0.2,0.2-0.5,0.1-0.7c0,0,0,0-0.1-0.1c-0.7-0.4-1.6-0.2-2.1,0.5c-0.5,0.4-0.8,1.1-0.7,1.8c0.2,0.7,0.8,1.1,1.5,1.1
		c0.4,0,0.8-0.1,1.1-0.4c0.4-0.3,0.6-0.8,0.8-1.2c0.1-0.4,0-0.8-0.1-1.1c-0.1-0.2-0.2-0.3-0.3-0.4c-0.2-0.2-0.6-0.2-0.8,0
		C170.3,82.7,170.2,82.8,170,83.1C170,82.9,170,83,170,83.1z"></path><path class="st2" d="M163.4,83.5c0,0,1.3,0.6,0.9,1.6s-2.1,0.8-2.1-0.2S162.7,83.4,163.4,83.5z"></path><path class="st3" d="M163.4,84L163.4,84L163.4,84L163.4,84L163.4,84c0.1,0,0.2,0.1,0.2,0.1C163.7,84.2,163.5,84,163.4,84h0.2
		l0.1,0.1l0,0c0,0,0,0-0.1-0.1v0.1v0.1c0,0.1,0.1,0.1,0,0l0.1,0.1c0,0.1,0-0.2,0,0v0.1c0,0.1,0,0,0,0v0.2c0,0.1,0-0.1,0,0
		s-0.1,0.2-0.1,0.3l0.1-0.1c-0.1,0.1-0.2,0.2-0.3,0.3l0.1-0.1c-0.1,0.1-0.2,0.1-0.2,0.1H163h0.1h-0.3h0.1h-0.1h-0.1
		c-0.1,0,0.1,0,0.1,0l-0.1-0.1h-0.1h0.1l0,0c0,0-0.2-0.1-0.1,0s-0.1-0.1,0,0s0,0,0,0s0.1,0.2,0,0.1s0,0,0-0.1s0,0.2,0,0.1l0,0
		c0-0.1,0,0,0,0V85c0-0.1,0-0.2,0-0.2s0,0,0-0.1c0,0,0,0.1,0,0v-0.1c0-0.1,0.1-0.3,0.2-0.4l-0.1,0.1c0.1-0.1,0.2-0.3,0.3-0.4
		l-0.1,0.1l0.1-0.1h0.1c0.1,0,0.1,0,0,0L163.4,84C163.4,84.1,163.2,84.1,163.4,84L163.4,84c0.2,0.1,0.4,0,0.4-0.2c0-0.1,0-0.1,0-0.2
		c-0.1-0.3-0.3-0.5-0.6-0.6c-0.8-0.1-1.5,0.4-1.6,1.2c-0.1,0.4-0.1,0.8,0.1,1.2c0.2,0.4,0.5,0.6,0.9,0.8c0.6,0.3,1.3,0.2,1.8-0.2
		c0.3-0.2,0.4-0.5,0.5-0.9c0-0.4-0.1-0.7-0.3-1c-0.3-0.4-0.7-0.8-1.2-1c-0.2-0.1-0.6,0-0.6,0.3C162.8,83.7,163,83.9,163.4,84z"></path><path class="st2" d="M156.8,84.2c0,0,1.1,0.2,0.9,1.1c-0.3,0.7-1,1-1.7,0.8c-0.1,0-0.2-0.1-0.3-0.2
		C155.2,85.5,155.8,84.2,156.8,84.2z"></path><path class="st3" d="M156.8,84.8h0.2c0.1,0-0.1,0,0,0h0.1h0.1h0.1c0,0-0.2-0.1-0.1,0l0.1,0.1c0.1,0-0.1-0.1-0.1-0.1l0,0v0.1
		c0,0-0.1-0.2-0.1-0.1l0,0c0.1,0.1,0-0.2,0-0.1s0,0,0,0.1s0,0,0-0.1s0,0.1,0,0.2s0-0.2,0,0s0,0,0,0.1c0,0,0,0.1-0.1,0.1l0.1-0.1
		c0,0.1-0.1,0.2-0.2,0.2l0.1-0.1c-0.1,0.1-0.2,0.2-0.3,0.2l0.1-0.1c-0.1,0.1-0.3,0.1-0.4,0.2h0.1h-0.3h-0.1c-0.1,0,0.1,0,0.1,0h-0.1
		H156h-0.1c-0.1,0,0.2,0.1,0.1,0h-0.1c-0.1-0.1,0.1,0.1,0.1,0l0,0c-0.1,0-0.1-0.1,0.1,0.1l0,0c-0.1-0.1,0.1,0.2,0,0.1l0,0
		c0-0.1,0,0.1,0,0.1s0,0,0-0.1l0,0c0,0.2,0,0.1,0,0.1v-0.1c0,0,0-0.1,0,0.1c0,0,0,0,0-0.1s0.1-0.2,0.1-0.3l-0.1,0.1
		c0.1-0.1,0.2-0.3,0.3-0.4l-0.1,0.1c0.1-0.1,0.2-0.2,0.3-0.3l-0.1,0.1C156.6,84.9,156.7,84.9,156.8,84.8h-0.1h0.3
		c0.1,0,0.3-0.1,0.4-0.2c0.1-0.1,0.1-0.3,0.1-0.4c-0.1-0.3-0.3-0.6-0.7-0.6c-0.7,0-1.4,0.5-1.6,1.1c-0.1,0.3-0.2,0.6-0.1,0.9
		c0.1,0.4,0.3,0.7,0.7,0.9c0.6,0.3,1.3,0.2,1.9-0.1c0.6-0.4,0.9-1.2,0.6-1.9c-0.2-0.3-0.5-0.6-0.8-0.8c-0.2-0.1-0.3-0.1-0.5-0.2
		c-0.1,0-0.3,0-0.4,0.1c-0.1,0.1-0.2,0.2-0.2,0.4C156.2,84.5,156.5,84.7,156.8,84.8z"></path><path class="st2" d="M151.9,85.3c0,0,1.2,0.2,1,1.1s-1.9,1.1-2.3,0.6S150.8,85.3,151.9,85.3z"></path><path class="st3" d="M151.9,85.6C151.9,85.6,151.6,85.6,151.9,85.6L151.9,85.6L151.9,85.6L151.9,85.6L151.9,85.6L151.9,85.6
		C152,85.6,151.8,85.5,151.9,85.6L151.9,85.6h0.1c0.1,0-0.1-0.1,0,0l0.1,0.1l0,0l0.1,0.1c0,0,0,0.1,0.1,0.1c0,0,0,0.1,0,0V86
		c0,0.1,0,0.1,0,0.2s0,0.1,0,0.2l0,0l0,0v0.1c-0.1,0.1-0.1,0.2-0.2,0.3c0.1,0,0,0,0,0H152l-0.2,0.1l0,0l0,0h-0.1h-0.2
		c-0.1,0,0.1,0,0,0h-0.2c-0.1,0,0.2,0,0.1,0h-0.1c-0.1,0,0.1,0,0.1,0l0,0h-0.1c0,0,0.2,0,0.1,0l0,0c-0.1,0,0,0,0,0h-0.1
		c-0.1,0,0.1,0.1,0,0h-0.1c0,0,0-0.1,0,0l0,0c0,0,0-0.1-0.1-0.1c0,0,0,0.1,0,0v-0.1c0-0.1,0-0.2,0-0.3v-0.1l0,0
		c0-0.1,0.1-0.1,0.1-0.2c0.1-0.1,0.2-0.2,0.3-0.3l0,0c0,0-0.1,0,0,0l0.1-0.1l0.1-0.1l0,0c0,0,0.1,0,0,0s0,0,0,0L151.9,85.6
		L151.9,85.6C151.9,85.5,151.8,85.5,151.9,85.6h0.1C151.9,85.5,151.9,85.5,151.9,85.6h0.1c0.1,0,0.6,0,0.5-0.3s-0.2-0.2-0.3-0.2
		c-0.2,0-0.3-0.1-0.5-0.1c-0.8-0.1-1.5,0.3-1.9,1c-0.3,0.4-0.1,0.9,0.3,1.2c0.1,0.1,0.2,0.1,0.3,0.1c0.8,0.3,1.6,0.2,2.3-0.1
		c0.3-0.1,0.5-0.4,0.6-0.7c0.1-0.3,0.1-0.6,0-0.8c-0.4-0.4-0.9-0.7-1.5-0.7c-0.1,0-0.3,0-0.4,0c-0.1,0-0.2,0.1-0.2,0.2
		S151.7,85.5,151.9,85.6z"></path><path class="st2" d="M146.3,86c0.4,0.4,0.4,1,0.1,1.4c-0.6,0.8-1.7,0.5-1.8-0.2S145.6,85.6,146.3,86z"></path><path class="st3" d="M146.1,86.2L146.1,86.2L146.1,86.2c0.5,0.5,1.4,0.5,1.9,0s0.5-1.4,0-1.9s-1.4-0.5-1.9,0
		C145.7,84.8,145.6,85.6,146.1,86.2L146.1,86.2C146.1,86.2,145.9,86,146.1,86.2C146.2,86.2,146.1,86.3,146.1,86.2
		C146,86.1,146,86.2,146.1,86.2C146.1,86.3,146.1,86.1,146.1,86.2C146.1,86.3,146.1,86.2,146.1,86.2c-0.1,0.1-0.1,0.1-0.1,0.2
		L146.1,86.2c-0.1,0.2-0.1,0.4-0.2,0.5v-0.1c-0.1,0.2-0.3,0.4-0.5,0.6h0.1c-0.1,0.1-0.3,0.1-0.5,0.2h0.1c-0.1,0-0.1,0-0.2,0l0,0h0.1
		h0l0,0c0.1,0,0,0,0,0l0,0c0,0,0.1,0.1,0.1,0l0,0l0.1,0.1l-0.1-0.1c0,0,0.1,0.2,0.1,0.1s0-0.1,0,0s0,0,0,0s0.1,0.1,0,0.1l0,0l0,0
		v0.1v-0.1v0.1c0-0.1,0-0.2,0.1-0.3v0.1c0.1-0.3,0.4-0.6,0.7-0.8h-0.1c0.2-0.1,0.3-0.2,0.5-0.2l0,0h0.1c0,0-0.1,0,0,0l0,0
		c0.1,0-0.1-0.1-0.1,0h0.1c0.1,0.1,0.2,0.1,0.3,0.1s0.1-0.1,0.1-0.2c-0.1-0.3-0.3-0.5-0.6-0.6c-0.3-0.2-0.6-0.2-0.9-0.1
		c-0.3,0.1-0.5,0.2-0.7,0.4c-0.4,0.3-0.6,0.8-0.5,1.2c0.1,0.4,0.4,0.7,0.7,0.9c0.3,0.2,0.6,0.3,0.9,0.3c0.3,0,0.6-0.1,0.8-0.3
		c0.3-0.2,0.4-0.5,0.5-0.8s0-0.7-0.2-1c-0.1-0.2-0.2-0.4-0.4-0.5c-0.1-0.1-0.2-0.2-0.4-0.2c-0.1,0-0.2,0-0.3,0S146,86.1,146.1,86.2z
		"></path><path class="st1" d="M131.8,90.7c0,0-20.6,9.9-22.6,10.2c-1.9,0.1-3.7,0-5.6-0.4c0,0,20.4-17,20.8-16.5"></path><path class="st2" d="M130,90.2c-7,3.3-13.9,6.8-21.1,9.7c-0.5,0.2,0.2,0-0.1,0l-0.4,0.1c-0.7,0.3,0.9,0,0.2,0
		c-1.3-0.1-2.5-0.2-3.7-0.4l1,1.2c5.8-4.8,11.6-9.6,17.5-14.3c0.7-0.5,1.3-1,2-1.5l0.7-0.5c0.3-0.2,0.1,0-0.1,0h0.1
		c-0.9,0.3-2.8,0.8-3.8,0c0.8,0.6,2.5,0.4,3.4,0.1c0.7-0.2,1.7-0.7,0.8-1.4c-1-0.8-3.1-0.4-4.2,0.2c-0.6,0.3-1.1,0.7-1.6,1.1
		c-1.6,1.2-3.2,2.5-4.8,3.7c-3.9,3.2-7.8,6.4-11.7,9.6l-2.8,2.3c-0.8,0.7,0.4,1.1,1,1.2c2.7,0.5,5.8,0.9,8.4,0.1
		c1.7-0.6,3.4-1.2,5.1-2c4.7-2.1,9.4-4.3,14-6.5l3.6-1.7c0.9-0.4,0.8-1.1-0.1-1.4C132.3,89.6,131.1,89.7,130,90.2L130,90.2z"></path><path class="st2" d="M263.1,64c0,0-6.5,6-8.2,6s-5.1-4.4-4.3-5.4c0.8-0.9,5.2-1.2,6.5-2.5L263.1,64z"></path><path class="st2" d="M260.8,63c-2,2-4.3,3.8-6.7,5.3c-0.3,0.2-0.5,0.3-0.8,0.4c-0.1,0-0.2,0.1-0.3,0.1h-0.1c-0.1,0,0,0,0.2,0
		c-0.2,0-0.1,0,0.1,0c0.5,0.1,1,0.3,1.4,0.6c0.1,0,0.8,0.5,0.4,0.2c0.5,0.4-0.1-0.1-0.2-0.2c0.3,0.2-0.2-0.2-0.3-0.3
		s-0.4-0.4-0.6-0.6c-0.5-0.6-1-1.3-1.2-2.1c-0.2-0.6,0-0.9,0.5-1.1c1-0.4,2.1-0.7,3.2-0.9c1-0.2,2-0.6,2.9-1.3L258,63l6,2
		c0.3,0.1,1.9,0.5,1.1-0.3c-0.8-0.8-1.9-1.4-3-1.6l-6-1.8c-0.3-0.1-1-0.4-1.3-0.1c-0.8,0.6-1.8,1-2.8,1.2s-2,0.5-3,0.8
		c-0.6,0.1-1,0.7-0.8,1.3c0,0.1,0.1,0.2,0.1,0.3c0.4,0.9,0.9,1.8,1.6,2.6c0.9,1.1,2,2,3.3,2.7c0.9,0.5,1.9,0.9,2.9,1.2
		c0.4,0.1,0.9,0.1,1.3,0c0.8-0.3,1.5-0.7,2.1-1.2c0.8-0.6,1.6-1.2,2.4-1.8c1.2-1,2.3-2,3.5-3c0.4-0.3-1.8-1.5-2-1.6
		c-0.5-0.3-1.1-0.5-1.7-0.6C261.4,62.9,261.1,62.8,260.8,63z"></path></g><g id="pin"><path class="st2" d="M330.9,110.7c-30.2,52.1,31.9,94.2,31.9,94.2C440.9,124.2,361,58.6,330.9,110.7z M371.3,131
		c-4.9,15.2-24.3,9-24.9-1c-0.5-8.3,1.9-16.8,9.9-18.4c3.6-0.7,7.3,0.2,10.2,2.3C370.2,116.6,374.2,121.9,371.3,131z"></path><path class="st2" d="M329.5,108.7c-5.3,9-8.2,19.2-8.3,29.7c0.2,9.2,2.4,18.3,6.4,26.6c6.5,13.9,16.7,26,28.4,36
		c2.4,2.1,5,4.1,7.6,6c0.1,0.1,0.3,0.2,0.5,0.1c12.6-13,23.7-28.2,29.5-45.5c4-12,5.2-25.1,2-37.4c-2.7-10.2-8.5-20-16.8-26.6
		c-6.7-5.4-15.3-8.4-24-7.4c-9.6,1.1-17.6,7.2-23,15C331,106.3,330.2,107.6,329.5,108.7c-0.6,1.1,2.3,4.8,2.7,4.1
		c4.8-8.2,12.1-15.3,21.5-17.6c8-1.9,16.4-0.5,23.3,4c3.6,2.3,6.8,5.2,9.4,8.6l0.2,0.3c0.2,0.3-0.2-0.3,0,0l0.5,0.7
		c0.4,0.5,0.7,1,1,1.5l0.2,0.4l0.4,0.7c0.1,0.2,0.3,0.5,0.4,0.8l0.2,0.4v0.1c1.1,2,2,4.2,2.7,6.3c3.6,11.2,3,23.4-0.1,34.6
		c-4.6,16.4-14.1,30.9-25.3,43.5c-1.7,1.9-3.5,3.8-5.2,5.7l0.5,0.1c-6.8-4.7-12.9-10.3-18.4-16.5c-2.4-2.7-4.7-5.5-6.8-8.4
		c-0.6-0.8-1.2-1.7-1.8-2.5c-0.2-0.4-0.5-0.7-0.7-1.1c-0.4-0.6-0.3-0.5-0.8-1.2c-1-1.7-2.1-3.5-2.8-4.9c-3.9-7.3-6.2-15.4-6.8-23.7
		c-0.6-11.3,2.6-22.3,8.2-32C332.8,111.7,329.9,108,329.5,108.7z"></path><path class="st2" d="M369.9,129c-1.5,4.6-4.9,8.1-9.8,8.8c-4.1,0.6-8.2-0.7-11.2-3.5c-0.3-0.2-0.5-0.5-0.7-0.8
		c0.4,0.4-0.3-0.4,0-0.1s-0.3-0.6,0,0c-0.2-0.3,0,0.2-0.1-0.3c0-0.1-0.1-0.2-0.1-0.4c-0.1-0.4-0.1-0.8-0.2-1.2
		c-0.2-3.1,0.1-6.3,1-9.3c0.8-2.8,2.4-5.2,4.7-6.9c2.9-1.9,6.5-2.5,9.8-1.5c1.8,0.5,3.4,1.4,4.8,2.6c0.4,0.4,0.9,0.8,1.2,1.2
		c0.2,0.2,0.3,0.4,0.5,0.6c0.1,0.1,0.2,0.2,0.2,0.3C371.6,121.6,371,125.8,369.9,129c-0.2,0.9,0.7,2.2,1.2,2.9
		c0.1,0.2,1.4,1.8,1.6,1.1c1.3-3.8,1.3-8,0-11.9c-1.2-3.2-3.2-6.1-5.9-8.4c-5.8-5-15-4.9-19.2,2.1c-1.7,3.1-2.6,6.6-2.6,10.2
		c-0.7,8.6,5.5,16.2,14.1,17.2c2.8,0.3,5.6-0.2,8-1.6c2.7-1.8,4.7-4.5,5.6-7.6c0.3-0.9-0.7-2.2-1.1-2.9
		C371.4,129.9,370.2,128.3,369.9,129z"></path></g><g id="ship"><path class="st1" d="M426.2,408.5l-24.7-5.3c0,0-0.4-9.5,0-9.9s27.4,4.4,26.6,4.8s-5.8,2.8-5.8,2.8S427.5,408.8,426.2,408.5z"></path><path class="st2" d="M428.6,408.2l-12.9-2.8l-8.5-1.8l-2.6-0.5c-0.2,0-0.4-0.1-0.6-0.1c-0.3-0.2,0,0.2-0.1-0.1
		c-0.2-1.1-0.2-2.3-0.1-3.4c0-1.5-0.1-3,0-4.5c0-0.5,0.1-1,0.1-1.5c0-0.1,0-0.3,0-0.2l-4,0.6h0.2c0,0-0.5,0-0.1,0
		c0.7,0.1,1.5,0.2,2.2,0.3c5.7,0.8,11.4,1.9,17.1,2.9c2.1,0.4,4.2,0.8,6.2,1.3c0.3,0.1,0.1,0,0.1,0c-0.6,0.4-1.3,0.7-1.9,0.9
		l-3.8,1.8l-0.1,0.1c0.5,0.8,4.7,7.1,4.1,7.5l1.7-0.4l0,0l2.8-0.2h-0.1c-1.1-0.1-2.3,0-3.4,0.3c-0.2,0-1.8,0.5-0.8,0.6
		c0.8,0.1,4.6,0.2,4.8-0.9c0.1-0.6-0.8-1.9-1.1-2.4c-0.6-1.1-1.2-2.1-1.9-3.1c-0.2-0.4-1.2-1.4-1.2-1.8c0,0-0.1,0.2,0.1,0
		c0.1-0.1,0.3-0.2,0.5-0.2l1.7-0.8l1.9-0.9c0.5-0.2,1-0.4,1.4-0.7c0.3-0.3,0.2-0.2-0.2-0.4c-0.5-0.2-1-0.3-1.5-0.4
		c-4.6-1-9.2-1.8-13.9-2.6c-3.7-0.6-7.5-1.6-11.3-1.7c-0.9,0-1.7,0-2.6,0.2c-0.5,0.1-1.6,0.1-1.9,0.6c-0.4,0.7-0.1,2.2-0.1,3
		c0,2.3,0.1,4.5,0.2,6.8l0.1,0.1l21.7,4.6l3.1,0.7c1,0.1,2.1,0.1,3.1-0.1c0.5,0,1-0.1,1.5-0.3C428.4,408.4,428.9,408.2,428.6,408.2z
		"></path><path class="st2" d="M402.5,432.6c0,0-0.4-41-0.9-43.5c-0.3-1-0.4-2-0.5-3.1l-0.8,45.9L402.5,432.6z"></path><path class="st3" d="M405,432.7c0-5.2-0.1-10.3-0.2-15.5c-0.1-8-0.2-15.9-0.5-23.9c0-1.2-0.1-2.3-0.2-3.5c-0.3-1.3-0.5-2.5-0.6-3.8
		l-5-0.1l-0.2,15.5l-0.4,24.7l-0.1,5.7c0.1,0.1,0.2,0.2,0.3,0.2l2.2,0.7c1.1,0.3,2.3,0.3,3.4,0.2c0.3,0,1.8-0.2,0.9-0.5l-2.2-0.7
		l0.3,0.2l0.2-15.5l0.4-24.7l0.1-5.7c0-0.5-5-0.6-5-0.1c0.1,1.2,0.3,2.4,0.6,3.5c0.1,0.9,0.1,1.8,0.2,2.7c0.1,3.4,0.2,6.8,0.3,10.2
		c0.2,8.1,0.3,16.3,0.4,24.5l0.1,5.7C400,433.1,405,433.2,405,432.7z"></path><path class="st2" d="M334.2,432.2c0,0-0.3-22.8,1.2-24.1s22.4,1.7,39.2,4s18.6,2.2,19.9,3.3s7.6,14.3,7.2,15S340,434.5,334.2,432.2
		z"></path><path class="st2" d="M336.5,431.4c-0.1-4.7,0-9.4,0.1-14.1c0-2.8,0.2-5.5,0.5-8.2c0.1-0.4,0.1-0.7,0.2-1.1c0,0.2,0.1-0.1,0.1-0.1
		c0.2,0.1-0.3-0.5,0,0s-1.6,1.1-2.1,1.3s0,0,0.2,0c-0.7,0,0.1,0,0.2,0c0.6,0,1.2,0,1.8,0c3.8,0.1,7.6,0.6,11.3,1.1
		c5.2,0.6,10.5,1.4,15.7,2.1c8.4,1.1,16.8,2,25.1,3.4c0.7,0.1,1.3,0.3,1.9,0.4s-0.1-0.1,0.2,0.1l0.4,0.2l0.2,0.2
		c-0.3-0.2,0,0.1,0.1,0.2c0.3,0.4,0.5,0.9,0.8,1.3c0.7,1.3,1.4,2.6,2.1,4c1.4,2.7,2.6,5.4,3.7,8.2c0.1,0.2,0.1,0.3,0.2,0.5
		s0,0.1,0,0.1s1.3-1.5,2.1-1.8c0.1,0,0.8-0.3,0.8-0.3c-0.1,0-0.1,0-0.2,0c-0.2,0-0.3,0-0.5,0.1s-0.5,0.1-0.1,0h-0.2
		c-10.6,1.1-21.2,1.5-31.9,1.9c-6.5,0.3-13,0.5-19.4,0.5c-2.6,0-5.2,0-7.8,0c-1,0-2-0.1-3-0.1h-0.3c-0.3,0,0.4,0,0,0h-0.5
		c-0.4,0-0.7-0.1-1.1-0.1l-0.8-0.1c-0.2,0-0.9-0.3-0.3-0.1c-1.1-0.3-2.2-0.1-3.1,0.6c-0.3,0.2-2,1.6-1,2c1.4,0.5,3,0.7,4.5,0.7
		c2.3,0.2,4.6,0.2,6.9,0.2c6.6,0,13.2-0.2,19.8-0.4c11.6-0.4,23.4-0.9,35-2c1.3,0,2.6-0.3,3.9-0.8c0.7-0.3,1.8-1,1.9-1.9
		c0-0.4-0.1-0.8-0.3-1.2c-0.4-1.3-1-2.5-1.6-3.8c-1.3-3-2.8-6-4.5-8.9c-0.5-1.1-1.5-1.9-2.7-2.3c-1.9-0.5-3.9-0.8-5.9-1
		c-5-0.7-10.1-1.3-15.1-2c-10.2-1.4-20.5-3-30.8-3.8c-2.8-0.2-6.2-0.7-8.7,0.9c-2,1.3-2,3.8-2.1,6c-0.5,6.1-0.4,12.3-0.4,18.4
		c0,0.4,0,0.9,0,1.3C332,434.6,336.6,432.9,336.5,431.4z"></path><path class="st1" d="M407.2,428.9c0,0,10.6,20.1,8.6,21s-93.8,4.7-96.1,0s-11.8-27.5-8.3-26.3s14.5,5.6,24.2,6.2
		S404,427.4,407.2,428.9z"></path><path class="st2" d="M405.7,429.6c1.5,2.8,2.9,5.6,4.2,8.4c1.1,2.2,2.1,4.4,3,6.7c0.1,0.2,0.2,0.5,0.3,0.7s0.3,0.7,0.1,0.2
		c0.2,0.5,0.3,0.9,0.5,1.4s0.2,0.7,0.3,1s0.1,0.8,0,0c0,0.1,0.1,0.3,0.1,0.4c0,0.4,0-0.6,0-0.2s0.2-0.4,0.1-0.2
		c0.3-0.5,0.3-0.5,0.8-0.6l-0.5,0.1c-0.7,0.1-1.4,0.1-2.2,0.2c-2.7,0.2-5.4,0.4-8.1,0.5c-8.8,0.5-17.5,0.8-26.3,1
		c-10.1,0.3-20.2,0.5-30.3,0.5c-7.7,0.1-15.4-0.1-23-0.8h-0.1l-0.4-0.1l-0.9-0.1c-0.5-0.1-1-0.2-1.5-0.3l-1.1-0.3
		c-0.3-0.1-0.6-0.3,0,0c-0.1,0-0.2-0.1-0.3-0.2c0.1,0.1,0.3,0.2,0.4,0.4c0.1,0.1,0.5,0.5,0.5,0.7c-0.1-0.2-0.1-0.3-0.2-0.5
		c-0.4-0.7-0.7-1.5-1-2.2c-1-2.2-1.9-4.4-2.8-6.6c-1.9-4.3-3.4-8.8-4.5-13.4c-0.1-0.6,0,0.1,0-0.2c0-0.2,0-0.3-0.1-0.5s0-0.3,0-0.4
		c-0.1-0.5,0,0.4,0,0s-0.1,0.2-0.2,0.3s-0.2,0.1-0.5,0.3c0,0-0.5-0.2-0.1,0c1,0.5,2.2,0.8,3.2,1.1c1.6,0.5,3.1,1.1,4.7,1.6
		c6,2.1,12.3,3.3,18.7,3.6c3.6,0.1,7.3,0,10.9-0.1c10.7-0.2,21.4-0.6,32-0.9c8.2-0.2,16.5-0.7,24.6-0.2h0.7c0.5,0-0.3-0.1,0.1,0
		c0.2,0,0.5,0.1,0.7,0.2c1.1,0.5,1.7-0.9,1.7-1.8c-0.1-1.2-0.9-2.3-2-2.8c-0.8-0.2-1.6-0.4-2.5-0.3c-1.4-0.1-2.8-0.1-4.2-0.1
		c-4.4,0-8.8,0-13.3,0.1c-11.2,0.2-22.4,0.6-33.6,1c-4.4,0.1-8.8,0.2-13.3,0.3c-4.8,0.1-9.5-0.4-14.1-1.5c-3.8-0.9-7.5-2.1-11.2-3.4
		c-1.1-0.4-2.3-0.9-3.5-1.2c-0.7-0.3-1.5-0.2-2.1,0.4c-1.1,1.3-0.5,3.6-0.2,5.1c0.5,2.3,1.2,4.5,2,6.7c1.8,5,3.8,10,5.9,14.8
		c0.6,1.4,1.2,3.1,2.5,3.9c0.7,0.4,1.4,0.7,2.2,0.9c2.6,0.6,5.3,0.9,8,1c3.9,0.3,7.9,0.4,11.8,0.4c10.2,0.2,20.4,0,30.5-0.2
		c9.7-0.2,19.3-0.6,29-1c3.3-0.2,6.6-0.3,10-0.5c1.7,0,3.3-0.2,5-0.4c3.6-0.7,0.7-6.8-0.1-8.6c-1.8-4.4-3.9-8.7-6.1-12.9
		c-0.4-0.9-0.9-1.7-1.3-2.5c-0.5-0.9-1.5-2-2.6-1.5S405.3,428.8,405.7,429.6z"></path><path class="st1" d="M391.6,425.5c0,0-1.6-8.2-2.6-8.2s-23.4-3.3-23.9-1.6s-0.5,9.4,1.2,9.8S389.2,425.5,391.6,425.5z"></path><path class="st2" d="M394.1,425.4c-0.4-2.3-0.9-4.5-1.7-6.7c-0.6-1.5-1.1-2.1-2.8-2.3c-0.6-0.1,0.5,0.1,0,0l-1-0.1
		c-5.7-0.7-11.4-1.5-17.2-1.9c-2.4-0.3-4.9-0.2-7.3,0.3c-1.1,0.3-1.6,0.7-1.8,1.8c-0.2,1.5-0.2,3-0.1,4.5c0,1.4,0.3,2.9,0.9,4.2
		c0.6,1,1.9,1.1,2.9,1.2c2.4,0.2,4.8,0.1,7.2,0.1c6.1,0,12.2-0.1,18.2-0.1C392.1,426.4,394.1,426.2,394.1,425.4
		c-0.1-0.8-2.1-0.8-2.6-0.8c-4.7,0-9.4,0.1-14,0.1h-5.8h-1.9c-0.8,0-1.6,0-2.4-0.1s0.9,0,0.8,0.2c0,0-0.6-1.3-0.6-1.4
		c-0.3-1.4-0.4-2.9-0.4-4.3c0-0.7,0-1.3,0.1-2c0.1-0.5,0.2-1,0.2-1.5c0.1,0.2-0.8,0.4-0.6,0.4c-0.1,0-0.6,0.1-0.1,0
		c-0.3,0-0.5,0,0,0h0.6c0.7,0-0.3,0,0.2,0c0.6,0,1.2,0,1.8,0.1c5.2,0.3,10,0.9,15.3,1.6c0.8,0.1,1.7,0.2,2.5,0.3
		c0.4,0,1.9,0.3,0.4,0c-0.9-0.2-0.8-0.4-0.6,0c0.1,0.2,0.2,0.4,0.3,0.7c0.8,2.2,1.4,4.5,1.8,6.9C389.4,427,394.3,426.5,394.1,425.4z
		"></path><path class="st1" d="M356.9,425.7c0,0-13.8-1.8-14.9-2.2s-1.4-10.6,0-10.6s14.9,2.3,14.9,2.3V425.7z"></path><path class="st2" d="M355.6,424.2c-2.5-0.3-4.9-0.6-7.3-1c-1.7-0.2-3.4-0.5-5.1-0.8l-1.7-0.3c-0.4-0.1,0.1,0,0.2,0
		c-0.1,0-0.1,0-0.2,0c-1.4-0.6,2.8,1.2,2.5,1.7c0-0.1-0.1-0.2-0.1-0.3c0.1,0.2,0,0.1,0,0s-0.1-0.3-0.1-0.4c-0.1-0.4-0.1-0.7-0.2-1.1
		c-0.1-0.8-0.2-1.7-0.2-2.5c-0.1-1.5,0-3.1,0.3-4.6c0.1-0.2,0.2-0.4,0.2-0.6s0.1,0,0,0c0.3,0-0.3,0-0.1,0c-0.7,0.1-0.2,0,0.1,0
		l0.7,0.1c1.6,0.2,3.2,0.5,4.7,0.7c2.9,0.5,5.9,1,8.8,1.5l-3.5-2.4v10.5c0,1.4,4.5,3.2,4.5,1.9v-10.4c0-0.6-0.8-1.1-1.2-1.4
		c-0.7-0.5-1.4-0.8-2.2-1c-2.7-0.5-5.4-0.9-8.1-1.3c-1.7-0.3-3.5-0.6-5.2-0.8c-0.9-0.1-2.4-0.5-2.9,0.5c-0.2,0.7-0.4,1.4-0.4,2.1
		c-0.1,0.9-0.1,1.8-0.1,2.7c0,1.6,0.1,3.3,0.5,4.9c0.6,2.1,2.7,2.9,4.7,3.3c1.5,0.3,3,0.5,4.5,0.7c3.2,0.5,6.4,0.9,9.5,1.3
		c0.3,0,0.8,0.1,1-0.2s-0.1-0.7-0.3-0.9C358,425,356.8,424.4,355.6,424.2z"></path><path class="st1" d="M384.6,437.5c0,0,2,1.2,1.1,2.4s-2.1,1.5-2.3,0S383.5,437,384.6,437.5z"></path><path class="st2" d="M382.5,438.5c0.1,0.1,0.2,0.2,0.4,0.2l-0.1-0.1c0.5,0.4,1.1,1,1,1.7v-0.2c-0.1,0.3-0.2,0.5-0.4,0.7l0.2-0.2
		c-0.1,0.2-0.3,0.3-0.4,0.4l0.3-0.2l-0.2,0.1l0.4-0.3h-0.1l0.5-0.2c-0.2,0.1,0,0,0.5-0.2c-0.3,0.1,0.8-0.3,0.5-0.2l0.5-0.1l0,0
		l0.5-0.1H386h0.4h-0.2h0.3c-0.1,0-0.2-0.1-0.3-0.1l0.1,0.1c-0.3-0.3-0.4-0.7-0.4-1.1c-0.1-0.5-0.1-0.9,0-1.4v0.2
		c0-0.3,0.1-0.5,0.3-0.7L386,437l0.1-0.1l-0.3,0.2l0,0l-0.4,0.3c0.1-0.1,0,0-0.2,0.1c-0.3,0.1-0.5,0.3-0.8,0.4l-0.6,0.2l-0.5,0.1
		l-0.5,0.1h0.1h-0.4h0.2h-0.3C382.2,438.4,382.3,438.4,382.5,438.5c0.1,0,0.3,0,0.5,0s0.5-0.1,0.7-0.1c0.6-0.2,1.2-0.4,1.8-0.6
		l0.5-0.3c0.3-0.1,0.5-0.3,0.8-0.5c0.1-0.1,0.4-0.4,0.1-0.5c-0.4-0.1-0.8-0.1-1.1-0.1c-0.6,0.1-1.3,0.3-1.9,0.5s-1.2,0.5-1.7,0.9
		c-0.3,0.2-0.6,0.4-0.8,0.8c-0.1,0.2-0.1,0.3-0.2,0.5c-0.1,0.5-0.1,1-0.1,1.5c0,0.4,0.1,0.8,0.4,1.1c0.1,0.1,0.3,0.2,0.5,0.3
		c0.5,0.1,1.1,0,1.6-0.1c0.9-0.2,1.9-0.6,2.7-1.1c0.4-0.2,0.8-0.5,1.2-0.8c0.2-0.2,0.4-0.4,0.6-0.7c0.1-0.1,0.2-0.3,0.2-0.5
		c0.1-0.4,0-0.8-0.2-1.1c-0.2-0.3-0.4-0.6-0.7-0.8c-0.2-0.2-0.4-0.3-0.6-0.4c-0.2,0-0.3,0-0.5,0s-0.5,0.1-0.7,0.1
		c-0.6,0.1-1.2,0.4-1.8,0.6l-0.5,0.3c-0.3,0.1-0.5,0.3-0.8,0.5l-0.2,0.2c-0.1,0-0.1,0.1-0.1,0.2S382.4,438.5,382.5,438.5
		L382.5,438.5z"></path><path class="st1" d="M375.4,437.5c0,0,2,1.2,1.1,2.4s-2.1,1.5-2.3,0S374.2,437,375.4,437.5z"></path><path class="st2" d="M373.5,438.5c0.2,0.1,0.4,0.3,0.6,0.4l-0.4-0.3c0.2,0.2,0.4,0.4,0.6,0.7l-0.2-0.4c0.1,0.2,0.2,0.3,0.2,0.5
		l-0.1-0.4c0,0.1,0,0.3,0,0.4l0.1-0.4c-0.1,0.2-0.1,0.4-0.3,0.5l0.3-0.4c-0.2,0.2-0.4,0.4-0.6,0.6l0.4-0.3c-0.1,0.1-0.2,0.1-0.4,0.2
		l0.5-0.2l-0.2,0.1l0.6-0.1h-0.2h0.7H375l0.7,0.1h-0.1l0.6,0.2h-0.1l0.5,0.3l-0.1-0.1l0.4,0.3c-0.1-0.1-0.1-0.1-0.1-0.2l0.2,0.4
		c-0.1-0.2-0.2-0.3-0.2-0.5l0.1,0.4c0-0.4-0.1-0.7-0.1-1.1c0-0.3,0-0.6,0.1-0.9l-0.1,0.4c0-0.1,0.1-0.3,0.2-0.4l-0.3,0.4
		c0-0.1,0.1-0.1,0.1-0.1l-0.4,0.3l0.1-0.1L376,439h0.1l-0.6,0.1H375l-0.7-0.1h0.2l-0.6-0.2h0.1c0.3,0.1,0.6,0.2,0.9,0.2
		c0.3,0.1,0.7,0.1,1,0c0.3,0,0.6-0.1,0.9-0.2s0.5-0.2,0.7-0.4l0.3-0.4c0.1-0.3,0.1-0.6,0-0.8l-0.2-0.4c-0.2-0.3-0.5-0.5-0.9-0.6
		c-0.3-0.1-0.5-0.2-0.8-0.3c-0.5-0.1-1-0.1-1.5-0.1c-0.3,0-0.5,0.1-0.8,0.2c-0.4,0.1-0.8,0.3-1.1,0.6c-0.2,0.2-0.4,0.4-0.5,0.7
		c-0.1,0.1-0.1,0.3-0.1,0.4c0,0.2-0.1,0.3-0.1,0.5c0,0.5,0,0.9,0,1.4c0,0.7,0.2,1.3,0.6,1.8c0.5,0.5,1.1,0.8,1.8,1
		c0.6,0.1,1.1,0.2,1.7,0.1c0.9-0.1,1.7-0.5,2.4-1.1c0.3-0.3,0.5-0.5,0.7-0.9c0.2-0.3,0.3-0.6,0.3-0.9s0-0.6-0.1-0.9
		s-0.2-0.6-0.4-0.8c-0.3-0.4-0.7-0.8-1.1-1.1c-0.1-0.1-0.3-0.2-0.4-0.3c-0.2-0.2-0.5-0.3-0.8-0.4c-0.6-0.2-1.3-0.2-1.9-0.1
		c-0.3,0-0.6,0.1-0.8,0.3c-0.4,0.2-0.8,0.6-0.8,1l0.1,0.4C373,438,373.2,438.3,373.5,438.5z"></path><path class="st1" d="M366.6,437.7c0,0,2,1.2,1.1,2.4s-2.1,1.5-2.3,0S365.4,437.3,366.6,437.7z"></path><path class="st2" d="M365.9,439.8L365.9,439.8l-0.5-0.4c0.3,0.2,0.5,0.4,0.8,0.6l-0.5-0.5c0.1,0.1,0.3,0.3,0.4,0.5l-0.3-0.6
		C365.8,439.6,365.8,439.7,365.9,439.8l-0.2-0.6c0,0.1,0,0.2,0,0.3v-0.6c0,0.1,0,0.2,0,0.2l0.1-0.6c0,0.1-0.1,0.2-0.1,0.3l0.3-0.5
		c-0.1,0.2-0.3,0.4-0.5,0.6l0.4-0.4c-0.2,0.2-0.4,0.3-0.6,0.4l0.5-0.3c-0.1,0.1-0.3,0.1-0.4,0.1l0.6-0.1c-0.1,0-0.2,0-0.2,0l0.6,0.1
		h-0.2l0.6,0.2c0,0-0.1,0-0.1-0.1l0.5,0.4l-0.1-0.1l0.5,0.5l-0.1-0.1l0.3,0.6c0-0.1-0.1-0.2-0.1-0.3l0.2,0.6
		c-0.1-0.3-0.1-0.5-0.1-0.8v0.6c0-0.4,0-0.8,0-1.2l-0.1,0.6c0-0.2,0.1-0.3,0.1-0.5l-0.3,0.5c0-0.1,0.1-0.2,0.1-0.2l-0.4,0.4
		c0,0,0.1-0.1,0.2-0.1l-0.5,0.3h0.2l-0.6,0.1h0.2h-0.6c0.1,0,0.2,0,0.3,0.1L365.9,439.8L365.9,439.8c0.2,0.1,0.5,0.2,0.8,0.2
		c0.3,0.1,0.6,0,0.9-0.1s0.5-0.2,0.7-0.5c0.2-0.2,0.4-0.4,0.5-0.7l0.1-0.6c0-0.4-0.1-0.8-0.2-1.2l-0.3-0.6c-0.3-0.4-0.6-0.6-1-0.8
		c-0.5-0.2-1.1-0.4-1.6-0.3c-0.2,0-0.4,0.1-0.6,0.1h-0.1c-0.2,0.1-0.5,0.2-0.7,0.4c-0.4,0.3-0.7,0.8-0.9,1.2
		c-0.1,0.3-0.2,0.7-0.2,1.1c-0.1,0.7-0.1,1.3,0,2c0,0.4,0.1,0.8,0.3,1.2c0.2,0.6,0.6,1.1,1,1.5s0.9,0.6,1.4,0.7s1,0.1,1.5,0l0.2-0.1
		c0.3-0.1,0.5-0.2,0.7-0.4c0.2-0.1,0.3-0.2,0.5-0.4c0.3-0.3,0.6-0.6,0.8-0.9c0.3-0.5,0.5-1,0.5-1.5c0-0.4,0-0.7-0.1-1.1
		c-0.1-0.3-0.2-0.5-0.3-0.8c-0.1-0.3-0.3-0.5-0.5-0.8s-0.5-0.6-0.8-0.9c-0.1-0.1-0.2-0.2-0.4-0.4c-0.3-0.2-0.6-0.5-1-0.6
		c-0.3-0.2-0.6-0.2-0.9-0.2c-0.3-0.1-0.6,0-0.9,0.1s-0.5,0.3-0.7,0.5s-0.4,0.4-0.5,0.7l-0.1,0.6c0,0.4,0,0.8,0.2,1.2l0.3,0.6
		C365,439.4,365.4,439.6,365.9,439.8z"></path><path class="st1" d="M357.3,437.7c0,0,2,1.2,1.1,2.4s-2.1,1.5-2.3,0S356.1,437.3,357.3,437.7z"></path><path class="st2" d="M356.8,439.3l0.1,0.1l-0.5-0.4c0.2,0.1,0.4,0.3,0.6,0.5l-0.5-0.5c0.1,0.1,0.2,0.2,0.3,0.4l-0.4-0.5
		c0.1,0.1,0.1,0.2,0.2,0.3l-0.2-0.5c0,0.1,0.1,0.2,0.1,0.3l-0.1-0.5c0,0.1,0,0.2,0,0.3v-0.5c0,0.1-0.1,0.3-0.1,0.4l0.2-0.4
		c-0.2,0.3-0.4,0.6-0.7,0.8l0.3-0.3c-0.2,0.1-0.4,0.3-0.6,0.3l0.4-0.1c-0.1,0-0.2,0-0.3,0h0.5h-0.2l0.5,0.1h-0.1L356.8,439.3
		L356.8,439.3l0.5,0.5l-0.1-0.1l0.5,0.5l-0.1-0.1l0.4,0.5c0-0.1-0.1-0.1-0.1-0.2l0.2,0.5c0-0.1-0.1-0.2-0.1-0.3l0.1,0.5
		c-0.1-0.3-0.1-0.6-0.1-0.8c0-0.3,0-0.5,0-0.8v0.4c0-0.3,0.1-0.5,0.2-0.7l-0.2,0.4c0-0.1,0.1-0.2,0.2-0.2l-0.3,0.3
		c0.1,0,0.1-0.1,0.2-0.1l-0.4,0.1c0.1,0,0.1,0,0.2,0h-0.5c0.1,0,0.2,0,0.2,0l-0.5-0.1h0.2c0.3,0.1,0.5,0.2,0.8,0.1
		c0.2,0,0.5,0,0.7-0.1s0.4-0.2,0.4-0.5c0.1-0.2,0.2-0.4,0.1-0.6l-0.1-0.5c-0.1-0.4-0.3-0.7-0.6-1c-0.4-0.5-1-0.9-1.6-1.1
		c-0.5-0.2-1-0.3-1.5-0.2h-0.1c-0.2,0-0.3,0.1-0.5,0.1h-0.1c-0.1,0.1-0.3,0.2-0.4,0.3c-0.2,0.2-0.3,0.5-0.4,0.7s-0.1,0.3-0.1,0.5
		c-0.1,0.6-0.1,1.2,0,1.8c0,0.4,0.1,0.8,0.2,1.1c0.1,0.2,0.2,0.5,0.3,0.7c0.3,0.4,0.6,0.8,1,1.1c0.4,0.4,0.9,0.6,1.4,0.8
		c0.5,0.2,1,0.2,1.4,0.1c0.3-0.1,0.6-0.2,0.9-0.3c0.1-0.1,0.3-0.2,0.4-0.3c0.1-0.1,0.3-0.2,0.4-0.3c0.2-0.2,0.3-0.3,0.4-0.5
		s0.2-0.4,0.3-0.6c0.1-0.2,0.1-0.5,0.1-0.7c0-0.3,0-0.6-0.1-0.9s-0.2-0.6-0.4-0.9c-0.6-1-1.5-1.8-2.5-2.4c-0.3-0.2-0.5-0.3-0.8-0.3
		c-0.2-0.1-0.5-0.1-0.8-0.1c-0.2,0-0.4,0.1-0.6,0.3c-0.2,0.1-0.3,0.3-0.4,0.5v0.5c0,0.4,0.1,0.7,0.3,1
		C355.8,438.5,356.3,439,356.8,439.3z"></path><path class="st1" d="M348.9,437.7c0,0,2,1.2,1.1,2.4s-2.1,1.5-2.3,0S347.7,437.3,348.9,437.7z"></path><path class="st2" d="M346.9,438.8L346.9,438.8l-0.3-0.2c0.4,0.3,0.8,0.6,1.1,1.1l-0.2-0.3c0.1,0.2,0.2,0.5,0.2,0.8v-0.3
		c0,0.2-0.1,0.3-0.1,0.5l0.2-0.3c-0.1,0.2-0.3,0.4-0.5,0.6l0.3-0.3c-0.1,0.1-0.2,0.2-0.4,0.3l0.5-0.3l-0.2,0.1l0.6-0.2l-0.2,0.1
		l0.6-0.2h-0.1l0.7-0.1H349h0.6h-0.1h0.5h-0.1l0.4,0.1l-0.2-0.1l0.3,0.2c-0.1-0.1-0.2-0.2-0.2-0.3l0.2,0.3c-0.1-0.3-0.2-0.5-0.2-0.8
		s0-0.7,0-1v0.3c0-0.3,0.1-0.7,0.2-1l-0.2,0.3c0-0.1,0.1-0.1,0.1-0.2l-0.3,0.3l0.1-0.1l-0.5,0.3h0.1l-0.6,0.2h0.1l-0.6,0.2h0.1
		l-0.6,0.1h0.1h-0.6h0.1h-0.5h0.2L346.9,438.8L346.9,438.8c0.6,0.1,1.1,0.2,1.6,0.1c0.3,0,0.7-0.1,1-0.2s0.6-0.2,0.9-0.3l0.5-0.3
		c0.2-0.2,0.4-0.4,0.5-0.6v-0.3c-0.1-0.2-0.2-0.4-0.5-0.5c-0.2-0.1-0.4-0.2-0.7-0.2c-0.4-0.1-0.9-0.1-1.3,0c-0.9,0.1-1.8,0.4-2.6,1
		c-0.5,0.3-0.8,0.9-0.9,1.4s-0.1,1.1,0,1.6c-0.1,0.9,0.6,1.8,1.6,1.9c0.7,0.1,1.5,0.1,2.2-0.1c0.6-0.1,1.1-0.3,1.6-0.6
		c0.3-0.2,0.6-0.4,0.9-0.6s0.5-0.5,0.8-0.8c0.2-0.2,0.3-0.5,0.4-0.8s0.1-0.5,0-0.8c-0.1-0.2-0.2-0.5-0.3-0.7c-0.4-0.5-0.9-1-1.5-1.3
		c-0.2-0.1-0.5-0.2-0.7-0.2c-0.3,0-0.6,0-0.9,0c-0.6,0.1-1.3,0.3-1.9,0.6l-0.5,0.3c-0.2,0.2-0.4,0.4-0.5,0.6v0.3
		C346.6,438.5,346.7,438.7,346.9,438.8z"></path></g></svg>