<svg transform="scale(1)" version="1.1" id="JifawkeI4M" xmlns="http://www.w3.org/2000/svg" xmlns:xlink="http://www.w3.org/1999/xlink" x="0px" y="0px" viewBox="0 0 500 500" xml:space="preserve" class="pbimage_pbimage__wrapper__image__0LEis false"><title>Shipping 2</title><style type="text/css"> .st0{fill:#FFFFFF;} .st1{fill:#59BE4C;} .st2{fill:#000005;}
 .st2{fill:#000005;}
 .st1{fill:#3563E9;}
 .st0{fill:#FFFFFF;}</style><g id="truck"><g id="truck-2"><path class="st0" d="M252,132c0,0-3.9,92.1,2.8,98.8s101.1,27,105.6,25.8s81.4-4.5,83.7-12.4s1.1-103.9-2.2-108.9
			s-98.8-14-106.7-14S252.2,128.1,252,132z"></path><path class="st1" d="M250,130.6c-0.3,6.1-0.4,12.2-0.6,18.4c-0.4,12.8-0.6,25.6-0.5,38.3c0.1,11.4,0,23,1.6,34.2
			c0.4,2.5,0.6,5.8,2.2,7.9c1.4,1.5,3.1,2.8,5,3.7c1.4,0.8,2.9,1.4,4.4,2c10.1,3.9,20.8,6.4,31.2,9c13.2,3.3,26.4,6.3,39.8,9.1
			c8.9,1.9,17.9,4,26.9,4.9c1.6,0.1,3.2,0,4.7-0.2c4-0.4,8.1-0.7,12.2-1c12.9-1,25.8-2,38.6-3.5c6-0.7,12-1.5,17.9-2.6
			c3.6-0.7,7.8-1.4,11-3.3c1.9-1.1,1.9-2.9,2.1-5c0.3-4,0.4-8.1,0.5-12.1c0.3-12.8,0.2-25.5,0-38.3s-0.5-25.6-1.2-38.4
			c-0.2-4.2-0.5-8.4-1-12.6c-0.1-1.1-0.3-2.3-0.6-3.4c-0.5-1.5-1.9-2.4-3.1-3.2c-2.5-1.7-5.5-2.4-8.4-3.1c-4.7-1-9.5-1.8-14.3-2.5
			c-13.1-2-26.4-3.5-39.6-4.9c-11.8-1.3-23.5-2.4-35.3-3.4c-3.1-0.3-6.2-0.5-9.4-0.7c-2.5,0-5.1,0.1-7.6,0.3
			c-12,0.8-23.9,2-35.8,3.3c-11.6,1.3-23.5,2.4-34.9,4.9c-1.4,0.3-2.8,0.7-4.2,1.1C251.1,129.6,250,129.9,250,130.6
			c-0.1,0.5,1.5,1.4,1.8,1.6c0.2,0.1,2.2,1.3,2.2,1.3c0-0.6,1.2-0.9,1.6-1.1c1.4-0.5,2.9-0.9,4.4-1.2c4.9-1,9.9-1.8,14.9-2.4
			c13.1-1.8,26.2-3.1,39.4-4.3c5.2-0.5,10.5-0.9,15.7-1.3c2.6-0.3,5.1-0.4,7.7-0.4c8.1,0.3,16.2,1.2,24.3,2
			c13.2,1.3,26.3,2.7,39.4,4.2c11.2,1.4,22.5,2.7,33.6,5c1.7,0.3,3.3,0.7,5,1.2c0.6,0.2,1.2,0.4,1.8,0.6c0.4,0.1,0.1,0.1,0.5,0.2
			l0.3,0.1c0.1,0,0.3,0.2-0.2-0.1c0.1,0.1,0.4,0.2-0.2-0.2s-2.4-1.5-2.4-1.9c0,0.1,0.1,0.3,0.2,0.4c0.1,0.4,0.2,0.7,0.3,1.1
			c0.3,1.3,0.5,2.6,0.6,3.9c1.2,10.4,1.4,20.9,1.7,31.3c0.4,13.4,0.6,26.9,0.6,40.4c0,9.5,0.1,19.2-0.7,28.7c0,1-0.2,2-0.4,2.9
			c-0.3,0.8-1,1.5-1.8,1.9c-3.3,1.8-7.4,2.5-11,3.2c-12.4,2.4-25,3.5-37.6,4.6c-10.2,0.9-20.4,1.5-30.6,2.4c-1.5,0.2-3,0.3-4.6,0.3
			c-3.4-0.3-6.8-1-10.1-1.6c-11.8-2.1-23.4-4.6-35.1-7.3c-12.7-2.9-25.4-5.9-38-9.4c-4.6-1.3-9.3-2.6-13.8-4.3
			c-1.5-0.5-2.9-1.1-4.3-1.8l-0.3-0.2c-0.4-0.2,0.3,0.1-0.1-0.1c-0.2-0.1-0.6-0.4,0,0c-0.4-0.3,0.3,0.2,0.1,0.1
			c0.6,0.4,1.1,0.8,1.6,1.2c0-0.1,0.1,0.1,0-0.1c-0.1-0.1-0.1-0.2-0.2-0.3c-1.5-2.5-1.7-6-2-8.8c-0.6-5.1-0.9-10.3-1.1-15.5
			c-0.5-13-0.4-26-0.2-38.9c0.2-10.1,0.4-20.2,0.8-30.3c0.1-1.5,0.1-3.1,0.2-4.6c0-0.5-1.5-1.4-1.9-1.7
			C252,131.7,250,130.5,250,130.6z"></path><path class="st0" d="M368.3,141.6c0,0-5.6,110.6-7.9,115.1c-2.2,4.5-24.1,21.3-27,18.5s-3.4-107.2,0-114.5
			S368.3,141.6,368.3,141.6z"></path><path class="st1" d="M366.7,140c-0.3,5.5-0.6,10.9-0.9,16.4c-0.7,12.3-1.4,24.5-2.1,36.8c-0.8,12.9-1.5,25.7-2.5,38.6
			c-0.4,4.9-0.7,9.7-1.2,14.5c-0.2,1.6-0.3,3.3-0.5,4.9c-0.1,0.6-0.1,1.2-0.2,1.8c0,0.2-0.1,0.4-0.1,0.7c0.1-0.4,0,0.1-0.1,0.3
			c-0.3,1-0.9,1.9-1.6,2.6c-2.1,2.2-4.3,4.2-6.7,6.1c-2.8,2.3-5.7,4.5-8.8,6.5c-2.3,1.6-4.8,3-7.4,3.9c-0.3,0.1-0.7,0.2-1,0.2h-0.5
			c-0.2,0-0.1-0.1,0.1,0.1c0.7,0.6,1.2,1.3,1.5,2.1l-0.1-0.2c-0.1-0.4,0.1,0.6,0.1,0.2c-0.1-1-0.4-2-0.5-3.1c0-0.2,0-0.4,0-0.5
			c0,0.4,0,0,0-0.2c0-0.4-0.1-0.9-0.1-1.3c-0.1-0.9-0.1-1.9-0.2-2.8c-0.1-2.2-0.3-4.5-0.4-6.8c-0.5-12.6-0.7-25.2-0.8-37.8
			c0-13.2,0-26.4,0.5-39.7c0.1-4.7,0.3-9.4,0.7-14.1c0.1-1.5,0.3-3.1,0.5-4.6c0-0.1,0-0.3,0.1-0.4c0-0.3,0-0.1,0-0.1
			s0.1-0.5,0.1-0.7c0.1-0.3,0.2-0.7,0.3-1c1-2,3.3-3.5,5.1-4.7c2.9-1.9,5.9-3.6,8.9-5.1c5.7-2.9,11.6-5.4,17.5-7.8
			c1-0.4,2-0.8,3.1-1.2s-1.2-4.8-2.7-4.2c-3.9,1.5-7.8,3.1-11.6,4.7c-6.4,2.8-13,5.8-18.8,9.9c-1.7,1.2-3.8,2.8-4.7,4.8
			c-0.3,1-0.6,2-0.7,3c-0.6,3.8-0.7,7.6-0.9,11.3c-0.6,12.6-0.8,25.2-0.8,37.9c0,13.5,0.1,27,0.5,40.4c0.1,4.9,0.3,9.8,0.7,14.6
			c0.2,2.6,0.2,5.6,1.1,8.1c0.6,1.8,2.1,3.8,4.2,3.5c2.5-0.4,4.9-1.9,7-3.2c5.9-3.6,11.4-7.9,16.3-12.8c1-1,2.2-2.1,2.7-3.5
			c0.3-1,0.4-1.9,0.5-2.9c0.5-3.7,0.8-7.4,1.1-11.1c1-12.2,1.8-24.4,2.5-36.6c0.8-13.2,1.6-26.5,2.3-39.8c0.4-7.9,0.8-15.7,1.3-23.6
			l0.1-1.1c-0.1-1.2-0.7-2.3-1.5-3.1C367.9,139.6,366.8,138.9,366.7,140z"></path><path class="st0" d="M465.4,260c0,0-18.5-9-21.3-15.7s-4.2-107.8-1.8-107.5s27.9,11.2,28.5,17.1S469.3,259.9,465.4,260z"></path><path class="st1" d="M467.7,259.4c-4.2-2.1-8.3-4.4-12.1-7c-2.8-1.7-5.4-3.9-7.6-6.3c-0.9-1-1.5-2.2-1.8-3.4
			c-0.5-2.7-0.8-5.4-0.9-8.1c-0.3-4.6-0.6-9.1-0.8-13.7c-0.5-11.8-0.8-23.7-0.9-35.5c-0.1-11.2-0.2-22.3,0-33.5
			c0.1-3.7,0.1-7.4,0.4-11c0.1-1.1,0.1-2.2,0.3-3.2c0-0.3,0.1-0.6,0.2-0.9c0-0.1,0.1-0.3,0-0.1c0,0,0-0.1,0-0.1l0,0c0,0,0,0-0.1,0.1
			c-1.2,0.9-2.7,1.3-4.2,1c0.2,0.1-0.2-0.1,0,0s0.3,0.1,0.4,0.1c0.3,0.1,0.7,0.2,1,0.3c1,0.3,1.9,0.7,2.9,1.1
			c2.7,1.1,5.4,2.4,8.1,3.7c2.9,1.4,5.7,3,8.5,4.7c2.3,1.3,4.3,2.9,6.1,4.8c1.4,1.7,1.2,3.7,1.2,5.8c0,3.5,0,7.1-0.1,10.6
			c-0.1,11-0.4,22-0.8,33.1c-0.4,11.9-0.8,23.8-1.6,35.7c-0.3,4.6-0.6,9.1-1.1,13.7c-0.2,2.8-0.6,5.5-1.2,8.2
			c-0.1,0.3-0.2,0.5-0.3,0.8c-0.1,0.1-0.1,0.2-0.2,0.3c0,0-0.1,0-0.1,0.1s0,0,0,0l0.2-0.1c-1,0.6,0.1,0.3,3.2-0.8
			c-0.9,0.1-2.6,0.2-3.3,0.9s0.5,0.5,1,0.4c1.5-0.1,3.5-0.4,4.1-1.9c0.3-0.9,0.5-1.8,0.7-2.8c0.6-3.5,0.9-7.1,1.2-10.6
			c0.9-11.2,1.4-22.5,1.8-33.8c0.5-12.1,0.8-24.3,1-36.4c0.1-7,0.4-14.1,0.1-21.2c-0.1-1.2-0.5-2.3-1.3-3.1
			c-1.8-1.9-3.9-3.5-6.2-4.8c-5.4-3.3-11-6.1-16.9-8.5c-1.5-0.6-3.2-1.5-4.9-1.5c-1.1,0-3.4,0.2-4.2,1.1c-0.1,0.2-0.2,0.4-0.2,0.7
			c-0.4,2.3-0.6,4.6-0.6,6.9c-0.4,10-0.4,20.1-0.3,30.2c0.1,12.5,0.3,25,0.7,37.6c0.3,9.2,0.5,18.6,1.5,27.8c0.3,2.7,0.6,4.9,2.4,7
			c2.2,2.4,4.8,4.5,7.5,6.2c2.7,1.8,5.5,3.5,8.4,5c1.3,0.7,2.5,1.4,3.8,2c0.8,0.4,2.3-0.1,3.1-0.3
			C466.4,260.3,468.2,259.6,467.7,259.4z"></path><path class="st1" d="M360.4,256.7c0,0,53.9,1.6,83.7-12.4c0,0,1.7-105.8-2.2-108.9s-72.4,5.7-73.5,7.1S360.4,256.7,360.4,256.7z"></path><path class="st1" d="M360.8,258.2c6.7,0.2,13.5,0,20.2-0.3c14.1-0.5,28.1-2.2,41.9-5c7.8-1.6,15.4-4,22.7-7.2
			c0.3-0.1,0.9-0.4,0.9-0.9c0.1-6.2,0.2-12.5,0.2-18.7c0.1-13.4,0.2-26.8,0.1-40.2c-0.1-12.6-0.1-25.3-0.9-38
			c-0.1-3.5-0.4-7.1-1-10.6c-0.1-1-0.5-1.9-1.2-2.6c-1.3-1.1-3.2-1.2-4.9-1.4c-4.9-0.2-9.8-0.1-14.7,0.4c-7,0.5-13.9,1.2-20.8,2
			s-13.7,1.6-20.6,2.6c-4.5,0.6-9.1,1.2-13.5,2.2c-1,0.2-2.6,0.4-3.3,1.2c-0.3,0.6-0.4,1.2-0.4,1.9c-0.4,3.2-0.6,6.4-0.9,9.6
			c-1,12-1.7,24-2.5,36.1c-0.9,13.7-1.8,27.3-2.6,41c-0.5,8.3-1,16.5-1.5,24.8c0,0.4,0,0.8-0.1,1.2c-0.1,2,4.8,2.8,4.9,0.9l1-17.4
			c0.8-12.8,1.6-25.5,2.4-38.3c0.8-13,1.7-26,2.6-39c0.3-4.5,0.7-9,1-13.4c0.1-1.4,0.2-2.7,0.4-4.1c0.2-0.6,0.3-1.2,0.3-1.9
			c0,0.1-0.3,0.5-0.4,0.5c-0.3,0.3-0.5,0.1,0,0.1l0.3-0.1c0.4-0.1-0.6,0.1-0.2,0l0.9-0.2c1.8-0.4,3.5-0.6,5.3-0.9
			c5.8-0.9,11.6-1.7,17.5-2.4c7.1-0.9,14.2-1.7,21.3-2.4c6.4-0.6,11.9-1.1,18-1.3c2-0.1,4-0.1,6,0c0.2,0,0.4,0,0.5,0
			c-0.9,0-0.4,0-0.1,0c0.3,0.1,0.6,0.1,0.9,0.1c0.2,0-0.8-0.2-0.3-0.1c0.2,0.1,0.5,0.3-0.3-0.1c0.2,0.1-0.5-0.5-0.5-0.4
			c0.3,0.4-0.1-0.3,0,0s0.1,0.4,0.2,0.6c0.1,0.5,0.2,1,0.3,1.5c0.3,1.5,0.4,3,0.5,4.6c1,11,1,22.4,1.1,33.6
			c0.1,13.7,0.1,27.5,0,41.2c-0.1,8.5-0.1,16.9-0.3,25.4c0,0.4,0,0.8,0,1.3l0.9-0.9c-12.7,5.9-26.9,8.4-40.8,10.1
			c-11.6,1.4-23.2,2.1-34.8,2.1c-2.3,0-4.6,0-6.9-0.1c-0.9,0-2.2,0.4-2,1.5S359.9,258.1,360.8,258.2z"></path><path class="st0" d="M424.6,230.7c0,0,2.4-26.6,0-28.1s-29.8,0-29.8,0l-2.2,29.6C392.6,232.1,420.5,232.4,424.6,230.7z"></path><path class="st1" d="M426,232.7c0.3-3.3,0.5-6.6,0.7-9.9c0.4-5.1,0.5-10.2,0.1-15.3c-0.2-2.3-1.1-4.5-2.5-6.3
			c-1-1.1-2.3-1.2-3.7-1.3c-5.1-0.3-10.2-0.3-15.4,0c-3.9,0.1-7.8,0.3-11.7,0.5l-0.1,0.1l-2,25.9l-0.3,3.7c0.1,0.9,0.5,1.8,1.1,2.5
			c0.3,0.5,0.9,1.6,1.5,1.6c8.8,0.1,17.7,0.1,26.5-0.6c1.9,0,3.8-0.3,5.6-0.9c0.4-0.2-1.7-4.6-2.6-4.3c-1.5,0.5-3.1,0.8-4.8,0.8
			c-2.6,0.2-5.3,0.4-7.9,0.4c-5.3,0.2-10.6,0.2-16,0.2h-3.5l2.6,4.1l1.2-16.6l0.8-10.1c0.1-0.8,0-1.7,0.2-2.5c0-0.3,0-0.2,0-0.1
			c0.2,0,0.4,0,0.6,0c6.8-0.4,13.7-0.7,20.5-0.6c2.7-0.1,5.5,0,8.2,0.5c-0.6,0-1-0.5-0.9-1.1c0-0.6,0.5-1,1.1-0.9
			c0.6,0,1,0.5,0.9,1.1c0,0.5-0.4,0.9-0.9,0.9c-1,0-1.3-2-1.8-2.8c0.1,0.1,0,0.4,0,0c0.1,0.5,0.2,1.1,0.3,1.6
			c0.2,1.6,0.2,3.2,0.2,4.8c0,6.8-0.4,13.7-1,20.4c-0.1,0.9,0.8,2.1,1.3,2.8C424.7,231.6,426,233.2,426,232.7z"></path><path class="st0" d="M396.2,196c0,0,18.2-0.5,19.1,0s9.4,6.6,9.4,6.6h-29.8L396.2,196z"></path><path class="st1" d="M396.8,198.3c4-0.1,8-0.2,12-0.2h4.2c-0.1,0-0.4,0,0,0h0.7l1.1,0.1c0.5,0,0.3,0.1,0-0.1c-1-0.4,0,0,0.3,0.2
			c1,0.7,2,1.4,2.9,2.1l5.6,4l0.4-4.1h-29.9l2.9,3.2l1.4-6.6c0.5-2.6-3.8-4.8-4.4-1.8l-1.4,6.6c-0.2,1.5,0.8,2.9,2.3,3.2
			c0.2,0,0.4,0,0.5,0h29.8c2.3,0,1.6-3.2,0.4-4.1l-5-3.6l-3.2-2.3c-0.7-0.6-1.5-1-2.4-1.3c-1.9-0.2-3.9-0.3-5.8-0.2
			c-2.8,0-5.6,0.1-8.4,0.1l-5.3,0.1c-1.3,0-1.8,1.5-1.5,2.6C394.3,197.5,395.5,198.3,396.8,198.3z"></path><path class="st0" d="M399.5,238.4c0,0,2.8-37.8,0-40s-35.4,0-35.4,0l-2.6,42.1C361.4,240.5,394.6,240.8,399.5,238.4z"></path><path class="st1" d="M401.9,237.9c0.9-10.7,1.3-21.5,1.2-32.2c0-2.2-0.2-4.4-0.6-6.6c-0.4-1.5-1.4-1.8-2.8-2.1
			c-2.8-0.4-5.6-0.5-8.4-0.5c-3.5,0-7.1,0.1-10.6,0.2c-5.2,0.2-10.3,0.4-15.5,0.8c-0.7,0-3.5,0.3-3.6,1.3l-2.3,36.8l-0.3,5.2
			c0,0.4,1.2,0.3,1.3,0.3c10.8,0.1,21.8,0.1,32.6-1c2.8-0.3,5.8-0.6,8.4-1.8c0.8-0.4,0.7-0.9-0.2-1c-1.2-0.1-2.4,0.2-3.5,0.7
			c-0.1,0.1,0.5-0.2,0,0c-0.3,0.1,0.6-0.1,0,0c-0.1,0-0.2,0-0.4,0.1c0,0,0.6-0.1,0.2-0.1l-0.7,0.1l-0.4,0.1c-0.4,0.1,0.6-0.1,0.1,0
			l-0.7,0.1c-0.7,0.1-1.3,0.2-2,0.2c-1.5,0.2-2.4,0.2-4,0.3s-3.3,0.2-4.9,0.2c-6.1,0.2-12.2,0.3-18.3,0.3h-4l1.3,0.3l2.3-36.8
			l0.3-5.2l-3.6,1.3c4.1-0.3,8.3-0.5,12.5-0.7c6.4-0.3,12.8-0.6,19.1-0.1c0.8,0,1.6,0.1,2.3,0.4c0.2,0,0.3,0.1,0.4,0.2
			c0.1,0.1,0.2,0.3,0.2,0.5c0.6,1.9,0.8,3.8,0.8,5.8c0.3,6.6,0,13.2-0.3,19.8c-0.2,4.6-0.5,9.2-0.8,13.8
			C397,239.5,401.8,239.2,401.9,237.9z"></path><path class="st0" d="M365.7,189c0,0,21.6-0.8,22.7,0s11.1,9.4,11.1,9.4H364L365.7,189z"></path><path class="st1" d="M367,190.8c5-0.2,9.9-0.3,14.9-0.3c2.4-0.1,4.9,0,7.3,0.2c0,0-0.4-0.1,0,0c-0.3-0.1-1.8-1.2-1.2-0.6
			c0.4,0.3,0.8,0.6,1.1,0.9c1.2,1,2.4,2,3.6,3c2.1,1.7,4.1,3.5,6.1,5.2l-0.6-2.6h-35.4l3.4,3.1l1.6-9.4c0.3-1.5-3.8-4.2-4.1-2.6
			l-1.6,9.4c-0.2,1.4,2.2,3.1,3.4,3.1h35.4c1.8,0-0.1-2.2-0.6-2.6c-1.8-1.6-3.7-3.2-5.5-4.7c-1.3-1.1-2.6-2.2-3.8-3.2
			c-0.8-0.8-1.8-1.5-2.8-2.1c-1.9-0.9-4.6-0.6-6.7-0.6c-3.5,0-6.9,0.1-10.4,0.1c-2.2,0-4.3,0.1-6.5,0.2c-1.1,0-0.7,1.1-0.3,1.7
			C364.7,189.8,365.9,190.9,367,190.8z"></path><path class="st0" d="M399.5,238.4c-0.2-3.4-0.3-6.7-0.3-10s0.1-6.7,0.1-10l0.3-10c0-1.7,0.1-3.3,0.1-5c0-0.8,0-1.7,0-2.5
			c0-0.4,0-0.8-0.1-1.2l-0.2-1.2l0.5,1.2c0.1,0.4,0.2,0.8,0.3,1.2c0.2,0.8,0.3,1.7,0.5,2.5c0.2,1.7,0.4,3.4,0.5,5s0.1,3.4,0.2,5
			s0,3.4,0,5c-0.1,3.4-0.3,6.7-0.6,10S400.1,235.1,399.5,238.4z"></path><path class="st1" d="M401.4,238.8c-0.6-9.8-0.1-19.6,0.1-29.4c0.3-3.5,0.2-7-0.1-10.5l-3.5,0.4c0.2,0.3,0.3,0.7,0.4,1
			c0.1,0.4-0.1-0.4,0,0.2c0,0.3,0.1,0.6,0.2,0.8c0.3,1.6,0.5,3.2,0.6,4.9c0.3,3.4,0.3,6.9,0.3,10.3c0,7-0.7,14.1-1.9,21
			c-0.4,2.2,3.3,5,3.9,1.9c1.3-7.5,1.9-15.1,1.9-22.6c0.1-6.3,0.2-13.2-2.3-19.2c-0.8-1.9-3.9-2.1-3.5,0.4c0.6,4.2,0.2,8.6,0.1,12.9
			c-0.1,4.5-0.3,9-0.3,13.5s0,9.1,0.2,13.6c0.1,1.3,0.9,2.4,2.2,2.7C400.9,241,401.5,239.9,401.4,238.8z"></path><path class="st0" d="M250.9,146.2c0,0-16.9,0-26.9,3.4c-9.6,3.3-10.4,28.6-10.4,28.6s-17.4-4.6-23.9,2.4s-8.3,12.7-8.3,12.7
			l12.7,4.6c0,0,8.6-14.3,23.3-5.4s5,24.7,6.5,25.2s24.4,7.4,25.5,5.9S250.9,146.2,250.9,146.2z"></path><path class="st1" d="M250.2,144.1c-3.4,0-6.7,0.2-10,0.4c-3,0.2-6,0.6-9,1.1c-2.9,0.4-5.8,1.1-8.6,2.1c-3.9,1.5-6.1,5.4-7.5,9.1
			c-1.5,4.1-2.5,8.4-3,12.8c-0.4,2.7-0.6,5.5-0.7,8.2l2.2-1.6c-4.3-1.1-8.8-1.7-13.3-1.5c-3.3,0-6.6,0.7-9.5,2.2
			c-1.5,0.9-2.9,2-4,3.4c-1.5,1.7-2.9,3.6-4.2,5.5c-1.4,2-2.5,4.2-3.3,6.6c-0.4,1.1,0.8,2.4,1.8,2.8l12.6,4.6c0.8,0.3,2,0.4,2.5-0.5
			c0.2-0.4,0.5-0.7,0.7-1.1s0.6-0.7,0.9-1.1s0.4-0.4,0.6-0.6c0,0,0.4-0.4,0.1-0.1l0.4-0.4c2.2-2.2,5-3.7,8-4.2c4.3-0.6,8.7,1.2,12,4
			c2.8,2.3,4.4,5.7,4.5,9.4c0.1,2.9-0.4,5.9-1.2,8.6c-0.6,2.2-1.3,4.8,1.5,5.9c2.1,0.8,4.4,1.4,6.6,2c3.3,1,6.6,1.9,10,2.7
			c2.8,0.8,5.7,1.3,8.6,1.6c1.5,0.1,2.8-0.4,3.1-2c0.4-3.4,0.6-6.9,0.6-10.4c0.4-13,0.6-26,0.7-39c0.1-9.2,0.4-18.4,0.3-27.5
			c0-0.1,0-0.3,0-0.4c0-2.4-4.6-3.8-4.6-0.9c-0.1,7.7-0.1,15.3-0.2,23c-0.1,13.3-0.3,26.6-0.6,39.8c-0.1,4.2-0.2,8.4-0.5,12.6
			c0,0.1,0,0.3,0,0.4c0.1-0.7,0-0.2,0-0.1s0,0.4-0.1,0.6c0,0.1-0.1,0.3-0.1,0.4c0,0,0,0.1,0,0.1c-0.1-0.3,0.5-0.7,0.6-0.8
			s0.5-0.1,0.3-0.1c-0.2,0-0.3,0-0.5,0c-0.6,0,0.3,0.1-0.2,0l-0.8-0.1c-1.4-0.2-2.8-0.5-4.1-0.8c-3.4-0.8-6.9-1.7-10.3-2.7
			c-1.4-0.4-2.9-0.8-4.4-1.3l-0.9-0.3c-0.6-0.2,0.5,0.2-0.1,0l-0.3-0.1l-1.4-0.4c-0.2-0.1-0.5-0.2-0.7-0.2c0.8,0.4,1.4,1.1,1.6,2
			c-0.1-0.4-0.1,0.4,0,0c0.3-0.9,0.4-1.8,0.7-2.7c0.9-3,1.3-6.1,1.2-9.2c-0.2-4.2-1.9-8.2-4.8-11.3c-3.6-3.8-8.4-6.3-13.6-7.1
			c-6.7-0.8-12.8,2.5-16.8,7.8c-0.3,0.3-0.5,0.7-0.7,1l2.5-0.5l-12.6-4.6l1.8,2.8c0.1-0.4,0.3-0.8,0.5-1.2s0-0.1,0,0
			c0-0.1,0.1-0.2,0.2-0.4l0.4-0.8c0.4-0.7,0.7-1.4,1.1-2c1-1.7,2.1-3.3,3.4-4.9c1.1-1.6,2.5-2.9,4-4.1c4.6-3,11.1-2.3,16.1-1.5
			c1.5,0.2,3,0.5,4.5,0.9c0.9,0.3,1.8-0.2,2.1-1.1c0-0.2,0.1-0.3,0.1-0.5c0-0.6,0-1.1,0.1-1.7c0-0.3,0-0.6,0-0.8s0-0.3,0-0.5
			c0-0.1,0-0.2,0-0.3c0.1-0.8,0.1-1.6,0.2-2.4c0.4-4.1,1.3-8.2,2.5-12.2c1.1-3.4,2.7-7.1,5.7-8.9c0.3-0.2-0.1,0,0.3-0.1l0.6-0.2
			c0.6-0.2,1.3-0.4,2-0.6c1.4-0.4,2.8-0.7,4.3-1c2.8-0.5,5.7-0.9,8.5-1.1c3.8-0.4,7.7-0.6,11.5-0.6c0.9,0,1.6-0.7,1.6-1.6
			c0-0.2,0-0.4-0.1-0.6C252.7,144.9,251.5,144.1,250.2,144.1z"></path><path class="st0" d="M192.2,207.2c0,0-19.3-3.9-18.3-6.6c1.1-2.7,2.4-5.4,3.9-8l16.3,5.3L192.2,207.2"></path><path class="st1" d="M193.5,205.4c-3.1-0.6-6.3-1.4-9.4-2.2c-1.1-0.3-2.2-0.6-3.4-1c-0.5-0.2-1-0.3-1.5-0.5l-0.6-0.2l-0.4-0.1
			l-0.3-0.1c0.2,0.1-0.3-0.2-0.4-0.2c-0.2-0.1-0.3-0.2-0.5-0.2l-0.5-0.3c-0.1-0.1-0.6-0.4-0.3-0.2s-0.1-0.1-0.1-0.1
			c-0.2-0.1-0.1-0.2,0.1,0.1c-0.2-0.4,0,0.3,0,0.1c0,0.1-0.2,0.4-0.1,0.3c0.1-0.2,0.2-0.4,0.2-0.6c0.6-1.6,1.4-3.1,2.1-4.6l0.5-1
			c0.1-0.1,0.5-0.9,0.3-0.5l0.4-0.8l-3.3,1.2l16.2,5.3l-1.2-1.4l-1.7,9.3c-0.2,1.2,1.5,1.6,2.4,1.5c1.2-0.1,2.2-1,2.5-2.2l1.7-9.3
			c0.1-0.7-0.6-1.3-1.2-1.4l-16.2-5.4c-1.2-0.3-2.6,0.1-3.3,1.2c-1.2,2.3-2.5,4.6-3.5,7c-0.4,0.9-1,2-0.5,3c0.4,0.8,1.1,1.4,1.9,1.8
			c2,1.1,4.1,1.9,6.3,2.4c2.3,0.7,4.7,1.3,7.1,1.9c1.3,0.3,2.7,0.6,4.1,0.9c1.2,0.3,2.5-0.2,3.3-1.2c0.5-0.6,0.4-1.6-0.2-2.1
			C193.9,205.6,193.7,205.5,193.5,205.4L193.5,205.4z"></path><path class="st0" d="M200.9,173.1c0,0,10.1-2.6,10.5-4s-1.7-3.1-2.6-3S196.6,171.6,200.9,173.1z"></path><path class="st1" d="M201.1,175.1c1.8-0.5,3.5-1,5.2-1.5c1.4-0.4,2.8-0.9,4.1-1.5c1.1-0.5,2.6-1.2,3.1-2.4
			c0.9-2.1-0.7-4.4-2.6-5.2c-1.3-0.5-2.7-0.4-3.9,0.3c-2.2,0.9-4.4,2.1-6.4,3.5c-1.2,0.7-2.1,1.8-2.8,3c-0.7,1.3-0.1,2.9,1.1,3.5
			c0.1,0.1,0.3,0.1,0.4,0.2c1.2,0.5,2.6,0.1,3.4-0.9c0.6-0.8,0.9-2.3-0.3-2.8c-0.2-0.1-0.3-0.2-0.5-0.2s0.5,0.4,0.2,0.1
			s0.3,0.4,0.1,0.2c-0.2-0.4,0.1,0.6,0,0.1c0-0.1-0.1,0.7,0,0.3s-0.2,0.5-0.1,0.3c0-0.1,0.1-0.1,0.1-0.2c0.2-0.4-0.4,0.5-0.1,0.2
			s0.2-0.3,0.4-0.4l0.1-0.1c0.2-0.2-0.3,0.3-0.3,0.3s0.2-0.2,0.3-0.2c0.2-0.2,0.4-0.3,0.6-0.4c0.4-0.3,0.9-0.6,1.3-0.9l0.3-0.2
			c-0.8,0.5-0.3,0.2-0.1,0.1l0.7-0.4c0.9-0.5,1.8-0.9,2.7-1.4c0.3-0.1,0.6-0.3,1-0.4l0.2-0.1c0.3-0.1-0.8,0.2-0.4,0.1
			c0.1,0,0.1,0,0.2-0.1c-0.6,0.2-0.8,0.1-0.5,0.1H208c0.1,0,0.1,0-0.1,0c-0.4-0.2,0.1,0,0.2,0.1l0.2,0.1c0.2,0.1-0.3-0.3-0.1-0.1
			s0.3,0.2,0.4,0.4c0.1,0.1,0.1,0.1,0.2,0.2l0.1,0.1c0.1,0.1,0.1,0.1,0,0s-0.1-0.1,0,0.1l0.1,0.2c0.2,0.4-0.1-0.4,0,0.1
			c0,0.1,0,0.4,0,0s0-0.1,0,0c0.1-0.5,0.2-0.6,0.1-0.4c0.4-0.7,0.4-0.5,0.3-0.4s0.5-0.4,0.3-0.3l-0.4,0.3c0.9-0.6,0.3-0.2,0,0
			s-0.4,0.2-0.6,0.3c-0.5,0.2-1,0.4-1.5,0.6l0.3-0.1l-0.2,0.1l-0.4,0.1l-0.9,0.3c-1.7,0.6-3.5,1.1-5.3,1.5c-1,0.3-2.4,1.3-2.2,2.5
			c0.3,1.1,1.5,1.6,2.5,1.3C201,175.1,201,175.1,201.1,175.1z"></path><path class="st0" d="M219.8,177.2c0,0,15.7,4.7,16.7,4.7s3.1-20.4,2.7-21s-7-1.4-8.1-1.2C224,161.4,219.8,177.2,219.8,177.2z"></path><path class="st1" d="M220.1,178.2c4.6,1.4,9.2,2.7,13.8,4c1.1,0.3,4.4,1.7,5.1,0.3c0.3-0.7,0.5-1.5,0.6-2.3
			c0.2-1.3,0.4-2.6,0.6-3.9c0.4-3,0.8-6.1,1.1-9.1c0.1-1.2,0.2-2.4,0.3-3.6c0.1-0.7,0.1-1.3,0-2c-0.4-1.3-2.7-1.9-3.9-2.2
			c-1.8-0.4-3.6-0.7-5.4-0.8c-1.3-0.2-2.6-0.2-3.9,0.2c-1.3,0.5-2.5,1.3-3.4,2.3c-2.4,2.8-4.3,5.9-5.5,9.4c-0.8,1.9-1.4,3.8-1.9,5.8
			c-0.3,1.3,4.4,2.9,4.7,1.8c1.1-4.3,2.8-8.4,5.1-12.1c1.4-2.1,3.2-4.4,5.7-5.1c0.3-0.1-0.2,0,0.2,0h0.9c0.8,0.1,1.2,0.1,2,0.2
			s1.4,0.2,2.1,0.3l0.4,0.1c-0.5-0.1,0,0,0.1,0s0.4,0.2-0.2-0.1c0.4,0.2,0.2,0-0.7-0.6c-0.7-0.8-1-0.9-0.8-0.6c0,0,0,0.5,0,0.3
			c0,0.4,0,0.7,0,1.1c-0.1,1.1-0.1,2.1-0.2,3.2c-0.2,2.8-0.6,5.5-0.9,8.3c-0.2,2.2-0.6,4.5-1.1,6.7c-0.1,0.3-0.2,0.5-0.2,0.8
			c0,0.1-0.1,0.2-0.1,0.2c0-0.2,0.9-0.2,1.1-0.2l-0.3-0.1c0.9,0.1,0.2,0,0,0c-0.5-0.1-0.9-0.2-1.4-0.4c-4.8-1.3-9.5-2.7-14.3-4.1
			c-0.5-0.1-2.1-0.5-2,0.4S219.6,178.1,220.1,178.2z"></path><path class="st0" d="M311.9,232c0,0-17.5,0.5-16.2,19.3s15.4,19.1,24.7,14.8S333.7,234.9,311.9,232z"></path><path class="st1" d="M311.4,230.3c-5.2,0.2-10,2.3-13.7,6c-3.1,3.5-4.7,8.1-4.6,12.8c0,5.3,1.1,11.3,4.7,15.4
			c6,6.9,16.1,6.5,23.8,3.1c6.3-2.8,8.8-11.2,8.7-17.6c0-4-1.1-7.9-3.3-11.2c-2.6-3.7-6.5-6.4-10.9-7.6c-1.4-0.4-2.8-0.7-4.2-0.8
			c-1-0.1-2.5,0.3-2.6,1.5s1.4,1.8,2.4,1.9c3.7,0.4,7.1,2,9.6,4.7c2.2,2.6,3.6,5.8,3.9,9.2c0.3,3.2,0,6.5-1,9.5
			c-0.7,2.7-2.3,5.1-4.4,6.9c-0.4,0.3,0.4-0.2-0.1,0.1l-0.4,0.2c-0.3,0.2-0.6,0.3-0.9,0.4c-0.2,0.1-0.4,0.2-0.7,0.3
			c-0.5,0.2-1,0.4-1.5,0.5c-1.5,0.6-3.1,0.9-4.7,1h-0.7c-0.1,0-0.8,0-0.2,0c-0.4,0-0.9,0-1.3,0s-0.7-0.1-1.1-0.1
			c-0.7-0.1,0.5,0.1-0.2,0l-0.9-0.2c-1.4-0.3-2.8-1-3.9-2c-3.3-2.7-4.7-7.4-5.2-11.6c-0.5-4.4-0.1-9.1,2.5-12.9
			c0.5-0.7,1-1.3,1.7-1.9c0.6-0.6,1.2-1.1,1.9-1.6c0.7-0.4,1.4-0.8,2.1-1.1c0.1,0,0.6-0.3,0.1-0.1l0.5-0.2c0.4-0.1,0.7-0.3,1.1-0.4
			c0.6-0.2,1.2-0.4,1.8-0.5c0.8-0.2-0.4,0,0.4-0.1l0.6-0.1c0.5-0.1,0.9-0.1,1.4-0.1c1,0,2.2-0.8,1.9-1.9S312.4,230.3,311.4,230.3z"></path><path class="st0" d="M208.2,193.4c0,0-17.5,0.7-15.9,19.5s15.7,18.9,24.9,14.5S230,196,208.2,193.4z"></path><path class="st1" d="M208,191.5c-5.2,0.3-10.1,2.5-13.8,6.2c-3.1,3.6-4.8,8.3-4.6,13.1c0,5.4,1.3,11.3,4.9,15.5
			c5.9,6.9,16.2,6.3,23.7,2.7c6.5-3,8.8-11.6,8.6-18.1c-0.1-4-1.3-7.9-3.5-11.3c-2.5-3.6-6.3-6.2-10.6-7.3c-1.4-0.4-2.7-0.7-4.1-0.8
			c-1.1-0.1-2.6,0.4-2.9,1.6s0.9,2.1,1.9,2.2c7.4,0.4,13.3,6.1,14,13.5c0.5,3.3,0.2,6.6-0.8,9.7c-0.4,1.4-1,2.7-1.7,3.9
			c-0.3,0.6-0.7,1.1-1.1,1.7c0.3-0.4-0.2,0.2-0.3,0.3c-0.3,0.3-0.6,0.5-0.8,0.8c-0.1,0.1-0.5,0.4,0,0l-0.4,0.3l-0.6,0.4
			c-0.7,0.3-1.4,0.6-2.1,0.9c-0.9,0.3-1.7,0.6-2.6,0.8l-0.4,0.1c-0.7,0.2,0.5-0.1-0.2,0c-0.5,0.1-1,0.2-1.6,0.2s-0.8,0.1-1.2,0.1
			H207c0.6,0-0.1,0-0.2,0c-0.9,0-1.8-0.2-2.6-0.4c0.4,0.1-0.7-0.2-0.9-0.3c-0.4-0.1-0.8-0.3-1.2-0.5c-0.2-0.1-0.4-0.3-0.6-0.4
			c-0.5-0.3-0.9-0.6-1.3-0.9c-3.2-2.6-4.7-7.4-5.2-11.6s-0.2-8.9,2.2-12.5c0.5-0.7,1-1.4,1.6-2c0.3-0.3,0.6-0.6,0.9-0.8
			c0.1-0.1,0.3-0.2,0.5-0.4s-0.2,0.1,0.3-0.2c0.7-0.4,1.4-0.8,2.1-1.2l0.5-0.2c0.5-0.2-0.4,0.1,0,0s0.7-0.3,1.1-0.4
			c0.6-0.2,1.2-0.4,1.8-0.5l0.9-0.2c-0.9,0.2-0.1,0,0.1,0c0.5-0.1,0.9-0.1,1.4-0.1c1.1-0.1,2.4-0.9,2.3-2.1S209.1,191.5,208,191.5z"></path></g><path class="st1" d="M251.6,134.2l11.6,1.1l27.8,2.5l33.5,3l29,2.6c4.7,0.4,9.4,0.9,14.2,1.3h0.2c1.3,0.2,2.5-0.6,2.9-1.9
		c0.2-1.2-0.7-2.3-1.9-2.5c0,0-0.1,0-0.1,0l-11.6-1l-27.8-2.5l-33.5-3l-29-2.6c-4.7-0.4-9.4-1-14.2-1.3h-0.2
		c-1.3-0.2-2.5,0.6-2.9,1.9C249.5,133,250.3,134.1,251.6,134.2C251.5,134.2,251.6,134.2,251.6,134.2L251.6,134.2z" fill="#3563E9"></path><path class="st0" d="M408.6,134.8l0.1,20.9L409,189l0.1,7.6c0,1.9,4.7,0.3,4.7-1.4l-0.2-20.9l-0.3-33.3v-7.6
		C413.3,131.4,408.6,133.1,408.6,134.8L408.6,134.8z" fill="#FFFFFF"></path><path class="st0" d="M448.6,244.5L429.3,231l-2.8-1.9c-1.1-0.6-2.4-0.4-3.3,0.5c-0.7,0.6-1.5,2-0.5,2.7l19.3,13.5l2.8,1.9
		c1.1,0.6,2.4,0.4,3.3-0.5C448.8,246.6,449.6,245.2,448.6,244.5z" fill="#FFFFFF"></path><path class="st1" d="M309,149.8c0,8.6-0.2,17.2-0.4,25.8l-0.6,38.6c0,3.4-0.1,6.8-0.1,10.1c0,2.6,4.7,3.7,4.7,0.7
		c0-8.6,0.2-17.2,0.4-25.8c0.2-12.8,0.4-25.7,0.6-38.6c0-3.4,0.1-6.8,0.1-10.1C313.7,147.9,309,146.8,309,149.8L309,149.8z" fill="#3563E9"></path><path class="st1" d="M291.5,149.1c0,8.1-0.2,16.1-0.4,24.2c-0.2,12.3-0.4,24.6-0.6,36.9c0,3.2-0.1,6.3-0.1,9.5
		c0,1.2,4.9,1.7,4.9,0.9c0-8.1,0.2-16.1,0.4-24.2c0.2-12.3,0.4-24.6,0.6-36.9c0-3.2,0.1-6.3,0.1-9.5
		C296.4,148.9,291.5,148.4,291.5,149.1L291.5,149.1z" fill="#3563E9"></path></g><g id="character"><path class="st2" d="M278.8,305.9c0,0-33.7-52.9-78.8-47.1s-91,114.6-87.7,134.5s160.1-2.9,170.3-11.9S278.8,305.9,278.8,305.9z"></path><path class="st2" d="M281.2,306.1c-2.5-3.8-5.2-7.4-8.1-10.8c-6.5-7.9-13.9-15-22-21.2c-9.8-7.3-20.8-12.9-32.9-15
		c-10.8-1.9-22.3-1.8-32.3,3.1c-8.7,4.3-16.1,11-22.6,18.2c-7.7,8.6-14.6,17.9-20.6,27.8c-6.2,10.1-11.8,20.6-16.7,31.4
		c-4.4,9.5-8.3,19.2-11.6,29.1c-2.2,6.7-4.3,13.8-4.7,20.8c-0.1,1.7-0.2,3.7,0.7,5.1c1,1.4,2.4,2.4,3.9,3c5.6,2.5,12.2,3,18.2,3.5
		c8.7,0.6,17.5,0.7,26.2,0.3c10.1-0.4,20.2-1.1,30.2-2.1c10.5-1,21-2.2,31.4-3.7c9.6-1.3,19.3-2.8,28.9-4.6
		c7.6-1.4,15.1-2.9,22.6-4.8c2.6-0.7,5.1-1.4,7.7-2.2c1.6-0.5,3.2-1.2,4.7-2c1.8-1.1,2.7-3.2,3.3-5.2c0.9-3.8,1.3-7.6,1.3-11.5
		c0.1-10.3-1.1-20.6-2.5-30.8c-1.2-8.3-2.6-16.6-4.2-24.9C281.8,308.7,281.6,307.4,281.2,306.1c-0.1-0.9-4.9-0.4-4.9-0.4
		c1,4.7,1.8,9.4,2.6,14.1c1.7,9.9,3.2,19.8,4.1,29.8c0.5,4.9,0.8,9.8,0.8,14.8c0.1,3.9-0.3,7.7-1.1,11.5c-0.5,2-1.3,4.5-3,5.6
		c-1.4,0.8-2.8,1.5-4.3,1.9c-5.6,1.8-11.3,3.3-17,4.4c-8.4,1.8-16.8,3.3-25.3,4.6c-9.9,1.6-19.8,3-29.8,4.2
		c-10.2,1.2-20.3,2.3-30.6,3c-9.3,0.7-18.6,1.2-27.8,1.2h-3.1h-1.4h-0.7h-0.5l-2.9-0.1l-1.3-0.1h-0.6H134c-0.5,0,0.4,0,0,0
		c-0.9-0.1-1.8-0.1-2.6-0.2l-0.6,0h-0.3c0.4,0-0.2,0-0.3,0l-0.7-0.1l-1.1-0.1l-0.5-0.1h0.1l-0.4,0c-0.7-0.1-1.4-0.2-2.2-0.4
		c-0.5-0.1,0.2,0-0.1,0l-0.5-0.1l-1-0.2l-0.9-0.2h-0.2l-0.5-0.1c-1-0.3-2-0.6-3-1c-1.5-0.5-2.8-1.5-3.8-2.8c-0.9-1.4-0.8-3.4-0.7-5
		c0.2-3.1,0.6-6.1,1.3-9.1c2-8.5,4.7-16.9,8-25c4.1-10.3,8.7-20.4,13.9-30.2c5.4-10.4,11.5-20.4,18.3-30c6.2-8.7,13.1-17,21.2-24
		c6.5-5.6,14.2-10.8,22.8-12.5c11.2-2.2,22.4,0.8,32.5,5.9c9.9,5.2,19,11.9,26.8,20c5.4,5.4,10.4,11.3,14.9,17.6
		c0.6,0.9,1.3,1.8,1.9,2.8c0.3,0.5,1.9,0.5,2.5,0.5C279.6,306.3,280.4,306.2,281.2,306.1z"></path><path class="st2" d="M248.4,248.2c0,0,21.3,11.2,27.7,3.1s-8.8-10.2-8.8-10.2s22.5-13.7,0.4-24.1c0,0,23.5-8.4,12.3-26.3
		s-43.7-18.2-43.7-18.2s7-20.2-17.3-24.6s-22.2,9.6-22.2,9.6s-15.5-3-18,3.9s7.9,13.1,7.9,13.1s-1.8,21.4,19.6,24.6l12.1,31.1
		c0,0-9.8,7.1-5,18.9S245.6,261.5,248.4,248.2z"></path><path class="st2" d="M248.1,250.1c6,3.2,12.9,5.8,19.7,6.3c4.2,0.3,8.5-0.6,10.9-4.4c2.5-4,0.1-8.1-3.5-10.3
		c-2.6-1.5-5.5-2.4-8.5-2.8l2.3,4.1c6.4-3.9,13.5-11.8,9.1-19.7c-2.2-3.9-6.1-6.4-10-8.2l0.9,4.1c3.4-1.3,6.6-3.1,9.4-5.5
		c5.1-4.3,7.9-10.3,6.2-17c-2-8-8.5-14.2-15.5-18.1c-6.5-3.5-13.5-5.8-20.8-6.9c-4.2-0.8-8.4-1.2-12.7-1.3l2.6,3.8
		c2.6-7.6,0.7-16-5-21.6c-5.7-5.5-14.5-7.3-22.2-7.6c-5.2-0.2-11.3,0.6-14.5,5.1c-1.5,2-2.1,4.5-1.8,7l1.9-1.6
		c-4.5-0.9-9.7-1.2-14.1,0.1c-2.9,0.8-5.4,2.7-6,5.9c-0.8,3.7,1.3,7.4,3.7,10c1.8,2,3.9,3.7,6.3,5.1l-1.7-3
		c-0.7,8.5,2.9,17.8,9.8,22.9c3.5,2.6,7.7,4.3,12,4.9l-2.1-2.2l10.6,27.4l1.5,3.8l0.3-1.9c-7.5,5.5-9,17.3-3.1,24.5
		c6,7.4,18.1,9,26.7,6.2c4.8-1.5,8.9-4.7,10-9.8c0.5-2.1-3.5-4.9-4.1-2.2c-1.8,7.8-12.4,9.4-19.2,8.5c-2-0.2-3.9-0.8-5.8-1.5
		c-0.8-0.4-1.6-0.8-2.4-1.2c-0.2-0.1-0.4-0.2-0.6-0.4c0.3,0.2-0.1-0.1-0.2-0.2c-0.4-0.3-0.7-0.6-1.1-0.9l-0.2-0.2
		c0,0,0.3,0.3,0.1,0.1s-0.3-0.4-0.5-0.6s-0.3-0.3-0.4-0.5c-0.3-0.3,0.1,0.3-0.1-0.2c-0.1-0.2-0.2-0.4-0.3-0.5s-0.3-0.6-0.2-0.4
		s-0.2-0.5-0.3-0.7c-0.2-0.4-0.3-0.9-0.4-1.3c-0.7-2.5-0.7-5.2,0.1-7.6c0.9-3,2.8-5.6,5.2-7.4c0.5-0.5,0.6-1.3,0.3-1.9l-10.1-26
		l-1.8-4.7c-0.3-0.9-0.8-1.7-1.6-2.2c-1.1-0.5-2.2-0.8-3.3-0.9c-1-0.2-1.9-0.5-2.9-0.9c-1.4-0.5-2.7-1.2-4-2.1
		c-0.6-0.4-1.2-0.9-1.8-1.4c-0.1-0.1-0.8-0.8-0.5-0.4c-0.3-0.3-0.5-0.6-0.8-0.9s-0.5-0.6-0.7-0.9c-0.1-0.1-0.6-0.8-0.3-0.4
		c-0.4-0.6-0.8-1.2-1.1-1.9c-0.1-0.2-0.3-0.5-0.4-0.8s-0.2-0.3-0.2-0.5c-0.2-0.4,0.2,0.5,0-0.1s-0.5-1.1-0.7-1.7s-0.4-1.3-0.6-2
		c0-0.2-0.2-1-0.1-0.5c0-0.3-0.1-0.6-0.2-0.9c-0.2-1-0.3-2.1-0.4-3.2c-0.1-0.7-0.1-1.5-0.1-2.2c0,0.6,0,0,0-0.4c0-1.3-0.6-2.4-1.7-3
		l-0.3-0.2l-0.4-0.2c0.5,0.3,0.1,0-0.2-0.1c-0.9-0.7-1.9-1.4-2.7-2.2c-0.9-0.8-1.6-1.8-2.2-2.8c-0.6-0.9-0.9-2.1-0.7-3.2
		c0.7-5.1,8.1-5,12.1-4.7c1.1,0.1,2.3,0.2,3.4,0.3c0.6,0.1-0.3-0.1,0.2,0l0.4,0.1l0.4,0.1c1.1,0.2,2-0.4,1.9-1.6c0-0.1,0-0.3,0-0.4
		s0-0.3,0-0.4s-0.1,0.6,0,0.2c0-0.1,0-0.2,0-0.4c0-0.5,0.1-1,0.2-1.5c0-0.1,0.1-0.3,0.1-0.4c-0.1,0.2-0.1,0.2,0.1-0.1
		s0.2-0.6,0.4-0.9s0.3-0.6,0.5-0.9c0-0.1,0.4-0.5,0.2-0.3l0.3-0.4c0.6-0.6,1.3-1.2,2.1-1.6c0.1-0.1,0.2-0.1,0.4-0.2l0.7-0.3
		c0.6-0.2,1.1-0.4,1.7-0.6c1.3-0.3,2.6-0.6,4-0.6c3.9-0.2,7.8,0.2,11.6,1.1c1.8,0.4,3.5,0.9,5.1,1.6c1.3,0.6,2.6,1.3,3.7,2.1
		c0.5,0.4,1,0.8,1.5,1.2c-0.4-0.3,0.2,0.2,0.3,0.3c0.3,0.3,0.5,0.6,0.7,0.8c0.1,0.1,0.6,0.8,0.2,0.3c0.2,0.2,0.3,0.5,0.4,0.7
		c0.3,0.5,0.6,1,0.8,1.5c0.2,0.3-0.1-0.4,0,0l0.1,0.4c0.1,0.2,0.2,0.5,0.3,0.7c0.2,0.5,0.3,1.1,0.5,1.6c0.1,0.3-0.1-0.4,0,0
		c0,0.1,0.1,0.2,0.1,0.4s0.1,0.5,0.1,0.7c0.1,0.5,0.1,1,0.1,1.4c0,0.5,0.1,1,0.1,1.5s0-0.2,0,0.3c0,0.2,0,0.5,0,0.7
		c-0.1,0.8-0.2,1.6-0.3,2.4c-0.1,0.5-0.2,1.1-0.4,1.6c-0.1,0.4-0.3,0.9,0,0.2c-0.4,1.6,0.5,3.2,2.1,3.7c0.2,0,0.3,0.1,0.5,0.1
		c3.1,0.1,6.1,0.3,9.1,0.8c6.4,0.8,12.6,2.5,18.5,5c3.2,1.4,6.2,3.2,8.9,5.3c1.3,1,2.4,2.2,3.4,3.5c1.2,1.4,2.1,2.9,2.9,4.6
		c2.4,5.5,0.7,10.9-3.6,14.9c-2.8,2.7-6.1,4.7-9.7,6c-1.9,0.7-0.3,3.5,0.9,4.1c1.7,0.7,3.3,1.7,4.7,2.8c0.5,0.4,0.9,0.8,1.4,1.2
		c0.2,0.2,0.4,0.5,0.6,0.7l0.3,0.4c-0.1-0.2,0-0.1,0,0.1c0.5,0.7,0.8,1.5,0.8,2.4c0.1,0.4,0.1,0.7,0,1.1c-0.1,0.5-0.2,0.9-0.3,1.4
		c-1.1,3.5-4.1,6.3-7,8.6c-0.7,0.6-1.5,1.1-2.3,1.6c-0.8,0.5-0.4,1.9-0.1,2.5c0.5,0.9,1.4,1.5,2.4,1.6c-1-0.1-0.2,0,0,0
		c0.5,0.1,1,0.2,1.4,0.3s1.2,0.3,1.8,0.5c0.4,0.1,0.7,0.2,1.1,0.4c0,0,0.6,0.2,0.3,0.1l0.5,0.2c0.4,0.2,0.7,0.3,1,0.5
		c0.2,0.1,0.9,0.6,0.5,0.3c0.3,0.2,0.6,0.4,0.9,0.7c-0.1-0.1-0.5-0.3-0.1-0.1c0.1,0.1,0.1,0.2,0.2,0.3c-0.2-0.3-0.2-0.4-0.1-0.1
		c0,0,0.6,0.6,0,0c0.1,0.1,0.1,0.5,0.1,0.2s0,0.2,0,0.2c0,0.6,0.1-0.4,0,0.2c-0.1,0.8-0.4,1.5-0.9,2.2c-2,2.9-5.6,3.1-8.8,2.9
		c-3.8-0.5-7.5-1.4-11-2.9c-2.1-0.8-4.2-1.8-6.2-2.8c-0.9-0.5-2.1-0.3-2.4,0.8C246.3,248.3,247,249.6,248.1,250.1z"></path><path class="st0" d="M162.1,240.1c-7-21.6,25.3-61.6,25.3-61.6c14.9,8.6,46.1,1.2,46.1,1.2c-12.8,12.4-8.1,44.7-8.1,44.7
		c11.1-11.2,25.4-5.7,19.5,7.1s-19.1,9.5-19.1,9.5s-8.5,44.4-11.7,49.2s-35.9,0.2-34.8-28.5C179.3,261.7,168.2,259,162.1,240.1z"></path><path class="st2" d="M164.6,239.7c-1.4-4.6-1.1-9.6-0.1-14.2c1.3-5.5,3.2-10.8,5.7-15.9c4.4-9.1,9.6-17.8,15.7-25.9
		c1.3-1.7,2.5-3.5,3.9-5.1l-4.3,0.7c6.9,3.9,15.5,4.5,23.3,4.4c7.1-0.1,14.1-0.9,21-2.2c1.6-0.3,3.1-0.6,4.7-1l-3-1.1
		c-5.5,5.4-7.6,13.4-8.5,20.8c-0.8,6.7-0.9,13.5-0.2,20.3c0.1,1.4,0.3,2.8,0.5,4.2c0.1,0.7,1.5,0.8,2,0.7c1,0,1.9-0.3,2.7-0.9
		c1.7-1.7,3.6-3.2,5.8-4.2c0.7-0.3,1.4-0.6,2.1-0.8c0.3-0.1,0.6-0.1,0.9-0.1c0,0,0.5-0.1,0.2,0c0.4,0,0.8,0,1.2,0
		c2.9,0.2,5.3,2.4,5.9,5.2c0.8,4.1-1.6,8.8-4.4,11.7c-1.2,1.2-2.5,2.2-4.1,2.9c-1.2,0.6-2.4,0.9-3.7,1c0.6-0.1-0.6,0-0.7,0
		c-0.3,0-0.7,0-1,0s0.6,0,0,0h-0.5l-0.8-0.1l-0.6-0.1c-0.6-0.1,0.4,0.1,0,0l-0.4-0.1c-0.9-0.2-3.8-0.1-4.1,1.1
		c-0.9,4.8-1.9,9.6-2.9,14.3c-1.7,8.4-3.5,16.8-5.6,25.1c-0.7,2.9-1.5,5.7-2.5,8.4c-0.1,0.4-0.3,0.8-0.5,1.1s-0.2,0.3-0.1,0.1
		c-0.1,0.2-0.4,0.4,0,0.1c-0.1,0.1-0.3,0.2-0.4,0.3c0.5-0.3,0-0.1-0.2,0c0.6-0.3,0.2-0.1-0.1,0c-0.9,0.1-1.6,0.8-1.5,1.7
		c0.1,0.9,0.8,1.6,1.7,1.5c0.9-0.1,1.6-0.8,1.5-1.7c-0.1-0.8-0.7-1.4-1.5-1.5l-0.4,0.1c-0.2,0-0.9,0.1-0.5,0.1s0,0-0.1,0
		s-0.4,0-0.6,0h-0.9c-0.1,0,0.5,0,0,0h-0.6c-0.7,0-1.5-0.1-2.2-0.2c-0.1,0-0.5-0.1-0.2,0l-0.5-0.1l-1.2-0.2
		c-3.4-0.8-6.6-2.1-9.6-3.9c-7.3-4.5-12-12.3-12.6-20.9c-0.1-1.3-0.1-2.7-0.1-4c0-0.4-0.6-0.6-0.8-0.6l-0.3-0.1l-0.1,0l-0.3-0.1
		c-1-0.4-2-1-2.9-1.6c-3.4-2.4-6.2-5.4-8.2-9c-1.9-3.2-3.4-6.6-4.5-10.1c-0.5-1.6-5.4-0.5-4.9,0.8c2.7,8.4,7.7,17.7,16.2,21.5
		c0.6,0.3,1.2,0.5,1.9,0.7l-0.8-0.6c-0.3,9.5,3.4,18.4,11.1,24.2c5.9,4.4,13,6.8,20.4,6.7c2.4-0.1,5.8-0.4,7.6-2.3
		c1.5-1.5,1.9-4.2,2.5-6.1c2.4-8.2,4.1-16.7,5.9-25.1c0.8-3.9,1.6-7.9,2.4-11.9c0.4-2.1,1-4.3,1.3-6.4c0-0.1,0-0.2,0.1-0.3l-4.1,1.1
		c6.6,1.6,13.6-0.1,18.8-4.4c3.5-3.2,6.5-8.6,5.8-13.4c-0.6-4.2-4.4-6.5-8.4-6.9c-6.4-0.7-12.7,2.5-17.1,6.9l4.7-0.2
		c-0.5-3.8-0.8-7.7-0.8-11.5c-0.1-7.4,0.3-15,2.6-22.1c1.1-3.9,3.2-7.5,6-10.5c0.5-0.5,0.1-0.9-0.4-1.1c-0.9-0.3-1.8-0.3-2.7,0
		l-0.9,0.2c-0.5,0.1,0.6-0.1,0.2,0l-0.5,0.1l-1.4,0.3c-2.6,0.5-5.3,0.9-7.9,1.3c-7.2,1.1-14.5,1.2-21.7,0.4
		c-3.9-0.4-7.7-1.6-11.1-3.4c-1-0.6-3.5-0.3-4.3,0.7c-3.8,4.8-7.4,9.9-10.7,15.1c-6,9.4-11.7,19.6-14.5,30.6
		c-1.3,5.3-2,11.1-0.4,16.5C160.1,242,165,241,164.6,239.7z"></path><path class="st0" d="M175.1,228.5c0,0-31.9-11.3-29.2-29.5s28-14.4,37.9,7.2"></path><path class="st2" d="M177.3,227.4c-3.2-1.2-6.4-2.6-9.4-4.2c-5.7-3-11.3-6.7-15.4-11.7s-5.9-11.8-2.8-18c0.6-1.2,1.4-2.3,2.4-3.2
		c0.4-0.4,0.8-0.7,1.2-0.9c0.1,0,0.7-0.4,0.2-0.1l0.4-0.2c0.6-0.3-0.3,0.1,0.1,0c0.1-0.1,0.9-0.3,0.3-0.1c1.1-0.3,2.3-0.5,3.4-0.4
		c1.5,0,3.1,0.3,4.6,0.7c8.8,2.5,15.5,9.8,19.2,17.9c0.5,1.1,5.1-0.8,4.7-1.8c-3.6-7.7-9.8-14.7-18-17.7c-6.7-2.5-14.9-1.7-20.3,3.3
		c-5,4.7-5.6,12.6-2.6,18.5c3.2,6.2,9.3,10.7,15.2,14.1c3.9,2.4,8.1,4.3,12.4,5.9c1.1,0.2,2.2,0,3.1-0.6
		C176.1,228.8,178,227.7,177.3,227.4L177.3,227.4z"></path><path class="st0" d="M197.5,240.3c0,0,10.2-0.2,13.1-9.5"></path><path class="st2" d="M198.5,242.4c1.4-0.1,2.7-0.3,4.1-0.7c2.7-0.7,5.1-2.2,7-4.2c1.4-1.5,2.4-3.3,3-5.3c0.4-1.1-0.6-2.4-1.4-2.9
		c-0.7-0.4-2.2-1-2.6,0.2c-0.3,0.8-0.6,1.6-1,2.4c-0.1,0.2-0.2,0.4-0.3,0.6c0.1-0.2-0.1,0.2-0.1,0.2c-0.2,0.3-0.5,0.7-0.7,1
		c-0.5,0.6-1,1.1-1.5,1.5c-0.3,0.2-0.5,0.4-0.8,0.6s0.2-0.1-0.1,0.1l-0.5,0.3c-1,0.6-2.1,1.1-3.3,1.4l-0.8,0.2l-0.3,0.1h-0.2
		l-0.4,0.1c-0.2,0-0.4,0.1-0.6,0.1c-0.4,0.1-0.8,0.1-1.3,0.1c-1.2,0-1.3,1.4-0.9,2.2C196.1,241.5,197.2,242.3,198.5,242.4
		L198.5,242.4z"></path><path class="st2" d="M194.5,200.4c0,0-0.3,2.7-2.9,2.2s-2-3.8,0.4-4c1.1-0.3,2.2,0.4,2.4,1.4C194.5,200.1,194.5,200.3,194.5,200.4z
		"></path><path class="st2" d="M183.7,195.2c0,0-0.3,2.8-2.9,2.2s-2-3.7,0.4-4c1.1-0.3,2.2,0.4,2.4,1.4C183.7,195,183.7,195.1,183.7,195.2z"></path><path class="st2" d="M211.1,285.9c-2.7,0.6-5.5,1-8.3,1.5l-18.8,3.4l-42,7.5c-3.4,0.6-6.8,1.1-10.1,1.8c-2.6,0.6,0.3,4.5,2.2,4
		c2.7-0.6,5.5-1,8.3-1.5l18.8-3.4c14-2.5,28-5,42.1-7.5c3.4-0.6,6.8-1.1,10.1-1.8C216,289.3,213.1,285.5,211.1,285.9L211.1,285.9z"></path><path class="st1" d="M217.4,280.5c0,0,1.3,86.7-2.6,91.9s-81.6,31.4-85.1,30.6s3.1-107.1,3.1-107.1L217.4,280.5z"></path><path class="st1" d="M215,280.2c0.1,6.6,0.2,13.2,0.2,19.8c0.1,13.2,0.1,26.4-0.2,39.6c-0.1,6-0.3,12-0.6,18
		c-0.1,2.3-0.3,4.6-0.5,7c0,0.4-0.1,0.9-0.1,1.3s0.1-0.4,0,0.1v0.3c0,0.2-0.1,0.5-0.1,0.8c-0.1,0.7-0.2,1.5-0.4,2.2
		c-0.1,0.5-0.2,1.1-0.4,1.6c-0.1,0.2-0.1,0.3-0.2,0.5c-0.1,0.3,0.2-0.3,0.1-0.2c-0.1,0.1-0.1,0.1-0.1,0.2c0,0.1-0.8,0.6,0,0.1
		c-0.2,0.1-0.4,0.3-0.6,0.4c-0.5,0.4-1.1,0.6-1.6,1c-3.7,2-7.6,3.7-11.6,5.1c-12.3,5-24.8,9.4-37.4,13.6c-9.9,3.4-19.9,6.9-30,9.4
		c-0.6,0.1-1.1,0.2-1.7,0.4s0.6-0.1,0.2,0c-0.1,0-0.2,0-0.3,0s-0.4,0-0.4,0c0-0.3,1.9,0.5,2.1,0.7c0,0,0.7,0.9,0.5,0.6
		c-0.1-0.1-0.1-0.2-0.1-0.4c0.2,0.5,0,0.2,0-0.2c-0.4-2.9-0.5-5.9-0.5-8.9c-0.1-11.3,0.4-22.6,0.8-33.9c0.5-12.8,1.2-25.7,1.9-38.5
		c0.4-7.8,0.9-15.6,1.4-23.3c0-0.4,0-0.8,0.1-1.1l-1.1,1.4l8.4-1.5l20.3-3.7l24.4-4.4l21.2-3.9c3.4-0.6,7-1,10.3-1.9h0.1
		c0.7-0.2,1.2-0.9,1.1-1.6c-0.1-0.2-0.2-0.5-0.3-0.6c-0.8-1-2.1-1.4-3.4-1.1l-8.4,1.5l-20.4,3.6l-24.4,4.4l-21.2,3.9
		c-3.4,0.6-7,1-10.3,1.9h-0.1c-0.7,0.1-1.1,0.7-1.1,1.4c-0.4,5.7-0.7,11.5-1,17.2c-0.7,12.4-1.3,24.9-1.9,37.3
		c-0.6,12.3-1.1,24.7-1.2,37c0,3.9-0.1,7.8,0.2,11.7c0.2,2.5,0.3,5.6,3.5,5.9c1.2,0,2.4-0.1,3.6-0.5c1.7-0.4,3.4-0.9,5-1.3
		c5.2-1.5,10.3-3.1,15.4-4.8c13.1-4.3,26.1-8.8,39-13.7c5.3-2,10.7-4.1,15.9-6.4c1.7-0.8,3.4-1.5,5-2.4c1.1-0.5,2.1-1.2,3-2
		c0.6-0.8,0.9-1.7,1.1-2.7c0.3-1.7,0.6-3.4,0.7-5.1c0.5-5.1,0.7-10.2,0.9-15.4c0.5-13.5,0.5-27,0.5-40.4c0-9.3-0.1-18.6-0.2-27.9
		c0-0.5,0-1,0-1.4C219.9,278.6,215,277.7,215,280.2z"></path><path class="st1" d="M35.7,275.3l97,20.6L129.7,403c0,0-100.8-27.4-100.6-35.3S35.7,275.3,35.7,275.3z"></path><path class="st1" d="M36.7,277.3l9.7,2.1l23.1,4.9l28.1,6l24.2,5.1c3.9,0.8,7.9,1.9,11.8,2.5h0.2l-2.8-3.3l-0.3,10.7l-0.7,25.5
		l-0.9,30.9l-0.8,26.8l-0.2,8.8l-0.1,2.8c-0.1,0.5-0.1,1,0,1.4c0,0.1,0,0.1,0,0.2l0.9-0.8c-2.8-0.7-5.5-1.5-8.2-2.3
		c-6.8-1.9-13.5-3.8-20.3-5.8c-8.7-2.5-17.3-5.2-25.9-7.9c-8.2-2.6-16.5-5.3-24.6-8.3c-5.9-2-11.6-4.4-17.1-7.3
		c-0.6-0.3,0.1,0.1-0.3-0.1l-0.7-0.4l-1-0.7c-0.3-0.2,0.5,0.4,0,0l-0.4-0.4c0.1,0,0.5,0.7,0.1,0.1c-0.1-0.1,0.5,0.7,0.2,0.3
		c-0.1-0.1-0.1-0.3,0,0.1c0,0.1,0.2,0.4,0.2,0.4c0-0.2,0,0.5,0,0.1c0-0.3,0-0.5,0-0.8c0-0.9,0.1-1.7,0.1-2.6
		c0.4-6.6,0.9-13.3,1.3-19.9c0.7-9.3,1.3-18.6,2-27.9c0.7-8.7,1.3-17.4,1.9-26.1c0.4-4.8,0.7-9.7,1.1-14.5v-0.7
		c0.1-1.5-3.5-4.7-3.7-2.5c-0.3,3.5-0.5,7-0.8,10.6c-0.6,8.2-1.2,16.5-1.8,24.7c-0.7,9.5-1.4,19.1-2.1,28.7
		c-0.5,7.5-1.1,15-1.5,22.5c-0.1,1.9-0.3,3.8-0.3,5.8s1.5,3.8,3,5c4.1,3.3,9.6,5.3,14.5,7.2c7.8,3.1,15.8,5.8,23.8,8.4
		c8.8,2.9,17.8,5.6,26.7,8.3c7.6,2.3,15.1,4.5,22.7,6.6c4,1.1,8,2.3,12.1,3.4l0.6,0.1c0.6,0.1,0.9-0.2,0.9-0.8l0.3-10.7l0.7-25.5
		l0.9-30.9l0.8-26.8c0.1-4.3,0.5-8.7,0.4-13c0-0.1,0-0.1,0-0.2c-0.2-1.6-1.3-2.8-2.8-3.3l-9.7-2.1l-23-4.9l-28.1-6l-24.1-5.1
		c-3.9-0.8-7.9-1.9-11.8-2.5c-0.1,0-0.1,0-0.2,0c-1.1-0.2-0.9,1.1-0.6,1.7C34.6,276.1,35.5,276.9,36.7,277.3z"></path><path class="st1" d="M217.4,280.5c0,0-87.9-25.7-90-25.1s-91.7,19.9-91.7,19.9l97,20.6L217.4,280.5z"></path><path class="st1" d="M217.8,278.7l-9.2-2.7l-21.2-6.1c-8.6-2.5-17.2-4.9-25.7-7.3c-7.5-2.1-15-4.2-22.6-6.3c-2.6-0.7-5.1-1.4-7.7-2
		c-1.3-0.4-2.6-0.6-3.9-0.8c-1,0-2.1,0.1-3.1,0.4l-6,1.3l-20.9,4.5l-26.3,5.7l-23.4,5.1L35,273.2l-0.6,0.1c-0.7,0.2-1.1,1-0.9,1.7
		c0,0.1,0.1,0.2,0.1,0.3c0.5,0.9,1.3,1.6,2.4,1.8l8.6,1.8l20.8,4.4l26.1,5.6l24.2,5.2l15.2,3.2c1,0.3,2.1,0.5,3.2,0.4l2.7-0.5
		l17.5-3.2l25.6-4.7l24.5-4.5l13.8-2.5l0.6-0.1c1.2-0.2,1-1.7,0.5-2.4c-0.7-1-2-1.5-3.2-1.3l-8.4,1.5l-20.2,3.7l-24.4,4.4l-21.2,3.9
		c-3.4,0.6-6.9,1-10.3,1.9h-0.1h1.1l-9.7-2.1L99.7,287l-28.1-6l-24.2-5.1l-8-1.7c-1.2-0.3-2.5-0.6-3.8-0.8h-0.2l1.7,3.8l8.8-2
		l21.4-4.6l26.1-5.6l23-5c4-0.9,8-1.6,12-2.6c0.1,0,0.2,0,0.3-0.1c-0.1,0.1-0.7,0-0.8,0c0.5,0.1,1,0.2,1.5,0.3c2,0.4,4,1,6,1.5
		c6.9,1.8,13.7,3.7,20.5,5.6c8.5,2.4,17,4.8,25.6,7.3c7.6,2.2,15.3,4.4,22.9,6.6l8.1,2.3l2.8,0.8l1,0.3c0.4,0.1,1,0.3,0.2,0.1
		l0.6,0.2c0.9,0.3,2.3,0.4,2.6-0.8S218.7,279,217.8,278.7z"></path><path class="st0" d="M120.4,325.9c-3.3-1.2-6.3-3.2-8.7-5.8c-1.1-1-1.8-2.4-2-3.9c0-0.9,0.4-1.2,0.8-1.9c-1,1.7-3.1,0-1.5,0.7
		c0.5,0.2,0.9,0.5,1.2,0.9c1.8,2,2,5.7,1.6,8.2c-0.1,1.3-0.6,2.5-1.4,3.5c-0.2,0.2-0.4,0.4-0.7,0.6l-0.3,0.1
		c1.3-0.2,1.6-0.3,0.7-0.3c-0.8-0.3-1.7-0.5-2.5-0.9c-6.5-3.3-7.8-11.2-7.1-17.7c0-0.8,0.2-1.5,0.5-2.2c0.1-0.3,0.4-0.5,0.5-0.8
		l-2.7,0.5c0.3,0.1,0.5,0.3,0.7,0.6c1.1,1.3,0.7,3.6,0.5,5.2c-0.4,3.3-1.2,6.8-3.8,9.1c-0.7,0.5-1.4,1-2.2,1.4
		c0-0.4,1.3,0.2,0.4-0.2c-0.4-0.2-1-0.2-1.4-0.4c-1.5-0.8-2.7-2.1-3.4-3.6c-0.7-1.5-1.1-3.1-1.2-4.8c0-0.8,0.1-1.6,0.3-2.4
		c0.1-0.4,0.3-0.7,0.5-1c0.1-0.2,0.3-0.3,0.4-0.5c0.4-0.2,0.4-0.3,0.1-0.1l-2.5,0.5c-0.5,0,0,1,0.1,1.2c0.1,0.3,0.1,0.7,0.1,1
		c0,0.8-0.1,1.6-0.3,2.4c-0.5,1.5-1.3,2.9-2.5,3.9c-0.6,0.5-1.2,0.9-1.9,1.2c-0.4,0.1,0.5,0-0.2,0c-0.4,0-0.8,0-1.2-0.1
		c-1.9-0.3-3.7-0.9-5.3-2c-0.7-0.5-2.3,0-3.1,0.2c-0.2,0.1-2.1,0.6-1.6,1c2.4,1.6,5.3,2.4,8.2,2.3c3.1,0,6.2-0.8,8.8-2.4
		c2-1.3,3.4-3.4,3.9-5.7c0.3-1.2,0.2-2.5-0.3-3.7c-0.8-1.3-3.1-0.7-4.2-0.4c-2.5,0.4-4.3,2.6-4.2,5.1c0,2.5,0.8,4.9,2.4,6.9
		c1.6,2,4.2,3,6.8,2.7c2.9-0.1,5.8-1.2,8.1-3c2-1.9,3.4-4.5,3.8-7.3c0.3-1.5,0.5-2.9,0.5-4.4c0.1-1.4-0.1-2.9-1.3-3.7
		s-3.1-0.5-4.4-0.1c-1.3,0.1-2.5,0.9-3.2,2c-0.4,1.1-0.7,2.2-0.7,3.4c-0.2,1.7-0.2,3.5,0,5.2c0.6,5.4,3.6,10.9,9,12.5
		c3.1,0.9,6.4,0.6,9.3-1c1.8-1.3,2.9-3.3,2.9-5.5c0.2-2.6,0-6.1-2-7.9c-1.1-0.9-2.4-1.3-3.8-1.1c-1.8,0-3.5,0.5-5,1.4
		c-2.7,1.9-0.2,5.3,1.5,7c2.3,2.3,5.1,4.2,8.2,5.3c1,0.2,2.1,0.1,3.1-0.2C118.9,326.8,120.8,326.1,120.4,325.9L120.4,325.9z"></path><path class="st0" d="M216.7,279.5l-8.6,1.6l-20.7,3.9l-25.2,4.7l-21.7,4.1c-3.5,0.7-7.1,1.2-10.6,2c0,0-0.1,0-0.1,0l1.9-0.1
		l-9.4-2.1l-22.6-5.1l-27.4-6.2l-23.7-5.4c-3.8-0.9-7.6-1.9-11.5-2.6h-0.2c-1.2-0.3-2.4,0-3.4,0.7c-0.8,0.9,0.3,1.2,1,1.4l8.7,2
		l21.2,4.8l26.1,5.9l23.7,5.4l13.9,3.2c2.4,0.5,4.7-0.1,7-0.5l18.6-3.5l26-4.9l24.2-4.6l13.6-2.5l0.6-0.1c0.6-0.1,2.1-0.6,1.6-1.5
		S217.4,279.4,216.7,279.5L216.7,279.5z"></path><path class="st0" d="M131.6,404.3l0.1-10.5l0.2-25.4l0.2-30.7l0.2-26.5c0-4.3,0.2-8.6,0.1-12.9V298c-0.1-1.2-0.7-2.4-1.8-3
		c-0.6-0.4-2-0.7-2,0.5l-0.1,10.5l-0.2,25.4l-0.2,30.7l-0.2,26.5c0,4.3-0.2,8.6-0.1,12.9c0,0.1,0,0.1,0,0.2c0.1,1.2,0.7,2.3,1.8,3
		C130.2,405.1,131.6,405.4,131.6,404.3L131.6,404.3z"></path><polygon class="st2" points="184.2,341.5 185,286.4 92,263.1 66.2,268.7 160,290.9 161.3,346.5 	"></polygon><path class="st2" d="M186.7,341.1l0.3-18.6l0.4-29.7l0.1-6.9c-0.1-0.8-0.6-1.4-1.4-1.6l-14.5-3.6l-32-8l-31.9-8
		c-4.9-1.2-9.7-2.6-14.6-3.6c-1.3-0.3-2.9,0.3-4.2,0.6l-7.4,1.6L67,266.4l-0.9,0.2c-1.1,0.2-1.9,1-2.2,2c-0.2,1,0.4,1.9,1.4,2.2
		l9.3,2.2l22.4,5.3l27.1,6.4l23.4,5.5l7.7,1.8c1.2,0.4,2.4,0.7,3.7,0.9c0.1,0,0.1,0,0.2,0l-1.4-1.6l0.4,18.8l0.7,29.9l0.2,6.9
		c0.2,1.2,1.3,1.9,2.4,1.8c0.1,0,0.1,0,0.2,0l20.1-4.4l2.8-0.6C185.7,343.4,186.7,342.4,186.7,341.1c-0.2-1.2-1.3-2-2.4-1.8
		c-0.1,0-0.1,0-0.2,0l-20.1,4.4l-2.8,0.6l2.6,1.7l-0.4-18.8l-0.7-29.9l-0.2-6.9c-0.1-0.8-0.6-1.4-1.4-1.6l-9.3-2.2l-22.4-5.3
		l-27.1-6.4l-23.4-5.6l-7.7-1.8c-1.2-0.3-2.4-0.7-3.7-0.9c-0.1,0-0.1,0-0.2,0l-0.9,4.2l22.6-4.9l3.2-0.7l-1.2-0.1l9.3,2.3l22.2,5.6
		l26.8,6.7l23.3,5.8l7.7,1.9c1.2,0.4,2.4,0.7,3.6,0.9l0.2,0l-1.4-1.6l-0.3,18.6l-0.4,29.7l-0.1,6.9c0,1.3,1.5,1.9,2.6,1.7
		C185.7,343.5,186.6,342.4,186.7,341.1z"></path><path class="st0" d="M278.8,305.9c0,0,36.5,53.1,8.5,80.3s-136.9,14-136.9,14l21.6-9c0,0-50,21.7-46,11.6s38.6-31.3,38.6-31.3
		s-25.9-12.1-16-18.7c6.5-4.4,33.6,5,33.6,5s18.8-13.8,36.1,2.1l30.3-9.9C248.6,350,264.2,306,278.8,305.9z"></path><path class="st2" d="M276.3,305.9c2.1,3.2,4.1,6.4,5.9,9.8c4.1,7.5,7.5,15.3,10,23.5c2.7,9,4.2,18.7,2.5,28
		c-1.5,8.7-6.3,16.5-13.4,21.7c-5.9,4.2-13,6.7-20,8.5c-8.5,2.1-17.2,3.5-26,4.2c-9.3,0.8-18.8,1.2-28,1.2c-8.8,0-17.6-0.2-26.4-0.7
		c-1.9-0.1-3.9-0.2-5.9-0.3l-0.6,0h-0.2l-1.4-0.1l-2.6-0.2c-3-0.2-6.1-0.5-9.1-0.7c-3.4-0.3-6.7-0.7-10-1l-0.4-0.1l2,1.3l18.9-7.9
		l2.7-1.1l-4.2-1.1c-4.2,1.8-8.5,3.6-12.9,5.3c-7.4,3.1-15.1,5.7-22.9,7.8c-1.5,0.4-3.1,0.7-4.6,0.9l-0.4,0H129l-0.9,0.1
		c-0.4,0,0.6,0,0.1,0h-0.3c-0.5,0,0.6,0,0.2,0s0.3,0,0.2,0c-0.5-0.1,0.5,0.1,0.2,0s0.5,0.2,0.1,0s0.2,0.1,0.1,0.1
		c-0.1,0-0.2-0.1-0.2-0.1c0.1,0.2-0.2-0.4-0.2-0.4c0-1,0.3-1.9,0.9-2.7c1.9-3.3,5-6,7.9-8.5c3.8-3.3,7.8-6.4,11.9-9.3
		c3.7-2.7,7.5-5.2,11.3-7.7c2.1-1.4,4.4-2.6,6.4-4.1l0.3-0.2c0.5-0.3-0.4-0.7-0.6-0.8L166,371c-0.4-0.2,0.1,0.1,0,0l-0.7-0.3
		c-1.1-0.6-2.2-1.1-3.2-1.7c-3-1.6-5.9-3.5-8.6-5.7c-1.9-1.5-4.5-3.8-4.6-6.5c0-1.2,0.5-2.3,1.4-3c0.9-0.8,2.1-1.2,3.3-1.3
		c0.2,0,0.4,0,0.7,0h0.6c-0.5,0,0.2,0,0.3,0c0.8,0,1.6,0.1,2.4,0.1c1.9,0.2,3.7,0.5,5.6,0.9c3.8,0.8,7.6,1.8,11.4,2.9
		c1.4,0.4,2.7,0.8,4.1,1.3l0.8,0.2h0.1l0.8,0.3c1.4,0.5,3.2,0.8,4.5,0c0.8-0.5,1.5-1,2.3-1.4c3.7-2,7.7-3.2,11.9-3.6
		c6.3-0.4,12.2,2.6,16.8,6.8c1.3,0.9,3,1.1,4.5,0.6l14.2-4.7l10.3-3.4c1.9-0.5,3.8-1.1,5.7-1.9c0.8-0.4,1-1.5,1.2-2.3
		c0.9-2.3,1.8-4.6,2.8-6.9c2.9-7.2,6.4-14.1,10.5-20.7c2.1-3.5,4.6-6.8,7.5-9.7c1.2-1.2,2.5-2.3,4-3.1c0.6-0.3,1.2-0.6,1.9-0.9
		c0.2-0.1,0.5-0.1,0.7-0.2l0.5-0.1c-0.7,0.1,0.8,0-0.2,0c0.4,0,2.1,0.1,1.8-0.7s-2.5-0.8-3-0.8c-8.5,0.1-14,8.2-18,14.7
		c-4.7,7.7-8.6,15.8-11.9,24.1c-0.8,1.9-1.5,3.7-2.2,5.6l0.4-0.3l-26.6,8.7l-3.7,1.2l4.5,0.6c-6.1-5.5-14-8.5-22.2-8.4
		c-5.5,0.1-10.9,1.5-15.7,4c-1,0.5-2,1.1-3,1.8l4.2,0.1c-3.4-1.2-6.9-2.2-10.4-3.2c-6.2-1.7-12.6-3.2-19-3.4c-2.4-0.1-5.2-0.1-7.5,1
		c-1.6,0.8-3.2,2.3-3.3,4.2s1.3,3.7,2.6,5c1.8,1.9,3.8,3.5,6,4.9c3.3,2.2,6.8,4.2,10.4,5.9l-0.6-0.8c-5.4,3.3-10.8,6.9-16,10.6
		c-4.2,3-8.4,6.1-12.4,9.5c-3.2,2.7-6.6,5.6-8.9,9.1c-1,1.5-2.5,3.8-0.4,5.1c2.7,1.6,6.7,1.1,9.7,0.6c8-1.4,15.8-4.4,23.4-7.3
		c5.5-2.1,11-4.2,16.4-6.6l0.3-0.1c1-0.4-0.4-0.9-0.8-1.1c-1.1-0.4-2.3-0.4-3.4-0.1l-19,7.9l-2.7,1.1c-1.4,0.6,1.7,1.2,2,1.3
		c2.4,0.3,4.8,0.5,7.1,0.8c6.3,0.6,12.6,1.1,18.9,1.5c8.6,0.5,17.2,0.9,25.8,1c9.7,0.1,19.3,0,29-0.7c9.3-0.5,18.6-1.7,27.8-3.5
		c7.8-1.6,15.6-3.8,22.6-7.6c7.3-3.8,12.9-10,16-17.6c3.6-8.9,3.2-18.9,1.3-28.1c-2-8.9-5.1-17.6-9.2-25.7
		c-2.4-4.9-5.1-9.7-8.1-14.3l-0.4-0.7c-0.5-0.8-2.2-0.8-3-0.8C277.9,305.2,275.9,305.2,276.3,305.9z"></path><path class="st0" d="M121.9,384.4c1.2-1.7,1.3-4,1.3-6.1c0-0.6-0.6-1-1.2-1.2c-0.7-0.2-1.5-0.4-2.2-0.5c-1.1-0.1-2.2-0.2-3.3-0.2
		c-0.6,0-1.5,0.4-1.6,1.1c-0.1,1.9,0,3.8,0.5,5.6c0.2,1,0.7,1.9,1.5,2.5c0.1,1.5,0.1,3,0.2,4.5c-0.4,0.1-0.8,0.2-1.1,0.4
		c-0.4,0.2-0.9,0.7-0.6,1.2c0.2,0.3,0.6,0.6,0.9,0.6c1.2,0.4,2.5,0.6,3.7,0.8h0.3h0.1c0.6-0.1,1.3-0.4,1.2-1.1
		c-0.1-0.4-0.3-0.7-0.6-0.9c-0.3-0.3-0.7-0.6-1.1-0.8v-4.6C120.8,385.5,121.5,385,121.9,384.4z"></path><path class="st0" d="M111.3,381.1c-1.1-2.1-2.6-4-4.3-5.6c-1.2-1.1-2.8-1.8-4.5-1.8c-1.9,0.1-3.7,0.7-5.2,1.8c-1,0.6-2,1.4-2.9,2.2
		c-0.7,0.7,0.1,1.7,0.9,1.9l6,1.2c-0.1,0.8-0.1,1.6-0.2,2.4c-0.1,1.2-0.1,2.4,0,3.5c-0.1,1.3,0.9,2.5,2.2,2.7
		c1.8,0.2,3.4-1.1,3.7-2.8c0-0.5-0.3-1-0.8-1.2l-0.7-0.2c-0.3-0.1-0.7-0.1-1,0c0-0.2,0-0.4,0-0.6c0-1,0.1-2,0.2-3l3.5,0.7l1.8,0.4
		h0.2c0.6,0.1,1.1-0.3,1.2-0.9C111.4,381.5,111.4,381.3,111.3,381.1L111.3,381.1z"></path><path class="st0" d="M90.8,382.3l-1.1-0.3l-0.1-2l-0.1-1.6c0-0.2,0-0.3,0-0.5l0,0h0.1c0.2,0.1,0.4,0.1,0.6,0.1
		c0.3,0.1,0.5,0.1,0.8,0c0.4-0.1-0.1-0.8-0.2-1c-0.6-1.2-1.4-2.4-2.4-3.4c-0.3-0.3-0.6-0.6-1-0.7c-0.6-0.2-1.2,0.6-1.6,1.1
		c-0.3,0.4-0.6,0.9-0.9,1.4c-0.1,0.2,0.6,0.9,0.7,1s0.3,0.3,0.4,0.5c-0.1,1.1-0.1,2.3-0.2,3.4c0,0.3,0.4,0.7,0.6,0.9l0,0l-5-1.1
		c0.1-0.1,0.1-0.2,0.1-0.4c0-0.1,0-0.2,0-0.3l-0.1-3.4c0.3,0,0.5,0,0.8-0.1c0.6-0.2,1-0.9,0.8-1.5c0-0.1,0-0.1-0.1-0.2
		c-0.1-0.3-0.3-0.5-0.4-0.8c-0.4-0.9-1-1.7-1.8-2.4c-0.5-0.4-1.2-0.4-1.8-0.2c-0.5,0.2-1,0.5-1.3,0.9c-0.6,0.6-1.1,1.3-1.5,2.1
		c-0.4,0.8,0.4,1.5,1.1,1.6l-0.2,3.6c0,0,0,0.1,0,0.1l-1.6-0.3c-0.3-0.1-1,0-0.9,0.5c0,0.9,0,1.8,0,2.7c0,0.7,0.7,1.2,1.4,1.3
		l13.5,3.2l1.9,0.5c0.1,0,0.3,0,0.4,0c0.3,0,0.5-0.2,0.5-0.5c0-1-0.1-2-0.1-3.1C92,382.9,91.5,382.4,90.8,382.3z"></path><path class="st1" d="M224.6,102.6c-25-13.5-55.3-13.1-79.8,1.2c-8.3,4.8-16.1,11.3-21.4,19.4s-7.5,18-3,26.9
		c2.3,4.4,5.9,8,10.3,10.3c3.5,1.7,9.6,2.5,11.3-2c1.5-4-2.1-8.3-5.1-10.5c-1.8-1.4-4-2.2-6.3-2.2c-2.5,0.2-5,1-7.1,2.3
		c-4.5,2.8-8.4,6.9-11.9,10.8c-3.6,4-6.9,8.2-9.9,12.7c-6,9-11.2,19.1-13.9,29.6c-1.6,5.4-1.7,11.1-0.4,16.6c1.3,4.8,4,9,7.7,12.3
		c1.9,1.7,4,3,6.3,4c0.8,0.3,1.2,0,0.7-0.8c-0.6-1-1.6-1.8-2.7-2.3c-8.5-3.4-9.8-14.5-8.7-22.3c0.9-5.3,2.5-10.5,4.7-15.4
		c5.7-13.5,14-25.7,24.5-35.8c3.4-3.3,7.2-6.9,12-7.9c1.6-0.3,3.9-0.4,5.1,0.5c0.9,1,1.4,2.2,1.4,3.6c0.1,4.6-5.3,5.6-8.8,4.3
		s-5.3-4.2-6.6-7.5c-3.3-8.6-0.3-17.8,4.9-25c10-13.9,26.3-23,42.7-26.8s34.1-2.6,49.6,4.2c1.8,0.8,3.6,1.7,5.4,2.7
		c0.5,0.3,1.6,0.8,1.3-0.2S225.5,103.1,224.6,102.6L224.6,102.6z"></path></g></svg>