<svg width="210" height="96" viewBox="0 0 210 96" fill="none" xmlns="http://www.w3.org/2000/svg">
<path d="M140.561 34.2299C140.939 34.3778 141.282 34.5627 141.639 34.766C142.012 34.9616 142.371 35.1197 142.76 35.2692C142.936 35.3372 142.936 35.3372 143.116 35.4065C143.35 35.4954 143.584 35.5823 143.819 35.667C143.929 35.7092 144.038 35.7515 144.151 35.7949C144.297 35.8486 144.297 35.8486 144.446 35.9034C144.997 36.2423 145.472 36.6667 145.708 37.333C145.782 37.6792 145.833 38.0214 145.877 38.3737C145.896 38.5021 145.915 38.6304 145.935 38.7627C145.996 39.1767 146.052 39.5914 146.108 40.0062C146.17 40.4366 146.234 40.8667 146.297 41.2968C146.336 41.5674 146.375 41.8382 146.413 42.1092C146.56 43.1536 146.744 44.1871 146.937 45.2219C147.224 46.7579 147.443 48.3091 147.674 49.8564C147.854 51.0578 148.057 52.2418 148.323 53.4245C148.401 53.8344 148.401 53.8344 148.401 54.4568C153.575 54.4568 158.75 54.4568 164.081 54.4568C164.127 54.046 164.173 53.6353 164.221 53.2121C164.275 52.9316 164.336 52.6524 164.404 52.3758C164.436 52.2462 164.467 52.1166 164.499 51.9831C164.621 51.5683 164.759 51.1748 164.909 50.7718C165.206 49.9567 165.423 49.1303 165.629 48.2818C165.857 47.3471 166.115 46.4785 166.461 45.5881C166.621 45.0504 166.764 44.5078 166.907 43.9641C166.945 43.8206 166.983 43.6771 167.023 43.5292C167.116 43.1784 167.208 42.8274 167.301 42.4763C166.7 42.4763 166.1 42.4763 165.481 42.4763C165.481 41.9115 165.481 41.3467 165.481 40.7648C165.877 40.6068 166.273 40.4516 166.671 40.298C166.782 40.2535 166.892 40.2089 167.006 40.163C167.87 39.8328 168.626 39.6638 169.523 39.9673C169.821 40.1424 169.821 40.1424 170.101 40.4536C170.264 41.7162 169.974 42.8765 169.637 44.0711C169.594 44.2323 169.551 44.3936 169.506 44.5597C169.331 45.203 169.15 45.8249 168.909 46.442C168.611 47.2229 168.417 48.0302 168.211 48.8458C167.971 49.7889 167.732 50.7207 167.411 51.6339C167.273 52.0523 167.154 52.4757 167.034 52.9015C166.988 53.0681 166.941 53.2346 166.893 53.4063C166.797 53.7504 166.702 54.0949 166.608 54.4395C165.965 56.7211 165.965 56.7211 165.344 57.1273C164.718 57.32 164.113 57.298 163.466 57.2928C163.32 57.2928 163.174 57.2929 163.023 57.2929C162.541 57.2927 162.058 57.2903 161.575 57.2878C161.241 57.2873 160.906 57.2868 160.571 57.2865C159.69 57.2853 158.809 57.2823 157.928 57.2788C157.029 57.2756 156.13 57.2742 155.231 57.2727C153.468 57.2693 151.704 57.2641 149.941 57.2575C149.542 57.9817 149.282 58.6113 149.101 59.4357C149.182 59.4353 149.262 59.4349 149.346 59.4344C151.315 59.4241 153.284 59.4164 155.252 59.4116C156.205 59.4091 157.157 59.4059 158.109 59.4005C159.027 59.3954 159.946 59.3927 160.865 59.3915C161.215 59.3906 161.566 59.3889 161.917 59.3864C162.408 59.383 162.898 59.3825 163.389 59.3827C163.534 59.3811 163.68 59.3794 163.83 59.3777C164.614 59.3814 165.177 59.4091 165.761 60.0581C165.826 61.182 165.826 61.182 165.603 61.5946C165.252 61.8287 164.893 61.9549 164.501 62.0808C164.57 62.2316 164.639 62.3824 164.711 62.5378C165.008 63.3226 165.068 64.0895 164.819 64.9033C164.451 65.7755 163.968 66.5212 163.241 67.0597C162.718 67.1397 162.193 67.1317 161.666 67.1375C161.522 67.1439 161.379 67.1504 161.231 67.157C160.515 67.1652 160.015 67.1476 159.449 66.6282C158.705 65.7822 158.45 64.9315 158.428 63.7534C158.436 63.0677 158.52 62.749 158.761 62.0808C156.959 62.0294 155.157 61.9781 153.301 61.9252C153.486 62.336 153.67 62.7467 153.861 63.1699C154.022 64.4031 153.681 65.2845 153.021 66.2818C152.513 66.9101 152.194 67.1054 151.434 67.174C151.152 67.1789 150.87 67.1796 150.588 67.1764C150.448 67.182 150.307 67.1877 150.163 67.1934C149.222 67.1934 148.727 66.9889 148.056 66.2522C147.358 65.3388 147.375 64.4985 147.379 63.3389C147.42 62.862 147.519 62.5128 147.701 62.0808C147.621 62.0395 147.542 61.9982 147.461 61.9556C147.358 61.9006 147.255 61.8457 147.149 61.7891C147.047 61.7349 146.945 61.6808 146.839 61.625C146.581 61.4584 146.581 61.4584 146.441 61.1472C146.472 60.0819 146.727 59.269 147.119 58.2998C147.254 57.9494 147.351 57.6291 147.421 57.2575C147.191 57.1708 147.191 57.1708 146.957 57.0824C146.573 56.9374 146.449 56.8046 146.216 56.4278C145.934 55.6042 145.846 54.7729 145.741 53.9025C145.615 52.8887 145.485 51.8865 145.269 50.891C145.069 49.9656 144.911 49.0359 144.76 48.0994C144.735 47.9495 144.711 47.7996 144.686 47.6452C144.586 47.0197 144.486 46.3942 144.387 45.7686C144.313 45.3072 144.239 44.8459 144.165 44.3847C144.142 44.2421 144.12 44.0995 144.097 43.9526C144.065 43.7568 144.065 43.7568 144.033 43.557C144.005 43.3843 144.005 43.3843 143.977 43.208C143.942 42.9394 143.942 42.9394 143.781 42.7874C143.686 42.2665 143.628 41.7383 143.562 41.2121C143.543 41.0661 143.523 40.9201 143.503 40.7696C143.402 39.9815 143.338 39.2268 143.361 38.4309C143.263 38.4121 143.165 38.3933 143.064 38.3739C142.291 38.1848 141.561 37.8385 140.823 37.5265C140.656 37.4582 140.489 37.3899 140.317 37.3196C140.158 37.2521 139.998 37.1846 139.833 37.115C139.688 37.0541 139.542 36.9932 139.391 36.9304C138.993 36.7037 138.825 36.5223 138.601 36.097C138.545 35.7463 138.545 35.7463 138.548 35.3871C138.547 35.2682 138.546 35.1492 138.545 35.0267C138.733 33.9163 139.768 34.1095 140.561 34.2299Z" fill="#00C3D0"/>
<path d="M153.686 25.2659C154.163 25.2192 154.516 25.2199 154.98 25.3619C155.554 25.9146 155.956 26.5267 156.38 27.229C156.503 27.4035 156.503 27.4035 156.628 27.5815C156.8 27.8514 156.8 27.8514 156.8 28.1626C156.892 28.1626 156.984 28.1626 157.08 28.1626C157.132 28.0284 157.132 28.0284 157.186 27.8915C157.384 27.4919 157.611 27.2193 157.902 26.8984C157.997 26.7921 158.092 26.6858 158.19 26.5763C158.546 26.2309 158.84 25.9923 159.322 25.973C160.126 26.0892 160.878 26.2977 161.651 26.5647C161.777 26.6072 161.903 26.6496 162.032 26.6934C162.298 26.7832 162.563 26.8736 162.828 26.9645C163.225 27.1006 163.622 27.235 164.02 27.3691C165.635 27.9164 167.24 28.493 168.84 29.0961C168.888 29.6597 168.898 29.9393 168.595 30.407C168.428 30.5855 168.428 30.5855 168.258 30.7675C168.138 30.8979 168.018 31.0283 167.894 31.1626C167.767 31.2958 167.64 31.4289 167.51 31.5661C167.383 31.7029 167.256 31.8397 167.125 31.9806C166.812 32.3179 166.497 32.6528 166.18 32.9859C166.348 33.2759 166.516 33.5657 166.685 33.8555C166.827 34.0995 166.968 34.3436 167.109 34.5878C167.537 35.3252 167.975 36.0511 168.444 36.7572C168.56 37.0313 168.56 37.0313 168.532 37.3411C168.42 37.6537 168.42 37.6537 168.182 37.8198C168.074 37.8625 167.967 37.9051 167.856 37.949C167.729 38.0005 167.602 38.052 167.47 38.1051C167.322 38.1615 167.173 38.2179 167.02 38.276C166.85 38.3417 166.68 38.4073 166.504 38.4749C165.902 38.7054 165.297 38.9288 164.692 39.1512C164.583 39.1913 164.474 39.2314 164.362 39.2727C163.681 39.5231 162.999 39.7719 162.318 40.0199C161.986 40.1408 161.655 40.2623 161.323 40.384C160.808 40.5728 160.293 40.759 159.777 40.9432C159.584 41.0122 159.392 41.0819 159.201 41.1524C158.934 41.2503 158.666 41.345 158.398 41.4395C158.248 41.4936 158.097 41.5477 157.942 41.6035C157.423 41.7156 157.034 41.6736 156.52 41.5434C156.213 41.214 156.213 41.214 155.96 40.7849C155.866 40.6303 155.773 40.4757 155.676 40.3163C155.585 40.1565 155.494 39.9966 155.4 39.8319C155.314 39.6833 155.229 39.5347 155.14 39.3816C154.984 39.1078 154.829 38.8328 154.677 38.5562C154.592 38.4124 154.507 38.2686 154.42 38.1204C154.366 38.0182 154.313 37.9159 154.258 37.8105C153.88 37.1436 153.88 37.1436 153.282 36.7633C152.929 36.7246 152.591 36.7235 152.236 36.7365C152.108 36.7359 151.981 36.7354 151.849 36.7347C151.443 36.7338 151.037 36.7411 150.631 36.7493C150.224 36.7534 149.818 36.7557 149.411 36.7555C149.159 36.7558 148.906 36.7588 148.654 36.7648C147.981 36.7703 147.548 36.7365 147 36.2533C146.69 35.9112 146.69 35.9112 146.387 35.524C146.277 35.3842 146.167 35.2444 146.054 35.1004C145.95 34.9674 145.846 34.8344 145.74 34.6974C145.623 34.5533 145.623 34.5533 145.504 34.4063C144.829 33.5676 144.197 32.689 143.562 31.8125C143.485 31.7075 143.409 31.6026 143.331 31.4944C143.262 31.3997 143.194 31.3049 143.123 31.2073C142.931 30.9444 142.931 30.9444 142.66 30.652C142.642 30.2436 142.642 30.2436 142.66 29.8741C144.069 29.8572 145.456 29.8777 146.86 30.0297C146.769 29.7568 146.769 29.7568 146.676 29.4784C146.597 29.2376 146.518 28.9967 146.44 28.7558C146.38 28.5763 146.38 28.5763 146.318 28.3932C146.119 27.7801 145.962 27.2692 146.02 26.6067C146.59 26.3165 147.113 26.2182 147.735 26.1399C147.832 26.1272 147.929 26.1146 148.029 26.1016C148.339 26.0615 148.649 26.0228 148.96 25.9843C149.365 25.933 149.77 25.881 150.176 25.8287C150.324 25.8096 150.324 25.8096 150.476 25.7902C151.551 25.6498 152.618 25.4606 153.686 25.2659ZM154.128 29.445C153.957 29.465 153.786 29.485 153.61 29.5055C153.252 29.5478 152.893 29.5904 152.535 29.6335C151.986 29.6992 151.437 29.7627 150.887 29.8261C150.538 29.8675 150.189 29.909 149.84 29.9507C149.676 29.9695 149.512 29.9883 149.342 30.0077C149.19 30.0263 149.038 30.045 148.881 30.0642C148.747 30.0801 148.613 30.096 148.475 30.1124C148.123 30.1846 147.869 30.2996 147.56 30.4964C148.438 31.3886 149.319 32.2773 150.22 33.1415C150.29 33.2093 150.361 33.2771 150.433 33.3469C150.512 33.4219 150.59 33.497 150.67 33.5742C150.752 33.6527 150.834 33.7311 150.918 33.812C151.088 33.9744 151.259 34.1358 151.431 34.2962C151.831 34.6696 152.217 35.0433 152.579 35.462C152.953 35.8677 153.253 36.1497 153.72 36.4089C154.168 36.3635 154.168 36.3635 154.626 36.1725C154.799 36.1105 154.971 36.0485 155.149 35.9846C155.324 35.9193 155.499 35.8539 155.68 35.7866C155.998 35.6794 156.318 35.5734 156.637 35.4687C156.968 35.3576 157.3 35.2464 157.631 35.135C158.789 34.7457 159.948 34.3621 161.112 33.9948C161.314 33.931 161.515 33.8673 161.716 33.8035C162.103 33.681 162.49 33.5602 162.877 33.4401C163.138 33.3576 163.138 33.3576 163.404 33.2734C163.636 33.2012 163.636 33.2012 163.872 33.1276C164.241 33.0273 164.241 33.0273 164.36 32.6747C164.242 32.62 164.125 32.5652 164.005 32.5088C163.132 32.0976 162.268 31.6765 161.411 31.2258C161.041 31.0334 160.67 30.8426 160.3 30.652C160.123 30.5605 160.123 30.5605 159.943 30.4671C159.558 30.2695 159.172 30.0763 158.786 29.8838C158.666 29.8213 158.545 29.7587 158.421 29.6943C158.245 29.6079 158.245 29.6079 158.066 29.5197C157.912 29.4421 157.912 29.4421 157.755 29.363C156.589 29.035 155.305 29.3041 154.128 29.445Z" fill="#00C3D0"/>
<path d="M147.561 37.3422C148.392 37.2842 149.223 37.2421 150.056 37.214C150.338 37.2024 150.621 37.1865 150.903 37.1662C153.177 37.0068 153.177 37.0068 153.84 37.558C154.289 38.1034 154.586 38.7245 154.862 39.3927C155.012 39.7506 155.198 40.0742 155.393 40.4036C155.495 40.5919 155.597 40.7805 155.698 40.9695C155.752 41.0676 155.806 41.1658 155.861 41.267C156.241 41.9712 156.241 41.9712 156.241 42.3212C157.063 42.3737 157.702 42.1942 158.477 41.9006C158.655 41.8355 158.655 41.8355 158.837 41.769C159.214 41.6304 159.591 41.4897 159.968 41.3487C160.218 41.2564 160.468 41.1642 160.718 41.0722C161.083 40.9378 161.448 40.8035 161.812 40.6688C164.503 39.6761 164.503 39.6761 165.061 39.6761C165.017 40.224 164.973 40.7718 164.929 41.3196C164.917 41.4737 164.905 41.6278 164.893 41.7866C164.868 42.0881 164.843 42.3895 164.816 42.6908C164.786 43.032 164.765 43.374 164.745 43.716C164.607 44.341 164.416 44.4487 163.941 44.8106C163.554 45.0281 163.156 45.2101 162.755 45.3905C162.638 45.4436 162.522 45.4968 162.403 45.5515C161.036 46.1742 159.658 46.7669 158.279 47.3585C157.894 47.5243 157.508 47.6902 157.122 47.8565C156.885 47.9586 156.648 48.0604 156.411 48.162C156.305 48.2078 156.198 48.2535 156.089 48.3007C155.996 48.3405 155.904 48.3803 155.808 48.4213C155.534 48.5428 155.534 48.5428 155.256 48.7106C154.806 48.9482 154.491 48.9342 154.001 48.856C153.666 48.5806 153.43 48.2394 153.178 47.8738C153.106 47.7744 153.033 47.6749 152.959 47.5724C152.743 47.2763 152.532 46.9772 152.321 46.6777C152.111 46.392 151.901 46.1067 151.691 45.822C151.591 45.6858 151.492 45.5496 151.389 45.4093C151.003 44.889 150.608 44.378 150.212 43.8674C149.543 43.0048 148.895 42.127 148.261 41.232C148.161 41.0958 148.061 40.9597 147.959 40.8194C147.618 40.3369 147.543 40.1003 147.547 39.4999C147.547 39.3745 147.548 39.2492 147.548 39.12C147.55 38.989 147.551 38.8581 147.552 38.7231C147.553 38.5909 147.553 38.4588 147.554 38.3226C147.555 37.9958 147.558 37.669 147.561 37.3422Z" fill="#00C3D0"/>
<path d="M124.268 38.062C126.052 39.903 127.214 42.5661 127.307 45.2727C127.362 49.6728 126.34 53.0764 123.76 56.4801C123.673 56.5987 123.585 56.7172 123.495 56.8393C120.59 60.6405 115.752 63.2904 111.3 63.7929C110.691 63.818 110.082 63.8217 109.472 63.8221C109.309 63.824 109.147 63.8259 108.98 63.8279C108.745 63.8283 108.745 63.8283 108.504 63.8288C108.362 63.8294 108.22 63.8301 108.074 63.8307C107.62 63.7893 107.245 63.6593 106.82 63.4818C106.836 62.8626 106.854 62.2435 106.873 61.6244C106.877 61.4566 106.881 61.2888 106.886 61.116C106.919 60.0484 106.98 58.9899 107.064 57.9259C107.232 55.7842 107.29 53.6602 107.284 51.5109C107.284 51.3405 107.284 51.1701 107.284 50.9945C107.279 47.8219 107.136 44.6886 106.744 41.5437C106.731 41.4399 106.718 41.3362 106.705 41.2294C106.668 40.9421 106.631 40.6551 106.594 40.3681C106.539 39.8217 106.531 39.2919 106.54 38.7427C107.59 38.4273 108.654 38.2208 109.725 38.0134C109.911 37.976 110.097 37.9386 110.283 37.9012C110.459 37.867 110.635 37.8328 110.817 37.7976C110.977 37.7662 111.137 37.7348 111.302 37.7024C111.72 37.6536 111.72 37.6536 112.28 37.8092C112.373 38.3226 112.465 38.8361 112.56 39.3651C112.742 39.1725 112.742 39.1725 112.928 38.9761C116.095 35.9689 120.845 35.0979 124.268 38.062ZM114.66 46.5223C114.565 46.6676 114.565 46.6676 114.467 46.8159C113.118 48.9303 112.903 50.6937 112.954 53.2419C112.955 53.5732 112.955 53.9046 112.955 54.2359C112.955 55.0362 112.965 55.8357 112.98 56.6357C115.768 56.0451 118.523 53.7307 120.139 51.1748C121.149 49.4293 121.74 47.5323 121.52 45.4331C121.325 44.4435 121.029 43.5569 120.277 42.9382C117.941 41.7554 115.846 44.7041 114.66 46.5223Z" fill="#3563E9"/>
<path d="M30.0304 36.516C30.136 36.5163 30.2415 36.5167 30.3503 36.517C33.0958 36.531 36.1634 36.8245 38.6404 38.2761C38.5513 39.0312 38.3573 39.7137 38.1193 40.424C38.0822 40.5367 38.0451 40.6493 38.0069 40.7654C37.8892 41.1223 37.7705 41.4788 37.6517 41.8353C37.5713 42.0784 37.491 42.3215 37.4108 42.5646C37.2148 43.1581 37.0179 43.7513 36.8204 44.3442C36.7142 44.3143 36.6079 44.2845 36.4985 44.2537C35.6162 44.007 34.7334 43.7671 33.8454 43.5468C33.6906 43.5074 33.6906 43.5074 33.5326 43.4672C31.2025 42.8882 28.194 42.6118 26.0054 43.8677C25.5413 44.2457 25.5413 44.2457 25.3404 44.811C25.2945 45.373 25.2991 45.7794 25.4804 46.3085C26.5668 47.7422 28.5526 48.2826 30.0931 48.8753C32.397 49.7667 34.7059 50.7177 36.4004 52.7461C36.5087 52.8704 36.5087 52.8704 36.6192 52.9972C37.8845 54.5499 37.8919 56.3051 37.8249 58.2883C37.7338 59.6667 37.1207 60.8016 36.2604 61.7705C33.7116 64.2055 30.2288 64.4644 27.0204 64.2599C23.8922 63.9034 23.8922 63.9034 22.5404 63.3264C22.7313 61.9516 22.981 60.5984 23.2579 59.2421C23.2967 59.0501 23.3356 58.8582 23.3755 58.6604C23.4701 58.193 23.5651 57.7256 23.6604 57.2583C24.1134 57.1391 24.4647 57.0875 24.9221 57.1841C25.0793 57.2154 25.0793 57.2154 25.2397 57.2472C25.3509 57.2701 25.4621 57.293 25.5767 57.3166C28.7223 57.9516 28.7223 57.9516 31.7804 57.2583C31.7804 57.1556 31.7804 57.0529 31.7804 56.9471C30.5622 56.2178 29.3422 55.5987 28.0354 55.0897C23.8928 53.4676 23.8928 53.4676 22.2604 51.9682C22.098 51.8277 22.098 51.8277 21.9323 51.6844C20.6284 50.4936 19.6959 48.8679 19.4604 46.9893C19.2514 44.2499 19.476 42.0382 21.0683 39.8588C23.3076 37.1236 26.8817 36.4981 30.0304 36.516Z" fill="#3563E9"/>
<path d="M186.361 46.6261C187.549 47.8128 188.336 49.6681 188.47 51.4332C188.608 54.9904 187.886 57.7867 185.691 60.4592C183.665 62.8135 181.038 64.4681 178.22 65.3488C178.035 65.3488 177.85 65.3488 177.66 65.3488C177.662 65.5008 177.663 65.6528 177.665 65.8095C177.683 68.4061 177.596 71.0003 177.52 73.5951C175.554 73.6155 173.602 73.5673 171.64 73.4395C171.632 71.721 171.649 70.0067 171.7 68.2892C171.729 67.2744 171.75 66.2594 171.772 65.2444C171.779 64.9079 171.787 64.5714 171.796 64.2349C171.876 60.5301 171.671 56.8473 171.439 53.1533C171.307 51.0535 171.195 48.9599 171.194 46.854C171.194 46.6828 171.193 46.5115 171.193 46.3351C171.201 45.164 171.201 45.164 171.36 44.8107C171.735 44.7377 172.098 44.6852 172.476 44.6442C172.59 44.6307 172.705 44.6173 172.823 44.6035C173.199 44.5604 173.574 44.5199 173.95 44.4801C174.141 44.4593 174.141 44.4593 174.336 44.4382C178.475 43.9947 182.871 43.6155 186.361 46.6261ZM178.062 50.6454C177.788 50.6713 177.514 50.6972 177.24 50.7232C177.221 52.1983 177.278 53.6571 177.371 55.1284C177.383 55.3314 177.396 55.5345 177.408 55.7437C177.468 56.72 177.537 57.6892 177.66 58.6583C179.692 57.6581 181.647 56.3325 182.612 53.9906C182.77 53.1487 182.822 52.545 182.464 51.7637C181.841 50.9593 181.219 50.7954 180.294 50.694C180.192 50.6813 180.091 50.6685 179.987 50.6554C179.322 50.5737 178.727 50.5825 178.062 50.6454Z" fill="#3563E9"/>
<path d="M61.3196 44.4987C61.6246 46.1062 61.8408 47.7232 62.0371 49.3512C62.061 49.5468 62.0849 49.7425 62.1094 49.9441C63.1891 59.0601 63.1891 59.0601 61.0046 62.3431C59.8445 63.8913 58.2675 65.1631 56.4106 65.382C54.2893 65.5091 52.7508 65.0291 51.0832 63.5246C50.9962 63.4588 50.9092 63.393 50.8196 63.3252C50.4889 63.4065 50.4889 63.4065 50.1196 63.6364C48.2351 64.6448 46.1818 64.9756 44.1527 64.243C44.0428 64.1968 43.9329 64.1507 43.8196 64.1032C43.6743 64.0436 43.6743 64.0436 43.5259 63.9828C41.9171 63.2079 40.8598 61.6454 40.1796 59.9022C39.7015 58.4823 39.4594 57.0541 39.4512 55.5414C39.4502 55.421 39.4493 55.3005 39.4483 55.1765C39.4459 54.7841 39.445 54.3918 39.4446 53.9995C39.4443 53.8657 39.4441 53.732 39.4438 53.5942C39.4406 47.4293 39.4406 47.4293 40.0396 45.4322C40.7446 45.4952 41.4496 45.5589 42.1545 45.6231C42.3941 45.6448 42.6338 45.6664 42.8735 45.6878C43.2186 45.7187 43.5637 45.7501 43.9088 45.7817C44.0687 45.7958 44.0687 45.7958 44.2319 45.8102C44.7565 45.8587 45.2661 45.9239 45.7796 46.0546C45.7248 47.1595 45.6673 48.2627 45.568 49.3639C45.4211 51.0039 45.3278 52.6328 45.3159 54.2815C45.3134 54.4487 45.311 54.616 45.3085 54.7883C45.3091 55.8691 45.3339 57.073 46.0596 57.8795C46.5834 57.9442 46.9086 57.9766 47.3546 57.6461C48.5217 55.7932 48.1768 53.1835 48.1596 51.0335C49.3722 50.8511 50.5869 50.8259 51.8084 50.7904C52.0252 50.7837 52.242 50.7769 52.4589 50.77C52.9858 50.7535 53.5127 50.7377 54.0396 50.7223C54.0438 50.9339 54.0438 50.9339 54.048 51.1497C54.0591 51.6822 54.0712 52.2146 54.0841 52.747C54.0894 52.9757 54.0942 53.2044 54.0987 53.4332C54.0507 56.335 54.0507 56.335 55.1596 58.8131C55.5037 58.8909 55.5037 58.8909 55.8596 58.8131C56.665 57.8584 56.5838 56.3321 56.5639 55.0948C56.4867 52.691 56.1435 50.3113 55.8369 47.9334C55.7308 47.1009 55.6462 46.2696 55.5796 45.4322C56.2394 45.298 56.8993 45.1651 57.5595 45.0333C57.7837 44.9884 58.0079 44.9431 58.232 44.8975C58.5554 44.8317 58.879 44.7672 59.2027 44.7029C59.3017 44.6824 59.4008 44.662 59.5029 44.641C60.1212 44.5196 60.6951 44.4796 61.3196 44.4987Z" fill="#3563E9"/>
<path d="M87.0091 38.5905C88.3345 39.7533 89.1509 41.253 89.4596 43.099C89.4984 43.5216 89.5064 43.9386 89.5034 44.3632C89.5023 44.5349 89.5023 44.5349 89.5013 44.7101C89.4429 47.792 88.2186 50.9488 86.5196 53.3681C85.5241 52.6843 84.554 51.9632 83.5884 51.2287C83.4724 51.1405 83.3563 51.0523 83.2368 50.9615C82.7372 50.5803 82.2426 50.1964 81.7596 49.7895C82.019 49.0058 82.3841 48.291 82.7505 47.565C83.2098 46.6318 83.456 45.7312 83.5271 44.6647C83.5376 44.5156 83.548 44.3666 83.5588 44.2131C83.5691 44.0467 83.5691 44.0467 83.5796 43.877C82.647 43.7964 82.647 43.7964 81.7771 44.1104C80.2295 46.1339 80.1941 49.3092 79.9396 51.8122C81.8107 51.8892 81.8107 51.8892 83.7196 51.9678C83.7196 54.0729 83.7196 56.1781 83.7196 58.347C82.6108 58.347 81.502 58.347 80.3596 58.347C80.4202 58.776 80.4809 59.205 80.5434 59.647C80.6019 60.0636 80.6602 60.4802 80.7185 60.8968C80.759 61.1859 80.7998 61.4749 80.8407 61.7638C80.8996 62.1797 80.9578 62.5957 81.0159 63.0117C81.0342 63.1404 81.0526 63.2691 81.0715 63.4018C81.1551 64.0048 81.223 64.5806 81.1996 65.193C80.4497 65.3487 79.6998 65.5038 78.9497 65.6584C78.6945 65.711 78.4394 65.7639 78.1842 65.8168C77.8177 65.8929 77.451 65.9685 77.0844 66.0439C76.9702 66.0677 76.856 66.0916 76.7383 66.1161C76.3062 66.2046 75.9001 66.2822 75.4596 66.2822C75.3646 65.6602 75.27 65.0382 75.1759 64.4161C75.144 64.2056 75.112 63.9952 75.0798 63.7848C74.4796 59.8571 74.4796 59.8571 74.4796 58.0358C73.6942 58.0358 72.9088 58.0358 72.0996 58.0358C72.0996 55.8793 72.0996 53.7228 72.0996 51.501C72.7464 51.501 73.3932 51.501 74.0596 51.501C74.0733 51.2769 74.087 51.0529 74.1012 50.8221C74.3413 47.1964 74.8094 43.2739 76.8596 40.2984C76.9442 40.1744 77.0289 40.0505 77.1161 39.9228C79.546 36.6338 83.9193 36.2413 87.0091 38.5905Z" fill="#3563E9"/>
<path d="M93.94 39.209C95.8342 39.209 97.7284 39.209 99.68 39.209C99.68 40.8007 99.68 42.3924 99.68 44.0323C100.608 44.0323 101.465 44.0058 102.375 43.8767C102.589 43.8471 102.802 43.8179 103.016 43.7892C103.108 43.7762 103.2 43.7631 103.296 43.7497C103.678 43.7138 104.057 43.7169 104.44 43.7211C104.54 44.5295 104.64 45.338 104.739 46.1466C104.773 46.4215 104.807 46.6965 104.841 46.9715C104.89 47.3669 104.938 47.7624 104.987 48.1579C105.002 48.2806 105.017 48.4034 105.033 48.5298C105.098 49.0606 105.14 49.5636 105.14 50.1004C104.084 50.2984 103.028 50.4576 101.964 50.5866C101.856 50.6002 101.748 50.6138 101.637 50.6279C101.062 50.6952 100.497 50.7295 99.9191 50.7263C99.7951 50.7258 99.671 50.7253 99.5432 50.7248C99.4498 50.7241 99.3563 50.7234 99.26 50.7228C99.2658 51.8744 99.276 53.026 99.2891 54.1776C99.293 54.5691 99.296 54.9605 99.2979 55.352C99.3009 55.916 99.3075 56.4798 99.3147 57.0437C99.3149 57.2176 99.315 57.3916 99.3152 57.5708C99.3328 58.6205 99.4425 59.3255 99.96 60.2138C100.469 60.5399 100.969 60.6923 101.533 60.8472C101.707 60.8949 101.881 60.9426 102.06 60.9918C101.687 63.1325 101.306 65.2635 100.8 67.3711C98.183 66.7629 95.96 65.6954 94.4256 63.1215C93.8209 61.8917 93.5014 60.5243 93.5041 59.1272C93.5041 58.9435 93.5041 58.7598 93.5041 58.5705C93.5049 58.3737 93.5056 58.1769 93.5063 57.9742C93.5065 57.7715 93.5067 57.5689 93.5069 57.3601C93.5075 56.8232 93.5088 56.2863 93.5104 55.7494C93.5118 55.2008 93.5125 54.6522 93.5132 54.1035C93.5147 53.0285 93.5171 51.9534 93.52 50.8784C92.6884 50.8784 91.8568 50.8784 91 50.8784C91 48.7732 91 46.668 91 44.4991C91.924 44.4991 92.848 44.4991 93.8 44.4991C93.7957 44.0129 93.7957 44.0129 93.7913 43.5169C93.8006 42.0799 93.872 40.644 93.94 39.209Z" fill="#3563E9"/>
<path d="M134.821 43.2549C134.89 43.948 134.89 43.948 134.961 44.6552C135.054 44.6121 135.147 44.569 135.242 44.5245C135.366 44.4682 135.49 44.4118 135.617 44.3537C135.8 44.2698 135.8 44.2698 135.986 44.1842C138.186 43.2954 140.937 43.8033 143.081 44.6552C143.219 44.7579 143.358 44.8606 143.501 44.9664C143.281 46.295 142.858 47.5281 142.433 48.7881C142.36 49.0066 142.287 49.2251 142.214 49.4436C142.037 49.9742 141.859 50.5045 141.681 51.0345C141.212 50.9343 140.776 50.8073 140.324 50.6358C139.434 50.3363 138.618 50.2533 137.726 50.5774C136.548 51.4993 136 52.8684 135.724 54.4229C135.658 54.9448 135.638 55.446 135.632 55.9729C135.631 56.0732 135.629 56.1735 135.628 56.2768C135.623 56.6051 135.62 56.9334 135.616 57.2618C135.614 57.4907 135.611 57.7196 135.608 57.9485C135.6 58.5485 135.593 59.1486 135.586 59.7487C135.578 60.47 135.569 61.1912 135.56 61.9125C135.546 63.0061 135.533 64.0997 135.521 65.1933C133.626 65.1933 131.732 65.1933 129.781 65.1933C129.762 63.9579 129.744 62.7225 129.726 61.487C129.718 60.9113 129.709 60.3356 129.701 59.7599C129.692 59.2044 129.684 58.649 129.676 58.0935C129.673 57.8727 129.67 57.6518 129.666 57.4309C129.649 56.2114 129.639 54.993 129.65 53.7733C129.665 51.9128 129.54 50.0923 129.361 48.2435C129.32 47.8143 129.28 47.385 129.241 46.9557C129.217 46.6929 129.192 46.4302 129.166 46.1676C129.094 45.3994 129.07 44.6496 129.081 43.8772C130.429 43.6904 131.778 43.5272 133.132 43.391C133.267 43.3774 133.402 43.3638 133.541 43.3498C134.501 43.2549 134.501 43.2549 134.821 43.2549Z" fill="#3563E9"/>
<path d="M64.6791 44.6553C66.5733 44.6553 68.4675 44.6553 70.4191 44.6553C70.4422 51.1548 70.32 57.6142 69.9991 64.1042C68.0587 64.1042 66.1183 64.1042 64.1191 64.1042C64.1394 63.2089 64.1596 62.3136 64.1804 61.3911C64.1864 61.1114 64.1925 60.8317 64.1987 60.5436C64.204 60.3174 64.2094 60.0912 64.2148 59.865C64.2183 59.6943 64.2183 59.6943 64.2218 59.5202C64.2395 58.8118 64.2941 58.1174 64.3692 57.4138C64.404 57.0525 64.4108 56.7 64.403 56.3368C64.4011 56.194 64.3992 56.0511 64.3972 55.9039C64.395 55.7475 64.3927 55.5911 64.3904 55.43C64.372 53.1231 64.4577 50.8206 64.5391 48.5159C64.5459 48.326 64.5526 48.1361 64.5595 47.9404C64.5984 46.8453 64.6386 45.7503 64.6791 44.6553Z" fill="#3563E9"/>
<path d="M69.4374 36.1891C70.053 36.6687 70.4633 37.3339 70.699 38.12C70.7196 38.4988 70.73 38.8784 70.734 39.2578C70.7377 39.4594 70.7413 39.6609 70.745 39.8686C70.6839 40.647 70.486 41.1403 70.0078 41.7114C69.9125 41.8003 69.8172 41.8891 69.719 41.9807C69.6238 42.0715 69.5285 42.1624 69.4303 42.256C68.6581 42.884 67.5508 42.7072 66.639 42.6322C65.8018 42.3866 65.2977 41.8585 64.819 41.0763C64.383 40.0841 64.3942 38.8197 64.679 37.77C65.0249 36.8847 65.7162 36.3034 66.4728 35.8737C67.5146 35.6694 68.4755 35.6536 69.4374 36.1891Z" fill="#3563E9"/>
</svg>
