<svg transform="scale(1)" xmlns="http://www.w3.org/2000/svg" viewBox="0 0 100 100" id="BkuSe3rnEh" class="pbimage_pbimage__wrapper__image__0LEis false"><title>Time Management 1</title><defs><style> .cls-1{fill:#3fe2fd;} .cls-2{fill:none;} .cls-3{fill:#251ac7;}
 .cls-3{fill:#3563E9;}
 .cls-1{fill:#00C3D0;}</style></defs><g id="_0194_Time_Management" data-name="0194_Time_Management"><g id="Layer_2" data-name="Layer 2"><path class="cls-1" d="M38.55,68.85s-12-14.63-4.25-27.41C37,37,41.67,33.07,45.69,31.8a28.1,28.1,0,0,1,15.15,0s-12-8.85-24.7,2.51S30.8,64.86,38.55,68.85Z"></path></g><g id="Layer_1" data-name="Layer 1"><path class="cls-2" d="M50,70.56A20.56,20.56,0,1,0,29.45,50h0A20.59,20.59,0,0,0,50,70.56ZM40.39,54.75l9.31-5.69V37.82a1.55,1.55,0,1,1,3.1,0V49.93a1.54,1.54,0,0,1-.74,1.33L42,57.41a1.55,1.55,0,0,1-1.62-2.64Z"></path><path class="cls-3" d="M50,73.66A23.66,23.66,0,1,0,26.34,50h0A23.69,23.69,0,0,0,50,73.66Zm0-44.22A20.56,20.56,0,1,1,29.45,50,20.57,20.57,0,0,1,50,29.44Z"></path><path class="cls-3" d="M16.17,70.35A1.56,1.56,0,0,0,17.52,68h0A37.15,37.15,0,0,1,75.39,22.88l1.38,1.62L72.63,24a1.55,1.55,0,0,0-.41,3.08h.07l8,.88h.17A1.55,1.55,0,0,0,82,26.5l.19-8.74a1.55,1.55,0,1,0-3.1-.06L79,22.33l-1.32-1.55-.12-.12a40.28,40.28,0,0,0-62.8,48.9A1.57,1.57,0,0,0,16.17,70.35Z"></path><path class="cls-3" d="M90.26,50a39.84,39.84,0,0,0-3.7-16.88,1.55,1.55,0,0,0-2.85,1.23l0,.08A37.17,37.17,0,0,1,24.35,76.9l4.58,0a1.55,1.55,0,1,0,0-3.1h0l-7.53,0a1.55,1.55,0,0,0-2.07,2.27l.05.06.77,8.06a1.55,1.55,0,0,0,1.55,1.41h.15a1.57,1.57,0,0,0,1.4-1.7l-.43-4.21A40.26,40.26,0,0,0,90.26,50Z"></path><path class="cls-3" d="M41.2,57.63a1.52,1.52,0,0,0,.81-.22l10.07-6.16a1.56,1.56,0,0,0,.74-1.33V37.82a1.55,1.55,0,0,0-3.1,0V49.06l-9.31,5.7a1.55,1.55,0,0,0,.81,2.88Z"></path></g></g></svg>